<svg version="1.1" xmlns="http://www.w3.org/2000/svg" viewBox="0 0 2149.4125174448236 1002.030252539317" width="4298.825034889647" height="2004.060505078634">
  <!-- svg-source:excalidraw -->
  
  <defs>
    <style class="style-fonts">
      @font-face {
        font-family: "Virgil";
        src: url("https://excalidraw.com/Virgil.woff2");
      }
      @font-face {
        font-family: "Cascadia";
        src: url("https://excalidraw.com/Cascadia.woff2");
      }
      @font-face {
        font-family: "Assistant";
        src: url("https://excalidraw.com/Assistant-Regular.woff2");
      }
    </style>
    
  </defs>
  <rect x="0" y="0" width="2149.4125174448236" height="1002.030252539317" fill="#ffffff"></rect><g stroke-linecap="round" transform="translate(121.97152241141748 10) rotate(0 73 42)"><path d="M21 0 C44.37 0, 67.73 0, 125 0 C139 0, 146 7, 146 21 C146 30.42, 146 39.85, 146 63 C146 77, 139 84, 125 84 C96.8 84, 68.59 84, 21 84 C7 84, 0 77, 0 63 C0 49.1, 0 35.2, 0 21 C0 7, 7 0, 21 0" stroke="none" stroke-width="0" fill="#a5d8ff"></path><path d="M21 0 C43.17 0, 65.34 0, 125 0 M21 0 C54.33 0, 87.66 0, 125 0 M125 0 C139 0, 146 7, 146 21 M125 0 C139 0, 146 7, 146 21 M146 21 C146 37.41, 146 53.81, 146 63 M146 21 C146 35.92, 146 50.84, 146 63 M146 63 C146 77, 139 84, 125 84 M146 63 C146 77, 139 84, 125 84 M125 84 C96.53 84, 68.05 84, 21 84 M125 84 C84.43 84, 43.85 84, 21 84 M21 84 C7 84, 0 77, 0 63 M21 84 C7 84, 0 77, 0 63 M0 63 C0 48.59, 0 34.18, 0 21 M0 63 C0 52.28, 0 41.57, 0 21 M0 21 C0 7, 7 0, 21 0 M0 21 C0 7, 7 0, 21 0" stroke="#1e1e1e" stroke-width="1" fill="none"></path></g><g transform="translate(130.92855366141748 15.200000000000045) rotate(0 64.04296875 36.80000000000001)"><text x="64.04296875" y="0" font-family="Helvetica, Segoe UI Emoji" font-size="16px" fill="#1e1e1e" text-anchor="middle" style="white-space: pre;" direction="ltr" dominant-baseline="text-before-edge">Selecionar opção </text><text x="64.04296875" y="18.4" font-family="Helvetica, Segoe UI Emoji" font-size="16px" fill="#1e1e1e" text-anchor="middle" style="white-space: pre;" direction="ltr" dominant-baseline="text-before-edge">de submeter </text><text x="64.04296875" y="36.8" font-family="Helvetica, Segoe UI Emoji" font-size="16px" fill="#1e1e1e" text-anchor="middle" style="white-space: pre;" direction="ltr" dominant-baseline="text-before-edge">documento anual </text><text x="64.04296875" y="55.199999999999996" font-family="Helvetica, Segoe UI Emoji" font-size="16px" fill="#1e1e1e" text-anchor="middle" style="white-space: pre;" direction="ltr" dominant-baseline="text-before-edge">de existências</text></g><g stroke-linecap="round"><g transform="translate(92.83636398315457 17.03025253931696) rotate(0 0 487.5)"><path d="M0 0 C0 162.5, 0 812.5, 0 975 M0 0 C0 162.5, 0 812.5, 0 975" stroke="#1e1e1e" stroke-width="1" fill="none"></path></g><g transform="translate(92.83636398315457 17.03025253931696) rotate(0 0 487.5)"><path d="M-10.26 946.81 C-6.35 957.55, -2.44 968.29, 0 975 M-10.26 946.81 C-7.9 953.28, -5.55 959.76, 0 975" stroke="#1e1e1e" stroke-width="1" fill="none"></path></g><g transform="translate(92.83636398315457 17.03025253931696) rotate(0 0 487.5)"><path d="M10.26 946.81 C6.35 957.55, 2.44 968.29, 0 975 M10.26 946.81 C7.9 953.28, 5.55 959.76, 0 975" stroke="#1e1e1e" stroke-width="1" fill="none"></path></g></g><mask></mask><g transform="translate(-89.8524597167966 446.34142883936704) rotate(270 133.55245971679688 33.70000000000013)"><text x="0" y="0" font-family="Helvetica, Segoe UI Emoji" font-size="58.60869565217415px" fill="#1e1e1e" text-anchor="start" style="white-space: pre;" direction="ltr" dominant-baseline="text-before-edge">Prioridade</text></g><g transform="translate(36.83636398315457 54.03025253931696) rotate(0 20.729408264160156 13.835822703205224)"><text x="0" y="0" font-family="Helvetica, Segoe UI Emoji" font-size="24.062300353400357px" fill="#1e1e1e" text-anchor="start" style="white-space: pre;" direction="ltr" dominant-baseline="text-before-edge">Alta</text></g><g transform="translate(12.83636398315457 932.1960084727802) rotate(0 28.52918243408203 13.117122033268373)"><text x="0" y="0" font-family="Helvetica, Segoe UI Emoji" font-size="22.812386144814568px" fill="#1e1e1e" text-anchor="start" style="white-space: pre;" direction="ltr" dominant-baseline="text-before-edge">Baixa</text></g><g stroke-linecap="round"><g transform="translate(92.75426448555754 191.9066459134741) rotate(0 1022.8201719753024 -0.5205350754862366)"><path d="M0 0 C340.94 -0.17, 1704.7 -0.87, 2045.64 -1.04 M0 0 C340.94 -0.17, 1704.7 -0.87, 2045.64 -1.04" stroke="#1e1e1e" stroke-width="1" fill="none"></path></g><g transform="translate(92.75426448555754 191.9066459134741) rotate(0 1022.8201719753024 -0.5205350754862366)"><path d="M2017.45 9.23 C2026.11 6.08, 2034.76 2.93, 2045.64 -1.04 M2017.45 9.23 C2028.46 5.22, 2039.47 1.21, 2045.64 -1.04" stroke="#1e1e1e" stroke-width="1" fill="none"></path></g><g transform="translate(92.75426448555754 191.9066459134741) rotate(0 1022.8201719753024 -0.5205350754862366)"><path d="M2017.44 -11.29 C2026.1 -8.14, 2034.75 -5, 2045.64 -1.04 M2017.44 -11.29 C2028.46 -7.29, 2039.47 -3.28, 2045.64 -1.04" stroke="#1e1e1e" stroke-width="1" fill="none"></path></g></g><mask></mask><g stroke-linecap="round" transform="translate(119.68762130737332 110.33884628931696) rotate(0 76.5 33)"><path d="M16.5 0 C46.69 0, 76.88 0, 136.5 0 C147.5 0, 153 5.5, 153 16.5 C153 24.61, 153 32.72, 153 49.5 C153 60.5, 147.5 66, 136.5 66 C89.82 66, 43.15 66, 16.5 66 C5.5 66, 0 60.5, 0 49.5 C0 41.56, 0 33.63, 0 16.5 C0 5.5, 5.5 0, 16.5 0" stroke="none" stroke-width="0" fill="#ffec99"></path><path d="M16.5 0 C45.93 0, 75.36 0, 136.5 0 M16.5 0 C40.8 0, 65.11 0, 136.5 0 M136.5 0 C147.5 0, 153 5.5, 153 16.5 M136.5 0 C147.5 0, 153 5.5, 153 16.5 M153 16.5 C153 28.84, 153 41.17, 153 49.5 M153 16.5 C153 23.76, 153 31.01, 153 49.5 M153 49.5 C153 60.5, 147.5 66, 136.5 66 M153 49.5 C153 60.5, 147.5 66, 136.5 66 M136.5 66 C105.7 66, 74.91 66, 16.5 66 M136.5 66 C101.78 66, 67.06 66, 16.5 66 M16.5 66 C5.5 66, 0 60.5, 0 49.5 M16.5 66 C5.5 66, 0 60.5, 0 49.5 M0 49.5 C0 38.96, 0 28.43, 0 16.5 M0 49.5 C0 42.11, 0 34.72, 0 16.5 M0 16.5 C0 5.5, 5.5 0, 16.5 0 M0 16.5 C0 5.5, 5.5 0, 16.5 0" stroke="#1e1e1e" stroke-width="1" fill="none"></path></g><g transform="translate(125.92590255737332 115.73884628931694) rotate(0 70.26171875 27.600000000000023)"><text x="70.26171875" y="0" font-family="Helvetica, Segoe UI Emoji" font-size="16px" fill="#1e1e1e" text-anchor="middle" style="white-space: pre;" direction="ltr" dominant-baseline="text-before-edge">Preenche </text><text x="70.26171875" y="18.4" font-family="Helvetica, Segoe UI Emoji" font-size="16px" fill="#1e1e1e" text-anchor="middle" style="white-space: pre;" direction="ltr" dominant-baseline="text-before-edge">automaticamente o </text><text x="70.26171875" y="36.8" font-family="Helvetica, Segoe UI Emoji" font-size="16px" fill="#1e1e1e" text-anchor="middle" style="white-space: pre;" direction="ltr" dominant-baseline="text-before-edge">formulário</text></g><g stroke-linecap="round" transform="translate(295.9407951354983 116.26700791041071) rotate(0 84.5 26)"><path d="M13 0 C44.46 0, 75.92 0, 156 0 C164.67 0, 169 4.33, 169 13 C169 19.5, 169 26, 169 39 C169 47.67, 164.67 52, 156 52 C99.13 52, 42.26 52, 13 52 C4.33 52, 0 47.67, 0 39 C0 32.48, 0 25.96, 0 13 C0 4.33, 4.33 0, 13 0" stroke="none" stroke-width="0" fill="#ffec99"></path><path d="M13 0 C43.26 0, 73.52 0, 156 0 M13 0 C65.5 0, 118 0, 156 0 M156 0 C164.67 0, 169 4.33, 169 13 M156 0 C164.67 0, 169 4.33, 169 13 M169 13 C169 23.11, 169 33.22, 169 39 M169 13 C169 21.4, 169 29.8, 169 39 M169 39 C169 47.67, 164.67 52, 156 52 M169 39 C169 47.67, 164.67 52, 156 52 M156 52 C123.76 52, 91.51 52, 13 52 M156 52 C121.58 52, 87.16 52, 13 52 M13 52 C4.33 52, 0 47.67, 0 39 M13 52 C4.33 52, 0 47.67, 0 39 M0 39 C0 31.19, 0 23.37, 0 13 M0 39 C0 33.2, 0 27.4, 0 13 M0 13 C0 4.33, 4.33 0, 13 0 M0 13 C0 4.33, 4.33 0, 13 0" stroke="#1e1e1e" stroke-width="1" fill="none"></path></g><g transform="translate(311.0736076354983 123.86700791041073) rotate(0 69.3671875 18.399999999999977)"><text x="69.3671875" y="0" font-family="Helvetica, Segoe UI Emoji" font-size="16px" fill="#1e1e1e" text-anchor="middle" style="white-space: pre;" direction="ltr" dominant-baseline="text-before-edge">Confirma os dados </text><text x="69.3671875" y="18.4" font-family="Helvetica, Segoe UI Emoji" font-size="16px" fill="#1e1e1e" text-anchor="middle" style="white-space: pre;" direction="ltr" dominant-baseline="text-before-edge">preenchidos</text></g><g stroke-linecap="round" transform="translate(491.69122238159207 116.51889607500163) rotate(0 84.5 26)"><path d="M13 0 C53.98 0, 94.95 0, 156 0 C164.67 0, 169 4.33, 169 13 C169 19.73, 169 26.45, 169 39 C169 47.67, 164.67 52, 156 52 C116.12 52, 76.25 52, 13 52 C4.33 52, 0 47.67, 0 39 C0 28.9, 0 18.8, 0 13 C0 4.33, 4.33 0, 13 0" stroke="none" stroke-width="0" fill="#ffec99"></path><path d="M13 0 C46.48 0, 79.95 0, 156 0 M13 0 C64.81 0, 116.62 0, 156 0 M156 0 C164.67 0, 169 4.33, 169 13 M156 0 C164.67 0, 169 4.33, 169 13 M169 13 C169 22.45, 169 31.9, 169 39 M169 13 C169 18.73, 169 24.47, 169 39 M169 39 C169 47.67, 164.67 52, 156 52 M169 39 C169 47.67, 164.67 52, 156 52 M156 52 C100.29 52, 44.58 52, 13 52 M156 52 C119.38 52, 82.75 52, 13 52 M13 52 C4.33 52, 0 47.67, 0 39 M13 52 C4.33 52, 0 47.67, 0 39 M0 39 C0 29.68, 0 20.36, 0 13 M0 39 C0 29.62, 0 20.24, 0 13 M0 13 C0 4.33, 4.33 0, 13 0 M0 13 C0 4.33, 4.33 0, 13 0" stroke="#1e1e1e" stroke-width="1" fill="none"></path></g><g transform="translate(544.1716911315921 133.3188960750016) rotate(0 32.01953125 9.199999999999989)"><text x="32.01953125" y="0" font-family="Helvetica, Segoe UI Emoji" font-size="16px" fill="#1e1e1e" text-anchor="middle" style="white-space: pre;" direction="ltr" dominant-baseline="text-before-edge">Submete</text></g><g stroke-linecap="round"><g transform="translate(116.33636398315457 576.030252539317) rotate(0 1011.5380767308345 -3.494030330446037)"><path d="M0 0 C337.18 -1.16, 1685.9 -5.82, 2023.08 -6.99 M0 0 C337.18 -1.16, 1685.9 -5.82, 2023.08 -6.99" stroke="#1e1e1e" stroke-width="1" fill="none"></path></g><g transform="translate(116.33636398315457 576.030252539317) rotate(0 1011.5380767308345 -3.494030330446037)"><path d="M1994.92 3.37 C2005.24 -0.43, 2015.55 -4.22, 2023.08 -6.99 M1994.92 3.37 C2002.27 0.67, 2009.62 -2.04, 2023.08 -6.99" stroke="#1e1e1e" stroke-width="1" fill="none"></path></g><g transform="translate(116.33636398315457 576.030252539317) rotate(0 1011.5380767308345 -3.494030330446037)"><path d="M1994.85 -17.15 C2005.19 -13.43, 2015.54 -9.7, 2023.08 -6.99 M1994.85 -17.15 C2002.22 -14.5, 2009.59 -11.84, 2023.08 -6.99" stroke="#1e1e1e" stroke-width="1" fill="none"></path></g></g><mask></mask><g transform="translate(111.59136886596707 201.90329941431696) rotate(0 17.3359375 9.199999999999989)"><text x="0" y="0" font-family="Helvetica, Segoe UI Emoji" font-size="16px" fill="#1e1e1e" text-anchor="start" style="white-space: pre;" direction="ltr" dominant-baseline="text-before-edge">MVP</text></g><g transform="translate(116.83636398315457 593.030252539317) rotate(0 14.22265625 9.200000000000003)"><text x="0" y="0" font-family="Helvetica, Segoe UI Emoji" font-size="16px" fill="#1e1e1e" text-anchor="start" style="white-space: pre;" direction="ltr" dominant-baseline="text-before-edge">MVI</text></g><g stroke-linecap="round"><g transform="translate(106.67765687589326 847.5362222088709) rotate(0 1008.6263847887965 -4.076368718853701)"><path d="M0 0 C336.21 -1.36, 1681.04 -6.79, 2017.25 -8.15 M0 0 C336.21 -1.36, 1681.04 -6.79, 2017.25 -8.15" stroke="#1e1e1e" stroke-width="1" fill="none"></path></g><g transform="translate(106.67765687589326 847.5362222088709) rotate(0 1008.6263847887965 -4.076368718853701)"><path d="M1989.1 2.22 C1996.43 -0.48, 2003.76 -3.18, 2017.25 -8.15 M1989.1 2.22 C1996.65 -0.56, 2004.2 -3.34, 2017.25 -8.15" stroke="#1e1e1e" stroke-width="1" fill="none"></path></g><g transform="translate(106.67765687589326 847.5362222088709) rotate(0 1008.6263847887965 -4.076368718853701)"><path d="M1989.02 -18.3 C1996.37 -15.66, 2003.72 -13.02, 2017.25 -8.15 M1989.02 -18.3 C1996.59 -15.58, 2004.16 -12.86, 2017.25 -8.15" stroke="#1e1e1e" stroke-width="1" fill="none"></path></g></g><mask></mask><g transform="translate(117.83636398315457 868.030252539317) rotate(0 28.4609375 9.200000000000003)"><text x="0" y="0" font-family="Helvetica, Segoe UI Emoji" font-size="16px" fill="#1e1e1e" text-anchor="start" style="white-space: pre;" direction="ltr" dominant-baseline="text-before-edge">Backlog</text></g><g stroke-linecap="round" transform="translate(137.83218307495144 234.5378819338482) rotate(0 61.5 42)"><path d="M21 0 C38.15 0, 55.29 0, 102 0 M21 0 C51.69 0, 82.39 0, 102 0 M102 0 C116 0, 123 7, 123 21 M102 0 C116 0, 123 7, 123 21 M123 21 C123 32.41, 123 43.82, 123 63 M123 21 C123 31.05, 123 41.09, 123 63 M123 63 C123 77, 116 84, 102 84 M123 63 C123 77, 116 84, 102 84 M102 84 C75.6 84, 49.21 84, 21 84 M102 84 C74.25 84, 46.5 84, 21 84 M21 84 C7 84, 0 77, 0 63 M21 84 C7 84, 0 77, 0 63 M0 63 C0 53.81, 0 44.61, 0 21 M0 63 C0 48.59, 0 34.17, 0 21 M0 21 C0 7, 7 0, 21 0 M0 21 C0 7, 7 0, 21 0" stroke="#1e1e1e" stroke-width="1" fill="none"></path></g><g transform="translate(144.63687057495144 239.7378819338482) rotate(0 54.6953125 36.79999999999998)"><text x="54.6953125" y="0" font-family="Helvetica, Segoe UI Emoji" font-size="16px" fill="#1e1e1e" text-anchor="middle" style="white-space: pre;" direction="ltr" dominant-baseline="text-before-edge">Recolhe </text><text x="54.6953125" y="18.4" font-family="Helvetica, Segoe UI Emoji" font-size="16px" fill="#1e1e1e" text-anchor="middle" style="white-space: pre;" direction="ltr" dominant-baseline="text-before-edge">infromação das</text><text x="54.6953125" y="36.8" font-family="Helvetica, Segoe UI Emoji" font-size="16px" fill="#1e1e1e" text-anchor="middle" style="white-space: pre;" direction="ltr" dominant-baseline="text-before-edge">coordenadas </text><text x="54.6953125" y="55.199999999999996" font-family="Helvetica, Segoe UI Emoji" font-size="16px" fill="#1e1e1e" text-anchor="middle" style="white-space: pre;" direction="ltr" dominant-baseline="text-before-edge">dos apiários</text></g><g stroke-linecap="round" transform="translate(314.08560235251844 242.37276259243833) rotate(0 61.5 33)"><path d="M16.5 0 C44.65 0, 72.8 0, 106.5 0 M16.5 0 C47.08 0, 77.67 0, 106.5 0 M106.5 0 C117.5 0, 123 5.5, 123 16.5 M106.5 0 C117.5 0, 123 5.5, 123 16.5 M123 16.5 C123 27.35, 123 38.21, 123 49.5 M123 16.5 C123 25.91, 123 35.31, 123 49.5 M123 49.5 C123 60.5, 117.5 66, 106.5 66 M123 49.5 C123 60.5, 117.5 66, 106.5 66 M106.5 66 C85.01 66, 63.52 66, 16.5 66 M106.5 66 C87.82 66, 69.15 66, 16.5 66 M16.5 66 C5.5 66, 0 60.5, 0 49.5 M16.5 66 C5.5 66, 0 60.5, 0 49.5 M0 49.5 C0 38.92, 0 28.34, 0 16.5 M0 49.5 C0 39.96, 0 30.42, 0 16.5 M0 16.5 C0 5.5, 5.5 0, 16.5 0 M0 16.5 C0 5.5, 5.5 0, 16.5 0" stroke="#1e1e1e" stroke-width="1" fill="none"></path></g><g transform="translate(326.22232110251844 247.7727625924383) rotate(0 49.36328125 27.599999999999994)"><text x="49.36328125" y="0" font-family="Helvetica, Segoe UI Emoji" font-size="16px" fill="#1e1e1e" text-anchor="middle" style="white-space: pre;" direction="ltr" dominant-baseline="text-before-edge">Apresenta os </text><text x="49.36328125" y="18.4" font-family="Helvetica, Segoe UI Emoji" font-size="16px" fill="#1e1e1e" text-anchor="middle" style="white-space: pre;" direction="ltr" dominant-baseline="text-before-edge">dados </text><text x="49.36328125" y="36.8" font-family="Helvetica, Segoe UI Emoji" font-size="16px" fill="#1e1e1e" text-anchor="middle" style="white-space: pre;" direction="ltr" dominant-baseline="text-before-edge">preenchidos</text></g><g stroke-linecap="round" transform="translate(511.82751237249977 223.18926432042588) rotate(0 61.5 51)"><path d="M25.5 0 C54.04 0, 82.58 0, 97.5 0 M25.5 0 C42.11 0, 58.71 0, 97.5 0 M97.5 0 C114.5 0, 123 8.5, 123 25.5 M97.5 0 C114.5 0, 123 8.5, 123 25.5 M123 25.5 C123 39.3, 123 53.1, 123 76.5 M123 25.5 C123 40.28, 123 55.06, 123 76.5 M123 76.5 C123 93.5, 114.5 102, 97.5 102 M123 76.5 C123 93.5, 114.5 102, 97.5 102 M97.5 102 C79.68 102, 61.87 102, 25.5 102 M97.5 102 C73.03 102, 48.56 102, 25.5 102 M25.5 102 C8.5 102, 0 93.5, 0 76.5 M25.5 102 C8.5 102, 0 93.5, 0 76.5 M0 76.5 C0 66.09, 0 55.68, 0 25.5 M0 76.5 C0 58.35, 0 40.19, 0 25.5 M0 25.5 C0 8.5, 8.5 0, 25.5 0 M0 25.5 C0 8.5, 8.5 0, 25.5 0" stroke="#1e1e1e" stroke-width="1" fill="none"></path></g><g transform="translate(519.5189186224998 228.18926432042588) rotate(0 53.80859375 46)"><text x="53.80859375" y="0" font-family="Helvetica, Segoe UI Emoji" font-size="16px" fill="#1e1e1e" text-anchor="middle" style="white-space: pre;" direction="ltr" dominant-baseline="text-before-edge">Submete </text><text x="53.80859375" y="18.4" font-family="Helvetica, Segoe UI Emoji" font-size="16px" fill="#1e1e1e" text-anchor="middle" style="white-space: pre;" direction="ltr" dominant-baseline="text-before-edge">documento </text><text x="53.80859375" y="36.8" font-family="Helvetica, Segoe UI Emoji" font-size="16px" fill="#1e1e1e" text-anchor="middle" style="white-space: pre;" direction="ltr" dominant-baseline="text-before-edge">para a área </text><text x="53.80859375" y="55.199999999999996" font-family="Helvetica, Segoe UI Emoji" font-size="16px" fill="#1e1e1e" text-anchor="middle" style="white-space: pre;" direction="ltr" dominant-baseline="text-before-edge">Reservada do </text><text x="53.80859375" y="73.6" font-family="Helvetica, Segoe UI Emoji" font-size="16px" fill="#1e1e1e" text-anchor="middle" style="white-space: pre;" direction="ltr" dominant-baseline="text-before-edge">Portal do IFAP </text></g><g stroke-linecap="round" transform="translate(136.53399804591618 342.6365343086635) rotate(0 61.5 42)"><path d="M21 0 C48.14 0, 75.28 0, 102 0 M21 0 C43.77 0, 66.55 0, 102 0 M102 0 C116 0, 123 7, 123 21 M102 0 C116 0, 123 7, 123 21 M123 21 C123 30.23, 123 39.45, 123 63 M123 21 C123 34.53, 123 48.07, 123 63 M123 63 C123 77, 116 84, 102 84 M123 63 C123 77, 116 84, 102 84 M102 84 C77.67 84, 53.35 84, 21 84 M102 84 C81.17 84, 60.35 84, 21 84 M21 84 C7 84, 0 77, 0 63 M21 84 C7 84, 0 77, 0 63 M0 63 C0 48.36, 0 33.72, 0 21 M0 63 C0 46.75, 0 30.5, 0 21 M0 21 C0 7, 7 0, 21 0 M0 21 C0 7, 7 0, 21 0" stroke="#1e1e1e" stroke-width="1" fill="none"></path></g><g transform="translate(145.11602929591618 347.8365343086635) rotate(0 52.91796875 36.79999999999998)"><text x="52.91796875" y="0" font-family="Helvetica, Segoe UI Emoji" font-size="16px" fill="#1e1e1e" text-anchor="middle" style="white-space: pre;" direction="ltr" dominant-baseline="text-before-edge">Recolhe </text><text x="52.91796875" y="18.4" font-family="Helvetica, Segoe UI Emoji" font-size="16px" fill="#1e1e1e" text-anchor="middle" style="white-space: pre;" direction="ltr" dominant-baseline="text-before-edge">infromação do </text><text x="52.91796875" y="36.8" font-family="Helvetica, Segoe UI Emoji" font-size="16px" fill="#1e1e1e" text-anchor="middle" style="white-space: pre;" direction="ltr" dominant-baseline="text-before-edge">número de </text><text x="52.91796875" y="55.199999999999996" font-family="Helvetica, Segoe UI Emoji" font-size="16px" fill="#1e1e1e" text-anchor="middle" style="white-space: pre;" direction="ltr" dominant-baseline="text-before-edge">colmeias</text></g><g stroke-linecap="round" transform="translate(322.75103906154163 624.4566026680385) rotate(0 61.5 33)"><path d="M16.5 0 C38.19 0, 59.87 0, 106.5 0 M16.5 0 C42.58 0, 68.66 0, 106.5 0 M106.5 0 C117.5 0, 123 5.5, 123 16.5 M106.5 0 C117.5 0, 123 5.5, 123 16.5 M123 16.5 C123 25.47, 123 34.44, 123 49.5 M123 16.5 C123 27.5, 123 38.51, 123 49.5 M123 49.5 C123 60.5, 117.5 66, 106.5 66 M123 49.5 C123 60.5, 117.5 66, 106.5 66 M106.5 66 C72.09 66, 37.67 66, 16.5 66 M106.5 66 C72.88 66, 39.27 66, 16.5 66 M16.5 66 C5.5 66, 0 60.5, 0 49.5 M16.5 66 C5.5 66, 0 60.5, 0 49.5 M0 49.5 C0 39.09, 0 28.67, 0 16.5 M0 49.5 C0 36.63, 0 23.76, 0 16.5 M0 16.5 C0 5.5, 5.5 0, 16.5 0 M0 16.5 C0 5.5, 5.5 0, 16.5 0" stroke="#1e1e1e" stroke-width="1" fill="none"></path></g><g transform="translate(334.44635156154163 639.0566026680385) rotate(0 49.8046875 18.4)"><text x="49.8046875" y="0" font-family="Helvetica, Segoe UI Emoji" font-size="16px" fill="#1e1e1e" text-anchor="middle" style="white-space: pre;" direction="ltr" dominant-baseline="text-before-edge">Alterar dados </text><text x="49.8046875" y="18.4" font-family="Helvetica, Segoe UI Emoji" font-size="16px" fill="#1e1e1e" text-anchor="middle" style="white-space: pre;" direction="ltr" dominant-baseline="text-before-edge">preenchidos</text></g></svg>