<svg version="1.1" xmlns="http://www.w3.org/2000/svg" viewBox="0 0 1901.3363639831543 995" width="1901.3363639831543" height="995">
  <!-- svg-source:excalidraw -->
  
  <defs>
    <style class="style-fonts">
      @font-face {
        font-family: "Virgil";
        src: url("https://excalidraw.com/Virgil.woff2");
      }
      @font-face {
        font-family: "Cascadia";
        src: url("https://excalidraw.com/Cascadia.woff2");
      }
      @font-face {
        font-family: "Assistant";
        src: url("https://excalidraw.com/Assistant-Regular.woff2");
      }
    </style>
    
  </defs>
  <rect x="0" y="0" width="1901.3363639831543" height="995" fill="#ffffff"></rect><g stroke-linecap="round" transform="translate(122.8363639831544 33) rotate(0 73 28.5)"><path d="M14.25 0 C40.65 0, 67.05 0, 131.75 0 C141.25 0, 146 4.75, 146 14.25 C146 20.64, 146 27.04, 146 42.75 C146 52.25, 141.25 57, 131.75 57 C99.89 57, 68.02 57, 14.25 57 C4.75 57, 0 52.25, 0 42.75 C0 33.32, 0 23.89, 0 14.25 C0 4.75, 4.75 0, 14.25 0" stroke="none" stroke-width="0" fill="#a5d8ff"></path><path d="M14.25 0 C39.3 0, 64.35 0, 131.75 0 M14.25 0 C51.91 0, 89.57 0, 131.75 0 M131.75 0 C141.25 0, 146 4.75, 146 14.25 M131.75 0 C141.25 0, 146 4.75, 146 14.25 M146 14.25 C146 25.38, 146 36.52, 146 42.75 M146 14.25 C146 24.37, 146 34.5, 146 42.75 M146 42.75 C146 52.25, 141.25 57, 131.75 57 M146 42.75 C146 52.25, 141.25 57, 131.75 57 M131.75 57 C99.58 57, 67.41 57, 14.25 57 M131.75 57 C85.91 57, 40.07 57, 14.25 57 M14.25 57 C4.75 57, 0 52.25, 0 42.75 M14.25 57 C4.75 57, 0 52.25, 0 42.75 M0 42.75 C0 32.97, 0 23.19, 0 14.25 M0 42.75 C0 35.48, 0 28.21, 0 14.25 M0 14.25 C0 4.75, 4.75 0, 14.25 0 M0 14.25 C0 4.75, 4.75 0, 14.25 0" stroke="#1e1e1e" stroke-width="1" fill="none"></path></g><g transform="translate(140.8363639831544 43.099999999999994) rotate(0 55 18.39999999999999)"><text x="55" y="0" font-family="Helvetica, Segoe UI Emoji" font-size="16px" fill="#1e1e1e" text-anchor="middle" style="white-space: pre;" direction="ltr" dominant-baseline="text-before-edge">Deslocação ao </text><text x="55" y="18.4" font-family="Helvetica, Segoe UI Emoji" font-size="16px" fill="#1e1e1e" text-anchor="middle" style="white-space: pre;" direction="ltr" dominant-baseline="text-before-edge">Apiário</text></g><g stroke-linecap="round"><g transform="translate(92.8363639831544 10) rotate(0 0 487.5)"><path d="M0 0 C0 162.5, 0 812.5, 0 975 M0 0 C0 162.5, 0 812.5, 0 975" stroke="#1e1e1e" stroke-width="1" fill="none"></path></g><g transform="translate(92.8363639831544 10) rotate(0 0 487.5)"><path d="M-8.55 951.51 C-5.29 960.46, -2.04 969.41, 0 975 M-8.55 951.51 C-6.59 956.9, -4.62 962.3, 0 975" stroke="#1e1e1e" stroke-width="1" fill="none"></path></g><g transform="translate(92.8363639831544 10) rotate(0 0 487.5)"><path d="M8.55 951.51 C5.29 960.46, 2.04 969.41, 0 975 M8.55 951.51 C6.59 956.9, 4.62 962.3, 0 975" stroke="#1e1e1e" stroke-width="1" fill="none"></path></g></g><mask></mask><g transform="translate(-90.1854217529295 438.97821426391727) rotate(270 133.8854217529297 33.7000000000001)"><text x="0" y="0" font-family="Helvetica, Segoe UI Emoji" font-size="58.60869565217415px" fill="#1e1e1e" text-anchor="start" style="white-space: pre;" direction="ltr" dominant-baseline="text-before-edge">Prioridade</text></g><g transform="translate(36.8363639831544 47) rotate(0 20.72916603088379 13.83582270320521)"><text x="0" y="0" font-family="Helvetica, Segoe UI Emoji" font-size="24.062300353400357px" fill="#1e1e1e" text-anchor="start" style="white-space: pre;" direction="ltr" dominant-baseline="text-before-edge">Alta</text></g><g transform="translate(12.8363639831544 925.1657559334633) rotate(0 28.53125 13.117122033268402)"><text x="0" y="0" font-family="Helvetica, Segoe UI Emoji" font-size="22.812386144814568px" fill="#1e1e1e" text-anchor="start" style="white-space: pre;" direction="ltr" dominant-baseline="text-before-edge">Baixa</text></g><g stroke-linecap="round" transform="translate(996.8363639831543 40) rotate(0 77 29.5)"><path d="M14.75 0 C57.84 0, 100.93 0, 139.25 0 C149.08 0, 154 4.92, 154 14.75 C154 23.54, 154 32.33, 154 44.25 C154 54.08, 149.08 59, 139.25 59 C100.51 59, 61.77 59, 14.75 59 C4.92 59, 0 54.08, 0 44.25 C0 35.73, 0 27.21, 0 14.75 C0 4.92, 4.92 0, 14.75 0" stroke="none" stroke-width="0" fill="#a5d8ff"></path><path d="M14.75 0 C41.13 0, 67.5 0, 139.25 0 M14.75 0 C52.49 0, 90.23 0, 139.25 0 M139.25 0 C149.08 0, 154 4.92, 154 14.75 M139.25 0 C149.08 0, 154 4.92, 154 14.75 M154 14.75 C154 24.75, 154 34.75, 154 44.25 M154 14.75 C154 21.02, 154 27.3, 154 44.25 M154 44.25 C154 54.08, 149.08 59, 139.25 59 M154 44.25 C154 54.08, 149.08 59, 139.25 59 M139.25 59 C98.91 59, 58.58 59, 14.75 59 M139.25 59 C106.46 59, 73.68 59, 14.75 59 M14.75 59 C4.92 59, 0 54.08, 0 44.25 M14.75 59 C4.92 59, 0 54.08, 0 44.25 M0 44.25 C0 37.89, 0 31.52, 0 14.75 M0 44.25 C0 34.72, 0 25.19, 0 14.75 M0 14.75 C0 4.92, 4.92 0, 14.75 0 M0 14.75 C0 4.92, 4.92 0, 14.75 0" stroke="#1e1e1e" stroke-width="1" fill="none"></path></g><g transform="translate(1016.1818191528321 60.30000000000001) rotate(0 57.654544830322266 9.200000000000003)"><text x="57.654544830322266" y="0" font-family="Helvetica, Segoe UI Emoji" font-size="16px" fill="#1e1e1e" text-anchor="middle" style="white-space: pre;" direction="ltr" dominant-baseline="text-before-edge">Desoperculação</text></g><g stroke-linecap="round" transform="translate(1169.8363639831543 46) rotate(0 74 28.5)"><path d="M14.25 0 C43.47 0, 72.7 0, 133.75 0 C143.25 0, 148 4.75, 148 14.25 C148 25.13, 148 36.02, 148 42.75 C148 52.25, 143.25 57, 133.75 57 C95.33 57, 56.9 57, 14.25 57 C4.75 57, 0 52.25, 0 42.75 C0 35.53, 0 28.3, 0 14.25 C0 4.75, 4.75 0, 14.25 0" stroke="none" stroke-width="0" fill="#a5d8ff"></path><path d="M14.25 0 C55.98 0, 97.7 0, 133.75 0 M14.25 0 C57.91 0, 101.57 0, 133.75 0 M133.75 0 C143.25 0, 148 4.75, 148 14.25 M133.75 0 C143.25 0, 148 4.75, 148 14.25 M148 14.25 C148 21.8, 148 29.35, 148 42.75 M148 14.25 C148 23.18, 148 32.11, 148 42.75 M148 42.75 C148 52.25, 143.25 57, 133.75 57 M148 42.75 C148 52.25, 143.25 57, 133.75 57 M133.75 57 C105.19 57, 76.62 57, 14.25 57 M133.75 57 C108.43 57, 83.11 57, 14.25 57 M14.25 57 C4.75 57, 0 52.25, 0 42.75 M14.25 57 C4.75 57, 0 52.25, 0 42.75 M0 42.75 C0 35.06, 0 27.38, 0 14.25 M0 42.75 C0 33.09, 0 23.42, 0 14.25 M0 14.25 C0 4.75, 4.75 0, 14.25 0 M0 14.25 C0 4.75, 4.75 0, 14.25 0" stroke="#1e1e1e" stroke-width="1" fill="none"></path></g><g transform="translate(1185.7363655090332 65.30000000000001) rotate(0 58.099998474121094 9.200000000000003)"><text x="58.099998474121094" y="0" font-family="Helvetica, Segoe UI Emoji" font-size="16px" fill="#1e1e1e" text-anchor="middle" style="white-space: pre;" direction="ltr" dominant-baseline="text-before-edge">Decentrifugação</text></g><g stroke-linecap="round" transform="translate(1489.8363639831543 59) rotate(0 67 23.5)"><path d="M11.75 0 C55.45 0, 99.14 0, 122.25 0 C130.08 0, 134 3.92, 134 11.75 C134 19.23, 134 26.71, 134 35.25 C134 43.08, 130.08 47, 122.25 47 C95.48 47, 68.72 47, 11.75 47 C3.92 47, 0 43.08, 0 35.25 C0 29.63, 0 24.01, 0 11.75 C0 3.92, 3.92 0, 11.75 0" stroke="none" stroke-width="0" fill="#a5d8ff"></path><path d="M11.75 0 C39.22 0, 66.69 0, 122.25 0 M11.75 0 C51.55 0, 91.35 0, 122.25 0 M122.25 0 C130.08 0, 134 3.92, 134 11.75 M122.25 0 C130.08 0, 134 3.92, 134 11.75 M134 11.75 C134 20.52, 134 29.28, 134 35.25 M134 11.75 C134 17.23, 134 22.71, 134 35.25 M134 35.25 C134 43.08, 130.08 47, 122.25 47 M134 35.25 C134 43.08, 130.08 47, 122.25 47 M122.25 47 C89.48 47, 56.71 47, 11.75 47 M122.25 47 C84.29 47, 46.34 47, 11.75 47 M11.75 47 C3.92 47, 0 43.08, 0 35.25 M11.75 47 C3.92 47, 0 43.08, 0 35.25 M0 35.25 C0 29.6, 0 23.96, 0 11.75 M0 35.25 C0 30.36, 0 25.47, 0 11.75 M0 11.75 C0 3.92, 3.92 0, 11.75 0 M0 11.75 C0 3.92, 3.92 0, 11.75 0" stroke="#1e1e1e" stroke-width="1" fill="none"></path></g><g transform="translate(1517.8272735595704 73.30000000000001) rotate(0 39.009090423583984 9.200000000000003)"><text x="39.009090423583984" y="0" font-family="Helvetica, Segoe UI Emoji" font-size="16px" fill="#1e1e1e" text-anchor="middle" style="white-space: pre;" direction="ltr" dominant-baseline="text-before-edge">Retirar Mel</text></g><g stroke-linecap="round"><g transform="translate(104.8363639831544 185) rotate(0 887.5 0)"><path d="M0 0 C295.83 0, 1479.17 0, 1775 0 M0 0 C295.83 0, 1479.17 0, 1775 0" stroke="#1e1e1e" stroke-width="1" fill="none"></path></g><g transform="translate(104.8363639831544 185) rotate(0 887.5 0)"><path d="M1751.51 8.55 C1758.72 5.93, 1765.93 3.3, 1775 0 M1751.51 8.55 C1760.68 5.21, 1769.86 1.87, 1775 0" stroke="#1e1e1e" stroke-width="1" fill="none"></path></g><g transform="translate(104.8363639831544 185) rotate(0 887.5 0)"><path d="M1751.51 -8.55 C1758.72 -5.93, 1765.93 -3.3, 1775 0 M1751.51 -8.55 C1760.68 -5.21, 1769.86 -1.87, 1775 0" stroke="#1e1e1e" stroke-width="1" fill="none"></path></g></g><mask></mask><g stroke-linecap="round" transform="translate(288.8363639831544 109) rotate(0 76.5 28.5)"><path d="M14.25 0 C45.57 0, 76.89 0, 138.75 0 C148.25 0, 153 4.75, 153 14.25 C153 21.25, 153 28.26, 153 42.75 C153 52.25, 148.25 57, 138.75 57 C90.32 57, 41.9 57, 14.25 57 C4.75 57, 0 52.25, 0 42.75 C0 35.9, 0 29.04, 0 14.25 C0 4.75, 4.75 0, 14.25 0" stroke="none" stroke-width="0" fill="#ffec99"></path><path d="M14.25 0 C44.78 0, 75.31 0, 138.75 0 M14.25 0 C39.46 0, 64.68 0, 138.75 0 M138.75 0 C148.25 0, 153 4.75, 153 14.25 M138.75 0 C148.25 0, 153 4.75, 153 14.25 M153 14.25 C153 24.9, 153 35.56, 153 42.75 M153 14.25 C153 20.52, 153 26.78, 153 42.75 M153 42.75 C153 52.25, 148.25 57, 138.75 57 M153 42.75 C153 52.25, 148.25 57, 138.75 57 M138.75 57 C106.8 57, 74.85 57, 14.25 57 M138.75 57 C102.73 57, 66.71 57, 14.25 57 M14.25 57 C4.75 57, 0 52.25, 0 42.75 M14.25 57 C4.75 57, 0 52.25, 0 42.75 M0 42.75 C0 33.65, 0 24.55, 0 14.25 M0 42.75 C0 36.37, 0 29.99, 0 14.25 M0 14.25 C0 4.75, 4.75 0, 14.25 0 M0 14.25 C0 4.75, 4.75 0, 14.25 0" stroke="#1e1e1e" stroke-width="1" fill="none"></path></g><g transform="translate(305.0181838989259 128.3) rotate(0 60.318180084228516 9.200000000000003)"><text x="60.318180084228516" y="0" font-family="Helvetica, Segoe UI Emoji" font-size="16px" fill="#1e1e1e" text-anchor="middle" style="white-space: pre;" direction="ltr" dominant-baseline="text-before-edge">Acalmar Abelhas</text></g><g stroke-linecap="round" transform="translate(454.8363639831544 111) rotate(0 84.5 26)"><path d="M13 0 C44.46 0, 75.92 0, 156 0 C164.67 0, 169 4.33, 169 13 C169 19.5, 169 26, 169 39 C169 47.67, 164.67 52, 156 52 C99.13 52, 42.26 52, 13 52 C4.33 52, 0 47.67, 0 39 C0 32.48, 0 25.96, 0 13 C0 4.33, 4.33 0, 13 0" stroke="none" stroke-width="0" fill="#ffec99"></path><path d="M13 0 C43.26 0, 73.52 0, 156 0 M13 0 C65.5 0, 118 0, 156 0 M156 0 C164.67 0, 169 4.33, 169 13 M156 0 C164.67 0, 169 4.33, 169 13 M169 13 C169 23.11, 169 33.22, 169 39 M169 13 C169 21.4, 169 29.8, 169 39 M169 39 C169 47.67, 164.67 52, 156 52 M169 39 C169 47.67, 164.67 52, 156 52 M156 52 C123.76 52, 91.51 52, 13 52 M156 52 C121.58 52, 87.16 52, 13 52 M13 52 C4.33 52, 0 47.67, 0 39 M13 52 C4.33 52, 0 47.67, 0 39 M0 39 C0 31.19, 0 23.37, 0 13 M0 39 C0 33.2, 0 27.4, 0 13 M0 13 C0 4.33, 4.33 0, 13 0 M0 13 C0 4.33, 4.33 0, 13 0" stroke="#1e1e1e" stroke-width="1" fill="none"></path></g><g transform="translate(467.0545494079591 118.6) rotate(0 72.28181457519531 18.39999999999999)"><text x="72.28181457519531" y="0" font-family="Helvetica, Segoe UI Emoji" font-size="16px" fill="#1e1e1e" text-anchor="middle" style="white-space: pre;" direction="ltr" dominant-baseline="text-before-edge">Retirar Quadros 1/2 </text><text x="72.28181457519531" y="18.4" font-family="Helvetica, Segoe UI Emoji" font-size="16px" fill="#1e1e1e" text-anchor="middle" style="white-space: pre;" direction="ltr" dominant-baseline="text-before-edge">Alça</text></g><g stroke-linecap="round" transform="translate(632.3363639831543 111) rotate(0 84.5 26)"><path d="M13 0 C53.98 0, 94.95 0, 156 0 C164.67 0, 169 4.33, 169 13 C169 19.73, 169 26.45, 169 39 C169 47.67, 164.67 52, 156 52 C116.12 52, 76.25 52, 13 52 C4.33 52, 0 47.67, 0 39 C0 28.9, 0 18.8, 0 13 C0 4.33, 4.33 0, 13 0" stroke="none" stroke-width="0" fill="#ffec99"></path><path d="M13 0 C46.48 0, 79.95 0, 156 0 M13 0 C64.81 0, 116.62 0, 156 0 M156 0 C164.67 0, 169 4.33, 169 13 M156 0 C164.67 0, 169 4.33, 169 13 M169 13 C169 22.45, 169 31.9, 169 39 M169 13 C169 18.73, 169 24.47, 169 39 M169 39 C169 47.67, 164.67 52, 156 52 M169 39 C169 47.67, 164.67 52, 156 52 M156 52 C100.29 52, 44.58 52, 13 52 M156 52 C119.38 52, 82.75 52, 13 52 M13 52 C4.33 52, 0 47.67, 0 39 M13 52 C4.33 52, 0 47.67, 0 39 M0 39 C0 29.68, 0 20.36, 0 13 M0 39 C0 29.62, 0 20.24, 0 13 M0 13 C0 4.33, 4.33 0, 13 0 M0 13 C0 4.33, 4.33 0, 13 0" stroke="#1e1e1e" stroke-width="1" fill="none"></path></g><g transform="translate(658.727271270752 127.80000000000001) rotate(0 58.109092712402344 9.200000000000003)"><text x="58.109092712402344" y="0" font-family="Helvetica, Segoe UI Emoji" font-size="16px" fill="#1e1e1e" text-anchor="middle" style="white-space: pre;" direction="ltr" dominant-baseline="text-before-edge">Sacudir Abelhas</text></g><g stroke-linecap="round" transform="translate(811.3363639831543 113) rotate(0 84.5 26)"><path d="M13 0 C58.9 0, 104.81 0, 156 0 C164.67 0, 169 4.33, 169 13 C169 21.56, 169 30.12, 169 39 C169 47.67, 164.67 52, 156 52 C115.45 52, 74.89 52, 13 52 C4.33 52, 0 47.67, 0 39 C0 28.63, 0 18.25, 0 13 C0 4.33, 4.33 0, 13 0" stroke="none" stroke-width="0" fill="#ffec99"></path><path d="M13 0 C48.38 0, 83.75 0, 156 0 M13 0 C44.82 0, 76.63 0, 156 0 M156 0 C164.67 0, 169 4.33, 169 13 M156 0 C164.67 0, 169 4.33, 169 13 M169 13 C169 21, 169 29.01, 169 39 M169 13 C169 21.58, 169 30.15, 169 39 M169 39 C169 47.67, 164.67 52, 156 52 M169 39 C169 47.67, 164.67 52, 156 52 M156 52 C109.26 52, 62.52 52, 13 52 M156 52 C122.16 52, 88.32 52, 13 52 M13 52 C4.33 52, 0 47.67, 0 39 M13 52 C4.33 52, 0 47.67, 0 39 M0 39 C0 29.6, 0 20.19, 0 13 M0 39 C0 28.72, 0 18.45, 0 13 M0 13 C0 4.33, 4.33 0, 13 0 M0 13 C0 4.33, 4.33 0, 13 0" stroke="#1e1e1e" stroke-width="1" fill="none"></path></g><g transform="translate(823.3446952819825 120.6) rotate(0 72.49166870117188 18.39999999999999)"><text x="72.49166870117188" y="0" font-family="Helvetica, Segoe UI Emoji" font-size="16px" fill="#1e1e1e" text-anchor="middle" style="white-space: pre;" direction="ltr" dominant-baseline="text-before-edge">Colocar Alça noutra </text><text x="72.49166870117188" y="18.4" font-family="Helvetica, Segoe UI Emoji" font-size="16px" fill="#1e1e1e" text-anchor="middle" style="white-space: pre;" direction="ltr" dominant-baseline="text-before-edge">caixa</text></g><g stroke-linecap="round" transform="translate(990.3363639831543 113) rotate(0 84.5 26)"><path d="M13 0 C62.13 0, 111.26 0, 156 0 C164.67 0, 169 4.33, 169 13 C169 18.63, 169 24.26, 169 39 C169 47.67, 164.67 52, 156 52 C101.81 52, 47.62 52, 13 52 C4.33 52, 0 47.67, 0 39 C0 28.93, 0 18.87, 0 13 C0 4.33, 4.33 0, 13 0" stroke="none" stroke-width="0" fill="#ffec99"></path><path d="M13 0 C66.36 0, 119.71 0, 156 0 M13 0 C69.37 0, 125.74 0, 156 0 M156 0 C164.67 0, 169 4.33, 169 13 M156 0 C164.67 0, 169 4.33, 169 13 M169 13 C169 23.05, 169 33.1, 169 39 M169 13 C169 20.53, 169 28.06, 169 39 M169 39 C169 47.67, 164.67 52, 156 52 M169 39 C169 47.67, 164.67 52, 156 52 M156 52 C123.73 52, 91.46 52, 13 52 M156 52 C126.92 52, 97.84 52, 13 52 M13 52 C4.33 52, 0 47.67, 0 39 M13 52 C4.33 52, 0 47.67, 0 39 M0 39 C0 30.28, 0 21.56, 0 13 M0 39 C0 29.97, 0 20.94, 0 13 M0 13 C0 4.33, 4.33 0, 13 0 M0 13 C0 4.33, 4.33 0, 13 0" stroke="#1e1e1e" stroke-width="1" fill="none"></path></g><g transform="translate(1023.7 120.6) rotate(0 51.1363639831543 18.39999999999999)"><text x="51.1363639831543" y="0" font-family="Helvetica, Segoe UI Emoji" font-size="16px" fill="#1e1e1e" text-anchor="middle" style="white-space: pre;" direction="ltr" dominant-baseline="text-before-edge">Tirar cera dos </text><text x="51.1363639831543" y="18.4" font-family="Helvetica, Segoe UI Emoji" font-size="16px" fill="#1e1e1e" text-anchor="middle" style="white-space: pre;" direction="ltr" dominant-baseline="text-before-edge">quadros</text></g><g stroke-linecap="round" transform="translate(1168.3363639831543 115) rotate(0 75.5 26)"><path d="M13 0 C47.14 0, 81.29 0, 138 0 C146.67 0, 151 4.33, 151 13 C151 19.87, 151 26.74, 151 39 C151 47.67, 146.67 52, 138 52 C112.86 52, 87.72 52, 13 52 C4.33 52, 0 47.67, 0 39 C0 28.89, 0 18.77, 0 13 C0 4.33, 4.33 0, 13 0" stroke="none" stroke-width="0" fill="#ffec99"></path><path d="M13 0 C61.17 0, 109.34 0, 138 0 M13 0 C38.75 0, 64.51 0, 138 0 M138 0 C146.67 0, 151 4.33, 151 13 M138 0 C146.67 0, 151 4.33, 151 13 M151 13 C151 20.61, 151 28.22, 151 39 M151 13 C151 18.65, 151 24.31, 151 39 M151 39 C151 47.67, 146.67 52, 138 52 M151 39 C151 47.67, 146.67 52, 138 52 M138 52 C97.79 52, 57.59 52, 13 52 M138 52 C99.27 52, 60.54 52, 13 52 M13 52 C4.33 52, 0 47.67, 0 39 M13 52 C4.33 52, 0 47.67, 0 39 M0 39 C0 29.06, 0 19.13, 0 13 M0 39 C0 30.18, 0 21.35, 0 13 M0 13 C0 4.33, 4.33 0, 13 0 M0 13 C0 4.33, 4.33 0, 13 0" stroke="#1e1e1e" stroke-width="1" fill="none"></path></g><g transform="translate(1191.0636360168457 122.6) rotate(0 52.772727966308594 18.39999999999999)"><text x="52.772727966308594" y="0" font-family="Helvetica, Segoe UI Emoji" font-size="16px" fill="#1e1e1e" text-anchor="middle" style="white-space: pre;" direction="ltr" dominant-baseline="text-before-edge">Colocar na </text><text x="52.772727966308594" y="18.4" font-family="Helvetica, Segoe UI Emoji" font-size="16px" fill="#1e1e1e" text-anchor="middle" style="white-space: pre;" direction="ltr" dominant-baseline="text-before-edge">Centrifugadora</text></g><g stroke-linecap="round" transform="translate(1648.8363639831543 120.5) rotate(0 67 23.5)"><path d="M11.75 0 C50.71 0, 89.67 0, 122.25 0 C130.08 0, 134 3.92, 134 11.75 C134 19.54, 134 27.33, 134 35.25 C134 43.08, 130.08 47, 122.25 47 C92.78 47, 63.32 47, 11.75 47 C3.92 47, 0 43.08, 0 35.25 C0 30.28, 0 25.3, 0 11.75 C0 3.92, 3.92 0, 11.75 0" stroke="none" stroke-width="0" fill="#ffec99"></path><path d="M11.75 0 C38.8 0, 65.86 0, 122.25 0 M11.75 0 C42.52 0, 73.29 0, 122.25 0 M122.25 0 C130.08 0, 134 3.92, 134 11.75 M122.25 0 C130.08 0, 134 3.92, 134 11.75 M134 11.75 C134 17.7, 134 23.65, 134 35.25 M134 11.75 C134 20.8, 134 29.85, 134 35.25 M134 35.25 C134 43.08, 130.08 47, 122.25 47 M134 35.25 C134 43.08, 130.08 47, 122.25 47 M122.25 47 C84.85 47, 47.46 47, 11.75 47 M122.25 47 C92.97 47, 63.7 47, 11.75 47 M11.75 47 C3.92 47, 0 43.08, 0 35.25 M11.75 47 C3.92 47, 0 43.08, 0 35.25 M0 35.25 C0 27.31, 0 19.37, 0 11.75 M0 35.25 C0 30.34, 0 25.43, 0 11.75 M0 11.75 C0 3.92, 3.92 0, 11.75 0 M0 11.75 C0 3.92, 3.92 0, 11.75 0" stroke="#1e1e1e" stroke-width="1" fill="none"></path></g><g transform="translate(1676.8272735595704 134.8) rotate(0 39.009090423583984 9.200000000000003)"><text x="39.009090423583984" y="0" font-family="Helvetica, Segoe UI Emoji" font-size="16px" fill="#1e1e1e" text-anchor="middle" style="white-space: pre;" direction="ltr" dominant-baseline="text-before-edge">Retirar Mel</text></g><g stroke-linecap="round" transform="translate(1325.3363639831543 117) rotate(0 75.5 26)"><path d="M13 0 C62.78 0, 112.55 0, 138 0 C146.67 0, 151 4.33, 151 13 C151 21.1, 151 29.21, 151 39 C151 47.67, 146.67 52, 138 52 C95.99 52, 53.98 52, 13 52 C4.33 52, 0 47.67, 0 39 C0 33.04, 0 27.08, 0 13 C0 4.33, 4.33 0, 13 0" stroke="none" stroke-width="0" fill="#ffec99"></path><path d="M13 0 C39.02 0, 65.04 0, 138 0 M13 0 C39.7 0, 66.41 0, 138 0 M138 0 C146.67 0, 151 4.33, 151 13 M138 0 C146.67 0, 151 4.33, 151 13 M151 13 C151 19.28, 151 25.57, 151 39 M151 13 C151 22.33, 151 31.66, 151 39 M151 39 C151 47.67, 146.67 52, 138 52 M151 39 C151 47.67, 146.67 52, 138 52 M138 52 C90.98 52, 43.96 52, 13 52 M138 52 C104.55 52, 71.1 52, 13 52 M13 52 C4.33 52, 0 47.67, 0 39 M13 52 C4.33 52, 0 47.67, 0 39 M0 39 C0 32.41, 0 25.82, 0 13 M0 39 C0 33.68, 0 28.36, 0 13 M0 13 C0 4.33, 4.33 0, 13 0 M0 13 C0 4.33, 4.33 0, 13 0" stroke="#1e1e1e" stroke-width="1" fill="none"></path></g><g transform="translate(1365.3818199157715 133.8) rotate(0 35.45454406738281 9.200000000000003)"><text x="35.45454406738281" y="0" font-family="Helvetica, Segoe UI Emoji" font-size="16px" fill="#1e1e1e" text-anchor="middle" style="white-space: pre;" direction="ltr" dominant-baseline="text-before-edge">Filtrar mel</text></g><g stroke-linecap="round" transform="translate(1482.3363639831543 117) rotate(0 75.5 26)"><path d="M13 0 C49.47 0, 85.94 0, 138 0 C146.67 0, 151 4.33, 151 13 C151 20.37, 151 27.73, 151 39 C151 47.67, 146.67 52, 138 52 C99.42 52, 60.83 52, 13 52 C4.33 52, 0 47.67, 0 39 C0 31.81, 0 24.62, 0 13 C0 4.33, 4.33 0, 13 0" stroke="none" stroke-width="0" fill="#ffec99"></path><path d="M13 0 C62.37 0, 111.73 0, 138 0 M13 0 C57.73 0, 102.45 0, 138 0 M138 0 C146.67 0, 151 4.33, 151 13 M138 0 C146.67 0, 151 4.33, 151 13 M151 13 C151 20.63, 151 28.25, 151 39 M151 13 C151 21.81, 151 30.62, 151 39 M151 39 C151 47.67, 146.67 52, 138 52 M151 39 C151 47.67, 146.67 52, 138 52 M138 52 C95.83 52, 53.67 52, 13 52 M138 52 C89.09 52, 40.18 52, 13 52 M13 52 C4.33 52, 0 47.67, 0 39 M13 52 C4.33 52, 0 47.67, 0 39 M0 39 C0 32.67, 0 26.35, 0 13 M0 39 C0 28.92, 0 18.84, 0 13 M0 13 C0 4.33, 4.33 0, 13 0 M0 13 C0 4.33, 4.33 0, 13 0" stroke="#1e1e1e" stroke-width="1" fill="none"></path></g><g transform="translate(1493.9727279663086 124.6) rotate(0 63.8636360168457 18.39999999999999)"><text x="63.8636360168457" y="0" font-family="Helvetica, Segoe UI Emoji" font-size="16px" fill="#1e1e1e" text-anchor="middle" style="white-space: pre;" direction="ltr" dominant-baseline="text-before-edge">Decantar durante </text><text x="63.8636360168457" y="18.4" font-family="Helvetica, Segoe UI Emoji" font-size="16px" fill="#1e1e1e" text-anchor="middle" style="white-space: pre;" direction="ltr" dominant-baseline="text-before-edge">alguns dias</text></g><g stroke-linecap="round"><g transform="translate(116.3363639831544 569) rotate(0 887.5 0)"><path d="M0 0 C295.83 0, 1479.17 0, 1775 0 M0 0 C295.83 0, 1479.17 0, 1775 0" stroke="#1e1e1e" stroke-width="1" fill="none"></path></g><g transform="translate(116.3363639831544 569) rotate(0 887.5 0)"><path d="M1751.51 8.55 C1760.12 5.42, 1768.72 2.28, 1775 0 M1751.51 8.55 C1757.64 6.32, 1763.77 4.09, 1775 0" stroke="#1e1e1e" stroke-width="1" fill="none"></path></g><g transform="translate(116.3363639831544 569) rotate(0 887.5 0)"><path d="M1751.51 -8.55 C1760.12 -5.42, 1768.72 -2.28, 1775 0 M1751.51 -8.55 C1757.64 -6.32, 1763.77 -4.09, 1775 0" stroke="#1e1e1e" stroke-width="1" fill="none"></path></g></g><mask></mask><g transform="translate(111.8363639831544 195) rotate(0 17.26041603088379 9.199999999999989)"><text x="0" y="0" font-family="Helvetica, Segoe UI Emoji" font-size="16px" fill="#1e1e1e" text-anchor="start" style="white-space: pre;" direction="ltr" dominant-baseline="text-before-edge">MVP</text></g><g transform="translate(116.8363639831544 586) rotate(0 14.166666984558105 9.199999999999989)"><text x="0" y="0" font-family="Helvetica, Segoe UI Emoji" font-size="16px" fill="#1e1e1e" text-anchor="start" style="white-space: pre;" direction="ltr" dominant-baseline="text-before-edge">MVI</text></g><g stroke-linecap="round"><g transform="translate(111.3363639831544 844) rotate(0 887.5 0)"><path d="M0 0 C295.83 0, 1479.17 0, 1775 0 M0 0 C295.83 0, 1479.17 0, 1775 0" stroke="#1e1e1e" stroke-width="1" fill="none"></path></g><g transform="translate(111.3363639831544 844) rotate(0 887.5 0)"><path d="M1751.51 8.55 C1757.62 6.32, 1763.74 4.1, 1775 0 M1751.51 8.55 C1757.81 6.26, 1764.1 3.97, 1775 0" stroke="#1e1e1e" stroke-width="1" fill="none"></path></g><g transform="translate(111.3363639831544 844) rotate(0 887.5 0)"><path d="M1751.51 -8.55 C1757.62 -6.32, 1763.74 -4.1, 1775 0 M1751.51 -8.55 C1757.81 -6.26, 1764.1 -3.97, 1775 0" stroke="#1e1e1e" stroke-width="1" fill="none"></path></g></g><mask></mask><g transform="translate(117.8363639831544 861) rotate(0 28.34375 9.199999999999989)"><text x="0" y="0" font-family="Helvetica, Segoe UI Emoji" font-size="16px" fill="#1e1e1e" text-anchor="start" style="white-space: pre;" direction="ltr" dominant-baseline="text-before-edge">Backlog</text></g><g stroke-linecap="round" transform="translate(830.0506496974401 578.7142857142858) rotate(0 61.785714285714334 28.5)"><path d="M14.25 0 C41.42 0, 68.59 0, 109.32 0 M14.25 0 C49.25 0, 84.24 0, 109.32 0 M109.32 0 C118.82 0, 123.57 4.75, 123.57 14.25 M109.32 0 C118.82 0, 123.57 4.75, 123.57 14.25 M123.57 14.25 C123.57 21, 123.57 27.76, 123.57 42.75 M123.57 14.25 C123.57 22.56, 123.57 30.88, 123.57 42.75 M123.57 42.75 C123.57 52.25, 118.82 57, 109.32 57 M123.57 42.75 C123.57 52.25, 118.82 57, 109.32 57 M109.32 57 C72.01 57, 34.7 57, 14.25 57 M109.32 57 C88.84 57, 68.37 57, 14.25 57 M14.25 57 C4.75 57, 0 52.25, 0 42.75 M14.25 57 C4.75 57, 0 52.25, 0 42.75 M0 42.75 C0 35.67, 0 28.6, 0 14.25 M0 42.75 C0 34.1, 0 25.45, 0 14.25 M0 14.25 C0 4.75, 4.75 0, 14.25 0 M0 14.25 C0 4.75, 4.75 0, 14.25 0" stroke="#1e1e1e" stroke-width="1" fill="none"></path></g><g transform="translate(836.2363655090332 588.8142857142858) rotate(0 55.599998474121094 18.399999999999977)"><text x="55.599998474121094" y="0" font-family="Helvetica, Segoe UI Emoji" font-size="16px" fill="#1e1e1e" text-anchor="middle" style="white-space: pre;" direction="ltr" dominant-baseline="text-before-edge">Apresenta Lista</text><text x="55.599998474121094" y="18.4" font-family="Helvetica, Segoe UI Emoji" font-size="16px" fill="#1e1e1e" text-anchor="middle" style="white-space: pre;" direction="ltr" dominant-baseline="text-before-edge">de Quadros</text></g><g stroke-linecap="round" transform="translate(824.3363639831543 194.5) rotate(0 67.5 33)"><path d="M16.5 0 C51.89 0, 87.28 0, 118.5 0 M16.5 0 C51.59 0, 86.69 0, 118.5 0 M118.5 0 C129.5 0, 135 5.5, 135 16.5 M118.5 0 C129.5 0, 135 5.5, 135 16.5 M135 16.5 C135 28.61, 135 40.73, 135 49.5 M135 16.5 C135 25.2, 135 33.89, 135 49.5 M135 49.5 C135 60.5, 129.5 66, 118.5 66 M135 49.5 C135 60.5, 129.5 66, 118.5 66 M118.5 66 C89.91 66, 61.32 66, 16.5 66 M118.5 66 C77.93 66, 37.36 66, 16.5 66 M16.5 66 C5.5 66, 0 60.5, 0 49.5 M16.5 66 C5.5 66, 0 60.5, 0 49.5 M0 49.5 C0 39.71, 0 29.92, 0 16.5 M0 49.5 C0 42.07, 0 34.63, 0 16.5 M0 16.5 C0 5.5, 5.5 0, 16.5 0 M0 16.5 C0 5.5, 5.5 0, 16.5 0" stroke="#1e1e1e" stroke-width="1" fill="none"></path></g><g transform="translate(839.0454551696778 199.89999999999998) rotate(0 52.79090881347656 27.599999999999994)"><text x="52.79090881347656" y="0" font-family="Helvetica, Segoe UI Emoji" font-size="16px" fill="#1e1e1e" text-anchor="middle" style="white-space: pre;" direction="ltr" dominant-baseline="text-before-edge">Regista </text><text x="52.79090881347656" y="18.4" font-family="Helvetica, Segoe UI Emoji" font-size="16px" fill="#1e1e1e" text-anchor="middle" style="white-space: pre;" direction="ltr" dominant-baseline="text-before-edge">quantidade de </text><text x="52.79090881347656" y="36.8" font-family="Helvetica, Segoe UI Emoji" font-size="16px" fill="#1e1e1e" text-anchor="middle" style="white-space: pre;" direction="ltr" dominant-baseline="text-before-edge">Alças retiradas</text></g><g stroke-linecap="round" transform="translate(1653.8363639831543 198) rotate(0 65 33)"><path d="M16.5 0 C41.94 0, 67.38 0, 113.5 0 M16.5 0 C41.28 0, 66.05 0, 113.5 0 M113.5 0 C124.5 0, 130 5.5, 130 16.5 M113.5 0 C124.5 0, 130 5.5, 130 16.5 M130 16.5 C130 24.88, 130 33.25, 130 49.5 M130 16.5 C130 25.94, 130 35.37, 130 49.5 M130 49.5 C130 60.5, 124.5 66, 113.5 66 M130 49.5 C130 60.5, 124.5 66, 113.5 66 M113.5 66 C83.73 66, 53.95 66, 16.5 66 M113.5 66 C82.06 66, 50.62 66, 16.5 66 M16.5 66 C5.5 66, 0 60.5, 0 49.5 M16.5 66 C5.5 66, 0 60.5, 0 49.5 M0 49.5 C0 42.29, 0 35.09, 0 16.5 M0 49.5 C0 40.45, 0 31.4, 0 16.5 M0 16.5 C0 5.5, 5.5 0, 16.5 0 M0 16.5 C0 5.5, 5.5 0, 16.5 0" stroke="#1e1e1e" stroke-width="1" fill="none"></path></g><g transform="translate(1665.886363220215 203.39999999999998) rotate(0 52.95000076293945 27.599999999999994)"><text x="52.95000076293945" y="0" font-family="Helvetica, Segoe UI Emoji" font-size="16px" fill="#1e1e1e" text-anchor="middle" style="white-space: pre;" direction="ltr" dominant-baseline="text-before-edge">Regista </text><text x="52.95000076293945" y="18.4" font-family="Helvetica, Segoe UI Emoji" font-size="16px" fill="#1e1e1e" text-anchor="middle" style="white-space: pre;" direction="ltr" dominant-baseline="text-before-edge">quantidade de </text><text x="52.95000076293945" y="36.8" font-family="Helvetica, Segoe UI Emoji" font-size="16px" fill="#1e1e1e" text-anchor="middle" style="white-space: pre;" direction="ltr" dominant-baseline="text-before-edge">mel produzida</text></g><g stroke-linecap="round" transform="translate(1180.3363639831543 197) rotate(0 67.5 33)"><path d="M16.5 0 C47.73 0, 78.96 0, 118.5 0 M16.5 0 C38.27 0, 60.04 0, 118.5 0 M118.5 0 C129.5 0, 135 5.5, 135 16.5 M118.5 0 C129.5 0, 135 5.5, 135 16.5 M135 16.5 C135 27.62, 135 38.74, 135 49.5 M135 16.5 C135 25.62, 135 34.74, 135 49.5 M135 49.5 C135 60.5, 129.5 66, 118.5 66 M135 49.5 C135 60.5, 129.5 66, 118.5 66 M118.5 66 C86.77 66, 55.03 66, 16.5 66 M118.5 66 C81.31 66, 44.12 66, 16.5 66 M16.5 66 C5.5 66, 0 60.5, 0 49.5 M16.5 66 C5.5 66, 0 60.5, 0 49.5 M0 49.5 C0 38.75, 0 28, 0 16.5 M0 49.5 C0 39.37, 0 29.25, 0 16.5 M0 16.5 C0 5.5, 5.5 0, 16.5 0 M0 16.5 C0 5.5, 5.5 0, 16.5 0" stroke="#1e1e1e" stroke-width="1" fill="none"></path></g><g transform="translate(1194.172728729248 202.39999999999998) rotate(0 53.66363525390625 27.599999999999994)"><text x="53.66363525390625" y="0" font-family="Helvetica, Segoe UI Emoji" font-size="16px" fill="#1e1e1e" text-anchor="middle" style="white-space: pre;" direction="ltr" dominant-baseline="text-before-edge">Regista tempo </text><text x="53.66363525390625" y="18.4" font-family="Helvetica, Segoe UI Emoji" font-size="16px" fill="#1e1e1e" text-anchor="middle" style="white-space: pre;" direction="ltr" dominant-baseline="text-before-edge">gasto na </text><text x="53.66363525390625" y="36.8" font-family="Helvetica, Segoe UI Emoji" font-size="16px" fill="#1e1e1e" text-anchor="middle" style="white-space: pre;" direction="ltr" dominant-baseline="text-before-edge">centrifugadora</text></g><g stroke-linecap="round" transform="translate(1491.3363639831543 194) rotate(0 67.5 33)"><path d="M16.5 0 C41.14 0, 65.79 0, 118.5 0 M16.5 0 C52.91 0, 89.32 0, 118.5 0 M118.5 0 C129.5 0, 135 5.5, 135 16.5 M118.5 0 C129.5 0, 135 5.5, 135 16.5 M135 16.5 C135 27.58, 135 38.66, 135 49.5 M135 16.5 C135 24, 135 31.51, 135 49.5 M135 49.5 C135 60.5, 129.5 66, 118.5 66 M135 49.5 C135 60.5, 129.5 66, 118.5 66 M118.5 66 C78.89 66, 39.27 66, 16.5 66 M118.5 66 C87.13 66, 55.76 66, 16.5 66 M16.5 66 C5.5 66, 0 60.5, 0 49.5 M16.5 66 C5.5 66, 0 60.5, 0 49.5 M0 49.5 C0 40.94, 0 32.39, 0 16.5 M0 49.5 C0 40.51, 0 31.52, 0 16.5 M0 16.5 C0 5.5, 5.5 0, 16.5 0 M0 16.5 C0 5.5, 5.5 0, 16.5 0" stroke="#1e1e1e" stroke-width="1" fill="none"></path></g><g transform="translate(1500.727271270752 199.39999999999998) rotate(0 58.109092712402344 27.599999999999994)"><text x="58.109092712402344" y="0" font-family="Helvetica, Segoe UI Emoji" font-size="16px" fill="#1e1e1e" text-anchor="middle" style="white-space: pre;" direction="ltr" dominant-baseline="text-before-edge">Regista data de </text><text x="58.109092712402344" y="18.4" font-family="Helvetica, Segoe UI Emoji" font-size="16px" fill="#1e1e1e" text-anchor="middle" style="white-space: pre;" direction="ltr" dominant-baseline="text-before-edge">início de </text><text x="58.109092712402344" y="36.8" font-family="Helvetica, Segoe UI Emoji" font-size="16px" fill="#1e1e1e" text-anchor="middle" style="white-space: pre;" direction="ltr" dominant-baseline="text-before-edge">decantação</text></g><g stroke-linecap="round" transform="translate(117.8363639831544 112) rotate(0 78.5 25)"><path d="M12.5 0 C52.18 0, 91.85 0, 144.5 0 C152.83 0, 157 4.17, 157 12.5 C157 18.71, 157 24.93, 157 37.5 C157 45.83, 152.83 50, 144.5 50 C116.05 50, 87.6 50, 12.5 50 C4.17 50, 0 45.83, 0 37.5 C0 30.77, 0 24.04, 0 12.5 C0 4.17, 4.17 0, 12.5 0" stroke="none" stroke-width="0" fill="#ffec99"></path><path d="M12.5 0 C52.54 0, 92.58 0, 144.5 0 M12.5 0 C43.4 0, 74.3 0, 144.5 0 M144.5 0 C152.83 0, 157 4.17, 157 12.5 M144.5 0 C152.83 0, 157 4.17, 157 12.5 M157 12.5 C157 18.95, 157 25.41, 157 37.5 M157 12.5 C157 22.49, 157 32.48, 157 37.5 M157 37.5 C157 45.83, 152.83 50, 144.5 50 M157 37.5 C157 45.83, 152.83 50, 144.5 50 M144.5 50 C102.59 50, 60.68 50, 12.5 50 M144.5 50 C104.66 50, 64.82 50, 12.5 50 M12.5 50 C4.17 50, 0 45.83, 0 37.5 M12.5 50 C4.17 50, 0 45.83, 0 37.5 M0 37.5 C0 28.41, 0 19.33, 0 12.5 M0 37.5 C0 30.41, 0 23.32, 0 12.5 M0 12.5 C0 4.17, 4.17 0, 12.5 0 M0 12.5 C0 4.17, 4.17 0, 12.5 0" stroke="#1e1e1e" stroke-width="1" fill="none"></path></g><g transform="translate(129.80000228881846 127.80000000000001) rotate(0 66.53636169433594 9.200000000000003)"><text x="66.53636169433594" y="0" font-family="Helvetica, Segoe UI Emoji" font-size="16px" fill="#1e1e1e" text-anchor="middle" style="white-space: pre;" direction="ltr" dominant-baseline="text-before-edge">Escolha de Apiário</text></g><g stroke-linecap="round" transform="translate(126.8363639831544 228) rotate(0 61.5 23.5)"><path d="M11.75 0 C32.81 0, 53.87 0, 111.25 0 M11.75 0 C49.45 0, 87.16 0, 111.25 0 M111.25 0 C119.08 0, 123 3.92, 123 11.75 M111.25 0 C119.08 0, 123 3.92, 123 11.75 M123 11.75 C123 18.13, 123 24.52, 123 35.25 M123 11.75 C123 17.37, 123 22.99, 123 35.25 M123 35.25 C123 43.08, 119.08 47, 111.25 47 M123 35.25 C123 43.08, 119.08 47, 111.25 47 M111.25 47 C78.82 47, 46.4 47, 11.75 47 M111.25 47 C77.16 47, 43.08 47, 11.75 47 M11.75 47 C3.92 47, 0 43.08, 0 35.25 M11.75 47 C3.92 47, 0 43.08, 0 35.25 M0 35.25 C0 30.11, 0 24.96, 0 11.75 M0 35.25 C0 27.19, 0 19.12, 0 11.75 M0 11.75 C0 3.92, 3.92 0, 11.75 0 M0 11.75 C0 3.92, 3.92 0, 11.75 0" stroke="#1e1e1e" stroke-width="1" fill="none"></path></g><g transform="translate(132.89091033935557 233.10000000000002) rotate(0 55.44545364379883 18.400000000000006)"><text x="55.44545364379883" y="0" font-family="Helvetica, Segoe UI Emoji" font-size="16px" fill="#1e1e1e" text-anchor="middle" style="white-space: pre;" direction="ltr" dominant-baseline="text-before-edge">Apresenta Lista</text><text x="55.44545364379883" y="18.4" font-family="Helvetica, Segoe UI Emoji" font-size="16px" fill="#1e1e1e" text-anchor="middle" style="white-space: pre;" direction="ltr" dominant-baseline="text-before-edge">de Apiários</text></g><g stroke-linecap="round" transform="translate(128.8363639831544 296) rotate(0 58 23.5)"><path d="M11.75 0 C36.61 0, 61.47 0, 104.25 0 M11.75 0 C42.74 0, 73.73 0, 104.25 0 M104.25 0 C112.08 0, 116 3.92, 116 11.75 M104.25 0 C112.08 0, 116 3.92, 116 11.75 M116 11.75 C116 20.1, 116 28.44, 116 35.25 M116 11.75 C116 18.34, 116 24.93, 116 35.25 M116 35.25 C116 43.08, 112.08 47, 104.25 47 M116 35.25 C116 43.08, 112.08 47, 104.25 47 M104.25 47 C79.89 47, 55.54 47, 11.75 47 M104.25 47 C79.18 47, 54.1 47, 11.75 47 M11.75 47 C3.92 47, 0 43.08, 0 35.25 M11.75 47 C3.92 47, 0 43.08, 0 35.25 M0 35.25 C0 28.44, 0 21.62, 0 11.75 M0 35.25 C0 27.62, 0 19.99, 0 11.75 M0 11.75 C0 3.92, 3.92 0, 11.75 0 M0 11.75 C0 3.92, 3.92 0, 11.75 0" stroke="#1e1e1e" stroke-width="1" fill="none"></path></g><g transform="translate(156.2272731781007 301.1) rotate(0 30.60909080505371 18.400000000000006)"><text x="30.60909080505371" y="0" font-family="Helvetica, Segoe UI Emoji" font-size="16px" fill="#1e1e1e" text-anchor="middle" style="white-space: pre;" direction="ltr" dominant-baseline="text-before-edge">Escolhe </text><text x="30.60909080505371" y="18.4" font-family="Helvetica, Segoe UI Emoji" font-size="16px" fill="#1e1e1e" text-anchor="middle" style="white-space: pre;" direction="ltr" dominant-baseline="text-before-edge">Apiário</text></g><g stroke-linecap="round" transform="translate(642.6220782688686 573.9285714285716) rotate(0 67.5 33)"><path d="M16.5 0 C53.69 0, 90.89 0, 118.5 0 M16.5 0 C37.14 0, 57.78 0, 118.5 0 M118.5 0 C129.5 0, 135 5.5, 135 16.5 M118.5 0 C129.5 0, 135 5.5, 135 16.5 M135 16.5 C135 25.81, 135 35.13, 135 49.5 M135 16.5 C135 25.58, 135 34.65, 135 49.5 M135 49.5 C135 60.5, 129.5 66, 118.5 66 M135 49.5 C135 60.5, 129.5 66, 118.5 66 M118.5 66 C82.34 66, 46.18 66, 16.5 66 M118.5 66 C85.56 66, 52.63 66, 16.5 66 M16.5 66 C5.5 66, 0 60.5, 0 49.5 M16.5 66 C5.5 66, 0 60.5, 0 49.5 M0 49.5 C0 37.88, 0 26.25, 0 16.5 M0 49.5 C0 41.48, 0 33.46, 0 16.5 M0 16.5 C0 5.5, 5.5 0, 16.5 0 M0 16.5 C0 5.5, 5.5 0, 16.5 0" stroke="#1e1e1e" stroke-width="1" fill="none"></path></g><g transform="translate(653.34935030256 579.3285714285715) rotate(0 56.772727966308594 27.600000000000023)"><text x="56.772727966308594" y="0" font-family="Helvetica, Segoe UI Emoji" font-size="16px" fill="#1e1e1e" text-anchor="middle" style="white-space: pre;" direction="ltr" dominant-baseline="text-before-edge">Registo de Uso </text><text x="56.772727966308594" y="18.4" font-family="Helvetica, Segoe UI Emoji" font-size="16px" fill="#1e1e1e" text-anchor="middle" style="white-space: pre;" direction="ltr" dominant-baseline="text-before-edge">de Ferramenta </text><text x="56.772727966308594" y="36.8" font-family="Helvetica, Segoe UI Emoji" font-size="16px" fill="#1e1e1e" text-anchor="middle" style="white-space: pre;" direction="ltr" dominant-baseline="text-before-edge">(Escova)</text></g><g stroke-linecap="round" transform="translate(284.8363639831544 857.5) rotate(0 77 33)"><path d="M16.5 0 C44.32 0, 72.15 0, 137.5 0 M16.5 0 C47.59 0, 78.68 0, 137.5 0 M137.5 0 C148.5 0, 154 5.5, 154 16.5 M137.5 0 C148.5 0, 154 5.5, 154 16.5 M154 16.5 C154 25.77, 154 35.03, 154 49.5 M154 16.5 C154 26.91, 154 37.32, 154 49.5 M154 49.5 C154 60.5, 148.5 66, 137.5 66 M154 49.5 C154 60.5, 148.5 66, 137.5 66 M137.5 66 C95.8 66, 54.09 66, 16.5 66 M137.5 66 C109.68 66, 81.85 66, 16.5 66 M16.5 66 C5.5 66, 0 60.5, 0 49.5 M16.5 66 C5.5 66, 0 60.5, 0 49.5 M0 49.5 C0 37.11, 0 24.73, 0 16.5 M0 49.5 C0 37.13, 0 24.76, 0 16.5 M0 16.5 C0 5.5, 5.5 0, 16.5 0 M0 16.5 C0 5.5, 5.5 0, 16.5 0" stroke="#1e1e1e" stroke-width="1" fill="none"></path></g><g transform="translate(290.4181816101075 862.9) rotate(0 71.41818237304688 27.600000000000023)"><text x="71.41818237304688" y="0" font-family="Helvetica, Segoe UI Emoji" font-size="16px" fill="#1e1e1e" text-anchor="middle" style="white-space: pre;" direction="ltr" dominant-baseline="text-before-edge">Regista quantidade </text><text x="71.41818237304688" y="18.4" font-family="Helvetica, Segoe UI Emoji" font-size="16px" fill="#1e1e1e" text-anchor="middle" style="white-space: pre;" direction="ltr" dominant-baseline="text-before-edge">de vezes que usa o </text><text x="71.41818237304688" y="36.8" font-family="Helvetica, Segoe UI Emoji" font-size="16px" fill="#1e1e1e" text-anchor="middle" style="white-space: pre;" direction="ltr" dominant-baseline="text-before-edge">Fomigadouro</text></g><g stroke-linecap="round" transform="translate(642.3363639831543 863.5) rotate(0 75.00000000000006 33)"><path d="M16.5 0 C44.03 0, 71.57 0, 133.5 0 M16.5 0 C54.84 0, 93.19 0, 133.5 0 M133.5 0 C144.5 0, 150 5.5, 150 16.5 M133.5 0 C144.5 0, 150 5.5, 150 16.5 M150 16.5 C150 25.44, 150 34.38, 150 49.5 M150 16.5 C150 25.07, 150 33.65, 150 49.5 M150 49.5 C150 60.5, 144.5 66, 133.5 66 M150 49.5 C150 60.5, 144.5 66, 133.5 66 M133.5 66 C105.08 66, 76.65 66, 16.5 66 M133.5 66 C87.37 66, 41.23 66, 16.5 66 M16.5 66 C5.5 66, 0 60.5, 0 49.5 M16.5 66 C5.5 66, 0 60.5, 0 49.5 M0 49.5 C0 42.71, 0 35.91, 0 16.5 M0 49.5 C0 36.54, 0 23.59, 0 16.5 M0 16.5 C0 5.5, 5.5 0, 16.5 0 M0 16.5 C0 5.5, 5.5 0, 16.5 0" stroke="#1e1e1e" stroke-width="1" fill="none"></path></g><g transform="translate(648.1363670349122 868.9) rotate(0 69.19999694824219 27.600000000000023)"><text x="69.19999694824219" y="0" font-family="Helvetica, Segoe UI Emoji" font-size="16px" fill="#1e1e1e" text-anchor="middle" style="white-space: pre;" direction="ltr" dominant-baseline="text-before-edge">Registo quantidade</text><text x="69.19999694824219" y="18.4" font-family="Helvetica, Segoe UI Emoji" font-size="16px" fill="#1e1e1e" text-anchor="middle" style="white-space: pre;" direction="ltr" dominant-baseline="text-before-edge">de vezes do uso de</text><text x="69.19999694824219" y="36.8" font-family="Helvetica, Segoe UI Emoji" font-size="16px" fill="#1e1e1e" text-anchor="middle" style="white-space: pre;" direction="ltr" dominant-baseline="text-before-edge">escova</text></g><g stroke-linecap="round" transform="translate(1007.3363639831543 195.5) rotate(0 67.5 33)"><path d="M16.5 0 C39.62 0, 62.73 0, 118.5 0 M16.5 0 C42.4 0, 68.3 0, 118.5 0 M118.5 0 C129.5 0, 135 5.5, 135 16.5 M118.5 0 C129.5 0, 135 5.5, 135 16.5 M135 16.5 C135 28.5, 135 40.5, 135 49.5 M135 16.5 C135 28.42, 135 40.34, 135 49.5 M135 49.5 C135 60.5, 129.5 66, 118.5 66 M135 49.5 C135 60.5, 129.5 66, 118.5 66 M118.5 66 C93.71 66, 68.92 66, 16.5 66 M118.5 66 C79.6 66, 40.71 66, 16.5 66 M16.5 66 C5.5 66, 0 60.5, 0 49.5 M16.5 66 C5.5 66, 0 60.5, 0 49.5 M0 49.5 C0 37.75, 0 25.99, 0 16.5 M0 49.5 C0 36.76, 0 24.01, 0 16.5 M0 16.5 C0 5.5, 5.5 0, 16.5 0 M0 16.5 C0 5.5, 5.5 0, 16.5 0" stroke="#1e1e1e" stroke-width="1" fill="none"></path></g><g transform="translate(1026.0454551696778 200.89999999999998) rotate(0 48.79090881347656 27.599999999999994)"><text x="48.79090881347656" y="0" font-family="Helvetica, Segoe UI Emoji" font-size="16px" fill="#1e1e1e" text-anchor="middle" style="white-space: pre;" direction="ltr" dominant-baseline="text-before-edge">Regista peso </text><text x="48.79090881347656" y="18.4" font-family="Helvetica, Segoe UI Emoji" font-size="16px" fill="#1e1e1e" text-anchor="middle" style="white-space: pre;" direction="ltr" dominant-baseline="text-before-edge">total de cera </text><text x="48.79090881347656" y="36.8" font-family="Helvetica, Segoe UI Emoji" font-size="16px" fill="#1e1e1e" text-anchor="middle" style="white-space: pre;" direction="ltr" dominant-baseline="text-before-edge">retirado</text></g><g stroke-linecap="round" transform="translate(1491.3363639831543 727) rotate(0 67.5 33)"><path d="M16.5 0 C47.31 0, 78.13 0, 118.5 0 M16.5 0 C44.22 0, 71.93 0, 118.5 0 M118.5 0 C129.5 0, 135 5.5, 135 16.5 M118.5 0 C129.5 0, 135 5.5, 135 16.5 M135 16.5 C135 27.22, 135 37.95, 135 49.5 M135 16.5 C135 23.68, 135 30.85, 135 49.5 M135 49.5 C135 60.5, 129.5 66, 118.5 66 M135 49.5 C135 60.5, 129.5 66, 118.5 66 M118.5 66 C88.37 66, 58.24 66, 16.5 66 M118.5 66 C93.75 66, 69 66, 16.5 66 M16.5 66 C5.5 66, 0 60.5, 0 49.5 M16.5 66 C5.5 66, 0 60.5, 0 49.5 M0 49.5 C0 41.71, 0 33.92, 0 16.5 M0 49.5 C0 39.61, 0 29.71, 0 16.5 M0 16.5 C0 5.5, 5.5 0, 16.5 0 M0 16.5 C0 5.5, 5.5 0, 16.5 0" stroke="#1e1e1e" stroke-width="1" fill="none"></path></g><g transform="translate(1500.2909080505372 741.6) rotate(0 58.54545593261719 18.399999999999977)"><text x="58.54545593261719" y="0" font-family="Helvetica, Segoe UI Emoji" font-size="16px" fill="#1e1e1e" text-anchor="middle" style="white-space: pre;" direction="ltr" dominant-baseline="text-before-edge">Altera tempo de </text><text x="58.54545593261719" y="18.4" font-family="Helvetica, Segoe UI Emoji" font-size="16px" fill="#1e1e1e" text-anchor="middle" style="white-space: pre;" direction="ltr" dominant-baseline="text-before-edge">decantação</text></g><g stroke-linecap="round" transform="translate(1491.3363639831543 574) rotate(0 67.5 33)"><path d="M16.5 0 C43.44 0, 70.37 0, 118.5 0 M16.5 0 C48.37 0, 80.24 0, 118.5 0 M118.5 0 C129.5 0, 135 5.5, 135 16.5 M118.5 0 C129.5 0, 135 5.5, 135 16.5 M135 16.5 C135 26.51, 135 36.51, 135 49.5 M135 16.5 C135 24.81, 135 33.12, 135 49.5 M135 49.5 C135 60.5, 129.5 66, 118.5 66 M135 49.5 C135 60.5, 129.5 66, 118.5 66 M118.5 66 C91.67 66, 64.83 66, 16.5 66 M118.5 66 C79.78 66, 41.06 66, 16.5 66 M16.5 66 C5.5 66, 0 60.5, 0 49.5 M16.5 66 C5.5 66, 0 60.5, 0 49.5 M0 49.5 C0 41.44, 0 33.39, 0 16.5 M0 49.5 C0 42.01, 0 34.52, 0 16.5 M0 16.5 C0 5.5, 5.5 0, 16.5 0 M0 16.5 C0 5.5, 5.5 0, 16.5 0" stroke="#1e1e1e" stroke-width="1" fill="none"></path></g><g transform="translate(1502.5181838989258 588.6) rotate(0 56.318180084228516 18.399999999999977)"><text x="56.318180084228516" y="0" font-family="Helvetica, Segoe UI Emoji" font-size="16px" fill="#1e1e1e" text-anchor="middle" style="white-space: pre;" direction="ltr" dominant-baseline="text-before-edge">Marca início de </text><text x="56.318180084228516" y="18.4" font-family="Helvetica, Segoe UI Emoji" font-size="16px" fill="#1e1e1e" text-anchor="middle" style="white-space: pre;" direction="ltr" dominant-baseline="text-before-edge">decantação</text></g><g stroke-linecap="round" transform="translate(1494.3363639831543 648) rotate(0 67.5 33)"><path d="M16.5 0 C48.66 0, 80.82 0, 118.5 0 M16.5 0 C49.68 0, 82.86 0, 118.5 0 M118.5 0 C129.5 0, 135 5.5, 135 16.5 M118.5 0 C129.5 0, 135 5.5, 135 16.5 M135 16.5 C135 26.43, 135 36.36, 135 49.5 M135 16.5 C135 24.98, 135 33.46, 135 49.5 M135 49.5 C135 60.5, 129.5 66, 118.5 66 M135 49.5 C135 60.5, 129.5 66, 118.5 66 M118.5 66 C80.09 66, 41.68 66, 16.5 66 M118.5 66 C78.99 66, 39.49 66, 16.5 66 M16.5 66 C5.5 66, 0 60.5, 0 49.5 M16.5 66 C5.5 66, 0 60.5, 0 49.5 M0 49.5 C0 36.31, 0 23.12, 0 16.5 M0 49.5 C0 40.73, 0 31.97, 0 16.5 M0 16.5 C0 5.5, 5.5 0, 16.5 0 M0 16.5 C0 5.5, 5.5 0, 16.5 0" stroke="#1e1e1e" stroke-width="1" fill="none"></path></g><g transform="translate(1513.5090896606446 662.6) rotate(0 48.327274322509766 18.399999999999977)"><text x="48.327274322509766" y="0" font-family="Helvetica, Segoe UI Emoji" font-size="16px" fill="#1e1e1e" text-anchor="middle" style="white-space: pre;" direction="ltr" dominant-baseline="text-before-edge">Marca fim de </text><text x="48.327274322509766" y="18.4" font-family="Helvetica, Segoe UI Emoji" font-size="16px" fill="#1e1e1e" text-anchor="middle" style="white-space: pre;" direction="ltr" dominant-baseline="text-before-edge">decantação</text></g><g stroke-linecap="round" transform="translate(1494.3363639831543 270) rotate(0 67.5 33)"><path d="M16.5 0 C53.2 0, 89.89 0, 118.5 0 M16.5 0 C42.37 0, 68.25 0, 118.5 0 M118.5 0 C129.5 0, 135 5.5, 135 16.5 M118.5 0 C129.5 0, 135 5.5, 135 16.5 M135 16.5 C135 23.45, 135 30.4, 135 49.5 M135 16.5 C135 23.44, 135 30.38, 135 49.5 M135 49.5 C135 60.5, 129.5 66, 118.5 66 M135 49.5 C135 60.5, 129.5 66, 118.5 66 M118.5 66 C93.38 66, 68.26 66, 16.5 66 M118.5 66 C97.48 66, 76.46 66, 16.5 66 M16.5 66 C5.5 66, 0 60.5, 0 49.5 M16.5 66 C5.5 66, 0 60.5, 0 49.5 M0 49.5 C0 41.44, 0 33.38, 0 16.5 M0 49.5 C0 41.67, 0 33.84, 0 16.5 M0 16.5 C0 5.5, 5.5 0, 16.5 0 M0 16.5 C0 5.5, 5.5 0, 16.5 0" stroke="#1e1e1e" stroke-width="1" fill="none"></path></g><g transform="translate(1503.727271270752 275.4) rotate(0 58.109092712402344 27.599999999999994)"><text x="58.109092712402344" y="0" font-family="Helvetica, Segoe UI Emoji" font-size="16px" fill="#1e1e1e" text-anchor="middle" style="white-space: pre;" direction="ltr" dominant-baseline="text-before-edge">Regista data de </text><text x="58.109092712402344" y="18.4" font-family="Helvetica, Segoe UI Emoji" font-size="16px" fill="#1e1e1e" text-anchor="middle" style="white-space: pre;" direction="ltr" dominant-baseline="text-before-edge">fim de </text><text x="58.109092712402344" y="36.8" font-family="Helvetica, Segoe UI Emoji" font-size="16px" fill="#1e1e1e" text-anchor="middle" style="white-space: pre;" direction="ltr" dominant-baseline="text-before-edge">decantação</text></g><g stroke-linecap="round" transform="translate(287.8363639831544 579.5) rotate(0 77 33)"><path d="M16.5 0 C61.01 0, 105.51 0, 137.5 0 M16.5 0 C58.89 0, 101.27 0, 137.5 0 M137.5 0 C148.5 0, 154 5.5, 154 16.5 M137.5 0 C148.5 0, 154 5.5, 154 16.5 M154 16.5 C154 29.17, 154 41.84, 154 49.5 M154 16.5 C154 27.93, 154 39.36, 154 49.5 M154 49.5 C154 60.5, 148.5 66, 137.5 66 M154 49.5 C154 60.5, 148.5 66, 137.5 66 M137.5 66 C98.2 66, 58.89 66, 16.5 66 M137.5 66 C101.57 66, 65.65 66, 16.5 66 M16.5 66 C5.5 66, 0 60.5, 0 49.5 M16.5 66 C5.5 66, 0 60.5, 0 49.5 M0 49.5 C0 39.94, 0 30.38, 0 16.5 M0 49.5 C0 41.15, 0 32.8, 0 16.5 M0 16.5 C0 5.5, 5.5 0, 16.5 0 M0 16.5 C0 5.5, 5.5 0, 16.5 0" stroke="#1e1e1e" stroke-width="1" fill="none"></path></g><g transform="translate(296.97272415161143 584.9) rotate(0 67.86363983154297 27.600000000000023)"><text x="67.86363983154297" y="0" font-family="Helvetica, Segoe UI Emoji" font-size="16px" fill="#1e1e1e" text-anchor="middle" style="white-space: pre;" direction="ltr" dominant-baseline="text-before-edge">Registo de Uso de </text><text x="67.86363983154297" y="18.4" font-family="Helvetica, Segoe UI Emoji" font-size="16px" fill="#1e1e1e" text-anchor="middle" style="white-space: pre;" direction="ltr" dominant-baseline="text-before-edge">Ferramenta </text><text x="67.86363983154297" y="36.8" font-family="Helvetica, Segoe UI Emoji" font-size="16px" fill="#1e1e1e" text-anchor="middle" style="white-space: pre;" direction="ltr" dominant-baseline="text-before-edge">(Fomigadouro)</text></g><g stroke-linecap="round" transform="translate(829.733666931071 645.9577328547341) rotate(0 61.785714285714334 33)"><path d="M16.5 0 C43.73 0, 70.97 0, 107.07 0 M16.5 0 C37.69 0, 58.88 0, 107.07 0 M107.07 0 C118.07 0, 123.57 5.5, 123.57 16.5 M107.07 0 C118.07 0, 123.57 5.5, 123.57 16.5 M123.57 16.5 C123.57 28.35, 123.57 40.21, 123.57 49.5 M123.57 16.5 C123.57 26.85, 123.57 37.21, 123.57 49.5 M123.57 49.5 C123.57 60.5, 118.07 66, 107.07 66 M123.57 49.5 C123.57 60.5, 118.07 66, 107.07 66 M107.07 66 C81.33 66, 55.59 66, 16.5 66 M107.07 66 C87.04 66, 67 66, 16.5 66 M16.5 66 C5.5 66, 0 60.5, 0 49.5 M16.5 66 C5.5 66, 0 60.5, 0 49.5 M0 49.5 C0 40.45, 0 31.39, 0 16.5 M0 49.5 C0 42.39, 0 35.29, 0 16.5 M0 16.5 C0 5.5, 5.5 0, 16.5 0 M0 16.5 C0 5.5, 5.5 0, 16.5 0" stroke="#1e1e1e" stroke-width="1" fill="none"></path></g><g transform="translate(858.7485491550176 651.3577328547341) rotate(0 32.77083206176758 27.600000000000023)"><text x="32.77083206176758" y="0" font-family="Helvetica, Segoe UI Emoji" font-size="16px" fill="#1e1e1e" text-anchor="middle" style="white-space: pre;" direction="ltr" dominant-baseline="text-before-edge">Regista </text><text x="32.77083206176758" y="18.4" font-family="Helvetica, Segoe UI Emoji" font-size="16px" fill="#1e1e1e" text-anchor="middle" style="white-space: pre;" direction="ltr" dominant-baseline="text-before-edge">Quadros </text><text x="32.77083206176758" y="36.8" font-family="Helvetica, Segoe UI Emoji" font-size="16px" fill="#1e1e1e" text-anchor="middle" style="white-space: pre;" direction="ltr" dominant-baseline="text-before-edge">retirados</text></g><g stroke-linecap="round" transform="translate(125.73366693107113 365.24344714044827) rotate(0 61.5 23.5)"><path d="M11.75 0 C50.98 0, 90.22 0, 111.25 0 M11.75 0 C36.8 0, 61.85 0, 111.25 0 M111.25 0 C119.08 0, 123 3.92, 123 11.75 M111.25 0 C119.08 0, 123 3.92, 123 11.75 M123 11.75 C123 18.4, 123 25.05, 123 35.25 M123 11.75 C123 16.46, 123 21.18, 123 35.25 M123 35.25 C123 43.08, 119.08 47, 111.25 47 M123 35.25 C123 43.08, 119.08 47, 111.25 47 M111.25 47 C79.36 47, 47.48 47, 11.75 47 M111.25 47 C85.09 47, 58.93 47, 11.75 47 M11.75 47 C3.92 47, 0 43.08, 0 35.25 M11.75 47 C3.92 47, 0 43.08, 0 35.25 M0 35.25 C0 30.49, 0 25.72, 0 11.75 M0 35.25 C0 26.44, 0 17.63, 0 11.75 M0 11.75 C0 3.92, 3.92 0, 11.75 0 M0 11.75 C0 3.92, 3.92 0, 11.75 0" stroke="#1e1e1e" stroke-width="1" fill="none"></path></g><g transform="translate(131.86908486930355 370.3434471404483) rotate(0 55.36458206176758 18.400000000000006)"><text x="55.36458206176758" y="0" font-family="Helvetica, Segoe UI Emoji" font-size="16px" fill="#1e1e1e" text-anchor="middle" style="white-space: pre;" direction="ltr" dominant-baseline="text-before-edge">Apresenta Lista</text><text x="55.36458206176758" y="18.4" font-family="Helvetica, Segoe UI Emoji" font-size="16px" fill="#1e1e1e" text-anchor="middle" style="white-space: pre;" direction="ltr" dominant-baseline="text-before-edge">de Colmeias</text></g><g stroke-linecap="round" transform="translate(129.09080978821402 435.2434471404483) rotate(0 58 23.5)"><path d="M11.75 0 C31.89 0, 52.02 0, 104.25 0 M11.75 0 C41.68 0, 71.61 0, 104.25 0 M104.25 0 C112.08 0, 116 3.92, 116 11.75 M104.25 0 C112.08 0, 116 3.92, 116 11.75 M116 11.75 C116 18.86, 116 25.98, 116 35.25 M116 11.75 C116 20.35, 116 28.95, 116 35.25 M116 35.25 C116 43.08, 112.08 47, 104.25 47 M116 35.25 C116 43.08, 112.08 47, 104.25 47 M104.25 47 C70.11 47, 35.97 47, 11.75 47 M104.25 47 C67.56 47, 30.88 47, 11.75 47 M11.75 47 C3.92 47, 0 43.08, 0 35.25 M11.75 47 C3.92 47, 0 43.08, 0 35.25 M0 35.25 C0 29.94, 0 24.63, 0 11.75 M0 35.25 C0 28.99, 0 22.73, 0 11.75 M0 11.75 C0 3.92, 3.92 0, 11.75 0 M0 11.75 C0 3.92, 3.92 0, 11.75 0" stroke="#1e1e1e" stroke-width="1" fill="none"></path></g><g transform="translate(156.52830978821402 440.34344714044835) rotate(0 30.5625 18.399999999999977)"><text x="30.5625" y="0" font-family="Helvetica, Segoe UI Emoji" font-size="16px" fill="#1e1e1e" text-anchor="middle" style="white-space: pre;" direction="ltr" dominant-baseline="text-before-edge">Escolhe </text><text x="30.5625" y="18.4" font-family="Helvetica, Segoe UI Emoji" font-size="16px" fill="#1e1e1e" text-anchor="middle" style="white-space: pre;" direction="ltr" dominant-baseline="text-before-edge">colmeia</text></g></svg>