<svg version="1.1" xmlns="http://www.w3.org/2000/svg" viewBox="0 0 1982.09705854295 1496.9642857142853" width="1982.09705854295" height="1496.9642857142853">
  <!-- svg-source:excalidraw -->
  
  <defs>
    <style class="style-fonts">
      @font-face {
        font-family: "Virgil";
        src: url("https://excalidraw.com/Virgil.woff2");
      }
      @font-face {
        font-family: "Cascadia";
        src: url("https://excalidraw.com/Cascadia.woff2");
      }
      @font-face {
        font-family: "Assistant";
        src: url("https://excalidraw.com/Assistant-Regular.woff2");
      }
    </style>
    
  </defs>
  <rect x="0" y="0" width="1982.09705854295" height="1496.9642857142853" fill="#ffffff"></rect><g stroke-linecap="round" transform="translate(121.67168720633936 109.8423721983196) rotate(0 73 42)"><path d="M21 0 C44.37 0, 67.73 0, 125 0 C139 0, 146 7, 146 21 C146 30.42, 146 39.85, 146 63 C146 77, 139 84, 125 84 C96.8 84, 68.59 84, 21 84 C7 84, 0 77, 0 63 C0 49.1, 0 35.2, 0 21 C0 7, 7 0, 21 0" stroke="none" stroke-width="0" fill="#a5d8ff"></path><path d="M21 0 C43.17 0, 65.34 0, 125 0 M21 0 C54.33 0, 87.66 0, 125 0 M125 0 C139 0, 146 7, 146 21 M125 0 C139 0, 146 7, 146 21 M146 21 C146 37.41, 146 53.81, 146 63 M146 21 C146 35.92, 146 50.84, 146 63 M146 63 C146 77, 139 84, 125 84 M146 63 C146 77, 139 84, 125 84 M125 84 C96.53 84, 68.05 84, 21 84 M125 84 C84.43 84, 43.85 84, 21 84 M21 84 C7 84, 0 77, 0 63 M21 84 C7 84, 0 77, 0 63 M0 63 C0 48.59, 0 34.18, 0 21 M0 63 C0 52.28, 0 41.57, 0 21 M0 21 C0 7, 7 0, 21 0 M0 21 C0 7, 7 0, 21 0" stroke="#1e1e1e" stroke-width="1" fill="none"></path></g><g transform="translate(145.31231220633936 115.04237219831964) rotate(0 49.359375 36.80000000000001)"><text x="49.359375" y="0" font-family="Helvetica, Segoe UI Emoji" font-size="16px" fill="#1e1e1e" text-anchor="middle" style="white-space: pre;" direction="ltr" dominant-baseline="text-before-edge">Selecionar </text><text x="49.359375" y="18.4" font-family="Helvetica, Segoe UI Emoji" font-size="16px" fill="#1e1e1e" text-anchor="middle" style="white-space: pre;" direction="ltr" dominant-baseline="text-before-edge">colmeias que </text><text x="49.359375" y="36.8" font-family="Helvetica, Segoe UI Emoji" font-size="16px" fill="#1e1e1e" text-anchor="middle" style="white-space: pre;" direction="ltr" dominant-baseline="text-before-edge">serão </text><text x="49.359375" y="55.199999999999996" font-family="Helvetica, Segoe UI Emoji" font-size="16px" fill="#1e1e1e" text-anchor="middle" style="white-space: pre;" direction="ltr" dominant-baseline="text-before-edge">transumadas</text></g><g stroke-linecap="round"><g transform="translate(90.83636398315457 107.80655418099593) rotate(0 2.2956464463693464 677.7051756125406)"><path d="M0 0 C0.77 225.9, 3.83 1129.51, 4.59 1355.41 M0 0 C0.77 225.9, 3.83 1129.51, 4.59 1355.41" stroke="#1e1e1e" stroke-width="1" fill="none"></path></g><g transform="translate(90.83636398315457 107.80655418099593) rotate(0 2.2956464463693464 677.7051756125406)"><path d="M-4.04 1331.95 C-0.75 1340.88, 2.54 1349.82, 4.59 1355.41 M-4.04 1331.95 C-2.06 1337.34, -0.07 1342.73, 4.59 1355.41" stroke="#1e1e1e" stroke-width="1" fill="none"></path></g><g transform="translate(90.83636398315457 107.80655418099593) rotate(0 2.2956464463693464 677.7051756125406)"><path d="M13.06 1331.89 C9.84 1340.85, 6.61 1349.81, 4.59 1355.41 M13.06 1331.89 C11.12 1337.29, 9.17 1342.7, 4.59 1355.41" stroke="#1e1e1e" stroke-width="1" fill="none"></path></g></g><mask></mask><g transform="translate(-89.8524597167966 537.117730481046) rotate(270 133.55245971679688 33.70000000000013)"><text x="0" y="0" font-family="Helvetica, Segoe UI Emoji" font-size="58.60869565217415px" fill="#1e1e1e" text-anchor="start" style="white-space: pre;" direction="ltr" dominant-baseline="text-before-edge">Prioridade</text></g><g transform="translate(36.83636398315457 144.80655418099593) rotate(0 20.729408264160156 13.835822703205224)"><text x="0" y="0" font-family="Helvetica, Segoe UI Emoji" font-size="24.062300353400357px" fill="#1e1e1e" text-anchor="start" style="white-space: pre;" direction="ltr" dominant-baseline="text-before-edge">Alta</text></g><g stroke-linecap="round"><g transform="translate(91.83458282592983 282.8099006801531) rotate(0 935.7800128051163 -0.5840116379862366)"><path d="M0 0 C311.93 -0.19, 1559.63 -0.97, 1871.56 -1.17 M0 0 C311.93 -0.19, 1559.63 -0.97, 1871.56 -1.17" stroke="#1e1e1e" stroke-width="1" fill="none"></path></g><g transform="translate(91.83458282592983 282.8099006801531) rotate(0 935.7800128051163 -0.5840116379862366)"><path d="M1848.07 7.4 C1855.28 4.77, 1862.49 2.14, 1871.56 -1.17 M1848.07 7.4 C1857.25 4.05, 1866.42 0.71, 1871.56 -1.17" stroke="#1e1e1e" stroke-width="1" fill="none"></path></g><g transform="translate(91.83458282592983 282.8099006801531) rotate(0 935.7800128051163 -0.5840116379862366)"><path d="M1848.06 -9.7 C1855.27 -7.08, 1862.49 -4.46, 1871.56 -1.17 M1848.06 -9.7 C1857.24 -6.37, 1866.42 -3.04, 1871.56 -1.17" stroke="#1e1e1e" stroke-width="1" fill="none"></path></g></g><mask></mask><g stroke-linecap="round" transform="translate(288.83636398315457 206.80655418099593) rotate(0 76.5 28.5)"><path d="M14.25 0 C45.57 0, 76.89 0, 138.75 0 C148.25 0, 153 4.75, 153 14.25 C153 21.25, 153 28.26, 153 42.75 C153 52.25, 148.25 57, 138.75 57 C90.32 57, 41.9 57, 14.25 57 C4.75 57, 0 52.25, 0 42.75 C0 35.9, 0 29.04, 0 14.25 C0 4.75, 4.75 0, 14.25 0" stroke="none" stroke-width="0" fill="#ffec99"></path><path d="M14.25 0 C44.78 0, 75.31 0, 138.75 0 M14.25 0 C39.46 0, 64.68 0, 138.75 0 M138.75 0 C148.25 0, 153 4.75, 153 14.25 M138.75 0 C148.25 0, 153 4.75, 153 14.25 M153 14.25 C153 24.9, 153 35.56, 153 42.75 M153 14.25 C153 20.52, 153 26.78, 153 42.75 M153 42.75 C153 52.25, 148.25 57, 138.75 57 M153 42.75 C153 52.25, 148.25 57, 138.75 57 M138.75 57 C106.8 57, 74.85 57, 14.25 57 M138.75 57 C102.73 57, 66.71 57, 14.25 57 M14.25 57 C4.75 57, 0 52.25, 0 42.75 M14.25 57 C4.75 57, 0 52.25, 0 42.75 M0 42.75 C0 33.65, 0 24.55, 0 14.25 M0 42.75 C0 36.37, 0 29.99, 0 14.25 M0 14.25 C0 4.75, 4.75 0, 14.25 0 M0 14.25 C0 4.75, 4.75 0, 14.25 0" stroke="#1e1e1e" stroke-width="1" fill="none"></path></g><g transform="translate(303.98089523315457 216.90655418099595) rotate(0 61.35546875 18.399999999999977)"><text x="61.35546875" y="0" font-family="Helvetica, Segoe UI Emoji" font-size="16px" fill="#1e1e1e" text-anchor="middle" style="white-space: pre;" direction="ltr" dominant-baseline="text-before-edge">Escolha de </text><text x="61.35546875" y="18.4" font-family="Helvetica, Segoe UI Emoji" font-size="16px" fill="#1e1e1e" text-anchor="middle" style="white-space: pre;" direction="ltr" dominant-baseline="text-before-edge">colmeia/colmeias</text></g><g stroke-linecap="round" transform="translate(454.83636398315457 208.80655418099593) rotate(0 84.5 26)"><path d="M13 0 C44.46 0, 75.92 0, 156 0 C164.67 0, 169 4.33, 169 13 C169 19.5, 169 26, 169 39 C169 47.67, 164.67 52, 156 52 C99.13 52, 42.26 52, 13 52 C4.33 52, 0 47.67, 0 39 C0 32.48, 0 25.96, 0 13 C0 4.33, 4.33 0, 13 0" stroke="none" stroke-width="0" fill="#ffec99"></path><path d="M13 0 C43.26 0, 73.52 0, 156 0 M13 0 C65.5 0, 118 0, 156 0 M156 0 C164.67 0, 169 4.33, 169 13 M156 0 C164.67 0, 169 4.33, 169 13 M169 13 C169 23.11, 169 33.22, 169 39 M169 13 C169 21.4, 169 29.8, 169 39 M169 39 C169 47.67, 164.67 52, 156 52 M169 39 C169 47.67, 164.67 52, 156 52 M156 52 C123.76 52, 91.51 52, 13 52 M156 52 C121.58 52, 87.16 52, 13 52 M13 52 C4.33 52, 0 47.67, 0 39 M13 52 C4.33 52, 0 47.67, 0 39 M0 39 C0 31.19, 0 23.37, 0 13 M0 39 C0 33.2, 0 27.4, 0 13 M0 13 C0 4.33, 4.33 0, 13 0 M0 13 C0 4.33, 4.33 0, 13 0" stroke="#1e1e1e" stroke-width="1" fill="none"></path></g><g transform="translate(472.62933273315457 225.6065541809959) rotate(0 66.70703125 9.199999999999989)"><text x="66.70703125" y="0" font-family="Helvetica, Segoe UI Emoji" font-size="16px" fill="#1e1e1e" text-anchor="middle" style="white-space: pre;" direction="ltr" dominant-baseline="text-before-edge">Escolha de Apiário</text></g><g stroke-linecap="round" transform="translate(632.3363639831546 207.6418774041806) rotate(0 84.5 26)"><path d="M13 0 C53.98 0, 94.95 0, 156 0 C164.67 0, 169 4.33, 169 13 C169 19.73, 169 26.45, 169 39 C169 47.67, 164.67 52, 156 52 C116.12 52, 76.25 52, 13 52 C4.33 52, 0 47.67, 0 39 C0 28.9, 0 18.8, 0 13 C0 4.33, 4.33 0, 13 0" stroke="none" stroke-width="0" fill="#ffec99"></path><path d="M13 0 C46.48 0, 79.95 0, 156 0 M13 0 C64.81 0, 116.62 0, 156 0 M156 0 C164.67 0, 169 4.33, 169 13 M156 0 C164.67 0, 169 4.33, 169 13 M169 13 C169 22.45, 169 31.9, 169 39 M169 13 C169 18.73, 169 24.47, 169 39 M169 39 C169 47.67, 164.67 52, 156 52 M169 39 C169 47.67, 164.67 52, 156 52 M156 52 C100.29 52, 44.58 52, 13 52 M156 52 C119.38 52, 82.75 52, 13 52 M13 52 C4.33 52, 0 47.67, 0 39 M13 52 C4.33 52, 0 47.67, 0 39 M0 39 C0 29.68, 0 20.36, 0 13 M0 39 C0 29.62, 0 20.24, 0 13 M0 13 C0 4.33, 4.33 0, 13 0 M0 13 C0 4.33, 4.33 0, 13 0" stroke="#1e1e1e" stroke-width="1" fill="none"></path></g><g transform="translate(650.1254264831546 215.24187740418063) rotate(0 66.7109375 18.399999999999977)"><text x="66.7109375" y="0" font-family="Helvetica, Segoe UI Emoji" font-size="16px" fill="#1e1e1e" text-anchor="middle" style="white-space: pre;" direction="ltr" dominant-baseline="text-before-edge">Apresentação das </text><text x="66.7109375" y="18.4" font-family="Helvetica, Segoe UI Emoji" font-size="16px" fill="#1e1e1e" text-anchor="middle" style="white-space: pre;" direction="ltr" dominant-baseline="text-before-edge">seleções</text></g><g stroke-linecap="round"><g transform="translate(90.71347489321715 669.1359077346267) rotate(0 931.8495212758032 -4.033707107261421)"><path d="M0 0 C310.62 -1.34, 1553.08 -6.72, 1863.7 -8.07 M0 0 C310.62 -1.34, 1553.08 -6.72, 1863.7 -8.07" stroke="#1e1e1e" stroke-width="1" fill="none"></path></g><g transform="translate(90.71347489321715 669.1359077346267) rotate(0 931.8495212758032 -4.033707107261421)"><path d="M1840.24 0.58 C1848.84 -2.59, 1857.43 -5.76, 1863.7 -8.07 M1840.24 0.58 C1846.37 -1.67, 1852.49 -3.93, 1863.7 -8.07" stroke="#1e1e1e" stroke-width="1" fill="none"></path></g><g transform="translate(90.71347489321715 669.1359077346267) rotate(0 931.8495212758032 -4.033707107261421)"><path d="M1840.17 -16.52 C1848.79 -13.42, 1857.41 -10.32, 1863.7 -8.07 M1840.17 -16.52 C1846.31 -14.31, 1852.46 -12.1, 1863.7 -8.07" stroke="#1e1e1e" stroke-width="1" fill="none"></path></g></g><mask></mask><g transform="translate(110.67168720633936 292.80655418099593) rotate(0 17.3359375 9.199999999999989)"><text x="0" y="0" font-family="Helvetica, Segoe UI Emoji" font-size="16px" fill="#1e1e1e" text-anchor="start" style="white-space: pre;" direction="ltr" dominant-baseline="text-before-edge">MVP</text></g><g transform="translate(116.83636398315457 683.8065541809959) rotate(0 18.671875 9.200000000000003)"><text x="0" y="0" font-family="Helvetica, Segoe UI Emoji" font-size="16px" fill="#1e1e1e" text-anchor="start" style="white-space: pre;" direction="ltr" dominant-baseline="text-before-edge">MVI1</text></g><g stroke-linecap="round"><g transform="translate(97.74951424641677 1345.2700741873725) rotate(0 937.1737721482666 2.085602345529992)"><path d="M0 0 C312.39 0.7, 1561.96 3.48, 1874.35 4.17 M0 0 C312.39 0.7, 1561.96 3.48, 1874.35 4.17" stroke="#1e1e1e" stroke-width="1" fill="none"></path></g><g transform="translate(97.74951424641677 1345.2700741873725) rotate(0 937.1737721482666 2.085602345529992)"><path d="M1850.84 12.67 C1856.96 10.46, 1863.08 8.24, 1874.35 4.17 M1850.84 12.67 C1857.14 10.39, 1863.44 8.11, 1874.35 4.17" stroke="#1e1e1e" stroke-width="1" fill="none"></path></g><g transform="translate(97.74951424641677 1345.2700741873725) rotate(0 937.1737721482666 2.085602345529992)"><path d="M1850.87 -4.43 C1856.99 -2.19, 1863.1 0.05, 1874.35 4.17 M1850.87 -4.43 C1857.17 -2.13, 1863.46 0.18, 1874.35 4.17" stroke="#1e1e1e" stroke-width="1" fill="none"></path></g></g><mask></mask><g transform="translate(113.19741746559384 1356.0345270838188) rotate(0 28.4609375 9.199999999999989)"><text x="0" y="0" font-family="Helvetica, Segoe UI Emoji" font-size="16px" fill="#1e1e1e" text-anchor="start" style="white-space: pre;" direction="ltr" dominant-baseline="text-before-edge">Backlog</text></g><g stroke-linecap="round" transform="translate(117.83636398315457 209.80655418099593) rotate(0 78.5 25)"><path d="M12.5 0 C52.18 0, 91.85 0, 144.5 0 C152.83 0, 157 4.17, 157 12.5 C157 18.71, 157 24.93, 157 37.5 C157 45.83, 152.83 50, 144.5 50 C116.05 50, 87.6 50, 12.5 50 C4.17 50, 0 45.83, 0 37.5 C0 30.77, 0 24.04, 0 12.5 C0 4.17, 4.17 0, 12.5 0" stroke="none" stroke-width="0" fill="#ffec99"></path><path d="M12.5 0 C52.54 0, 92.58 0, 144.5 0 M12.5 0 C43.4 0, 74.3 0, 144.5 0 M144.5 0 C152.83 0, 157 4.17, 157 12.5 M144.5 0 C152.83 0, 157 4.17, 157 12.5 M157 12.5 C157 18.95, 157 25.41, 157 37.5 M157 12.5 C157 22.49, 157 32.48, 157 37.5 M157 37.5 C157 45.83, 152.83 50, 144.5 50 M157 37.5 C157 45.83, 152.83 50, 144.5 50 M144.5 50 C102.59 50, 60.68 50, 12.5 50 M144.5 50 C104.66 50, 64.82 50, 12.5 50 M12.5 50 C4.17 50, 0 45.83, 0 37.5 M12.5 50 C4.17 50, 0 45.83, 0 37.5 M0 37.5 C0 28.41, 0 19.33, 0 12.5 M0 37.5 C0 30.41, 0 23.32, 0 12.5 M0 12.5 C0 4.17, 4.17 0, 12.5 0 M0 12.5 C0 4.17, 4.17 0, 12.5 0" stroke="#1e1e1e" stroke-width="1" fill="none"></path></g><g transform="translate(129.62933273315457 225.6065541809959) rotate(0 66.70703125 9.199999999999989)"><text x="66.70703125" y="0" font-family="Helvetica, Segoe UI Emoji" font-size="16px" fill="#1e1e1e" text-anchor="middle" style="white-space: pre;" direction="ltr" dominant-baseline="text-before-edge">Escolha de Apiário</text></g><g stroke-linecap="round" transform="translate(126.83636398315457 325.80655418099593) rotate(0 61.5 23.5)"><path d="M11.75 0 C32.81 0, 53.87 0, 111.25 0 M11.75 0 C49.45 0, 87.16 0, 111.25 0 M111.25 0 C119.08 0, 123 3.92, 123 11.75 M111.25 0 C119.08 0, 123 3.92, 123 11.75 M123 11.75 C123 18.13, 123 24.52, 123 35.25 M123 11.75 C123 17.37, 123 22.99, 123 35.25 M123 35.25 C123 43.08, 119.08 47, 111.25 47 M123 35.25 C123 43.08, 119.08 47, 111.25 47 M111.25 47 C78.82 47, 46.4 47, 11.75 47 M111.25 47 C77.16 47, 43.08 47, 11.75 47 M11.75 47 C3.92 47, 0 43.08, 0 35.25 M11.75 47 C3.92 47, 0 43.08, 0 35.25 M0 35.25 C0 30.11, 0 24.96, 0 11.75 M0 35.25 C0 27.19, 0 19.12, 0 11.75 M0 11.75 C0 3.92, 3.92 0, 11.75 0 M0 11.75 C0 3.92, 3.92 0, 11.75 0" stroke="#1e1e1e" stroke-width="1" fill="none"></path></g><g transform="translate(132.89091033935574 330.90655418099595) rotate(0 55.44545364379883 18.400000000000006)"><text x="55.44545364379883" y="0" font-family="Helvetica, Segoe UI Emoji" font-size="16px" fill="#1e1e1e" text-anchor="middle" style="white-space: pre;" direction="ltr" dominant-baseline="text-before-edge">Apresenta Lista</text><text x="55.44545364379883" y="18.4" font-family="Helvetica, Segoe UI Emoji" font-size="16px" fill="#1e1e1e" text-anchor="middle" style="white-space: pre;" direction="ltr" dominant-baseline="text-before-edge">de Apiários</text></g><g stroke-linecap="round" transform="translate(128.83636398315457 393.80655418099593) rotate(0 58 23.5)"><path d="M11.75 0 C36.61 0, 61.47 0, 104.25 0 M11.75 0 C42.74 0, 73.73 0, 104.25 0 M104.25 0 C112.08 0, 116 3.92, 116 11.75 M104.25 0 C112.08 0, 116 3.92, 116 11.75 M116 11.75 C116 20.1, 116 28.44, 116 35.25 M116 11.75 C116 18.34, 116 24.93, 116 35.25 M116 35.25 C116 43.08, 112.08 47, 104.25 47 M116 35.25 C116 43.08, 112.08 47, 104.25 47 M104.25 47 C79.89 47, 55.54 47, 11.75 47 M104.25 47 C79.18 47, 54.1 47, 11.75 47 M11.75 47 C3.92 47, 0 43.08, 0 35.25 M11.75 47 C3.92 47, 0 43.08, 0 35.25 M0 35.25 C0 28.44, 0 21.62, 0 11.75 M0 35.25 C0 27.62, 0 19.99, 0 11.75 M0 11.75 C0 3.92, 3.92 0, 11.75 0 M0 11.75 C0 3.92, 3.92 0, 11.75 0" stroke="#1e1e1e" stroke-width="1" fill="none"></path></g><g transform="translate(156.22727317810086 398.90655418099595) rotate(0 30.60909080505371 18.400000000000006)"><text x="30.60909080505371" y="0" font-family="Helvetica, Segoe UI Emoji" font-size="16px" fill="#1e1e1e" text-anchor="middle" style="white-space: pre;" direction="ltr" dominant-baseline="text-before-edge">Escolhe </text><text x="30.60909080505371" y="18.4" font-family="Helvetica, Segoe UI Emoji" font-size="16px" fill="#1e1e1e" text-anchor="middle" style="white-space: pre;" direction="ltr" dominant-baseline="text-before-edge">Apiário</text></g><g stroke-linecap="round" transform="translate(302.88784844626844 320.6135112556017) rotate(0 61.5 23.5)"><path d="M11.75 0 C42.87 0, 74 0, 111.25 0 M11.75 0 C45.56 0, 79.37 0, 111.25 0 M111.25 0 C119.08 0, 123 3.92, 123 11.75 M111.25 0 C119.08 0, 123 3.92, 123 11.75 M123 11.75 C123 19.48, 123 27.21, 123 35.25 M123 11.75 C123 18.45, 123 25.15, 123 35.25 M123 35.25 C123 43.08, 119.08 47, 111.25 47 M123 35.25 C123 43.08, 119.08 47, 111.25 47 M111.25 47 C87.49 47, 63.74 47, 11.75 47 M111.25 47 C90.6 47, 69.95 47, 11.75 47 M11.75 47 C3.92 47, 0 43.08, 0 35.25 M11.75 47 C3.92 47, 0 43.08, 0 35.25 M0 35.25 C0 27.72, 0 20.18, 0 11.75 M0 35.25 C0 28.46, 0 21.67, 0 11.75 M0 11.75 C0 3.92, 3.92 0, 11.75 0 M0 11.75 C0 3.92, 3.92 0, 11.75 0" stroke="#1e1e1e" stroke-width="1" fill="none"></path></g><g transform="translate(308.79800469626844 325.7135112556017) rotate(0 55.58984375 18.400000000000006)"><text x="55.58984375" y="0" font-family="Helvetica, Segoe UI Emoji" font-size="16px" fill="#1e1e1e" text-anchor="middle" style="white-space: pre;" direction="ltr" dominant-baseline="text-before-edge">Apresenta Lista</text><text x="55.58984375" y="18.4" font-family="Helvetica, Segoe UI Emoji" font-size="16px" fill="#1e1e1e" text-anchor="middle" style="white-space: pre;" direction="ltr" dominant-baseline="text-before-edge">de Colmeias</text></g><g stroke-linecap="round" transform="translate(304.88784844626844 388.6135112556018) rotate(0 58 23.5)"><path d="M11.75 0 C37.24 0, 62.73 0, 104.25 0 M11.75 0 C33.34 0, 54.92 0, 104.25 0 M104.25 0 C112.08 0, 116 3.92, 116 11.75 M104.25 0 C112.08 0, 116 3.92, 116 11.75 M116 11.75 C116 20.22, 116 28.69, 116 35.25 M116 11.75 C116 19.87, 116 27.99, 116 35.25 M116 35.25 C116 43.08, 112.08 47, 104.25 47 M116 35.25 C116 43.08, 112.08 47, 104.25 47 M104.25 47 C75.83 47, 47.41 47, 11.75 47 M104.25 47 C80.88 47, 57.5 47, 11.75 47 M11.75 47 C3.92 47, 0 43.08, 0 35.25 M11.75 47 C3.92 47, 0 43.08, 0 35.25 M0 35.25 C0 27.39, 0 19.52, 0 11.75 M0 35.25 C0 27.11, 0 18.98, 0 11.75 M0 11.75 C0 3.92, 3.92 0, 11.75 0 M0 11.75 C0 3.92, 3.92 0, 11.75 0" stroke="#1e1e1e" stroke-width="1" fill="none"></path></g><g transform="translate(329.54409844626844 393.7135112556018) rotate(0 33.34375 18.400000000000006)"><text x="33.34375" y="0" font-family="Helvetica, Segoe UI Emoji" font-size="16px" fill="#1e1e1e" text-anchor="middle" style="white-space: pre;" direction="ltr" dominant-baseline="text-before-edge">Escolhe </text><text x="33.34375" y="18.4" font-family="Helvetica, Segoe UI Emoji" font-size="16px" fill="#1e1e1e" text-anchor="middle" style="white-space: pre;" direction="ltr" dominant-baseline="text-before-edge">Colmeias</text></g><g stroke-linecap="round" transform="translate(470.74807207583353 146.27119663470012) rotate(0 73 25.112186736177478)"><path d="M12.56 0 C40.07 0, 67.58 0, 133.44 0 C141.81 0, 146 4.19, 146 12.56 C146 21.37, 146 30.18, 146 37.67 C146 46.04, 141.81 50.22, 133.44 50.22 C95.11 50.22, 56.77 50.22, 12.56 50.22 C4.19 50.22, 0 46.04, 0 37.67 C0 30.33, 0 22.99, 0 12.56 C0 4.19, 4.19 0, 12.56 0" stroke="none" stroke-width="0" fill="#a5d8ff"></path><path d="M12.56 0 C38.51 0, 64.46 0, 133.44 0 M12.56 0 C51.66 0, 90.76 0, 133.44 0 M133.44 0 C141.81 0, 146 4.19, 146 12.56 M133.44 0 C141.81 0, 146 4.19, 146 12.56 M146 12.56 C146 20.99, 146 29.42, 146 37.67 M146 12.56 C146 21.78, 146 31, 146 37.67 M146 37.67 C146 46.04, 141.81 50.22, 133.44 50.22 M146 37.67 C146 46.04, 141.81 50.22, 133.44 50.22 M133.44 50.22 C92.22 50.22, 51 50.22, 12.56 50.22 M133.44 50.22 C93.86 50.22, 54.28 50.22, 12.56 50.22 M12.56 50.22 C4.19 50.22, 0 46.04, 0 37.67 M12.56 50.22 C4.19 50.22, 0 46.04, 0 37.67 M0 37.67 C0 32.35, 0 27.04, 0 12.56 M0 37.67 C0 31.82, 0 25.97, 0 12.56 M0 12.56 C0 4.19, 4.19 0, 12.56 0 M0 12.56 C0 4.19, 4.19 0, 12.56 0" stroke="#1e1e1e" stroke-width="1" fill="none"></path></g><g transform="translate(491.71291582583353 152.98338337087762) rotate(0 52.03515625 18.399999999999977)"><text x="52.03515625" y="0" font-family="Helvetica, Segoe UI Emoji" font-size="16px" fill="#1e1e1e" text-anchor="middle" style="white-space: pre;" direction="ltr" dominant-baseline="text-before-edge">Selecionar o </text><text x="52.03515625" y="18.4" font-family="Helvetica, Segoe UI Emoji" font-size="16px" fill="#1e1e1e" text-anchor="middle" style="white-space: pre;" direction="ltr" dominant-baseline="text-before-edge">apiário destino</text></g><g stroke-linecap="round" transform="translate(474.09533463812477 321.77818803241735) rotate(0 61.5 23.5)"><path d="M11.75 0 C51.19 0, 90.63 0, 111.25 0 M11.75 0 C34.7 0, 57.65 0, 111.25 0 M111.25 0 C119.08 0, 123 3.92, 123 11.75 M111.25 0 C119.08 0, 123 3.92, 123 11.75 M123 11.75 C123 18.11, 123 24.47, 123 35.25 M123 11.75 C123 18.56, 123 25.37, 123 35.25 M123 35.25 C123 43.08, 119.08 47, 111.25 47 M123 35.25 C123 43.08, 119.08 47, 111.25 47 M111.25 47 C86.63 47, 62.01 47, 11.75 47 M111.25 47 C77.44 47, 43.62 47, 11.75 47 M11.75 47 C3.92 47, 0 43.08, 0 35.25 M11.75 47 C3.92 47, 0 43.08, 0 35.25 M0 35.25 C0 30.45, 0 25.66, 0 11.75 M0 35.25 C0 26.89, 0 18.52, 0 11.75 M0 11.75 C0 3.92, 3.92 0, 11.75 0 M0 11.75 C0 3.92, 3.92 0, 11.75 0" stroke="#1e1e1e" stroke-width="1" fill="none"></path></g><g transform="translate(480.00549088812477 326.87818803241737) rotate(0 55.58984375 18.400000000000006)"><text x="55.58984375" y="0" font-family="Helvetica, Segoe UI Emoji" font-size="16px" fill="#1e1e1e" text-anchor="middle" style="white-space: pre;" direction="ltr" dominant-baseline="text-before-edge">Apresenta Lista</text><text x="55.58984375" y="18.4" font-family="Helvetica, Segoe UI Emoji" font-size="16px" fill="#1e1e1e" text-anchor="middle" style="white-space: pre;" direction="ltr" dominant-baseline="text-before-edge">de Apiários</text></g><g stroke-linecap="round" transform="translate(476.09533463812477 389.77818803241723) rotate(0 58 23.5)"><path d="M11.75 0 C37.05 0, 62.35 0, 104.25 0 M11.75 0 C30.72 0, 49.68 0, 104.25 0 M104.25 0 C112.08 0, 116 3.92, 116 11.75 M104.25 0 C112.08 0, 116 3.92, 116 11.75 M116 11.75 C116 17.92, 116 24.09, 116 35.25 M116 11.75 C116 16.75, 116 21.76, 116 35.25 M116 35.25 C116 43.08, 112.08 47, 104.25 47 M116 35.25 C116 43.08, 112.08 47, 104.25 47 M104.25 47 C67.81 47, 31.36 47, 11.75 47 M104.25 47 C80.11 47, 55.97 47, 11.75 47 M11.75 47 C3.92 47, 0 43.08, 0 35.25 M11.75 47 C3.92 47, 0 43.08, 0 35.25 M0 35.25 C0 29.27, 0 23.3, 0 11.75 M0 35.25 C0 29.02, 0 22.79, 0 11.75 M0 11.75 C0 3.92, 3.92 0, 11.75 0 M0 11.75 C0 3.92, 3.92 0, 11.75 0" stroke="#1e1e1e" stroke-width="1" fill="none"></path></g><g transform="translate(503.41174088812477 394.87818803241726) rotate(0 30.68359375 18.400000000000006)"><text x="30.68359375" y="0" font-family="Helvetica, Segoe UI Emoji" font-size="16px" fill="#1e1e1e" text-anchor="middle" style="white-space: pre;" direction="ltr" dominant-baseline="text-before-edge">Escolhe </text><text x="30.68359375" y="18.4" font-family="Helvetica, Segoe UI Emoji" font-size="16px" fill="#1e1e1e" text-anchor="middle" style="white-space: pre;" direction="ltr" dominant-baseline="text-before-edge">Apiário</text></g><g stroke-linecap="round" transform="translate(479.55169537020765 848.9214445137811) rotate(0 58 33)"><path d="M16.5 0 C42.09 0, 67.67 0, 99.5 0 M16.5 0 C45.31 0, 74.12 0, 99.5 0 M99.5 0 C110.5 0, 116 5.5, 116 16.5 M99.5 0 C110.5 0, 116 5.5, 116 16.5 M116 16.5 C116 24.38, 116 32.26, 116 49.5 M116 16.5 C116 25.25, 116 34, 116 49.5 M116 49.5 C116 60.5, 110.5 66, 99.5 66 M116 49.5 C116 60.5, 110.5 66, 99.5 66 M99.5 66 C75.09 66, 50.67 66, 16.5 66 M99.5 66 C81.04 66, 62.59 66, 16.5 66 M16.5 66 C5.5 66, 0 60.5, 0 49.5 M16.5 66 C5.5 66, 0 60.5, 0 49.5 M0 49.5 C0 41.3, 0 33.11, 0 16.5 M0 49.5 C0 38.05, 0 26.61, 0 16.5 M0 16.5 C0 5.5, 5.5 0, 16.5 0 M0 16.5 C0 5.5, 5.5 0, 16.5 0" stroke="#1e1e1e" stroke-width="1" fill="none"></path></g><g transform="translate(490.86810162020765 854.3214445137811) rotate(0 46.68359375 27.599999999999994)"><text x="46.68359375" y="0" font-family="Helvetica, Segoe UI Emoji" font-size="16px" fill="#1e1e1e" text-anchor="middle" style="white-space: pre;" direction="ltr" dominant-baseline="text-before-edge">Filtragem de </text><text x="46.68359375" y="18.4" font-family="Helvetica, Segoe UI Emoji" font-size="16px" fill="#1e1e1e" text-anchor="middle" style="white-space: pre;" direction="ltr" dominant-baseline="text-before-edge">apiários por </text><text x="46.68359375" y="36.8" font-family="Helvetica, Segoe UI Emoji" font-size="16px" fill="#1e1e1e" text-anchor="middle" style="white-space: pre;" direction="ltr" dominant-baseline="text-before-edge">distância</text></g><g stroke-linecap="round" transform="translate(479.0239060666968 928.7285635070157) rotate(0 58 51)"><path d="M25.5 0 C42.54 0, 59.58 0, 90.5 0 M25.5 0 C46.35 0, 67.19 0, 90.5 0 M90.5 0 C107.5 0, 116 8.5, 116 25.5 M90.5 0 C107.5 0, 116 8.5, 116 25.5 M116 25.5 C116 40.65, 116 55.8, 116 76.5 M116 25.5 C116 40.17, 116 54.83, 116 76.5 M116 76.5 C116 93.5, 107.5 102, 90.5 102 M116 76.5 C116 93.5, 107.5 102, 90.5 102 M90.5 102 C76.67 102, 62.83 102, 25.5 102 M90.5 102 C74 102, 57.5 102, 25.5 102 M25.5 102 C8.5 102, 0 93.5, 0 76.5 M25.5 102 C8.5 102, 0 93.5, 0 76.5 M0 76.5 C0 65.31, 0 54.12, 0 25.5 M0 76.5 C0 59.32, 0 42.13, 0 25.5 M0 25.5 C0 8.5, 8.5 0, 25.5 0 M0 25.5 C0 8.5, 8.5 0, 25.5 0" stroke="#1e1e1e" stroke-width="1" fill="none"></path></g><g transform="translate(485.0004685666968 933.7285635070157) rotate(0 52.0234375 46)"><text x="52.0234375" y="0" font-family="Helvetica, Segoe UI Emoji" font-size="16px" fill="#1e1e1e" text-anchor="middle" style="white-space: pre;" direction="ltr" dominant-baseline="text-before-edge">Filtragem de </text><text x="52.0234375" y="18.4" font-family="Helvetica, Segoe UI Emoji" font-size="16px" fill="#1e1e1e" text-anchor="middle" style="white-space: pre;" direction="ltr" dominant-baseline="text-before-edge">apiários por </text><text x="52.0234375" y="36.8" font-family="Helvetica, Segoe UI Emoji" font-size="16px" fill="#1e1e1e" text-anchor="middle" style="white-space: pre;" direction="ltr" dominant-baseline="text-before-edge">menor número</text><text x="52.0234375" y="55.199999999999996" font-family="Helvetica, Segoe UI Emoji" font-size="16px" fill="#1e1e1e" text-anchor="middle" style="white-space: pre;" direction="ltr" dominant-baseline="text-before-edge">total de </text><text x="52.0234375" y="73.6" font-family="Helvetica, Segoe UI Emoji" font-size="16px" fill="#1e1e1e" text-anchor="middle" style="white-space: pre;" direction="ltr" dominant-baseline="text-before-edge">colmeias</text></g><g stroke-linecap="round" transform="translate(644.2849118213198 134.0420904781388) rotate(0 73 33)"><path d="M16.5 0 C50.73 0, 84.97 0, 129.5 0 C140.5 0, 146 5.5, 146 16.5 C146 23.27, 146 30.03, 146 49.5 C146 60.5, 140.5 66, 129.5 66 C84.43 66, 39.37 66, 16.5 66 C5.5 66, 0 60.5, 0 49.5 C0 41.55, 0 33.61, 0 16.5 C0 5.5, 5.5 0, 16.5 0" stroke="none" stroke-width="0" fill="#a5d8ff"></path><path d="M16.5 0 C54.57 0, 92.65 0, 129.5 0 M16.5 0 C50.62 0, 84.74 0, 129.5 0 M129.5 0 C140.5 0, 146 5.5, 146 16.5 M129.5 0 C140.5 0, 146 5.5, 146 16.5 M146 16.5 C146 27.48, 146 38.46, 146 49.5 M146 16.5 C146 27.05, 146 37.6, 146 49.5 M146 49.5 C146 60.5, 140.5 66, 129.5 66 M146 49.5 C146 60.5, 140.5 66, 129.5 66 M129.5 66 C99.37 66, 69.24 66, 16.5 66 M129.5 66 C85.72 66, 41.94 66, 16.5 66 M16.5 66 C5.5 66, 0 60.5, 0 49.5 M16.5 66 C5.5 66, 0 60.5, 0 49.5 M0 49.5 C0 40.57, 0 31.64, 0 16.5 M0 49.5 C0 37.93, 0 26.36, 0 16.5 M0 16.5 C0 5.5, 5.5 0, 16.5 0 M0 16.5 C0 5.5, 5.5 0, 16.5 0" stroke="#1e1e1e" stroke-width="1" fill="none"></path></g><g transform="translate(658.5895993213198 139.44209047813877) rotate(0 58.6953125 27.600000000000023)"><text x="58.6953125" y="0" font-family="Helvetica, Segoe UI Emoji" font-size="16px" fill="#1e1e1e" text-anchor="middle" style="white-space: pre;" direction="ltr" dominant-baseline="text-before-edge">Confirmação do </text><text x="58.6953125" y="18.4" font-family="Helvetica, Segoe UI Emoji" font-size="16px" fill="#1e1e1e" text-anchor="middle" style="white-space: pre;" direction="ltr" dominant-baseline="text-before-edge">pedido de </text><text x="58.6953125" y="36.8" font-family="Helvetica, Segoe UI Emoji" font-size="16px" fill="#1e1e1e" text-anchor="middle" style="white-space: pre;" direction="ltr" dominant-baseline="text-before-edge">transumância</text></g><g stroke-linecap="round" transform="translate(649.961527937242 312.4607738178946) rotate(0 61.5 60.5)"><path d="M30.25 0 C49.42 0, 68.6 0, 92.75 0 M30.25 0 C44.57 0, 58.89 0, 92.75 0 M92.75 0 C112.92 0, 123 10.08, 123 30.25 M92.75 0 C112.92 0, 123 10.08, 123 30.25 M123 30.25 C123 43.48, 123 56.71, 123 90.75 M123 30.25 C123 46.43, 123 62.6, 123 90.75 M123 90.75 C123 110.92, 112.92 121, 92.75 121 M123 90.75 C123 110.92, 112.92 121, 92.75 121 M92.75 121 C69.12 121, 45.5 121, 30.25 121 M92.75 121 C78.82 121, 64.9 121, 30.25 121 M30.25 121 C10.08 121, 0 110.92, 0 90.75 M30.25 121 C10.08 121, 0 110.92, 0 90.75 M0 90.75 C0 69.51, 0 48.28, 0 30.25 M0 90.75 C0 69.18, 0 47.6, 0 30.25 M0 30.25 C0 10.08, 10.08 0, 30.25 0 M0 30.25 C0 10.08, 10.08 0, 30.25 0" stroke="#1e1e1e" stroke-width="1" fill="none"></path></g><g transform="translate(656.320902937242 317.7607738178946) rotate(0 55.140625 55.19999999999999)"><text x="55.140625" y="0" font-family="Helvetica, Segoe UI Emoji" font-size="16px" fill="#1e1e1e" text-anchor="middle" style="white-space: pre;" direction="ltr" dominant-baseline="text-before-edge">Apresenta </text><text x="55.140625" y="18.4" font-family="Helvetica, Segoe UI Emoji" font-size="16px" fill="#1e1e1e" text-anchor="middle" style="white-space: pre;" direction="ltr" dominant-baseline="text-before-edge">colmeias que </text><text x="55.140625" y="36.8" font-family="Helvetica, Segoe UI Emoji" font-size="16px" fill="#1e1e1e" text-anchor="middle" style="white-space: pre;" direction="ltr" dominant-baseline="text-before-edge">serão </text><text x="55.140625" y="55.199999999999996" font-family="Helvetica, Segoe UI Emoji" font-size="16px" fill="#1e1e1e" text-anchor="middle" style="white-space: pre;" direction="ltr" dominant-baseline="text-before-edge">transumadas e </text><text x="55.140625" y="73.6" font-family="Helvetica, Segoe UI Emoji" font-size="16px" fill="#1e1e1e" text-anchor="middle" style="white-space: pre;" direction="ltr" dominant-baseline="text-before-edge">apiário de </text><text x="55.140625" y="92" font-family="Helvetica, Segoe UI Emoji" font-size="16px" fill="#1e1e1e" text-anchor="middle" style="white-space: pre;" direction="ltr" dominant-baseline="text-before-edge">origem</text></g><g stroke-linecap="round" transform="translate(650.882174383612 445.170733980446) rotate(0 58 23.5)"><path d="M11.75 0 C44.29 0, 76.82 0, 104.25 0 M11.75 0 C35.57 0, 59.38 0, 104.25 0 M104.25 0 C112.08 0, 116 3.92, 116 11.75 M104.25 0 C112.08 0, 116 3.92, 116 11.75 M116 11.75 C116 17.3, 116 22.85, 116 35.25 M116 11.75 C116 20.87, 116 30, 116 35.25 M116 35.25 C116 43.08, 112.08 47, 104.25 47 M116 35.25 C116 43.08, 112.08 47, 104.25 47 M104.25 47 C67.97 47, 31.69 47, 11.75 47 M104.25 47 C71.77 47, 39.28 47, 11.75 47 M11.75 47 C3.92 47, 0 43.08, 0 35.25 M11.75 47 C3.92 47, 0 43.08, 0 35.25 M0 35.25 C0 25.96, 0 16.67, 0 11.75 M0 35.25 C0 29.42, 0 23.59, 0 11.75 M0 11.75 C0 3.92, 3.92 0, 11.75 0 M0 11.75 C0 3.92, 3.92 0, 11.75 0" stroke="#1e1e1e" stroke-width="1" fill="none"></path></g><g transform="translate(656.847018133612 450.27073398044604) rotate(0 52.03515625 18.400000000000006)"><text x="52.03515625" y="0" font-family="Helvetica, Segoe UI Emoji" font-size="16px" fill="#1e1e1e" text-anchor="middle" style="white-space: pre;" direction="ltr" dominant-baseline="text-before-edge">Apresenta </text><text x="52.03515625" y="18.4" font-family="Helvetica, Segoe UI Emoji" font-size="16px" fill="#1e1e1e" text-anchor="middle" style="white-space: pre;" direction="ltr" dominant-baseline="text-before-edge">apiário destino</text></g><g stroke-linecap="round" transform="translate(656.5825654461414 849.7131284690491) rotate(0 58 33)"><path d="M16.5 0 C44.41 0, 72.31 0, 99.5 0 M16.5 0 C35.06 0, 53.62 0, 99.5 0 M99.5 0 C110.5 0, 116 5.5, 116 16.5 M99.5 0 C110.5 0, 116 5.5, 116 16.5 M116 16.5 C116 29.05, 116 41.6, 116 49.5 M116 16.5 C116 28.08, 116 39.66, 116 49.5 M116 49.5 C116 60.5, 110.5 66, 99.5 66 M116 49.5 C116 60.5, 110.5 66, 99.5 66 M99.5 66 C79.97 66, 60.44 66, 16.5 66 M99.5 66 C79.62 66, 59.74 66, 16.5 66 M16.5 66 C5.5 66, 0 60.5, 0 49.5 M16.5 66 C5.5 66, 0 60.5, 0 49.5 M0 49.5 C0 36.65, 0 23.8, 0 16.5 M0 49.5 C0 40.3, 0 31.09, 0 16.5 M0 16.5 C0 5.5, 5.5 0, 16.5 0 M0 16.5 C0 5.5, 5.5 0, 16.5 0" stroke="#1e1e1e" stroke-width="1" fill="none"></path></g><g transform="translate(662.5474091961414 855.1131284690491) rotate(0 52.03515625 27.599999999999994)"><text x="52.03515625" y="0" font-family="Helvetica, Segoe UI Emoji" font-size="16px" fill="#1e1e1e" text-anchor="middle" style="white-space: pre;" direction="ltr" dominant-baseline="text-before-edge">Apresenta </text><text x="52.03515625" y="18.4" font-family="Helvetica, Segoe UI Emoji" font-size="16px" fill="#1e1e1e" text-anchor="middle" style="white-space: pre;" direction="ltr" dominant-baseline="text-before-edge">distância do </text><text x="52.03515625" y="36.8" font-family="Helvetica, Segoe UI Emoji" font-size="16px" fill="#1e1e1e" text-anchor="middle" style="white-space: pre;" direction="ltr" dominant-baseline="text-before-edge">apiário destino</text></g><g stroke-linecap="round" transform="translate(657.1103547496532 923.859481310765) rotate(0 58 42)"><path d="M21 0 C38.2 0, 55.39 0, 95 0 M21 0 C41.33 0, 61.66 0, 95 0 M95 0 C109 0, 116 7, 116 21 M95 0 C109 0, 116 7, 116 21 M116 21 C116 29.66, 116 38.32, 116 63 M116 21 C116 36.03, 116 51.06, 116 63 M116 63 C116 77, 109 84, 95 84 M116 63 C116 77, 109 84, 95 84 M95 84 C67.48 84, 39.96 84, 21 84 M95 84 C66.06 84, 37.12 84, 21 84 M21 84 C7 84, 0 77, 0 63 M21 84 C7 84, 0 77, 0 63 M0 63 C0 49.47, 0 35.94, 0 21 M0 63 C0 46.87, 0 30.74, 0 21 M0 21 C0 7, 7 0, 21 0 M0 21 C0 7, 7 0, 21 0" stroke="#1e1e1e" stroke-width="1" fill="none"></path></g><g transform="translate(668.8642609996532 929.059481310765) rotate(0 46.24609375 36.8)"><text x="46.24609375" y="0" font-family="Helvetica, Segoe UI Emoji" font-size="16px" fill="#1e1e1e" text-anchor="middle" style="white-space: pre;" direction="ltr" dominant-baseline="text-before-edge">Apresenta </text><text x="46.24609375" y="18.4" font-family="Helvetica, Segoe UI Emoji" font-size="16px" fill="#1e1e1e" text-anchor="middle" style="white-space: pre;" direction="ltr" dominant-baseline="text-before-edge">número de </text><text x="46.24609375" y="36.8" font-family="Helvetica, Segoe UI Emoji" font-size="16px" fill="#1e1e1e" text-anchor="middle" style="white-space: pre;" direction="ltr" dominant-baseline="text-before-edge">abelhas </text><text x="46.24609375" y="55.199999999999996" font-family="Helvetica, Segoe UI Emoji" font-size="16px" fill="#1e1e1e" text-anchor="middle" style="white-space: pre;" direction="ltr" dominant-baseline="text-before-edge">transumadas</text></g><g stroke-linecap="round" transform="translate(675.9893172407546 1359.292777629577) rotate(0 58 42)"><path d="M21 0 C36 0, 51 0, 95 0 M21 0 C39.64 0, 58.29 0, 95 0 M95 0 C109 0, 116 7, 116 21 M95 0 C109 0, 116 7, 116 21 M116 21 C116 34.35, 116 47.7, 116 63 M116 21 C116 32.04, 116 43.07, 116 63 M116 63 C116 77, 109 84, 95 84 M116 63 C116 77, 109 84, 95 84 M95 84 C79.77 84, 64.55 84, 21 84 M95 84 C66.68 84, 38.36 84, 21 84 M21 84 C7 84, 0 77, 0 63 M21 84 C7 84, 0 77, 0 63 M0 63 C0 53.12, 0 43.24, 0 21 M0 63 C0 52.37, 0 41.75, 0 21 M0 21 C0 7, 7 0, 21 0 M0 21 C0 7, 7 0, 21 0" stroke="#1e1e1e" stroke-width="1" fill="none"></path></g><g transform="translate(682.4072859907546 1364.492777629577) rotate(0 51.58203125 36.80000000000001)"><text x="51.58203125" y="0" font-family="Helvetica, Segoe UI Emoji" font-size="16px" fill="#1e1e1e" text-anchor="middle" style="white-space: pre;" direction="ltr" dominant-baseline="text-before-edge">Demonstrado </text><text x="51.58203125" y="18.4" font-family="Helvetica, Segoe UI Emoji" font-size="16px" fill="#1e1e1e" text-anchor="middle" style="white-space: pre;" direction="ltr" dominant-baseline="text-before-edge">o percurso </text><text x="51.58203125" y="36.8" font-family="Helvetica, Segoe UI Emoji" font-size="16px" fill="#1e1e1e" text-anchor="middle" style="white-space: pre;" direction="ltr" dominant-baseline="text-before-edge">entre origem e</text><text x="51.58203125" y="55.199999999999996" font-family="Helvetica, Segoe UI Emoji" font-size="16px" fill="#1e1e1e" text-anchor="middle" style="white-space: pre;" direction="ltr" dominant-baseline="text-before-edge">destino.</text></g><g stroke-linecap="round" transform="translate(837.1630444595448 302.0025615047721) rotate(0 61.5 33)"><path d="M16.5 0 C35.83 0, 55.16 0, 106.5 0 M16.5 0 C45.6 0, 74.69 0, 106.5 0 M106.5 0 C117.5 0, 123 5.5, 123 16.5 M106.5 0 C117.5 0, 123 5.5, 123 16.5 M123 16.5 C123 27.91, 123 39.33, 123 49.5 M123 16.5 C123 25.08, 123 33.66, 123 49.5 M123 49.5 C123 60.5, 117.5 66, 106.5 66 M123 49.5 C123 60.5, 117.5 66, 106.5 66 M106.5 66 C71.85 66, 37.21 66, 16.5 66 M106.5 66 C75.19 66, 43.87 66, 16.5 66 M16.5 66 C5.5 66, 0 60.5, 0 49.5 M16.5 66 C5.5 66, 0 60.5, 0 49.5 M0 49.5 C0 37.86, 0 26.21, 0 16.5 M0 49.5 C0 38.99, 0 28.48, 0 16.5 M0 16.5 C0 5.5, 5.5 0, 16.5 0 M0 16.5 C0 5.5, 5.5 0, 16.5 0" stroke="#1e1e1e" stroke-width="1" fill="none"></path></g><g transform="translate(847.9521069595448 307.40256150477205) rotate(0 50.7109375 27.599999999999994)"><text x="50.7109375" y="0" font-family="Helvetica, Segoe UI Emoji" font-size="16px" fill="#1e1e1e" text-anchor="middle" style="white-space: pre;" direction="ltr" dominant-baseline="text-before-edge">Pedido </text><text x="50.7109375" y="18.4" font-family="Helvetica, Segoe UI Emoji" font-size="16px" fill="#1e1e1e" text-anchor="middle" style="white-space: pre;" direction="ltr" dominant-baseline="text-before-edge">efetuado pelo </text><text x="50.7109375" y="36.8" font-family="Helvetica, Segoe UI Emoji" font-size="16px" fill="#1e1e1e" text-anchor="middle" style="white-space: pre;" direction="ltr" dominant-baseline="text-before-edge">apicultor</text></g><g stroke-linecap="round" transform="translate(819.6580965181533 214.59632836820595) rotate(0 84.5 23.5)"><path d="M11.75 0 C49.23 0, 86.71 0, 157.25 0 C165.08 0, 169 3.92, 169 11.75 C169 16.69, 169 21.62, 169 35.25 C169 43.08, 165.08 47, 157.25 47 C104.26 47, 51.28 47, 11.75 47 C3.92 47, 0 43.08, 0 35.25 C0 26.36, 0 17.47, 0 11.75 C0 3.92, 3.92 0, 11.75 0" stroke="none" stroke-width="0" fill="#ffec99"></path><path d="M11.75 0 C64.74 0, 117.72 0, 157.25 0 M11.75 0 C42.79 0, 73.84 0, 157.25 0 M157.25 0 C165.08 0, 169 3.92, 169 11.75 M157.25 0 C165.08 0, 169 3.92, 169 11.75 M169 11.75 C169 17.35, 169 22.95, 169 35.25 M169 11.75 C169 20.95, 169 30.15, 169 35.25 M169 35.25 C169 43.08, 165.08 47, 157.25 47 M169 35.25 C169 43.08, 165.08 47, 157.25 47 M157.25 47 C122.58 47, 87.92 47, 11.75 47 M157.25 47 C120.55 47, 83.85 47, 11.75 47 M11.75 47 C3.92 47, 0 43.08, 0 35.25 M11.75 47 C3.92 47, 0 43.08, 0 35.25 M0 35.25 C0 28.37, 0 21.48, 0 11.75 M0 35.25 C0 28.34, 0 21.44, 0 11.75 M0 11.75 C0 3.92, 3.92 0, 11.75 0 M0 11.75 C0 3.92, 3.92 0, 11.75 0" stroke="#1e1e1e" stroke-width="1" fill="none"></path></g><g transform="translate(828.5526277681533 219.69632836820597) rotate(0 75.60546875 18.399999999999977)"><text x="75.60546875" y="0" font-family="Helvetica, Segoe UI Emoji" font-size="16px" fill="#1e1e1e" text-anchor="middle" style="white-space: pre;" direction="ltr" dominant-baseline="text-before-edge">Pedidos de </text><text x="75.60546875" y="18.4" font-family="Helvetica, Segoe UI Emoji" font-size="16px" fill="#1e1e1e" text-anchor="middle" style="white-space: pre;" direction="ltr" dominant-baseline="text-before-edge">autorização enviados</text></g><g stroke-linecap="round" transform="translate(834.6760055268164 459.9172382815873) rotate(0 61.5 33)"><path d="M16.5 0 C35.96 0, 55.42 0, 106.5 0 M16.5 0 C43.72 0, 70.94 0, 106.5 0 M106.5 0 C117.5 0, 123 5.5, 123 16.5 M106.5 0 C117.5 0, 123 5.5, 123 16.5 M123 16.5 C123 26.51, 123 36.52, 123 49.5 M123 16.5 C123 23.68, 123 30.86, 123 49.5 M123 49.5 C123 60.5, 117.5 66, 106.5 66 M123 49.5 C123 60.5, 117.5 66, 106.5 66 M106.5 66 C80.16 66, 53.82 66, 16.5 66 M106.5 66 C75.88 66, 45.27 66, 16.5 66 M16.5 66 C5.5 66, 0 60.5, 0 49.5 M16.5 66 C5.5 66, 0 60.5, 0 49.5 M0 49.5 C0 39.68, 0 29.86, 0 16.5 M0 49.5 C0 41.76, 0 34.02, 0 16.5 M0 16.5 C0 5.5, 5.5 0, 16.5 0 M0 16.5 C0 5.5, 5.5 0, 16.5 0" stroke="#1e1e1e" stroke-width="1" fill="none"></path></g><g transform="translate(855.7072555268164 474.5172382815873) rotate(0 40.46875 18.400000000000006)"><text x="40.46875" y="0" font-family="Helvetica, Segoe UI Emoji" font-size="16px" fill="#1e1e1e" text-anchor="middle" style="white-space: pre;" direction="ltr" dominant-baseline="text-before-edge">Envio para </text><text x="40.46875" y="18.4" font-family="Helvetica, Segoe UI Emoji" font-size="16px" fill="#1e1e1e" text-anchor="middle" style="white-space: pre;" direction="ltr" dominant-baseline="text-before-edge">DGAV</text></g><g stroke-linecap="round" transform="translate(836.0966519731874 377.69461265866175) rotate(0 61.5 33)"><path d="M16.5 0 C41.12 0, 65.75 0, 106.5 0 M16.5 0 C50.63 0, 84.76 0, 106.5 0 M106.5 0 C117.5 0, 123 5.5, 123 16.5 M106.5 0 C117.5 0, 123 5.5, 123 16.5 M123 16.5 C123 29.03, 123 41.55, 123 49.5 M123 16.5 C123 26.98, 123 37.46, 123 49.5 M123 49.5 C123 60.5, 117.5 66, 106.5 66 M123 49.5 C123 60.5, 117.5 66, 106.5 66 M106.5 66 C79.49 66, 52.48 66, 16.5 66 M106.5 66 C86 66, 65.49 66, 16.5 66 M16.5 66 C5.5 66, 0 60.5, 0 49.5 M16.5 66 C5.5 66, 0 60.5, 0 49.5 M0 49.5 C0 37.71, 0 25.91, 0 16.5 M0 49.5 C0 38.01, 0 26.52, 0 16.5 M0 16.5 C0 5.5, 5.5 0, 16.5 0 M0 16.5 C0 5.5, 5.5 0, 16.5 0" stroke="#1e1e1e" stroke-width="1" fill="none"></path></g><g transform="translate(857.1279019731874 383.09461265866173) rotate(0 40.46875 27.599999999999994)"><text x="40.46875" y="0" font-family="Helvetica, Segoe UI Emoji" font-size="16px" fill="#1e1e1e" text-anchor="middle" style="white-space: pre;" direction="ltr" dominant-baseline="text-before-edge">Envio para </text><text x="40.46875" y="18.4" font-family="Helvetica, Segoe UI Emoji" font-size="16px" fill="#1e1e1e" text-anchor="middle" style="white-space: pre;" direction="ltr" dominant-baseline="text-before-edge">Entidades </text><text x="40.46875" y="36.8" font-family="Helvetica, Segoe UI Emoji" font-size="16px" fill="#1e1e1e" text-anchor="middle" style="white-space: pre;" direction="ltr" dominant-baseline="text-before-edge">Gestoras</text></g><g stroke-linecap="round" transform="translate(1026.2563808086102 80.04929713304045) rotate(0 73 60.5)"><path d="M30.25 0 C62.58 0, 94.91 0, 115.75 0 C135.92 0, 146 10.08, 146 30.25 C146 46.11, 146 61.97, 146 90.75 C146 110.92, 135.92 121, 115.75 121 C92.42 121, 69.09 121, 30.25 121 C10.08 121, 0 110.92, 0 90.75 C0 67.83, 0 44.91, 0 30.25 C0 10.08, 10.08 0, 30.25 0" stroke="none" stroke-width="0" fill="#a5d8ff"></path><path d="M30.25 0 C60.84 0, 91.42 0, 115.75 0 M30.25 0 C61.76 0, 93.26 0, 115.75 0 M115.75 0 C135.92 0, 146 10.08, 146 30.25 M115.75 0 C135.92 0, 146 10.08, 146 30.25 M146 30.25 C146 52.13, 146 74, 146 90.75 M146 30.25 C146 43.99, 146 57.73, 146 90.75 M146 90.75 C146 110.92, 135.92 121, 115.75 121 M146 90.75 C146 110.92, 135.92 121, 115.75 121 M115.75 121 C92.06 121, 68.38 121, 30.25 121 M115.75 121 C96.6 121, 77.46 121, 30.25 121 M30.25 121 C10.08 121, 0 110.92, 0 90.75 M30.25 121 C10.08 121, 0 110.92, 0 90.75 M0 90.75 C0 77.51, 0 64.28, 0 30.25 M0 90.75 C0 72.81, 0 54.87, 0 30.25 M0 30.25 C0 10.08, 10.08 0, 30.25 0 M0 30.25 C0 10.08, 10.08 0, 30.25 0" stroke="#1e1e1e" stroke-width="1" fill="none"></path></g><g transform="translate(1033.4555995586102 85.34929713304041) rotate(0 65.80078125 55.19999999999999)"><text x="65.80078125" y="0" font-family="Helvetica, Segoe UI Emoji" font-size="16px" fill="#1e1e1e" text-anchor="middle" style="white-space: pre;" direction="ltr" dominant-baseline="text-before-edge">DGAV, DGADR  e </text><text x="65.80078125" y="18.4" font-family="Helvetica, Segoe UI Emoji" font-size="16px" fill="#1e1e1e" text-anchor="middle" style="white-space: pre;" direction="ltr" dominant-baseline="text-before-edge">Entidades </text><text x="65.80078125" y="36.8" font-family="Helvetica, Segoe UI Emoji" font-size="16px" fill="#1e1e1e" text-anchor="middle" style="white-space: pre;" direction="ltr" dominant-baseline="text-before-edge">Gestoras </text><text x="65.80078125" y="55.199999999999996" font-family="Helvetica, Segoe UI Emoji" font-size="16px" fill="#1e1e1e" text-anchor="middle" style="white-space: pre;" direction="ltr" dominant-baseline="text-before-edge">autorizam/rejeitam</text><text x="65.80078125" y="73.6" font-family="Helvetica, Segoe UI Emoji" font-size="16px" fill="#1e1e1e" text-anchor="middle" style="white-space: pre;" direction="ltr" dominant-baseline="text-before-edge">o pedido de </text><text x="65.80078125" y="92" font-family="Helvetica, Segoe UI Emoji" font-size="16px" fill="#1e1e1e" text-anchor="middle" style="white-space: pre;" direction="ltr" dominant-baseline="text-before-edge">transumância</text></g><g stroke-linecap="round" transform="translate(1019.8417040317945 208.10826770731398) rotate(0 84.5 33)"><path d="M16.5 0 C70.74 0, 124.99 0, 152.5 0 C163.5 0, 169 5.5, 169 16.5 C169 29.07, 169 41.64, 169 49.5 C169 60.5, 163.5 66, 152.5 66 C112.5 66, 72.5 66, 16.5 66 C5.5 66, 0 60.5, 0 49.5 C0 37.82, 0 26.14, 0 16.5 C0 5.5, 5.5 0, 16.5 0" stroke="none" stroke-width="0" fill="#ffec99"></path><path d="M16.5 0 C63.51 0, 110.51 0, 152.5 0 M16.5 0 C55.84 0, 95.19 0, 152.5 0 M152.5 0 C163.5 0, 169 5.5, 169 16.5 M152.5 0 C163.5 0, 169 5.5, 169 16.5 M169 16.5 C169 28.19, 169 39.87, 169 49.5 M169 16.5 C169 25.74, 169 34.98, 169 49.5 M169 49.5 C169 60.5, 163.5 66, 152.5 66 M169 49.5 C169 60.5, 163.5 66, 152.5 66 M152.5 66 C98.87 66, 45.24 66, 16.5 66 M152.5 66 C100.79 66, 49.08 66, 16.5 66 M16.5 66 C5.5 66, 0 60.5, 0 49.5 M16.5 66 C5.5 66, 0 60.5, 0 49.5 M0 49.5 C0 40.69, 0 31.89, 0 16.5 M0 49.5 C0 40.7, 0 31.9, 0 16.5 M0 16.5 C0 5.5, 5.5 0, 16.5 0 M0 16.5 C0 5.5, 5.5 0, 16.5 0" stroke="#1e1e1e" stroke-width="1" fill="none"></path></g><g transform="translate(1025.1698290317945 222.708267707314) rotate(0 79.171875 18.399999999999977)"><text x="79.171875" y="0" font-family="Helvetica, Segoe UI Emoji" font-size="16px" fill="#1e1e1e" text-anchor="middle" style="white-space: pre;" direction="ltr" dominant-baseline="text-before-edge">Escolha do pedido de </text><text x="79.171875" y="18.4" font-family="Helvetica, Segoe UI Emoji" font-size="16px" fill="#1e1e1e" text-anchor="middle" style="white-space: pre;" direction="ltr" dominant-baseline="text-before-edge">autorização</text></g><g stroke-linecap="round" transform="translate(1033.260395165516 847.0046049610987) rotate(0 61.5 23.5)"><path d="M11.75 0 C36.78 0, 61.81 0, 111.25 0 M11.75 0 C51.41 0, 91.06 0, 111.25 0 M111.25 0 C119.08 0, 123 3.92, 123 11.75 M111.25 0 C119.08 0, 123 3.92, 123 11.75 M123 11.75 C123 20.05, 123 28.34, 123 35.25 M123 11.75 C123 19.81, 123 27.87, 123 35.25 M123 35.25 C123 43.08, 119.08 47, 111.25 47 M123 35.25 C123 43.08, 119.08 47, 111.25 47 M111.25 47 C90.7 47, 70.15 47, 11.75 47 M111.25 47 C85.2 47, 59.16 47, 11.75 47 M11.75 47 C3.92 47, 0 43.08, 0 35.25 M11.75 47 C3.92 47, 0 43.08, 0 35.25 M0 35.25 C0 26.76, 0 18.27, 0 11.75 M0 35.25 C0 28.01, 0 20.78, 0 11.75 M0 11.75 C0 3.92, 3.92 0, 11.75 0 M0 11.75 C0 3.92, 3.92 0, 11.75 0" stroke="#1e1e1e" stroke-width="1" fill="none"></path></g><g transform="translate(1039.170551415516 852.1046049610989) rotate(0 55.58984375 18.4)"><text x="55.58984375" y="0" font-family="Helvetica, Segoe UI Emoji" font-size="16px" fill="#1e1e1e" text-anchor="middle" style="white-space: pre;" direction="ltr" dominant-baseline="text-before-edge">Apresenta Lista</text><text x="55.58984375" y="18.4" font-family="Helvetica, Segoe UI Emoji" font-size="16px" fill="#1e1e1e" text-anchor="middle" style="white-space: pre;" direction="ltr" dominant-baseline="text-before-edge">de pedidos</text></g><g stroke-linecap="round" transform="translate(1038.7544254959612 909.8022585859212) rotate(0 58 23.5)"><path d="M11.75 0 C34.66 0, 57.56 0, 104.25 0 M11.75 0 C36 0, 60.25 0, 104.25 0 M104.25 0 C112.08 0, 116 3.92, 116 11.75 M104.25 0 C112.08 0, 116 3.92, 116 11.75 M116 11.75 C116 17.22, 116 22.69, 116 35.25 M116 11.75 C116 17.23, 116 22.71, 116 35.25 M116 35.25 C116 43.08, 112.08 47, 104.25 47 M116 35.25 C116 43.08, 112.08 47, 104.25 47 M104.25 47 C72.69 47, 41.14 47, 11.75 47 M104.25 47 C67.56 47, 30.86 47, 11.75 47 M11.75 47 C3.92 47, 0 43.08, 0 35.25 M11.75 47 C3.92 47, 0 43.08, 0 35.25 M0 35.25 C0 29.82, 0 24.39, 0 11.75 M0 35.25 C0 29.46, 0 23.68, 0 11.75 M0 11.75 C0 3.92, 3.92 0, 11.75 0 M0 11.75 C0 3.92, 3.92 0, 11.75 0" stroke="#1e1e1e" stroke-width="1" fill="none"></path></g><g transform="translate(1066.0708317459612 914.9022585859211) rotate(0 30.68359375 18.4)"><text x="30.68359375" y="0" font-family="Helvetica, Segoe UI Emoji" font-size="16px" fill="#1e1e1e" text-anchor="middle" style="white-space: pre;" direction="ltr" dominant-baseline="text-before-edge">Escolhe </text><text x="30.68359375" y="18.4" font-family="Helvetica, Segoe UI Emoji" font-size="16px" fill="#1e1e1e" text-anchor="middle" style="white-space: pre;" direction="ltr" dominant-baseline="text-before-edge">pedido</text></g><g stroke-linecap="round" transform="translate(1210.8486954295122 206.94359093049866) rotate(0 84.5 33)"><path d="M16.5 0 C70.09 0, 123.68 0, 152.5 0 C163.5 0, 169 5.5, 169 16.5 C169 27.83, 169 39.17, 169 49.5 C169 60.5, 163.5 66, 152.5 66 C106.38 66, 60.27 66, 16.5 66 C5.5 66, 0 60.5, 0 49.5 C0 38.72, 0 27.94, 0 16.5 C0 5.5, 5.5 0, 16.5 0" stroke="none" stroke-width="0" fill="#ffec99"></path><path d="M16.5 0 C46.58 0, 76.67 0, 152.5 0 M16.5 0 C70.16 0, 123.82 0, 152.5 0 M152.5 0 C163.5 0, 169 5.5, 169 16.5 M152.5 0 C163.5 0, 169 5.5, 169 16.5 M169 16.5 C169 27.08, 169 37.65, 169 49.5 M169 16.5 C169 28.62, 169 40.74, 169 49.5 M169 49.5 C169 60.5, 163.5 66, 152.5 66 M169 49.5 C169 60.5, 163.5 66, 152.5 66 M152.5 66 C100.47 66, 48.44 66, 16.5 66 M152.5 66 C102.4 66, 52.3 66, 16.5 66 M16.5 66 C5.5 66, 0 60.5, 0 49.5 M16.5 66 C5.5 66, 0 60.5, 0 49.5 M0 49.5 C0 40.18, 0 30.85, 0 16.5 M0 49.5 C0 41.81, 0 34.12, 0 16.5 M0 16.5 C0 5.5, 5.5 0, 16.5 0 M0 16.5 C0 5.5, 5.5 0, 16.5 0" stroke="#1e1e1e" stroke-width="1" fill="none"></path></g><g transform="translate(1216.6260391795122 221.54359093049868) rotate(0 78.72265625 18.399999999999977)"><text x="78.72265625" y="0" font-family="Helvetica, Segoe UI Emoji" font-size="16px" fill="#1e1e1e" text-anchor="middle" style="white-space: pre;" direction="ltr" dominant-baseline="text-before-edge">Análise dos dados do </text><text x="78.72265625" y="18.4" font-family="Helvetica, Segoe UI Emoji" font-size="16px" fill="#1e1e1e" text-anchor="middle" style="white-space: pre;" direction="ltr" dominant-baseline="text-before-edge">pedido</text></g><g stroke-linecap="round" transform="translate(1397.1969797199679 208.10826770731387) rotate(0 84.5 33)"><path d="M16.5 0 C54.65 0, 92.8 0, 152.5 0 C163.5 0, 169 5.5, 169 16.5 C169 28.92, 169 41.34, 169 49.5 C169 60.5, 163.5 66, 152.5 66 C100.88 66, 49.26 66, 16.5 66 C5.5 66, 0 60.5, 0 49.5 C0 41.46, 0 33.43, 0 16.5 C0 5.5, 5.5 0, 16.5 0" stroke="none" stroke-width="0" fill="#ffec99"></path><path d="M16.5 0 C67.34 0, 118.18 0, 152.5 0 M16.5 0 C59.97 0, 103.44 0, 152.5 0 M152.5 0 C163.5 0, 169 5.5, 169 16.5 M152.5 0 C163.5 0, 169 5.5, 169 16.5 M169 16.5 C169 24.96, 169 33.43, 169 49.5 M169 16.5 C169 23.63, 169 30.76, 169 49.5 M169 49.5 C169 60.5, 163.5 66, 152.5 66 M169 49.5 C169 60.5, 163.5 66, 152.5 66 M152.5 66 C115.52 66, 78.54 66, 16.5 66 M152.5 66 C125 66, 97.5 66, 16.5 66 M16.5 66 C5.5 66, 0 60.5, 0 49.5 M16.5 66 C5.5 66, 0 60.5, 0 49.5 M0 49.5 C0 42.62, 0 35.75, 0 16.5 M0 49.5 C0 37.39, 0 25.27, 0 16.5 M0 16.5 C0 5.5, 5.5 0, 16.5 0 M0 16.5 C0 5.5, 5.5 0, 16.5 0" stroke="#1e1e1e" stroke-width="1" fill="none"></path></g><g transform="translate(1417.2165109699679 231.90826770731383) rotate(0 64.48046875 9.199999999999989)"><text x="64.48046875" y="0" font-family="Helvetica, Segoe UI Emoji" font-size="16px" fill="#1e1e1e" text-anchor="middle" style="white-space: pre;" direction="ltr" dominant-baseline="text-before-edge">Autoriza ou rejeita</text></g><g stroke-linecap="round" transform="translate(1599.7039711176851 90.4759132489637) rotate(0 73 51)"><path d="M25.5 0 C63.48 0, 101.46 0, 120.5 0 C137.5 0, 146 8.5, 146 25.5 C146 45.46, 146 65.42, 146 76.5 C146 93.5, 137.5 102, 120.5 102 C95.16 102, 69.81 102, 25.5 102 C8.5 102, 0 93.5, 0 76.5 C0 58.15, 0 39.79, 0 25.5 C0 8.5, 8.5 0, 25.5 0" stroke="none" stroke-width="0" fill="#a5d8ff"></path><path d="M25.5 0 C56.22 0, 86.94 0, 120.5 0 M25.5 0 C57.44 0, 89.38 0, 120.5 0 M120.5 0 C137.5 0, 146 8.5, 146 25.5 M120.5 0 C137.5 0, 146 8.5, 146 25.5 M146 25.5 C146 36.96, 146 48.42, 146 76.5 M146 25.5 C146 45.44, 146 65.37, 146 76.5 M146 76.5 C146 93.5, 137.5 102, 120.5 102 M146 76.5 C146 93.5, 137.5 102, 120.5 102 M120.5 102 C99.27 102, 78.05 102, 25.5 102 M120.5 102 C100.58 102, 80.66 102, 25.5 102 M25.5 102 C8.5 102, 0 93.5, 0 76.5 M25.5 102 C8.5 102, 0 93.5, 0 76.5 M0 76.5 C0 61.63, 0 46.75, 0 25.5 M0 76.5 C0 57.08, 0 37.67, 0 25.5 M0 25.5 C0 8.5, 8.5 0, 25.5 0 M0 25.5 C0 8.5, 8.5 0, 25.5 0" stroke="#1e1e1e" stroke-width="1" fill="none"></path></g><g transform="translate(1610.8797523676851 95.4759132489637) rotate(0 61.82421875 46)"><text x="61.82421875" y="0" font-family="Helvetica, Segoe UI Emoji" font-size="16px" fill="#1e1e1e" text-anchor="middle" style="white-space: pre;" direction="ltr" dominant-baseline="text-before-edge">Após pedidos de </text><text x="61.82421875" y="18.4" font-family="Helvetica, Segoe UI Emoji" font-size="16px" fill="#1e1e1e" text-anchor="middle" style="white-space: pre;" direction="ltr" dominant-baseline="text-before-edge">autorização </text><text x="61.82421875" y="36.8" font-family="Helvetica, Segoe UI Emoji" font-size="16px" fill="#1e1e1e" text-anchor="middle" style="white-space: pre;" direction="ltr" dominant-baseline="text-before-edge">revistos recebe </text><text x="61.82421875" y="55.199999999999996" font-family="Helvetica, Segoe UI Emoji" font-size="16px" fill="#1e1e1e" text-anchor="middle" style="white-space: pre;" direction="ltr" dominant-baseline="text-before-edge">notificação com </text><text x="61.82421875" y="73.6" font-family="Helvetica, Segoe UI Emoji" font-size="16px" fill="#1e1e1e" text-anchor="middle" style="white-space: pre;" direction="ltr" dominant-baseline="text-before-edge">resultado</text></g><g stroke-linecap="round" transform="translate(1769.893548300879 205.77891415368322) rotate(0 84.5 33)"><path d="M16.5 0 C57.1 0, 97.69 0, 152.5 0 C163.5 0, 169 5.5, 169 16.5 C169 27.89, 169 39.28, 169 49.5 C169 60.5, 163.5 66, 152.5 66 C120.36 66, 88.22 66, 16.5 66 C5.5 66, 0 60.5, 0 49.5 C0 36.64, 0 23.79, 0 16.5 C0 5.5, 5.5 0, 16.5 0" stroke="none" stroke-width="0" fill="#ffec99"></path><path d="M16.5 0 C57.85 0, 99.2 0, 152.5 0 M16.5 0 C49.77 0, 83.04 0, 152.5 0 M152.5 0 C163.5 0, 169 5.5, 169 16.5 M152.5 0 C163.5 0, 169 5.5, 169 16.5 M169 16.5 C169 24.04, 169 31.58, 169 49.5 M169 16.5 C169 25.92, 169 35.35, 169 49.5 M169 49.5 C169 60.5, 163.5 66, 152.5 66 M169 49.5 C169 60.5, 163.5 66, 152.5 66 M152.5 66 C122.23 66, 91.96 66, 16.5 66 M152.5 66 C112.81 66, 73.11 66, 16.5 66 M16.5 66 C5.5 66, 0 60.5, 0 49.5 M16.5 66 C5.5 66, 0 60.5, 0 49.5 M0 49.5 C0 37.97, 0 26.44, 0 16.5 M0 49.5 C0 40.33, 0 31.17, 0 16.5 M0 16.5 C0 5.5, 5.5 0, 16.5 0 M0 16.5 C0 5.5, 5.5 0, 16.5 0" stroke="#1e1e1e" stroke-width="1" fill="none"></path></g><g transform="translate(1782.791985800879 211.1789141536832) rotate(0 71.6015625 27.600000000000023)"><text x="71.6015625" y="0" font-family="Helvetica, Segoe UI Emoji" font-size="16px" fill="#1e1e1e" text-anchor="middle" style="white-space: pre;" direction="ltr" dominant-baseline="text-before-edge">Recebe o resultado </text><text x="71.6015625" y="18.4" font-family="Helvetica, Segoe UI Emoji" font-size="16px" fill="#1e1e1e" text-anchor="middle" style="white-space: pre;" direction="ltr" dominant-baseline="text-before-edge">sobre o pedido de </text><text x="71.6015625" y="36.8" font-family="Helvetica, Segoe UI Emoji" font-size="16px" fill="#1e1e1e" text-anchor="middle" style="white-space: pre;" direction="ltr" dominant-baseline="text-before-edge">transumância</text></g><g stroke-linecap="round" transform="translate(1214.8506507421598 843.5523623175304) rotate(0 61.5 79)"><path d="M30.75 0 C52.9 0, 75.05 0, 92.25 0 M30.75 0 C46.99 0, 63.23 0, 92.25 0 M92.25 0 C112.75 0, 123 10.25, 123 30.75 M92.25 0 C112.75 0, 123 10.25, 123 30.75 M123 30.75 C123 59.08, 123 87.41, 123 127.25 M123 30.75 C123 68.13, 123 105.52, 123 127.25 M123 127.25 C123 147.75, 112.75 158, 92.25 158 M123 127.25 C123 147.75, 112.75 158, 92.25 158 M92.25 158 C71.21 158, 50.17 158, 30.75 158 M92.25 158 C70.77 158, 49.29 158, 30.75 158 M30.75 158 C10.25 158, 0 147.75, 0 127.25 M30.75 158 C10.25 158, 0 147.75, 0 127.25 M0 127.25 C0 92.9, 0 58.54, 0 30.75 M0 127.25 C0 107, 0 86.76, 0 30.75 M0 30.75 C0 10.25, 10.25 0, 30.75 0 M0 30.75 C0 10.25, 10.25 0, 30.75 0" stroke="#1e1e1e" stroke-width="1" fill="none"></path></g><g transform="translate(1220.7608069921598 848.9523623175305) rotate(0 55.58984375 73.6)"><text x="55.58984375" y="0" font-family="Helvetica, Segoe UI Emoji" font-size="16px" fill="#1e1e1e" text-anchor="middle" style="white-space: pre;" direction="ltr" dominant-baseline="text-before-edge">DGAV analisa </text><text x="55.58984375" y="18.4" font-family="Helvetica, Segoe UI Emoji" font-size="16px" fill="#1e1e1e" text-anchor="middle" style="white-space: pre;" direction="ltr" dominant-baseline="text-before-edge">distância a </text><text x="55.58984375" y="36.8" font-family="Helvetica, Segoe UI Emoji" font-size="16px" fill="#1e1e1e" text-anchor="middle" style="white-space: pre;" direction="ltr" dominant-baseline="text-before-edge">habitações, </text><text x="55.58984375" y="55.199999999999996" font-family="Helvetica, Segoe UI Emoji" font-size="16px" fill="#1e1e1e" text-anchor="middle" style="white-space: pre;" direction="ltr" dominant-baseline="text-before-edge">arruamentos e </text><text x="55.58984375" y="73.6" font-family="Helvetica, Segoe UI Emoji" font-size="16px" fill="#1e1e1e" text-anchor="middle" style="white-space: pre;" direction="ltr" dominant-baseline="text-before-edge">outros apiários </text><text x="55.58984375" y="92" font-family="Helvetica, Segoe UI Emoji" font-size="16px" fill="#1e1e1e" text-anchor="middle" style="white-space: pre;" direction="ltr" dominant-baseline="text-before-edge">e existência de </text><text x="55.58984375" y="110.39999999999999" font-family="Helvetica, Segoe UI Emoji" font-size="16px" fill="#1e1e1e" text-anchor="middle" style="white-space: pre;" direction="ltr" dominant-baseline="text-before-edge">fechos </text><text x="55.58984375" y="128.79999999999998" font-family="Helvetica, Segoe UI Emoji" font-size="16px" fill="#1e1e1e" text-anchor="middle" style="white-space: pre;" direction="ltr" dominant-baseline="text-before-edge">sanitários </text></g><g stroke-linecap="round" transform="translate(1210.4796132332617 1012.5533840456936) rotate(0 61.5 60.5)"><path d="M30.25 0 C54.2 0, 78.14 0, 92.75 0 M30.25 0 C47.6 0, 64.95 0, 92.75 0 M92.75 0 C112.92 0, 123 10.08, 123 30.25 M92.75 0 C112.92 0, 123 10.08, 123 30.25 M123 30.25 C123 50.84, 123 71.44, 123 90.75 M123 30.25 C123 53.96, 123 77.67, 123 90.75 M123 90.75 C123 110.92, 112.92 121, 92.75 121 M123 90.75 C123 110.92, 112.92 121, 92.75 121 M92.75 121 C75.97 121, 59.19 121, 30.25 121 M92.75 121 C74.73 121, 56.72 121, 30.25 121 M30.25 121 C10.08 121, 0 110.92, 0 90.75 M30.25 121 C10.08 121, 0 110.92, 0 90.75 M0 90.75 C0 75.58, 0 60.4, 0 30.25 M0 90.75 C0 76.49, 0 62.24, 0 30.25 M0 30.25 C0 10.08, 10.08 0, 30.25 0 M0 30.25 C0 10.08, 10.08 0, 30.25 0" stroke="#1e1e1e" stroke-width="1" fill="none"></path></g><g transform="translate(1217.7178944832617 1017.8533840456937) rotate(0 54.26171875 55.19999999999999)"><text x="54.26171875" y="0" font-family="Helvetica, Segoe UI Emoji" font-size="16px" fill="#1e1e1e" text-anchor="middle" style="white-space: pre;" direction="ltr" dominant-baseline="text-before-edge">Entidades </text><text x="54.26171875" y="18.4" font-family="Helvetica, Segoe UI Emoji" font-size="16px" fill="#1e1e1e" text-anchor="middle" style="white-space: pre;" direction="ltr" dominant-baseline="text-before-edge">Gestoras </text><text x="54.26171875" y="36.8" font-family="Helvetica, Segoe UI Emoji" font-size="16px" fill="#1e1e1e" text-anchor="middle" style="white-space: pre;" direction="ltr" dominant-baseline="text-before-edge">analisam os </text><text x="54.26171875" y="55.199999999999996" font-family="Helvetica, Segoe UI Emoji" font-size="16px" fill="#1e1e1e" text-anchor="middle" style="white-space: pre;" direction="ltr" dominant-baseline="text-before-edge">dados no caso </text><text x="54.26171875" y="73.6" font-family="Helvetica, Segoe UI Emoji" font-size="16px" fill="#1e1e1e" text-anchor="middle" style="white-space: pre;" direction="ltr" dominant-baseline="text-before-edge">de zona </text><text x="54.26171875" y="92" font-family="Helvetica, Segoe UI Emoji" font-size="16px" fill="#1e1e1e" text-anchor="middle" style="white-space: pre;" direction="ltr" dominant-baseline="text-before-edge">controlada</text></g><g stroke-linecap="round" transform="translate(1426.0203636040446 295.6672382815874) rotate(0 61.5 80.75)"><path d="M30.75 0 C47.78 0, 64.81 0, 92.25 0 M30.75 0 C46.16 0, 61.57 0, 92.25 0 M92.25 0 C112.75 0, 123 10.25, 123 30.75 M92.25 0 C112.75 0, 123 10.25, 123 30.75 M123 30.75 C123 54.84, 123 78.92, 123 130.75 M123 30.75 C123 60, 123 89.25, 123 130.75 M123 130.75 C123 151.25, 112.75 161.5, 92.25 161.5 M123 130.75 C123 151.25, 112.75 161.5, 92.25 161.5 M92.25 161.5 C78.24 161.5, 64.23 161.5, 30.75 161.5 M92.25 161.5 C71.32 161.5, 50.39 161.5, 30.75 161.5 M30.75 161.5 C10.25 161.5, 0 151.25, 0 130.75 M30.75 161.5 C10.25 161.5, 0 151.25, 0 130.75 M0 130.75 C0 96.98, 0 63.2, 0 30.75 M0 130.75 C0 110.36, 0 89.97, 0 30.75 M0 30.75 C0 10.25, 10.25 0, 30.75 0 M0 30.75 C0 10.25, 10.25 0, 30.75 0" stroke="#1e1e1e" stroke-width="1" fill="none"></path></g><g transform="translate(1432.8406761040446 312.0172382815874) rotate(0 54.6796875 64.39999999999998)"><text x="54.6796875" y="0" font-family="Helvetica, Segoe UI Emoji" font-size="16px" fill="#1e1e1e" text-anchor="middle" style="white-space: pre;" direction="ltr" dominant-baseline="text-before-edge">DGAV, DGADR</text><text x="54.6796875" y="18.4" font-family="Helvetica, Segoe UI Emoji" font-size="16px" fill="#1e1e1e" text-anchor="middle" style="white-space: pre;" direction="ltr" dominant-baseline="text-before-edge"> ou Entidades </text><text x="54.6796875" y="36.8" font-family="Helvetica, Segoe UI Emoji" font-size="16px" fill="#1e1e1e" text-anchor="middle" style="white-space: pre;" direction="ltr" dominant-baseline="text-before-edge">Gestoras </text><text x="54.6796875" y="55.199999999999996" font-family="Helvetica, Segoe UI Emoji" font-size="16px" fill="#1e1e1e" text-anchor="middle" style="white-space: pre;" direction="ltr" dominant-baseline="text-before-edge">aceitam ou </text><text x="54.6796875" y="73.6" font-family="Helvetica, Segoe UI Emoji" font-size="16px" fill="#1e1e1e" text-anchor="middle" style="white-space: pre;" direction="ltr" dominant-baseline="text-before-edge">rejeitam o </text><text x="54.6796875" y="92" font-family="Helvetica, Segoe UI Emoji" font-size="16px" fill="#1e1e1e" text-anchor="middle" style="white-space: pre;" direction="ltr" dominant-baseline="text-before-edge">pedido de </text><text x="54.6796875" y="110.39999999999999" font-family="Helvetica, Segoe UI Emoji" font-size="16px" fill="#1e1e1e" text-anchor="middle" style="white-space: pre;" direction="ltr" dominant-baseline="text-before-edge">transumância</text></g><g stroke-linecap="round" transform="translate(1797.9331732118899 682.0621388807709) rotate(0 61.5 40.38308057961626)"><path d="M20.19 0 C51.46 0, 82.73 0, 102.81 0 M20.19 0 C45.75 0, 71.31 0, 102.81 0 M102.81 0 C116.27 0, 123 6.73, 123 20.19 M102.81 0 C116.27 0, 123 6.73, 123 20.19 M123 20.19 C123 34.04, 123 47.89, 123 60.57 M123 20.19 C123 33, 123 45.82, 123 60.57 M123 60.57 C123 74.04, 116.27 80.77, 102.81 80.77 M123 60.57 C123 74.04, 116.27 80.77, 102.81 80.77 M102.81 80.77 C78.37 80.77, 53.93 80.77, 20.19 80.77 M102.81 80.77 C71.27 80.77, 39.73 80.77, 20.19 80.77 M20.19 80.77 C6.73 80.77, 0 74.04, 0 60.57 M20.19 80.77 C6.73 80.77, 0 74.04, 0 60.57 M0 60.57 C0 44.47, 0 28.37, 0 20.19 M0 60.57 C0 50.73, 0 40.89, 0 20.19 M0 20.19 C0 6.73, 6.73 0, 20.19 0 M0 20.19 C0 6.73, 6.73 0, 20.19 0" stroke="#1e1e1e" stroke-width="1" fill="none"></path></g><g transform="translate(1805.1792669618899 694.8452194603872) rotate(0 54.25390625 27.599999999999994)"><text x="54.25390625" y="0" font-family="Helvetica, Segoe UI Emoji" font-size="16px" fill="#1e1e1e" text-anchor="middle" style="white-space: pre;" direction="ltr" dominant-baseline="text-before-edge">E-mail é </text><text x="54.25390625" y="18.4" font-family="Helvetica, Segoe UI Emoji" font-size="16px" fill="#1e1e1e" text-anchor="middle" style="white-space: pre;" direction="ltr" dominant-baseline="text-before-edge">enviado com o </text><text x="54.25390625" y="36.8" font-family="Helvetica, Segoe UI Emoji" font-size="16px" fill="#1e1e1e" text-anchor="middle" style="white-space: pre;" direction="ltr" dominant-baseline="text-before-edge">resultado</text></g><g stroke-linecap="round" transform="translate(1043.0044254959626 1361.3504152808591) rotate(0 58 60.5)"><path d="M29 0 C42.53 0, 56.06 0, 87 0 M29 0 C46.23 0, 63.47 0, 87 0 M87 0 C106.33 0, 116 9.67, 116 29 M87 0 C106.33 0, 116 9.67, 116 29 M116 29 C116 45.78, 116 62.56, 116 92 M116 29 C116 50.28, 116 71.56, 116 92 M116 92 C116 111.33, 106.33 121, 87 121 M116 92 C116 111.33, 106.33 121, 87 121 M87 121 C72.08 121, 57.15 121, 29 121 M87 121 C65.16 121, 43.32 121, 29 121 M29 121 C9.67 121, 0 111.33, 0 92 M29 121 C9.67 121, 0 111.33, 0 92 M0 92 C0 77.32, 0 62.65, 0 29 M0 92 C0 74.87, 0 57.73, 0 29 M0 29 C0 9.67, 9.67 0, 29 0 M0 29 C0 9.67, 9.67 0, 29 0" stroke="#1e1e1e" stroke-width="1" fill="none"></path></g><g transform="translate(1048.5278629959626 1366.650415280859) rotate(0 52.4765625 55.19999999999999)"><text x="52.4765625" y="0" font-family="Helvetica, Segoe UI Emoji" font-size="16px" fill="#1e1e1e" text-anchor="middle" style="white-space: pre;" direction="ltr" dominant-baseline="text-before-edge">Apresenta por </text><text x="52.4765625" y="18.4" font-family="Helvetica, Segoe UI Emoji" font-size="16px" fill="#1e1e1e" text-anchor="middle" style="white-space: pre;" direction="ltr" dominant-baseline="text-before-edge">ordem </text><text x="52.4765625" y="36.8" font-family="Helvetica, Segoe UI Emoji" font-size="16px" fill="#1e1e1e" text-anchor="middle" style="white-space: pre;" direction="ltr" dominant-baseline="text-before-edge">cronológica do</text><text x="52.4765625" y="55.199999999999996" font-family="Helvetica, Segoe UI Emoji" font-size="16px" fill="#1e1e1e" text-anchor="middle" style="white-space: pre;" direction="ltr" dominant-baseline="text-before-edge">mais antigo </text><text x="52.4765625" y="73.6" font-family="Helvetica, Segoe UI Emoji" font-size="16px" fill="#1e1e1e" text-anchor="middle" style="white-space: pre;" direction="ltr" dominant-baseline="text-before-edge">para mais </text><text x="52.4765625" y="92" font-family="Helvetica, Segoe UI Emoji" font-size="16px" fill="#1e1e1e" text-anchor="middle" style="white-space: pre;" direction="ltr" dominant-baseline="text-before-edge">recente.</text></g><g stroke-linecap="round" transform="translate(1588.2039711176853 204.6142373768679) rotate(0 84.5 33)"><path d="M16.5 0 C56.84 0, 97.18 0, 152.5 0 C163.5 0, 169 5.5, 169 16.5 C169 27.61, 169 38.72, 169 49.5 C169 60.5, 163.5 66, 152.5 66 C102.17 66, 51.84 66, 16.5 66 C5.5 66, 0 60.5, 0 49.5 C0 37.07, 0 24.63, 0 16.5 C0 5.5, 5.5 0, 16.5 0" stroke="none" stroke-width="0" fill="#ffec99"></path><path d="M16.5 0 C52.79 0, 89.09 0, 152.5 0 M16.5 0 C64.81 0, 113.11 0, 152.5 0 M152.5 0 C163.5 0, 169 5.5, 169 16.5 M152.5 0 C163.5 0, 169 5.5, 169 16.5 M169 16.5 C169 29.62, 169 42.73, 169 49.5 M169 16.5 C169 25.09, 169 33.68, 169 49.5 M169 49.5 C169 60.5, 163.5 66, 152.5 66 M169 49.5 C169 60.5, 163.5 66, 152.5 66 M152.5 66 C109.53 66, 66.56 66, 16.5 66 M152.5 66 C124.55 66, 96.61 66, 16.5 66 M16.5 66 C5.5 66, 0 60.5, 0 49.5 M16.5 66 C5.5 66, 0 60.5, 0 49.5 M0 49.5 C0 38.6, 0 27.71, 0 16.5 M0 49.5 C0 40.66, 0 31.81, 0 16.5 M0 16.5 C0 5.5, 5.5 0, 16.5 0 M0 16.5 C0 5.5, 5.5 0, 16.5 0" stroke="#1e1e1e" stroke-width="1" fill="none"></path></g><g transform="translate(1593.9774086176853 219.2142373768679) rotate(0 78.7265625 18.399999999999977)"><text x="78.7265625" y="0" font-family="Helvetica, Segoe UI Emoji" font-size="16px" fill="#1e1e1e" text-anchor="middle" style="white-space: pre;" direction="ltr" dominant-baseline="text-before-edge">O estado do pedido é </text><text x="78.7265625" y="18.4" font-family="Helvetica, Segoe UI Emoji" font-size="16px" fill="#1e1e1e" text-anchor="middle" style="white-space: pre;" direction="ltr" dominant-baseline="text-before-edge">atualizado</text></g><g stroke-linecap="round" transform="translate(1611.0333246713164 311.1791776206952) rotate(0 61.5 51)"><path d="M25.5 0 C42.13 0, 58.76 0, 97.5 0 M25.5 0 C43.05 0, 60.6 0, 97.5 0 M97.5 0 C114.5 0, 123 8.5, 123 25.5 M97.5 0 C114.5 0, 123 8.5, 123 25.5 M123 25.5 C123 43.29, 123 61.08, 123 76.5 M123 25.5 C123 37.61, 123 49.71, 123 76.5 M123 76.5 C123 93.5, 114.5 102, 97.5 102 M123 76.5 C123 93.5, 114.5 102, 97.5 102 M97.5 102 C75.84 102, 54.19 102, 25.5 102 M97.5 102 C70.57 102, 43.65 102, 25.5 102 M25.5 102 C8.5 102, 0 93.5, 0 76.5 M25.5 102 C8.5 102, 0 93.5, 0 76.5 M0 76.5 C0 59.76, 0 43.03, 0 25.5 M0 76.5 C0 64.28, 0 52.05, 0 25.5 M0 25.5 C0 8.5, 8.5 0, 25.5 0 M0 25.5 C0 8.5, 8.5 0, 25.5 0" stroke="#1e1e1e" stroke-width="1" fill="none"></path></g><g transform="translate(1625.3926996713164 316.1791776206952) rotate(0 47.140625 46)"><text x="47.140625" y="0" font-family="Helvetica, Segoe UI Emoji" font-size="16px" fill="#1e1e1e" text-anchor="middle" style="white-space: pre;" direction="ltr" dominant-baseline="text-before-edge">Alteração do </text><text x="47.140625" y="18.4" font-family="Helvetica, Segoe UI Emoji" font-size="16px" fill="#1e1e1e" text-anchor="middle" style="white-space: pre;" direction="ltr" dominant-baseline="text-before-edge">estado do </text><text x="47.140625" y="36.8" font-family="Helvetica, Segoe UI Emoji" font-size="16px" fill="#1e1e1e" text-anchor="middle" style="white-space: pre;" direction="ltr" dominant-baseline="text-before-edge">pedido para </text><text x="47.140625" y="55.199999999999996" font-family="Helvetica, Segoe UI Emoji" font-size="16px" fill="#1e1e1e" text-anchor="middle" style="white-space: pre;" direction="ltr" dominant-baseline="text-before-edge">aprovado ou </text><text x="47.140625" y="73.6" font-family="Helvetica, Segoe UI Emoji" font-size="16px" fill="#1e1e1e" text-anchor="middle" style="white-space: pre;" direction="ltr" dominant-baseline="text-before-edge">rejeitado</text></g><g stroke-linecap="round" transform="translate(1800.7414129701942 847.8312051346694) rotate(0 61.5 51)"><path d="M25.5 0 C49.62 0, 73.74 0, 97.5 0 M25.5 0 C44.24 0, 62.99 0, 97.5 0 M97.5 0 C114.5 0, 123 8.5, 123 25.5 M97.5 0 C114.5 0, 123 8.5, 123 25.5 M123 25.5 C123 36.06, 123 46.63, 123 76.5 M123 25.5 C123 44.43, 123 63.37, 123 76.5 M123 76.5 C123 93.5, 114.5 102, 97.5 102 M123 76.5 C123 93.5, 114.5 102, 97.5 102 M97.5 102 C74.9 102, 52.29 102, 25.5 102 M97.5 102 C78.9 102, 60.31 102, 25.5 102 M25.5 102 C8.5 102, 0 93.5, 0 76.5 M25.5 102 C8.5 102, 0 93.5, 0 76.5 M0 76.5 C0 59.1, 0 41.7, 0 25.5 M0 76.5 C0 59.19, 0 41.87, 0 25.5 M0 25.5 C0 8.5, 8.5 0, 25.5 0 M0 25.5 C0 8.5, 8.5 0, 25.5 0" stroke="#1e1e1e" stroke-width="1" fill="none"></path></g><g transform="translate(1808.4328192201942 852.8312051346694) rotate(0 53.80859375 46)"><text x="53.80859375" y="0" font-family="Helvetica, Segoe UI Emoji" font-size="16px" fill="#1e1e1e" text-anchor="middle" style="white-space: pre;" direction="ltr" dominant-baseline="text-before-edge">Caso rejeitado </text><text x="53.80859375" y="18.4" font-family="Helvetica, Segoe UI Emoji" font-size="16px" fill="#1e1e1e" text-anchor="middle" style="white-space: pre;" direction="ltr" dominant-baseline="text-before-edge">o pedido, </text><text x="53.80859375" y="36.8" font-family="Helvetica, Segoe UI Emoji" font-size="16px" fill="#1e1e1e" text-anchor="middle" style="white-space: pre;" direction="ltr" dominant-baseline="text-before-edge">possibilidade </text><text x="53.80859375" y="55.199999999999996" font-family="Helvetica, Segoe UI Emoji" font-size="16px" fill="#1e1e1e" text-anchor="middle" style="white-space: pre;" direction="ltr" dominant-baseline="text-before-edge">de </text><text x="53.80859375" y="73.6" font-family="Helvetica, Segoe UI Emoji" font-size="16px" fill="#1e1e1e" text-anchor="middle" style="white-space: pre;" direction="ltr" dominant-baseline="text-before-edge">reenviar/editar.</text></g><g stroke-linecap="round" transform="translate(1213.0628415416231 1144.3214285714284) rotate(0 61.5 60.5)"><path d="M30.25 0 C52.92 0, 75.59 0, 92.75 0 M30.25 0 C45.01 0, 59.78 0, 92.75 0 M92.75 0 C112.92 0, 123 10.08, 123 30.25 M92.75 0 C112.92 0, 123 10.08, 123 30.25 M123 30.25 C123 43.28, 123 56.32, 123 90.75 M123 30.25 C123 42.74, 123 55.23, 123 90.75 M123 90.75 C123 110.92, 112.92 121, 92.75 121 M123 90.75 C123 110.92, 112.92 121, 92.75 121 M92.75 121 C71.27 121, 49.8 121, 30.25 121 M92.75 121 C71.78 121, 50.81 121, 30.25 121 M30.25 121 C10.08 121, 0 110.92, 0 90.75 M30.25 121 C10.08 121, 0 110.92, 0 90.75 M0 90.75 C0 66.69, 0 42.63, 0 30.25 M0 90.75 C0 78.38, 0 66.02, 0 30.25 M0 30.25 C0 10.08, 10.08 0, 30.25 0 M0 30.25 C0 10.08, 10.08 0, 30.25 0" stroke="#1e1e1e" stroke-width="1" fill="none"></path></g><g transform="translate(1220.3011227916231 1158.8214285714284) rotate(0 54.26171875 46)"><text x="54.26171875" y="0" font-family="Helvetica, Segoe UI Emoji" font-size="16px" fill="#1e1e1e" text-anchor="middle" style="white-space: pre;" direction="ltr" dominant-baseline="text-before-edge">DGADR </text><text x="54.26171875" y="18.4" font-family="Helvetica, Segoe UI Emoji" font-size="16px" fill="#1e1e1e" text-anchor="middle" style="white-space: pre;" direction="ltr" dominant-baseline="text-before-edge">analisam os </text><text x="54.26171875" y="36.8" font-family="Helvetica, Segoe UI Emoji" font-size="16px" fill="#1e1e1e" text-anchor="middle" style="white-space: pre;" direction="ltr" dominant-baseline="text-before-edge">dados no caso </text><text x="54.26171875" y="55.199999999999996" font-family="Helvetica, Segoe UI Emoji" font-size="16px" fill="#1e1e1e" text-anchor="middle" style="white-space: pre;" direction="ltr" dominant-baseline="text-before-edge">de zonas não </text><text x="54.26171875" y="73.6" font-family="Helvetica, Segoe UI Emoji" font-size="16px" fill="#1e1e1e" text-anchor="middle" style="white-space: pre;" direction="ltr" dominant-baseline="text-before-edge">controlada</text></g><g transform="translate(15.855087678969085 1405.70430653816) rotate(0 28.52918243408203 13.117122033268402)"><text x="0" y="0" font-family="Helvetica, Segoe UI Emoji" font-size="22.812386144814568px" fill="#1e1e1e" text-anchor="start" style="white-space: pre;" direction="ltr" dominant-baseline="text-before-edge">Baixa</text></g><g stroke-linecap="round" transform="translate(834.6699843987649 533.4285714285713) rotate(0 61.5 33)"><path d="M16.5 0 C40.5 0, 64.5 0, 106.5 0 M16.5 0 C49.78 0, 83.05 0, 106.5 0 M106.5 0 C117.5 0, 123 5.5, 123 16.5 M106.5 0 C117.5 0, 123 5.5, 123 16.5 M123 16.5 C123 26.33, 123 36.16, 123 49.5 M123 16.5 C123 23.85, 123 31.2, 123 49.5 M123 49.5 C123 60.5, 117.5 66, 106.5 66 M123 49.5 C123 60.5, 117.5 66, 106.5 66 M106.5 66 C77.58 66, 48.66 66, 16.5 66 M106.5 66 C85.54 66, 64.59 66, 16.5 66 M16.5 66 C5.5 66, 0 60.5, 0 49.5 M16.5 66 C5.5 66, 0 60.5, 0 49.5 M0 49.5 C0 36.7, 0 23.89, 0 16.5 M0 49.5 C0 42.21, 0 34.92, 0 16.5 M0 16.5 C0 5.5, 5.5 0, 16.5 0 M0 16.5 C0 5.5, 5.5 0, 16.5 0" stroke="#1e1e1e" stroke-width="1" fill="none"></path></g><g transform="translate(855.7012343987649 548.0285714285714) rotate(0 40.46875 18.400000000000006)"><text x="40.46875" y="0" font-family="Helvetica, Segoe UI Emoji" font-size="16px" fill="#1e1e1e" text-anchor="middle" style="white-space: pre;" direction="ltr" dominant-baseline="text-before-edge">Envio para </text><text x="40.46875" y="18.4" font-family="Helvetica, Segoe UI Emoji" font-size="16px" fill="#1e1e1e" text-anchor="middle" style="white-space: pre;" direction="ltr" dominant-baseline="text-before-edge">DGADR</text></g><g stroke-linecap="round" transform="translate(1007.4199843987653 10) rotate(0 283.75 738.4821428571427)"><path d="M32 0 C231.45 -1.13, 429.84 -0.35, 535.5 0 M32 0 C204.06 -0.58, 377.16 -0.55, 535.5 0 M535.5 0 C557.36 1.81, 568.79 9.41, 567.5 32 M535.5 0 C556.38 0.2, 569.35 8.67, 567.5 32 M567.5 32 C572.76 331.9, 572.48 631.16, 567.5 1444.96 M567.5 32 C567.55 522.1, 567.89 1011.4, 567.5 1444.96 M567.5 1444.96 C569.29 1467.66, 555.72 1478.63, 535.5 1476.96 M567.5 1444.96 C568.33 1464.01, 556.58 1476.2, 535.5 1476.96 M535.5 1476.96 C344.7 1475.47, 153.14 1475.5, 32 1476.96 M535.5 1476.96 C427.04 1478.66, 318.28 1478.93, 32 1476.96 M32 1476.96 C9.07 1475.38, 0.05 1466.62, 0 1444.96 M32 1476.96 C10.66 1475.99, 1.32 1468.1, 0 1444.96 M0 1444.96 C4.91 904.64, 4.8 364.86, 0 32 M0 1444.96 C-2.05 1030.52, -1.75 615.2, 0 32 M0 32 C1.61 8.84, 10.24 0.29, 32 0 M0 32 C-1.8 12.79, 12.53 -2.08, 32 0" stroke="#e03131" stroke-width="2" fill="none"></path></g><g transform="translate(1136.1699843987653 25.17857142857133) rotate(0 160.25991821289062 12.5)"><text x="0" y="0" font-family="Virgil, Segoe UI Emoji" font-size="20px" fill="#e03131" text-anchor="start" style="white-space: pre;" direction="ltr" dominant-baseline="text-before-edge">EXTERNO - FEITO NO PORTAL</text></g><g stroke-linecap="round"><g transform="translate(97.6952429601688 831.351080617421) rotate(0 927.2873387535953 2.0286300727160302)"><path d="M0 0 C309.1 0.68, 1545.48 3.38, 1854.57 4.06 M0 0 C309.1 0.68, 1545.48 3.38, 1854.57 4.06" stroke="#1e1e1e" stroke-width="1" fill="none"></path></g><g transform="translate(97.6952429601688 831.351080617421) rotate(0 927.2873387535953 2.0286300727160302)"><path d="M1831.06 12.56 C1838.53 9.86, 1846 7.16, 1854.57 4.06 M1831.06 12.56 C1836.73 10.51, 1842.39 8.46, 1854.57 4.06" stroke="#1e1e1e" stroke-width="1" fill="none"></path></g><g transform="translate(97.6952429601688 831.351080617421) rotate(0 927.2873387535953 2.0286300727160302)"><path d="M1831.1 -4.54 C1838.56 -1.81, 1846.01 0.92, 1854.57 4.06 M1831.1 -4.54 C1836.75 -2.47, 1842.41 -0.4, 1854.57 4.06" stroke="#1e1e1e" stroke-width="1" fill="none"></path></g></g><mask></mask><g stroke-linecap="round" transform="translate(1611.453291176235 676.939657837707) rotate(0 61.5 69.5)"><path d="M30.75 0 C49.31 0, 67.88 0, 92.25 0 M30.75 0 C51.83 0, 72.91 0, 92.25 0 M92.25 0 C112.75 0, 123 10.25, 123 30.75 M92.25 0 C112.75 0, 123 10.25, 123 30.75 M123 30.75 C123 55.55, 123 80.35, 123 108.25 M123 30.75 C123 55.72, 123 80.7, 123 108.25 M123 108.25 C123 128.75, 112.75 139, 92.25 139 M123 108.25 C123 128.75, 112.75 139, 92.25 139 M92.25 139 C73.01 139, 53.78 139, 30.75 139 M92.25 139 C77.25 139, 62.26 139, 30.75 139 M30.75 139 C10.25 139, 0 128.75, 0 108.25 M30.75 139 C10.25 139, 0 128.75, 0 108.25 M0 108.25 C0 91.13, 0 74.01, 0 30.75 M0 108.25 C0 91.68, 0 75.1, 0 30.75 M0 30.75 C0 10.25, 10.25 0, 30.75 0 M0 30.75 C0 10.25, 10.25 0, 30.75 0" stroke="#1e1e1e" stroke-width="1" fill="none"></path></g><g transform="translate(1620.476728676235 682.0396578377071) rotate(0 52.4765625 64.39999999999999)"><text x="52.4765625" y="0" font-family="Helvetica, Segoe UI Emoji" font-size="16px" fill="#1e1e1e" text-anchor="middle" style="white-space: pre;" direction="ltr" dominant-baseline="text-before-edge">Se aprovado, </text><text x="52.4765625" y="18.4" font-family="Helvetica, Segoe UI Emoji" font-size="16px" fill="#1e1e1e" text-anchor="middle" style="white-space: pre;" direction="ltr" dominant-baseline="text-before-edge">as colmeias </text><text x="52.4765625" y="36.8" font-family="Helvetica, Segoe UI Emoji" font-size="16px" fill="#1e1e1e" text-anchor="middle" style="white-space: pre;" direction="ltr" dominant-baseline="text-before-edge">são atribuídas </text><text x="52.4765625" y="55.199999999999996" font-family="Helvetica, Segoe UI Emoji" font-size="16px" fill="#1e1e1e" text-anchor="middle" style="white-space: pre;" direction="ltr" dominant-baseline="text-before-edge">ao apiário </text><text x="52.4765625" y="73.6" font-family="Helvetica, Segoe UI Emoji" font-size="16px" fill="#1e1e1e" text-anchor="middle" style="white-space: pre;" direction="ltr" dominant-baseline="text-before-edge">destino de </text><text x="52.4765625" y="92" font-family="Helvetica, Segoe UI Emoji" font-size="16px" fill="#1e1e1e" text-anchor="middle" style="white-space: pre;" direction="ltr" dominant-baseline="text-before-edge">forma </text><text x="52.4765625" y="110.39999999999999" font-family="Helvetica, Segoe UI Emoji" font-size="16px" fill="#1e1e1e" text-anchor="middle" style="white-space: pre;" direction="ltr" dominant-baseline="text-before-edge">automática</text></g><g transform="translate(111.42427331909312 846.6941669887518) rotate(0 18.671875 9.2)"><text x="0" y="0" font-family="Helvetica, Segoe UI Emoji" font-size="16px" fill="#1e1e1e" text-anchor="start" style="white-space: pre;" direction="ltr" dominant-baseline="text-before-edge">MVI2</text></g></svg>