<?xml version="1.0" encoding="UTF-8" standalone="no"?><svg xmlns="http://www.w3.org/2000/svg" xmlns:xlink="http://www.w3.org/1999/xlink" contentStyleType="text/css" height="957px" preserveAspectRatio="none" style="width:494px;height:957px;background:#FFFFFF;" version="1.1" viewBox="0 0 494 957" width="494px" zoomAndPan="magnify"><defs/><g><!--MD5=[25e42c86a776e1c683b472489ed04c1e]
entity bk--><g id="elem_bk"><ellipse cx="40.5" cy="417" fill="#F1F1F1" rx="8" ry="8" style="stroke:#181818;stroke-width:0.5;"/><path d="M40.5,425 L40.5,452 M27.5,433 L53.5,433 M40.5,452 L27.5,467 M40.5,452 L53.5,467 " fill="none" style="stroke:#181818;stroke-width:0.5;"/><text fill="#000000" font-family="sans-serif" font-size="14" lengthAdjust="spacing" textLength="69" x="6" y="483.0332">Beekeeper</text></g><g id="elem_uc1"><ellipse cx="311.7387" cy="33.3477" fill="#F1F1F1" rx="124.7387" ry="27.3477" style="stroke:#181818;stroke-width:0.5;"/><text fill="#000000" font-family="sans-serif" font-size="14" lengthAdjust="spacing" textLength="215" x="204.2387" y="37.0763">Registar apiários e os seus dados</text></g><g id="elem_uc2"><ellipse cx="311.5842" cy="112.3168" fill="#F1F1F1" rx="67.0842" ry="15.8168" style="stroke:#181818;stroke-width:0.5;"/><text fill="#000000" font-family="sans-serif" font-size="14" lengthAdjust="spacing" textLength="79" x="269.0842" y="116.8334">Criar tarefas</text></g><g id="elem_uc3"><ellipse cx="311.6312" cy="192.6262" fill="#F1F1F1" rx="133.6312" ry="29.1262" style="stroke:#181818;stroke-width:0.5;"/><text fill="#000000" font-family="sans-serif" font-size="14" lengthAdjust="spacing" textLength="136" x="241.6312" y="187.5501">Registo de inspeções</text><text fill="#000000" font-family="sans-serif" font-size="14" lengthAdjust="spacing" textLength="177" x="225.1312" y="205.1594">por colmeia e as suas notas</text></g><g id="elem_uc4"><ellipse cx="311.5573" cy="289.7115" fill="#F1F1F1" rx="154.0573" ry="33.2115" style="stroke:#181818;stroke-width:0.5;"/><text fill="#000000" font-family="sans-serif" font-size="14" lengthAdjust="spacing" textLength="277" x="173.0573" y="293.44">Registar tratamentos realizados por colmeia</text></g><g id="elem_uc5"><ellipse cx="311.4323" cy="394.5865" fill="#F1F1F1" rx="170.9323" ry="36.5865" style="stroke:#181818;stroke-width:0.5;"/><text fill="#000000" font-family="sans-serif" font-size="14" lengthAdjust="spacing" textLength="163" x="229.9323" y="389.5103">Visualizar alertas emitidos</text><text fill="#000000" font-family="sans-serif" font-size="14" lengthAdjust="spacing" textLength="274" x="174.4323" y="407.1197">pelas Entidades Gestoras e técnicos DGAV</text></g><g id="elem_uc6"><ellipse cx="311.6703" cy="500.7341" fill="#F1F1F1" rx="161.6703" ry="34.7341" style="stroke:#181818;stroke-width:0.5;"/><text fill="#000000" font-family="sans-serif" font-size="14" lengthAdjust="spacing" textLength="156" x="233.6703" y="495.6579">Emitir Pedido de entrada</text><text fill="#000000" font-family="sans-serif" font-size="14" lengthAdjust="spacing" textLength="252" x="185.6703" y="513.2673">ou saída de zona às entidades gestoras</text></g><g id="elem_uc7"><ellipse cx="311.5007" cy="607.7001" fill="#F1F1F1" rx="176.5007" ry="37.7001" style="stroke:#181818;stroke-width:0.5;"/><text fill="#000000" font-family="sans-serif" font-size="14" lengthAdjust="spacing" textLength="287" x="168.0007" y="602.624">Visualizar informação das zonas temperatura,</text><text fill="#000000" font-family="sans-serif" font-size="14" lengthAdjust="spacing" textLength="226" x="200.5007" y="620.2333">velocidade dos ventos, entre outros</text></g><g id="elem_uc8"><ellipse cx="311.3583" cy="711.5717" fill="#F1F1F1" rx="145.8583" ry="31.5717" style="stroke:#181818;stroke-width:0.5;"/><text fill="#000000" font-family="sans-serif" font-size="14" lengthAdjust="spacing" textLength="130" x="246.3583" y="706.4955">Visualizar calendário</text><text fill="#000000" font-family="sans-serif" font-size="14" lengthAdjust="spacing" textLength="213" x="204.8583" y="724.1049">com tarefas realizadas e agendas</text></g><g id="elem_uc9"><ellipse cx="311.4711" cy="809.4942" fill="#F1F1F1" rx="142.9711" ry="30.9942" style="stroke:#181818;stroke-width:0.5;"/><text fill="#000000" font-family="sans-serif" font-size="14" lengthAdjust="spacing" textLength="205" x="205.9711" y="805.2061">Registo de produtos produzidos,</text><text fill="#000000" font-family="sans-serif" font-size="14" lengthAdjust="spacing" textLength="156" x="230.4711" y="822.8155">quantidade e tipo de mel</text></g><g id="elem_uc10"><ellipse cx="311.5007" cy="913.7001" fill="#F1F1F1" rx="176.5007" ry="37.7001" style="stroke:#181818;stroke-width:0.5;"/><text fill="#000000" font-family="sans-serif" font-size="14" lengthAdjust="spacing" textLength="287" x="168.0007" y="908.624">Dar permissão às companhias de certificação</text><text fill="#000000" font-family="sans-serif" font-size="14" lengthAdjust="spacing" textLength="244" x="189.5007" y="926.2333">para visualizar os dados de X colmeias</text></g><!--MD5=[96f5c05199ed92c7955eaae803c3653f]
link bk to uc1--><g id="link_bk_uc1"><path d="M46.35,408.33 C57.67,323.2 88.45,125.18 135,78.5 C150.49,62.97 170.56,52.56 191.56,45.64 " fill="none" id="bk-to-uc1" style="stroke:#181818;stroke-width:1.0;"/><polygon fill="#181818" points="196.34,44.12,186.5517,43.0299,191.5742,45.6325,188.9716,50.6551,196.34,44.12" style="stroke:#181818;stroke-width:1.0;"/></g><!--MD5=[7141d8534e38aac433bb93722e05b7ad]
link bk to uc2--><g id="link_bk_uc2"><path d="M41.52,408.4 C43.82,343.46 58.4,213.81 135,145.5 C163.45,120.13 205.06,111.52 240.62,109.42 " fill="none" id="bk-to-uc2" style="stroke:#181818;stroke-width:1.0;"/><polygon fill="#181818" points="245.82,109.15,236.6365,105.5913,240.8259,109.3926,237.0247,113.5819,245.82,109.15" style="stroke:#181818;stroke-width:1.0;"/></g><!--MD5=[e89e0b1f2729f03dbd6f8fb112f1e256]
link bk to uc3--><g id="link_bk_uc3"><path d="M48.43,408.22 C58.85,360.94 83.15,282.46 135,238.5 C150.9,225.02 170.32,215.43 190.36,208.63 " fill="none" id="bk-to-uc3" style="stroke:#181818;stroke-width:1.0;"/><polygon fill="#181818" points="195.19,207.05,185.3913,206.057,190.4395,208.6097,187.8868,213.6578,195.19,207.05" style="stroke:#181818;stroke-width:1.0;"/></g><!--MD5=[e5f59d18c95679c68ba64cfd9e066c43]
link bk to uc4--><g id="link_bk_uc4"><path d="M67.12,408.31 C83.91,385.49 107.75,357.88 135,340.5 C152.58,329.29 172.71,320.47 192.91,313.56 " fill="none" id="bk-to-uc4" style="stroke:#181818;stroke-width:1.0;"/><polygon fill="#181818" points="197.77,311.93,187.9661,310.9902,193.028,313.5154,190.5028,318.5774,197.77,311.93" style="stroke:#181818;stroke-width:1.0;"/></g><!--MD5=[d3823ed9281442200e84d5817c0a40f6]
link bk to uc5--><g id="link_bk_uc5"><path d="M75.03,440.89 C101.78,435.62 141.1,427.88 179.97,420.22 " fill="none" id="bk-to-uc5" style="stroke:#181818;stroke-width:1.0;"/><polygon fill="#181818" points="185.21,419.19,175.604,417.0166,180.3055,420.1623,177.1597,424.8638,185.21,419.19" style="stroke:#181818;stroke-width:1.0;"/></g><!--MD5=[3e0816a43e107640d24a8f2b37bd5a4e]
link bk to uc6--><g id="link_bk_uc6"><path d="M75.03,454.11 C103.45,459.71 146.04,468.1 187.23,476.21 " fill="none" id="bk-to-uc6" style="stroke:#181818;stroke-width:1.0;"/><polygon fill="#181818" points="192.24,477.2,184.1738,471.5488,187.3327,476.2414,182.6401,479.4004,192.24,477.2" style="stroke:#181818;stroke-width:1.0;"/></g><!--MD5=[30c8ad64e10d34187247a973dacd4a88]
link bk to uc7--><g id="link_bk_uc7"><path d="M67.98,486.51 C84.83,508.68 108.45,535.35 135,552.5 C150.69,562.63 168.37,571.01 186.32,577.9 " fill="none" id="bk-to-uc7" style="stroke:#181818;stroke-width:1.0;"/><polygon fill="#181818" points="191.39,579.8,184.3745,572.8875,186.7101,578.0397,181.558,580.3753,191.39,579.8" style="stroke:#181818;stroke-width:1.0;"/></g><!--MD5=[e62ca38711b9893dc81b37fd65b55c82]
link bk to uc8--><g id="link_bk_uc8"><path d="M48.04,486.9 C58.14,535.27 82.2,616.53 135,662.5 C149.74,675.33 167.58,684.82 186.17,691.84 " fill="none" id="bk-to-uc8" style="stroke:#181818;stroke-width:1.0;"/><polygon fill="#181818" points="190.91,693.57,183.8255,686.7282,186.2127,691.8567,181.0842,694.2439,190.91,693.57" style="stroke:#181818;stroke-width:1.0;"/></g><!--MD5=[cf122d119a7fc9e6392968e35f5bd3ac]
link bk to uc9--><g id="link_bk_uc9"><path d="M41.71,486.73 C44.24,552.72 59.13,685.99 135,760.5 C148.94,774.19 166.37,784.13 184.79,791.33 " fill="none" id="bk-to-uc9" style="stroke:#181818;stroke-width:1.0;"/><polygon fill="#181818" points="189.5,793.1,182.4845,786.1875,184.8201,791.3397,179.668,793.6753,189.5,793.1" style="stroke:#181818;stroke-width:1.0;"/></g><!--MD5=[294b00b622a2c931329f3c536cbf4e64]
link bk to uc10--><g id="link_bk_uc10"><path d="M45.49,486.6 C55.59,578.21 84.99,803.07 135,857.5 C145.98,869.45 159.51,878.87 174.13,886.28 " fill="none" id="bk-to-uc10" style="stroke:#181818;stroke-width:1.0;"/><polygon fill="#181818" points="178.71,888.52,172.3715,880.9819,174.2152,886.3299,168.8672,888.1736,178.71,888.52" style="stroke:#181818;stroke-width:1.0;"/></g><!--MD5=[db378a0e5f30e252eb2c4d0df04bf6bd]
@startuml UseCaseDiagram

left to right direction

:Beekeeper: as bk

(Registar apiários e os seus dados) as uc1
(Criar tarefas) as uc2
(Registo de inspeções \n por colmeia e as suas notas) as uc3
(Registar tratamentos realizados por colmeia) as uc4
(Visualizar alertas emitidos\npelas Entidades Gestoras e técnicos DGAV) as uc5
(Emitir Pedido de entrada\nou saída de zona às entidades gestoras) as uc6
(Visualizar informação das zonas temperatura,\n velocidade dos ventos, entre outros) as uc7
(Visualizar calendário\ncom tarefas realizadas e agendas) as uc8
(Registo de produtos produzidos,\nquantidade e tipo de mel) as uc9
(Dar permissão às companhias de certificação\npara visualizar os dados de X colmeias) as uc10

bk - -> uc1
bk - -> uc2
bk - -> uc3
bk - -> uc4
bk - -> uc5
bk - -> uc6
bk - -> uc7
bk - -> uc8
bk - -> uc9
bk - -> uc10

@enduml

PlantUML version 1.2022.7(Mon Aug 22 18:01:30 WEST 2022)
(GPL source distribution)
Java Runtime: Java(TM) SE Runtime Environment
JVM: Java HotSpot(TM) 64-Bit Server VM
Default Encoding: Cp1252
Language: en
Country: GB
--></g></svg>