<?xml version="1.0" encoding="UTF-8" standalone="no"?><svg xmlns="http://www.w3.org/2000/svg" xmlns:xlink="http://www.w3.org/1999/xlink" contentStyleType="text/css" height="494px" preserveAspectRatio="none" style="width:738px;height:494px;background:#FFFFFF;" version="1.1" viewBox="0 0 738 494" width="738px" zoomAndPan="magnify"><defs/><g><!--MD5=[a5a251e750cd14805859e0ffe256b9ee]
class Crest--><g id="elem_Crest"><rect codeLine="2" fill="#F1F1F1" height="48" id="Crest" rx="2.5" ry="2.5" style="stroke:#181818;stroke-width:0.5;" width="66" x="539.37" y="223"/><ellipse cx="554.37" cy="239" fill="#ADD1B2" rx="11" ry="11" style="stroke:#181818;stroke-width:1.0;"/><path d="M553.2294,239.7969 L553.2294,242.2969 L557.5575,242.2969 L557.5575,241.375 Q557.5575,240.7656 557.7919,240.5 Q558.0419,240.2344 558.4169,240.2344 Q558.7919,240.2344 559.0263,240.5 Q559.2606,240.7656 559.2606,241.375 L559.2606,244 L551.2606,244 Q550.6356,244 550.37,243.7656 Q550.12,243.5313 550.12,243.1406 Q550.12,242.7656 550.3856,242.5313 Q550.6513,242.2969 551.2606,242.2969 L551.5263,242.2969 L551.5263,235.6406 L551.2606,235.6406 Q550.6356,235.6406 550.37,235.4063 Q550.12,235.1719 550.12,234.7813 Q550.12,234.4063 550.37,234.1719 Q550.6356,233.9375 551.2606,233.9375 L558.8856,233.9375 L558.8856,236.5313 Q558.8856,237.1406 558.6513,237.4063 Q558.4325,237.6563 558.0419,237.6563 Q557.6669,237.6563 557.4325,237.4063 Q557.1981,237.1406 557.1981,236.5313 L557.1981,235.6406 L553.2294,235.6406 L553.2294,238.0938 L554.7138,238.0938 Q554.7138,237.4375 554.8388,237.25 Q555.1044,236.8438 555.5731,236.8438 Q555.9481,236.8438 556.1825,237.1094 Q556.4169,237.3594 556.4169,237.9688 L556.4169,239.9375 Q556.4169,240.4844 556.2919,240.6719 Q556.0263,241.0625 555.5731,241.0625 Q555.1044,241.0625 554.8388,240.6563 Q554.7138,240.4688 554.7138,239.7969 L553.2294,239.7969 Z " fill="#000000"/><text fill="#000000" font-family="sans-serif" font-size="14" lengthAdjust="spacing" textLength="34" x="568.37" y="244.7285">Crest</text><line style="stroke:#181818;stroke-width:0.5;" x1="540.37" x2="604.37" y1="255" y2="255"/><line style="stroke:#181818;stroke-width:0.5;" x1="540.37" x2="604.37" y1="263" y2="263"/></g><!--MD5=[e9a0758e5b213084093c0f87be098a44]
class Unfolding--><g id="elem_Unfolding"><rect codeLine="3" fill="#F1F1F1" height="48" id="Unfolding" rx="2.5" ry="2.5" style="stroke:#181818;stroke-width:0.5;" width="91" x="640.87" y="223"/><ellipse cx="655.87" cy="239" fill="#ADD1B2" rx="11" ry="11" style="stroke:#181818;stroke-width:1.0;"/><path d="M654.7294,239.7969 L654.7294,242.2969 L659.0575,242.2969 L659.0575,241.375 Q659.0575,240.7656 659.2919,240.5 Q659.5419,240.2344 659.9169,240.2344 Q660.2919,240.2344 660.5263,240.5 Q660.7606,240.7656 660.7606,241.375 L660.7606,244 L652.7606,244 Q652.1356,244 651.87,243.7656 Q651.62,243.5313 651.62,243.1406 Q651.62,242.7656 651.8856,242.5313 Q652.1513,242.2969 652.7606,242.2969 L653.0263,242.2969 L653.0263,235.6406 L652.7606,235.6406 Q652.1356,235.6406 651.87,235.4063 Q651.62,235.1719 651.62,234.7813 Q651.62,234.4063 651.87,234.1719 Q652.1356,233.9375 652.7606,233.9375 L660.3856,233.9375 L660.3856,236.5313 Q660.3856,237.1406 660.1513,237.4063 Q659.9325,237.6563 659.5419,237.6563 Q659.1669,237.6563 658.9325,237.4063 Q658.6981,237.1406 658.6981,236.5313 L658.6981,235.6406 L654.7294,235.6406 L654.7294,238.0938 L656.2138,238.0938 Q656.2138,237.4375 656.3388,237.25 Q656.6044,236.8438 657.0731,236.8438 Q657.4481,236.8438 657.6825,237.1094 Q657.9169,237.3594 657.9169,237.9688 L657.9169,239.9375 Q657.9169,240.4844 657.7919,240.6719 Q657.5263,241.0625 657.0731,241.0625 Q656.6044,241.0625 656.3388,240.6563 Q656.2138,240.4688 656.2138,239.7969 L654.7294,239.7969 Z " fill="#000000"/><text fill="#000000" font-family="sans-serif" font-size="14" lengthAdjust="spacing" textLength="59" x="669.87" y="244.7285">Unfolding</text><line style="stroke:#181818;stroke-width:0.5;" x1="641.87" x2="730.87" y1="255" y2="255"/><line style="stroke:#181818;stroke-width:0.5;" x1="641.87" x2="730.87" y1="263" y2="263"/></g><!--MD5=[7f2cc02ed63da77de9f425da369d86e2]
class TR--><g id="elem_TR"><rect codeLine="4" fill="#F1F1F1" height="48" id="TR" rx="2.5" ry="2.5" style="stroke:#181818;stroke-width:0.5;" width="184" x="320.37" y="223"/><ellipse cx="335.37" cy="239" fill="#ADD1B2" rx="11" ry="11" style="stroke:#181818;stroke-width:1.0;"/><path d="M334.2294,239.7969 L334.2294,242.2969 L338.5575,242.2969 L338.5575,241.375 Q338.5575,240.7656 338.7919,240.5 Q339.0419,240.2344 339.4169,240.2344 Q339.7919,240.2344 340.0263,240.5 Q340.2606,240.7656 340.2606,241.375 L340.2606,244 L332.2606,244 Q331.6356,244 331.37,243.7656 Q331.12,243.5313 331.12,243.1406 Q331.12,242.7656 331.3856,242.5313 Q331.6513,242.2969 332.2606,242.2969 L332.5263,242.2969 L332.5263,235.6406 L332.2606,235.6406 Q331.6356,235.6406 331.37,235.4063 Q331.12,235.1719 331.12,234.7813 Q331.12,234.4063 331.37,234.1719 Q331.6356,233.9375 332.2606,233.9375 L339.8856,233.9375 L339.8856,236.5313 Q339.8856,237.1406 339.6513,237.4063 Q339.4325,237.6563 339.0419,237.6563 Q338.6669,237.6563 338.4325,237.4063 Q338.1981,237.1406 338.1981,236.5313 L338.1981,235.6406 L334.2294,235.6406 L334.2294,238.0938 L335.7138,238.0938 Q335.7138,237.4375 335.8388,237.25 Q336.1044,236.8438 336.5731,236.8438 Q336.9481,236.8438 337.1825,237.1094 Q337.4169,237.3594 337.4169,237.9688 L337.4169,239.9375 Q337.4169,240.4844 337.2919,240.6719 Q337.0263,241.0625 336.5731,241.0625 Q336.1044,241.0625 335.8388,240.6563 Q335.7138,240.4688 335.7138,239.7969 L334.2294,239.7969 Z " fill="#000000"/><text fill="#000000" font-family="sans-serif" font-size="14" lengthAdjust="spacing" textLength="152" x="349.37" y="244.7285">Transhumance Request</text><line style="stroke:#181818;stroke-width:0.5;" x1="321.37" x2="503.37" y1="255" y2="255"/><line style="stroke:#181818;stroke-width:0.5;" x1="321.37" x2="503.37" y1="263" y2="263"/></g><!--MD5=[1f1a18b8128c46004167f2eb357dc2be]
class Inspection--><g id="elem_Inspection"><rect codeLine="5" fill="#F1F1F1" height="48" id="Inspection" rx="2.5" ry="2.5" style="stroke:#181818;stroke-width:0.5;" width="96" x="189.37" y="223"/><ellipse cx="204.37" cy="239" fill="#ADD1B2" rx="11" ry="11" style="stroke:#181818;stroke-width:1.0;"/><path d="M203.2294,239.7969 L203.2294,242.2969 L207.5575,242.2969 L207.5575,241.375 Q207.5575,240.7656 207.7919,240.5 Q208.0419,240.2344 208.4169,240.2344 Q208.7919,240.2344 209.0263,240.5 Q209.2606,240.7656 209.2606,241.375 L209.2606,244 L201.2606,244 Q200.6356,244 200.37,243.7656 Q200.12,243.5313 200.12,243.1406 Q200.12,242.7656 200.3856,242.5313 Q200.6513,242.2969 201.2606,242.2969 L201.5263,242.2969 L201.5263,235.6406 L201.2606,235.6406 Q200.6356,235.6406 200.37,235.4063 Q200.12,235.1719 200.12,234.7813 Q200.12,234.4063 200.37,234.1719 Q200.6356,233.9375 201.2606,233.9375 L208.8856,233.9375 L208.8856,236.5313 Q208.8856,237.1406 208.6513,237.4063 Q208.4325,237.6563 208.0419,237.6563 Q207.6669,237.6563 207.4325,237.4063 Q207.1981,237.1406 207.1981,236.5313 L207.1981,235.6406 L203.2294,235.6406 L203.2294,238.0938 L204.7138,238.0938 Q204.7138,237.4375 204.8388,237.25 Q205.1044,236.8438 205.5731,236.8438 Q205.9481,236.8438 206.1825,237.1094 Q206.4169,237.3594 206.4169,237.9688 L206.4169,239.9375 Q206.4169,240.4844 206.2919,240.6719 Q206.0263,241.0625 205.5731,241.0625 Q205.1044,241.0625 204.8388,240.6563 Q204.7138,240.4688 204.7138,239.7969 L203.2294,239.7969 Z " fill="#000000"/><text fill="#000000" font-family="sans-serif" font-size="14" lengthAdjust="spacing" textLength="64" x="218.37" y="244.7285">Inspection</text><line style="stroke:#181818;stroke-width:0.5;" x1="190.37" x2="284.37" y1="255" y2="255"/><line style="stroke:#181818;stroke-width:0.5;" x1="190.37" x2="284.37" y1="263" y2="263"/></g><!--MD5=[36305d04957ea2e8b3c3623793cb79eb]
class Hive--><g id="elem_Hive"><rect codeLine="6" fill="#F1F1F1" height="48" id="Hive" rx="2.5" ry="2.5" style="stroke:#181818;stroke-width:0.5;" width="59" x="473.87" y="331"/><ellipse cx="488.87" cy="347" fill="#ADD1B2" rx="11" ry="11" style="stroke:#181818;stroke-width:1.0;"/><path d="M487.7294,347.7969 L487.7294,350.2969 L492.0575,350.2969 L492.0575,349.375 Q492.0575,348.7656 492.2919,348.5 Q492.5419,348.2344 492.9169,348.2344 Q493.2919,348.2344 493.5263,348.5 Q493.7606,348.7656 493.7606,349.375 L493.7606,352 L485.7606,352 Q485.1356,352 484.87,351.7656 Q484.62,351.5313 484.62,351.1406 Q484.62,350.7656 484.8856,350.5313 Q485.1513,350.2969 485.7606,350.2969 L486.0263,350.2969 L486.0263,343.6406 L485.7606,343.6406 Q485.1356,343.6406 484.87,343.4063 Q484.62,343.1719 484.62,342.7813 Q484.62,342.4063 484.87,342.1719 Q485.1356,341.9375 485.7606,341.9375 L493.3856,341.9375 L493.3856,344.5313 Q493.3856,345.1406 493.1513,345.4063 Q492.9325,345.6563 492.5419,345.6563 Q492.1669,345.6563 491.9325,345.4063 Q491.6981,345.1406 491.6981,344.5313 L491.6981,343.6406 L487.7294,343.6406 L487.7294,346.0938 L489.2138,346.0938 Q489.2138,345.4375 489.3388,345.25 Q489.6044,344.8438 490.0731,344.8438 Q490.4481,344.8438 490.6825,345.1094 Q490.9169,345.3594 490.9169,345.9688 L490.9169,347.9375 Q490.9169,348.4844 490.7919,348.6719 Q490.5263,349.0625 490.0731,349.0625 Q489.6044,349.0625 489.3388,348.6563 Q489.2138,348.4688 489.2138,347.7969 L487.7294,347.7969 Z " fill="#000000"/><text fill="#000000" font-family="sans-serif" font-size="14" lengthAdjust="spacing" textLength="27" x="502.87" y="352.7285">Hive</text><line style="stroke:#181818;stroke-width:0.5;" x1="474.87" x2="531.87" y1="363" y2="363"/><line style="stroke:#181818;stroke-width:0.5;" x1="474.87" x2="531.87" y1="371" y2="371"/></g><!--MD5=[2c1d549dac75235c8d9125967b6956d9]
class Apiary--><g id="elem_Apiary"><rect codeLine="7" fill="#F1F1F1" height="48" id="Apiary" rx="2.5" ry="2.5" style="stroke:#181818;stroke-width:0.5;" width="72" x="194.37" y="439"/><ellipse cx="209.37" cy="455" fill="#ADD1B2" rx="11" ry="11" style="stroke:#181818;stroke-width:1.0;"/><path d="M208.2294,455.7969 L208.2294,458.2969 L212.5575,458.2969 L212.5575,457.375 Q212.5575,456.7656 212.7919,456.5 Q213.0419,456.2344 213.4169,456.2344 Q213.7919,456.2344 214.0263,456.5 Q214.2606,456.7656 214.2606,457.375 L214.2606,460 L206.2606,460 Q205.6356,460 205.37,459.7656 Q205.12,459.5313 205.12,459.1406 Q205.12,458.7656 205.3856,458.5313 Q205.6513,458.2969 206.2606,458.2969 L206.5263,458.2969 L206.5263,451.6406 L206.2606,451.6406 Q205.6356,451.6406 205.37,451.4063 Q205.12,451.1719 205.12,450.7813 Q205.12,450.4063 205.37,450.1719 Q205.6356,449.9375 206.2606,449.9375 L213.8856,449.9375 L213.8856,452.5313 Q213.8856,453.1406 213.6513,453.4063 Q213.4325,453.6563 213.0419,453.6563 Q212.6669,453.6563 212.4325,453.4063 Q212.1981,453.1406 212.1981,452.5313 L212.1981,451.6406 L208.2294,451.6406 L208.2294,454.0938 L209.7138,454.0938 Q209.7138,453.4375 209.8388,453.25 Q210.1044,452.8438 210.5731,452.8438 Q210.9481,452.8438 211.1825,453.1094 Q211.4169,453.3594 211.4169,453.9688 L211.4169,455.9375 Q211.4169,456.4844 211.2919,456.6719 Q211.0263,457.0625 210.5731,457.0625 Q210.1044,457.0625 209.8388,456.6563 Q209.7138,456.4688 209.7138,455.7969 L208.2294,455.7969 Z " fill="#000000"/><text fill="#000000" font-family="sans-serif" font-size="14" lengthAdjust="spacing" textLength="40" x="223.37" y="460.7285">Apiary</text><line style="stroke:#181818;stroke-width:0.5;" x1="195.37" x2="265.37" y1="471" y2="471"/><line style="stroke:#181818;stroke-width:0.5;" x1="195.37" x2="265.37" y1="479" y2="479"/></g><!--MD5=[e9ca48bc411991307afe7947fa18f6a7]
class Beekeeper--><g id="elem_Beekeeper"><rect codeLine="8" fill="#F1F1F1" height="48" id="Beekeeper" rx="2.5" ry="2.5" style="stroke:#181818;stroke-width:0.5;" width="101" x="161.87" y="115"/><ellipse cx="176.87" cy="131" fill="#ADD1B2" rx="11" ry="11" style="stroke:#181818;stroke-width:1.0;"/><path d="M175.7294,131.7969 L175.7294,134.2969 L180.0575,134.2969 L180.0575,133.375 Q180.0575,132.7656 180.2919,132.5 Q180.5419,132.2344 180.9169,132.2344 Q181.2919,132.2344 181.5263,132.5 Q181.7606,132.7656 181.7606,133.375 L181.7606,136 L173.7606,136 Q173.1356,136 172.87,135.7656 Q172.62,135.5313 172.62,135.1406 Q172.62,134.7656 172.8856,134.5313 Q173.1513,134.2969 173.7606,134.2969 L174.0263,134.2969 L174.0263,127.6406 L173.7606,127.6406 Q173.1356,127.6406 172.87,127.4063 Q172.62,127.1719 172.62,126.7813 Q172.62,126.4063 172.87,126.1719 Q173.1356,125.9375 173.7606,125.9375 L181.3856,125.9375 L181.3856,128.5313 Q181.3856,129.1406 181.1513,129.4063 Q180.9325,129.6563 180.5419,129.6563 Q180.1669,129.6563 179.9325,129.4063 Q179.6981,129.1406 179.6981,128.5313 L179.6981,127.6406 L175.7294,127.6406 L175.7294,130.0938 L177.2138,130.0938 Q177.2138,129.4375 177.3388,129.25 Q177.6044,128.8438 178.0731,128.8438 Q178.4481,128.8438 178.6825,129.1094 Q178.9169,129.3594 178.9169,129.9688 L178.9169,131.9375 Q178.9169,132.4844 178.7919,132.6719 Q178.5263,133.0625 178.0731,133.0625 Q177.6044,133.0625 177.3388,132.6563 Q177.2138,132.4688 177.2138,131.7969 L175.7294,131.7969 Z " fill="#000000"/><text fill="#000000" font-family="sans-serif" font-size="14" lengthAdjust="spacing" textLength="69" x="190.87" y="136.7285">Beekeeper</text><line style="stroke:#181818;stroke-width:0.5;" x1="162.87" x2="261.87" y1="147" y2="147"/><line style="stroke:#181818;stroke-width:0.5;" x1="162.87" x2="261.87" y1="155" y2="155"/></g><!--MD5=[f9e16ad72414aae0ac0b9b4426bb7fb8]
class ApiaryZone--><g id="elem_ApiaryZone"><rect codeLine="9" fill="#F1F1F1" height="48" id="ApiaryZone" rx="2.5" ry="2.5" style="stroke:#181818;stroke-width:0.5;" width="104" x="73.37" y="331"/><ellipse cx="88.37" cy="347" fill="#ADD1B2" rx="11" ry="11" style="stroke:#181818;stroke-width:1.0;"/><path d="M87.2294,347.7969 L87.2294,350.2969 L91.5575,350.2969 L91.5575,349.375 Q91.5575,348.7656 91.7919,348.5 Q92.0419,348.2344 92.4169,348.2344 Q92.7919,348.2344 93.0263,348.5 Q93.2606,348.7656 93.2606,349.375 L93.2606,352 L85.2606,352 Q84.6356,352 84.37,351.7656 Q84.12,351.5313 84.12,351.1406 Q84.12,350.7656 84.3856,350.5313 Q84.6513,350.2969 85.2606,350.2969 L85.5263,350.2969 L85.5263,343.6406 L85.2606,343.6406 Q84.6356,343.6406 84.37,343.4063 Q84.12,343.1719 84.12,342.7813 Q84.12,342.4063 84.37,342.1719 Q84.6356,341.9375 85.2606,341.9375 L92.8856,341.9375 L92.8856,344.5313 Q92.8856,345.1406 92.6513,345.4063 Q92.4325,345.6563 92.0419,345.6563 Q91.6669,345.6563 91.4325,345.4063 Q91.1981,345.1406 91.1981,344.5313 L91.1981,343.6406 L87.2294,343.6406 L87.2294,346.0938 L88.7138,346.0938 Q88.7138,345.4375 88.8388,345.25 Q89.1044,344.8438 89.5731,344.8438 Q89.9481,344.8438 90.1825,345.1094 Q90.4169,345.3594 90.4169,345.9688 L90.4169,347.9375 Q90.4169,348.4844 90.2919,348.6719 Q90.0263,349.0625 89.5731,349.0625 Q89.1044,349.0625 88.8388,348.6563 Q88.7138,348.4688 88.7138,347.7969 L87.2294,347.7969 Z " fill="#000000"/><text fill="#000000" font-family="sans-serif" font-size="14" lengthAdjust="spacing" textLength="72" x="102.37" y="352.7285">ApiaryZone</text><line style="stroke:#181818;stroke-width:0.5;" x1="74.37" x2="176.37" y1="363" y2="363"/><line style="stroke:#181818;stroke-width:0.5;" x1="74.37" x2="176.37" y1="371" y2="371"/></g><!--MD5=[3fd616f346a44cd59a91eb10b19e157c]
class User--><g id="elem_User"><rect codeLine="10" fill="#F1F1F1" height="48" id="User" rx="2.5" ry="2.5" style="stroke:#181818;stroke-width:0.5;" width="61" x="181.87" y="7"/><ellipse cx="196.87" cy="23" fill="#ADD1B2" rx="11" ry="11" style="stroke:#181818;stroke-width:1.0;"/><path d="M195.7294,23.7969 L195.7294,26.2969 L200.0575,26.2969 L200.0575,25.375 Q200.0575,24.7656 200.2919,24.5 Q200.5419,24.2344 200.9169,24.2344 Q201.2919,24.2344 201.5263,24.5 Q201.7606,24.7656 201.7606,25.375 L201.7606,28 L193.7606,28 Q193.1356,28 192.87,27.7656 Q192.62,27.5313 192.62,27.1406 Q192.62,26.7656 192.8856,26.5313 Q193.1513,26.2969 193.7606,26.2969 L194.0263,26.2969 L194.0263,19.6406 L193.7606,19.6406 Q193.1356,19.6406 192.87,19.4063 Q192.62,19.1719 192.62,18.7813 Q192.62,18.4063 192.87,18.1719 Q193.1356,17.9375 193.7606,17.9375 L201.3856,17.9375 L201.3856,20.5313 Q201.3856,21.1406 201.1513,21.4063 Q200.9325,21.6563 200.5419,21.6563 Q200.1669,21.6563 199.9325,21.4063 Q199.6981,21.1406 199.6981,20.5313 L199.6981,19.6406 L195.7294,19.6406 L195.7294,22.0938 L197.2138,22.0938 Q197.2138,21.4375 197.3388,21.25 Q197.6044,20.8438 198.0731,20.8438 Q198.4481,20.8438 198.6825,21.1094 Q198.9169,21.3594 198.9169,21.9688 L198.9169,23.9375 Q198.9169,24.4844 198.7919,24.6719 Q198.5263,25.0625 198.0731,25.0625 Q197.6044,25.0625 197.3388,24.6563 Q197.2138,24.4688 197.2138,23.7969 L195.7294,23.7969 Z " fill="#000000"/><text fill="#000000" font-family="sans-serif" font-size="14" lengthAdjust="spacing" textLength="29" x="210.87" y="28.7285">User</text><line style="stroke:#181818;stroke-width:0.5;" x1="182.87" x2="241.87" y1="39" y2="39"/><line style="stroke:#181818;stroke-width:0.5;" x1="182.87" x2="241.87" y1="47" y2="47"/></g><!--MD5=[41a810bb8b0fdc0d19f320c9a7e75908]
class Disease--><g id="elem_Disease"><rect codeLine="11" fill="#F1F1F1" height="48" id="Disease" rx="2.5" ry="2.5" style="stroke:#181818;stroke-width:0.5;" width="83" x="283.87" y="331"/><ellipse cx="298.87" cy="347" fill="#ADD1B2" rx="11" ry="11" style="stroke:#181818;stroke-width:1.0;"/><path d="M297.7294,347.7969 L297.7294,350.2969 L302.0575,350.2969 L302.0575,349.375 Q302.0575,348.7656 302.2919,348.5 Q302.5419,348.2344 302.9169,348.2344 Q303.2919,348.2344 303.5263,348.5 Q303.7606,348.7656 303.7606,349.375 L303.7606,352 L295.7606,352 Q295.1356,352 294.87,351.7656 Q294.62,351.5313 294.62,351.1406 Q294.62,350.7656 294.8856,350.5313 Q295.1513,350.2969 295.7606,350.2969 L296.0263,350.2969 L296.0263,343.6406 L295.7606,343.6406 Q295.1356,343.6406 294.87,343.4063 Q294.62,343.1719 294.62,342.7813 Q294.62,342.4063 294.87,342.1719 Q295.1356,341.9375 295.7606,341.9375 L303.3856,341.9375 L303.3856,344.5313 Q303.3856,345.1406 303.1513,345.4063 Q302.9325,345.6563 302.5419,345.6563 Q302.1669,345.6563 301.9325,345.4063 Q301.6981,345.1406 301.6981,344.5313 L301.6981,343.6406 L297.7294,343.6406 L297.7294,346.0938 L299.2138,346.0938 Q299.2138,345.4375 299.3388,345.25 Q299.6044,344.8438 300.0731,344.8438 Q300.4481,344.8438 300.6825,345.1094 Q300.9169,345.3594 300.9169,345.9688 L300.9169,347.9375 Q300.9169,348.4844 300.7919,348.6719 Q300.5263,349.0625 300.0731,349.0625 Q299.6044,349.0625 299.3388,348.6563 Q299.2138,348.4688 299.2138,347.7969 L297.7294,347.7969 Z " fill="#000000"/><text fill="#000000" font-family="sans-serif" font-size="14" lengthAdjust="spacing" textLength="51" x="312.87" y="352.7285">Disease</text><line style="stroke:#181818;stroke-width:0.5;" x1="284.87" x2="365.87" y1="363" y2="363"/><line style="stroke:#181818;stroke-width:0.5;" x1="284.87" x2="365.87" y1="371" y2="371"/></g><!--MD5=[42f02ca6c4bcb9ea5295e96d0fc2ba59]
class AnnualInventoryDeclaration--><g id="elem_AnnualInventoryDeclaration"><rect codeLine="12" fill="#F1F1F1" height="48" id="AnnualInventoryDeclaration" rx="2.5" ry="2.5" style="stroke:#181818;stroke-width:0.5;" width="214" x="278.37" y="7"/><ellipse cx="293.37" cy="23" fill="#ADD1B2" rx="11" ry="11" style="stroke:#181818;stroke-width:1.0;"/><path d="M292.2294,23.7969 L292.2294,26.2969 L296.5575,26.2969 L296.5575,25.375 Q296.5575,24.7656 296.7919,24.5 Q297.0419,24.2344 297.4169,24.2344 Q297.7919,24.2344 298.0263,24.5 Q298.2606,24.7656 298.2606,25.375 L298.2606,28 L290.2606,28 Q289.6356,28 289.37,27.7656 Q289.12,27.5313 289.12,27.1406 Q289.12,26.7656 289.3856,26.5313 Q289.6513,26.2969 290.2606,26.2969 L290.5263,26.2969 L290.5263,19.6406 L290.2606,19.6406 Q289.6356,19.6406 289.37,19.4063 Q289.12,19.1719 289.12,18.7813 Q289.12,18.4063 289.37,18.1719 Q289.6356,17.9375 290.2606,17.9375 L297.8856,17.9375 L297.8856,20.5313 Q297.8856,21.1406 297.6513,21.4063 Q297.4325,21.6563 297.0419,21.6563 Q296.6669,21.6563 296.4325,21.4063 Q296.1981,21.1406 296.1981,20.5313 L296.1981,19.6406 L292.2294,19.6406 L292.2294,22.0938 L293.7138,22.0938 Q293.7138,21.4375 293.8388,21.25 Q294.1044,20.8438 294.5731,20.8438 Q294.9481,20.8438 295.1825,21.1094 Q295.4169,21.3594 295.4169,21.9688 L295.4169,23.9375 Q295.4169,24.4844 295.2919,24.6719 Q295.0263,25.0625 294.5731,25.0625 Q294.1044,25.0625 293.8388,24.6563 Q293.7138,24.4688 293.7138,23.7969 L292.2294,23.7969 Z " fill="#000000"/><text fill="#000000" font-family="sans-serif" font-size="14" lengthAdjust="spacing" textLength="182" x="307.37" y="28.7285">Annual Inventory Declaration</text><line style="stroke:#181818;stroke-width:0.5;" x1="279.37" x2="491.37" y1="39" y2="39"/><line style="stroke:#181818;stroke-width:0.5;" x1="279.37" x2="491.37" y1="47" y2="47"/></g><!--MD5=[d426b684d0bfb5e315327e16bff4ce54]
class ApiaryInformation--><g id="elem_ApiaryInformation"><rect codeLine="13" fill="#F1F1F1" height="48" id="ApiaryInformation" rx="2.5" ry="2.5" style="stroke:#181818;stroke-width:0.5;" width="146" x="312.37" y="115"/><ellipse cx="327.37" cy="131" fill="#ADD1B2" rx="11" ry="11" style="stroke:#181818;stroke-width:1.0;"/><path d="M326.2294,131.7969 L326.2294,134.2969 L330.5575,134.2969 L330.5575,133.375 Q330.5575,132.7656 330.7919,132.5 Q331.0419,132.2344 331.4169,132.2344 Q331.7919,132.2344 332.0263,132.5 Q332.2606,132.7656 332.2606,133.375 L332.2606,136 L324.2606,136 Q323.6356,136 323.37,135.7656 Q323.12,135.5313 323.12,135.1406 Q323.12,134.7656 323.3856,134.5313 Q323.6513,134.2969 324.2606,134.2969 L324.5263,134.2969 L324.5263,127.6406 L324.2606,127.6406 Q323.6356,127.6406 323.37,127.4063 Q323.12,127.1719 323.12,126.7813 Q323.12,126.4063 323.37,126.1719 Q323.6356,125.9375 324.2606,125.9375 L331.8856,125.9375 L331.8856,128.5313 Q331.8856,129.1406 331.6513,129.4063 Q331.4325,129.6563 331.0419,129.6563 Q330.6669,129.6563 330.4325,129.4063 Q330.1981,129.1406 330.1981,128.5313 L330.1981,127.6406 L326.2294,127.6406 L326.2294,130.0938 L327.7138,130.0938 Q327.7138,129.4375 327.8388,129.25 Q328.1044,128.8438 328.5731,128.8438 Q328.9481,128.8438 329.1825,129.1094 Q329.4169,129.3594 329.4169,129.9688 L329.4169,131.9375 Q329.4169,132.4844 329.2919,132.6719 Q329.0263,133.0625 328.5731,133.0625 Q328.1044,133.0625 327.8388,132.6563 Q327.7138,132.4688 327.7138,131.7969 L326.2294,131.7969 Z " fill="#000000"/><text fill="#000000" font-family="sans-serif" font-size="14" lengthAdjust="spacing" textLength="114" x="341.37" y="136.7285">Apiary Information</text><line style="stroke:#181818;stroke-width:0.5;" x1="313.37" x2="457.37" y1="147" y2="147"/><line style="stroke:#181818;stroke-width:0.5;" x1="313.37" x2="457.37" y1="155" y2="155"/></g><!--MD5=[678ba86161b65c93147b2a3a8cf02be2]
class Frame--><g id="elem_Frame"><rect codeLine="14" fill="#F1F1F1" height="48" id="Frame" rx="2.5" ry="2.5" style="stroke:#181818;stroke-width:0.5;" width="73" x="549.87" y="439"/><ellipse cx="564.87" cy="455" fill="#ADD1B2" rx="11" ry="11" style="stroke:#181818;stroke-width:1.0;"/><path d="M563.7294,455.7969 L563.7294,458.2969 L568.0575,458.2969 L568.0575,457.375 Q568.0575,456.7656 568.2919,456.5 Q568.5419,456.2344 568.9169,456.2344 Q569.2919,456.2344 569.5263,456.5 Q569.7606,456.7656 569.7606,457.375 L569.7606,460 L561.7606,460 Q561.1356,460 560.87,459.7656 Q560.62,459.5313 560.62,459.1406 Q560.62,458.7656 560.8856,458.5313 Q561.1513,458.2969 561.7606,458.2969 L562.0263,458.2969 L562.0263,451.6406 L561.7606,451.6406 Q561.1356,451.6406 560.87,451.4063 Q560.62,451.1719 560.62,450.7813 Q560.62,450.4063 560.87,450.1719 Q561.1356,449.9375 561.7606,449.9375 L569.3856,449.9375 L569.3856,452.5313 Q569.3856,453.1406 569.1513,453.4063 Q568.9325,453.6563 568.5419,453.6563 Q568.1669,453.6563 567.9325,453.4063 Q567.6981,453.1406 567.6981,452.5313 L567.6981,451.6406 L563.7294,451.6406 L563.7294,454.0938 L565.2138,454.0938 Q565.2138,453.4375 565.3388,453.25 Q565.6044,452.8438 566.0731,452.8438 Q566.4481,452.8438 566.6825,453.1094 Q566.9169,453.3594 566.9169,453.9688 L566.9169,455.9375 Q566.9169,456.4844 566.7919,456.6719 Q566.5263,457.0625 566.0731,457.0625 Q565.6044,457.0625 565.3388,456.6563 Q565.2138,456.4688 565.2138,455.7969 L563.7294,455.7969 Z " fill="#000000"/><text fill="#000000" font-family="sans-serif" font-size="14" lengthAdjust="spacing" textLength="41" x="578.87" y="460.7285">Frame</text><line style="stroke:#181818;stroke-width:0.5;" x1="550.87" x2="621.87" y1="471" y2="471"/><line style="stroke:#181818;stroke-width:0.5;" x1="550.87" x2="621.87" y1="479" y2="479"/></g><!--MD5=[1232b735dc8f70a2055a8d90eda50944]
reverse link ApiaryZone to Apiary--><g id="link_ApiaryZone_Apiary"><path codeLine="16" d="M151.93,382.82 C168.99,400.04 190.93,422.19 207.27,438.68 " fill="none" id="ApiaryZone-backto-Apiary" style="stroke:#181818;stroke-width:1.0;"/><polygon fill="#181818" points="148.15,379,151.6483,388.2066,151.6712,382.5498,157.328,382.5727,148.15,379" style="stroke:#181818;stroke-width:1.0;"/><text fill="#000000" font-family="sans-serif" font-size="13" lengthAdjust="spacing" textLength="7" x="145.8495" y="400.338">1</text><text fill="#000000" font-family="sans-serif" font-size="13" lengthAdjust="spacing" textLength="7" x="193.7863" y="428.34">1</text></g><!--MD5=[9d83cf5e32fa1a848fbf62b124e9a385]
reverse link User to Beekeeper--><g id="link_User_Beekeeper"><path codeLine="17" d="M212.37,60.13 C212.37,77.15 212.37,98.6 212.37,114.68 " fill="none" id="User-backto-Beekeeper" style="stroke:#181818;stroke-width:1.0;"/><polygon fill="#181818" points="212.37,55,208.37,64,212.37,60,216.37,64,212.37,55" style="stroke:#181818;stroke-width:1.0;"/><text fill="#000000" font-family="sans-serif" font-size="13" lengthAdjust="spacing" textLength="7" x="204.5169" y="76.338">1</text><text fill="#000000" font-family="sans-serif" font-size="13" lengthAdjust="spacing" textLength="7" x="204.5169" y="104.34">1</text></g><!--MD5=[2e7ad95c13b1e0f1b59f99bf35860163]
reverse link Beekeeper to Apiary--><g id="link_Beekeeper_Apiary"><path codeLine="18" d="M172.53,166.31 C111.29,210.12 6,300.95 55.37,379 C85.83,427.17 152.67,447.94 194.37,456.47 " fill="none" id="Beekeeper-backto-Apiary" style="stroke:#181818;stroke-width:1.0;"/><polygon fill="#181818" points="176.87,163.23,167.2188,165.1934,172.7975,166.1308,171.8601,171.7094,176.87,163.23" style="stroke:#181818;stroke-width:1.0;"/><text fill="#000000" font-family="sans-serif" font-size="13" lengthAdjust="spacing" textLength="7" x="160.3638" y="184.624">1</text><text fill="#000000" font-family="sans-serif" font-size="13" lengthAdjust="spacing" textLength="5" x="181.4294" y="451.0046">*</text></g><!--MD5=[0f24f0d64a929e1e7347eff9c2c8da54]
link Beekeeper to TR--><g id="link_Beekeeper_TR"><path codeLine="19" d="M255.76,163 C287.63,179.89 330.93,202.84 363.92,220.32 " fill="none" id="Beekeeper-to-TR" style="stroke:#181818;stroke-width:1.0;"/><polygon fill="#181818" points="368.71,222.86,362.6252,215.1157,364.2904,220.5219,358.8842,222.1871,368.71,222.86" style="stroke:#181818;stroke-width:1.0;"/><text fill="#000000" font-family="sans-serif" font-size="13" lengthAdjust="spacing" textLength="7" x="258.4832" y="184.338">1</text><text fill="#000000" font-family="sans-serif" font-size="13" lengthAdjust="spacing" textLength="5" x="351.8815" y="212.1643">*</text></g><!--MD5=[6b6caa5a7d83ae3d5a4338a3d85f7de5]
link Hive to Apiary--><g id="link_Hive_Apiary"><path codeLine="20" d="M473.82,368.03 C465,371.59 455.3,375.48 446.37,379 C385.72,402.89 315.19,429.83 271.66,446.37 " fill="none" id="Hive-to-Apiary" style="stroke:#181818;stroke-width:1.0;"/><polygon fill="#181818" points="266.75,448.23,276.5835,448.779,271.4252,446.4572,273.747,441.2988,266.75,448.23" style="stroke:#181818;stroke-width:1.0;"/><text fill="#000000" font-family="sans-serif" font-size="13" lengthAdjust="spacing" textLength="5" x="461.0078" y="366.794">*</text><text fill="#000000" font-family="sans-serif" font-size="13" lengthAdjust="spacing" textLength="7" x="274.3521" y="441.4181">1</text></g><!--MD5=[7322854f8658f94bba81f4a22cfba0c1]
link Hive to Frame--><g id="link_Hive_Frame"><path codeLine="21" d="M521.38,379 C534.12,395.28 551.28,417.19 564.76,434.41 " fill="none" id="Hive-to-Frame" style="stroke:#181818;stroke-width:1.0;"/><polygon fill="#181818" points="568.11,438.68,565.6964,429.1315,565.0215,434.7479,559.4051,434.073,568.11,438.68" style="stroke:#181818;stroke-width:1.0;"/><text fill="#000000" font-family="sans-serif" font-size="13" lengthAdjust="spacing" textLength="7" x="517.9168" y="400.338">1</text><text fill="#000000" font-family="sans-serif" font-size="13" lengthAdjust="spacing" textLength="5" x="558.0498" y="428.34">*</text></g><!--MD5=[63f05b470f254a56ddc9fa2735dbdad5]
link Unfolding to Hive--><g id="link_Unfolding_Hive"><path codeLine="22" d="M646.66,271 C614.1,289.86 568.49,316.28 537.53,334.21 " fill="none" id="Unfolding-to-Hive" style="stroke:#181818;stroke-width:1.0;"/><polygon fill="#181818" points="533.08,336.79,542.8741,335.7526,537.4097,334.2893,538.873,328.825,533.08,336.79" style="stroke:#181818;stroke-width:1.0;"/><text fill="#000000" font-family="sans-serif" font-size="13" lengthAdjust="spacing" textLength="5" x="631.3713" y="292.338">*</text><text fill="#000000" font-family="sans-serif" font-size="13" lengthAdjust="spacing" textLength="7" x="540.7598" y="328.2647">1</text></g><!--MD5=[dc3e63337c97336920555ea83d9850b5]
link Unfolding to Frame--><g id="link_Unfolding_Frame"><path codeLine="23" d="M675.48,271.31 C656.95,310.95 619.4,391.32 599.47,433.96 " fill="none" id="Unfolding-to-Frame" style="stroke:#181818;stroke-width:1.0;"/><polygon fill="#181818" points="597.25,438.72,604.6818,432.2572,599.3652,434.1894,597.4329,428.8728,597.25,438.72" style="stroke:#181818;stroke-width:1.0;"/><text fill="#000000" font-family="sans-serif" font-size="13" lengthAdjust="spacing" textLength="7" x="665.1523" y="292.3175">1</text><text fill="#000000" font-family="sans-serif" font-size="13" lengthAdjust="spacing" textLength="20" x="602.6005" y="427.9884">1..*</text></g><!--MD5=[374dea5319e2dab3d130fdbbbacbe20e]
link Crest to Hive--><g id="link_Crest_Hive"><path codeLine="24" d="M557.4,271 C546.8,287.28 532.54,309.19 521.33,326.41 " fill="none" id="Crest-to-Hive" style="stroke:#181818;stroke-width:1.0;"/><polygon fill="#181818" points="518.55,330.68,526.8157,325.3249,521.2805,326.4914,520.1139,320.9561,518.55,330.68" style="stroke:#181818;stroke-width:1.0;"/><text fill="#000000" font-family="sans-serif" font-size="13" lengthAdjust="spacing" textLength="5" x="548.1417" y="292.338">*</text><text fill="#000000" font-family="sans-serif" font-size="13" lengthAdjust="spacing" textLength="7" x="514.397" y="320.34">1</text></g><!--MD5=[a9ed4f934e33b8b15d2f7ac6bd070d13]
link Crest to Frame--><g id="link_Crest_Frame"><path codeLine="25" d="M573.89,271.31 C576.48,310.87 581.72,390.99 584.52,433.7 " fill="none" id="Crest-to-Frame" style="stroke:#181818;stroke-width:1.0;"/><polygon fill="#181818" points="584.84,438.72,588.2659,429.4862,584.5254,433.7299,580.2817,429.9895,584.84,438.72" style="stroke:#181818;stroke-width:1.0;"/><text fill="#000000" font-family="sans-serif" font-size="13" lengthAdjust="spacing" textLength="7" x="566.4321" y="292.3175">1</text><text fill="#000000" font-family="sans-serif" font-size="13" lengthAdjust="spacing" textLength="20" x="587.0104" y="427.9884">1..*</text></g><!--MD5=[ed0b73489f369e6042e0b8e65a0e9225]
link Inspection to Disease--><g id="link_Inspection_Disease"><path codeLine="26" d="M256.46,271 C269.98,287.28 288.16,309.19 302.46,326.41 " fill="none" id="Inspection-to-Disease" style="stroke:#181818;stroke-width:1.0;"/><polygon fill="#181818" points="306.01,330.68,303.3247,321.2043,302.8105,326.8377,297.177,326.3235,306.01,330.68" style="stroke:#181818;stroke-width:1.0;"/><text fill="#000000" font-family="sans-serif" font-size="13" lengthAdjust="spacing" textLength="5" x="255.5038" y="292.338">*</text><text fill="#000000" font-family="sans-serif" font-size="13" lengthAdjust="spacing" textLength="5" x="295.6816" y="320.34">*</text></g><!--MD5=[4178565581f10a5646abe1bec2cf244d]
link Inspection to Hive--><g id="link_Inspection_Hive"><path codeLine="27" d="M285.54,267.2 C338.51,288.31 422.31,321.7 469.02,340.31 " fill="none" id="Inspection-to-Hive" style="stroke:#181818;stroke-width:1.0;"/><polygon fill="#181818" points="473.7,342.18,466.8106,335.1418,469.0527,340.3354,463.8592,342.5775,473.7,342.18" style="stroke:#181818;stroke-width:1.0;"/><text fill="#000000" font-family="sans-serif" font-size="13" lengthAdjust="spacing" textLength="5" x="293.2988" y="266.5902">*</text><text fill="#000000" font-family="sans-serif" font-size="13" lengthAdjust="spacing" textLength="7" x="459.0294" y="334.9011">1</text></g><!--MD5=[11770b23ac2aa8f7d70d1ce4121a025f]
link Inspection to Apiary--><g id="link_Inspection_Apiary"><path codeLine="28" d="M236.61,271.31 C235.31,310.87 232.69,390.99 231.29,433.7 " fill="none" id="Inspection-to-Apiary" style="stroke:#181818;stroke-width:1.0;"/><polygon fill="#181818" points="231.13,438.72,235.4107,429.8501,231.2871,433.7225,227.4147,429.5988,231.13,438.72" style="stroke:#181818;stroke-width:1.0;"/><text fill="#000000" font-family="sans-serif" font-size="13" lengthAdjust="spacing" textLength="5" x="230.8561" y="292.3175">*</text><text fill="#000000" font-family="sans-serif" font-size="13" lengthAdjust="spacing" textLength="22" x="206.506" y="427.9884">0..1</text></g><!--MD5=[fdd7de1d6a6f300fb1308299c1606e70]
link TR to Apiary--><g id="link_TR_Apiary"><path codeLine="29" d="M413.05,271.21 C412.71,299.42 408.23,347.19 384.37,379 C356.49,416.17 306.94,438.55 271.57,450.55 " fill="none" id="TR-to-Apiary" style="stroke:#181818;stroke-width:1.0;"/><polygon fill="#181818" points="266.46,452.25,276.2613,453.2164,271.2063,450.6774,273.7452,445.6224,266.46,452.25" style="stroke:#181818;stroke-width:1.0;"/><text fill="#000000" font-family="sans-serif" font-size="13" lengthAdjust="spacing" textLength="5" x="407.6064" y="292.5992">*</text><text fill="#000000" font-family="sans-serif" font-size="13" lengthAdjust="spacing" textLength="7" x="274.2543" y="465.2383">1</text></g><!--MD5=[58862202ac3afe83f3fc909c1daa5a06]
link TR to Hive--><g id="link_TR_Hive"><path codeLine="30" d="M432.11,271 C446.21,287.42 465.22,309.56 480.05,326.84 " fill="none" id="TR-to-Hive" style="stroke:#181818;stroke-width:1.0;"/><polygon fill="#181818" points="483.35,330.68,480.5299,321.2435,480.096,326.8837,474.4559,326.4499,483.35,330.68" style="stroke:#181818;stroke-width:1.0;"/><text fill="#000000" font-family="sans-serif" font-size="13" lengthAdjust="spacing" textLength="5" x="431.3123" y="292.338">*</text><text fill="#000000" font-family="sans-serif" font-size="13" lengthAdjust="spacing" textLength="5" x="472.8608" y="320.34">*</text></g><!--MD5=[331247186c899fef00ba52844b2cb2b8]
reverse link AnnualInventoryDeclaration to ApiaryInformation--><g id="link_AnnualInventoryDeclaration_ApiaryInformation"><path codeLine="33" d="M385.37,60.13 C385.37,77.15 385.37,98.6 385.37,114.68 " fill="none" id="AnnualInventoryDeclaration-backto-ApiaryInformation" style="stroke:#181818;stroke-width:1.0;"/><polygon fill="#181818" points="385.37,55,381.37,64,385.37,60,389.37,64,385.37,55" style="stroke:#181818;stroke-width:1.0;"/><text fill="#000000" font-family="sans-serif" font-size="13" lengthAdjust="spacing" textLength="7" x="377.5169" y="76.338">1</text><text fill="#000000" font-family="sans-serif" font-size="13" lengthAdjust="spacing" textLength="5" x="379.7606" y="104.34">*</text></g><!--MD5=[6c867995ec1adab717f8045b1f4a62c1]
@startuml md

entity Crest as "Crest"
entity Unfolding as "Unfolding"
entity TR as "Transhumance Request"
entity Inspection as "Inspection"
entity Hive as "Hive"
entity Apiary as "Apiary"
entity Beekeeper as "Beekeeper"
entity ApiaryZone as "ApiaryZone"
entity User as "User"
entity Disease as "Disease"
entity AnnualInventoryDeclaration as "Annual Inventory Declaration"
entity ApiaryInformation as "Apiary Information"
entity Frame as "Frame"

ApiaryZone "1" <- - "1" Apiary
User "1" <- - "1" Beekeeper
Beekeeper "1" <- - "*" Apiary
Beekeeper "1" - -> "*" TR
Hive "*" - ->  "1" Apiary
Hive "1" - -> "*" Frame
Unfolding "*" - -> "1" Hive
Unfolding "1" - -> "1..*" Frame
Crest "*" - -> "1" Hive
Crest "1" - -> "1..*" Frame
Inspection "*" - -> "*" Disease
Inspection "*" - -> "1" Hive
Inspection "*" - -> "0..1" Apiary
TR "*" - -> "1" Apiary
TR "*" - -> "*" Hive


AnnualInventoryDeclaration "1" <- - "*" ApiaryInformation




@enduml

PlantUML version 1.2022.7(Mon Aug 22 18:01:30 WEST 2022)
(GPL source distribution)
Java Runtime: OpenJDK Runtime Environment
JVM: OpenJDK 64-Bit Server VM
Default Encoding: Cp1252
Language: pt
Country: PT
--></g></svg>