<svg version="1.1" xmlns="http://www.w3.org/2000/svg" viewBox="0 0 1627.3188535690308 995" width="1627.3188535690308" height="995">
  <!-- svg-source:excalidraw -->
  
  <defs>
    <style class="style-fonts">
      @font-face {
        font-family: "Virgil";
        src: url("https://excalidraw.com/Virgil.woff2");
      }
      @font-face {
        font-family: "Cascadia";
        src: url("https://excalidraw.com/Cascadia.woff2");
      }
      @font-face {
        font-family: "Assistant";
        src: url("https://excalidraw.com/Assistant-Regular.woff2");
      }
    </style>
    
  </defs>
  <rect x="0" y="0" width="1627.3188535690308" height="995" fill="#ffffff"></rect><g stroke-linecap="round"><g transform="translate(92.8363639831544 10) rotate(0 0 487.5)"><path d="M0 0 C0 162.5, 0 812.5, 0 975 M0 0 C0 162.5, 0 812.5, 0 975" stroke="#1e1e1e" stroke-width="1" fill="none"></path></g><g transform="translate(92.8363639831544 10) rotate(0 0 487.5)"><path d="M-8.55 951.51 C-5.29 960.46, -2.04 969.41, 0 975 M-8.55 951.51 C-6.59 956.9, -4.62 962.3, 0 975" stroke="#1e1e1e" stroke-width="1" fill="none"></path></g><g transform="translate(92.8363639831544 10) rotate(0 0 487.5)"><path d="M8.55 951.51 C5.29 960.46, 2.04 969.41, 0 975 M8.55 951.51 C6.59 956.9, 4.62 962.3, 0 975" stroke="#1e1e1e" stroke-width="1" fill="none"></path></g></g><mask></mask><g transform="translate(-89.85245971679669 439.3111763000501) rotate(270 133.55245971679688 33.7000000000001)"><text x="0" y="0" font-family="Helvetica, Segoe UI Emoji" font-size="58.60869565217415px" fill="#1e1e1e" text-anchor="start" style="white-space: pre;" direction="ltr" dominant-baseline="text-before-edge">Prioridade</text></g><g transform="translate(36.8363639831544 47) rotate(0 20.729408264160156 13.83582270320521)"><text x="0" y="0" font-family="Helvetica, Segoe UI Emoji" font-size="24.062300353400357px" fill="#1e1e1e" text-anchor="start" style="white-space: pre;" direction="ltr" dominant-baseline="text-before-edge">Alta</text></g><g transform="translate(12.8363639831544 925.1657559334633) rotate(0 28.52918243408203 13.117122033268402)"><text x="0" y="0" font-family="Helvetica, Segoe UI Emoji" font-size="22.812386144814568px" fill="#1e1e1e" text-anchor="start" style="white-space: pre;" direction="ltr" dominant-baseline="text-before-edge">Baixa</text></g><g stroke-linecap="round"><g transform="translate(104.8363639831544 185) rotate(0 755.1697378158569 0)"><path d="M0 0 C251.72 0, 1258.62 0, 1510.34 0 M0 0 C251.72 0, 1258.62 0, 1510.34 0" stroke="#1e1e1e" stroke-width="1" fill="none"></path></g><g transform="translate(104.8363639831544 185) rotate(0 755.1697378158569 0)"><path d="M1486.85 8.55 C1494.06 5.93, 1501.27 3.3, 1510.34 0 M1486.85 8.55 C1496.02 5.21, 1505.2 1.87, 1510.34 0" stroke="#1e1e1e" stroke-width="1" fill="none"></path></g><g transform="translate(104.8363639831544 185) rotate(0 755.1697378158569 0)"><path d="M1486.85 -8.55 C1494.06 -5.93, 1501.27 -3.3, 1510.34 0 M1486.85 -8.55 C1496.02 -5.21, 1505.2 -1.87, 1510.34 0" stroke="#1e1e1e" stroke-width="1" fill="none"></path></g></g><mask></mask><g stroke-linecap="round" transform="translate(477.50305099487315 111.66665649414062) rotate(0 84.5 26)"><path d="M13 0 C44.46 0, 75.92 0, 156 0 C164.67 0, 169 4.33, 169 13 C169 19.5, 169 26, 169 39 C169 47.67, 164.67 52, 156 52 C99.13 52, 42.26 52, 13 52 C4.33 52, 0 47.67, 0 39 C0 32.48, 0 25.96, 0 13 C0 4.33, 4.33 0, 13 0" stroke="none" stroke-width="0" fill="#ffec99"></path><path d="M13 0 C43.26 0, 73.52 0, 156 0 M13 0 C65.5 0, 118 0, 156 0 M156 0 C164.67 0, 169 4.33, 169 13 M156 0 C164.67 0, 169 4.33, 169 13 M169 13 C169 23.11, 169 33.22, 169 39 M169 13 C169 21.4, 169 29.8, 169 39 M169 39 C169 47.67, 164.67 52, 156 52 M169 39 C169 47.67, 164.67 52, 156 52 M156 52 C123.76 52, 91.51 52, 13 52 M156 52 C121.58 52, 87.16 52, 13 52 M13 52 C4.33 52, 0 47.67, 0 39 M13 52 C4.33 52, 0 47.67, 0 39 M0 39 C0 31.19, 0 23.37, 0 13 M0 39 C0 33.2, 0 27.4, 0 13 M0 13 C0 4.33, 4.33 0, 13 0 M0 13 C0 4.33, 4.33 0, 13 0" stroke="#1e1e1e" stroke-width="1" fill="none"></path></g><g transform="translate(483.29211349487315 119.26665649414062) rotate(0 78.7109375 18.39999999999999)"><text x="78.7109375" y="0" font-family="Helvetica, Segoe UI Emoji" font-size="16px" fill="#1e1e1e" text-anchor="middle" style="white-space: pre;" direction="ltr" dominant-baseline="text-before-edge">Identificar os quadros </text><text x="78.7109375" y="18.4" font-family="Helvetica, Segoe UI Emoji" font-size="16px" fill="#1e1e1e" text-anchor="middle" style="white-space: pre;" direction="ltr" dominant-baseline="text-before-edge">removidos</text></g><g stroke-linecap="round" transform="translate(657.6696769714356 113.66665649414062) rotate(0 84.5 23.5)"><path d="M11.75 0 C53.44 0, 95.13 0, 157.25 0 C165.08 0, 169 3.92, 169 11.75 C169 17.83, 169 23.91, 169 35.25 C169 43.08, 165.08 47, 157.25 47 C116.68 47, 76.1 47, 11.75 47 C3.92 47, 0 43.08, 0 35.25 C0 26.12, 0 16.99, 0 11.75 C0 3.92, 3.92 0, 11.75 0" stroke="none" stroke-width="0" fill="#ffec99"></path><path d="M11.75 0 C45.81 0, 79.87 0, 157.25 0 M11.75 0 C64.46 0, 117.18 0, 157.25 0 M157.25 0 C165.08 0, 169 3.92, 169 11.75 M157.25 0 C165.08 0, 169 3.92, 169 11.75 M169 11.75 C169 20.29, 169 28.83, 169 35.25 M169 11.75 C169 16.93, 169 22.12, 169 35.25 M169 35.25 C169 43.08, 165.08 47, 157.25 47 M169 35.25 C169 43.08, 165.08 47, 157.25 47 M157.25 47 C100.57 47, 43.88 47, 11.75 47 M157.25 47 C119.99 47, 82.72 47, 11.75 47 M11.75 47 C3.92 47, 0 43.08, 0 35.25 M11.75 47 C3.92 47, 0 43.08, 0 35.25 M0 35.25 C0 26.83, 0 18.4, 0 11.75 M0 35.25 C0 26.77, 0 18.29, 0 11.75 M0 11.75 C0 3.92, 3.92 0, 11.75 0 M0 11.75 C0 3.92, 3.92 0, 11.75 0" stroke="#1e1e1e" stroke-width="1" fill="none"></path></g><g transform="translate(670.5759269714356 118.76665649414062) rotate(0 71.59375 18.39999999999999)"><text x="71.59375" y="0" font-family="Helvetica, Segoe UI Emoji" font-size="16px" fill="#1e1e1e" text-anchor="middle" style="white-space: pre;" direction="ltr" dominant-baseline="text-before-edge">Colocar os quadros </text><text x="71.59375" y="18.4" font-family="Helvetica, Segoe UI Emoji" font-size="16px" fill="#1e1e1e" text-anchor="middle" style="white-space: pre;" direction="ltr" dominant-baseline="text-before-edge">na nova colmeia</text></g><g stroke-linecap="round" transform="translate(834.0029899597168 106.33334350585938) rotate(0 84.5 33)"><path d="M16.5 0 C60.16 0, 103.81 0, 152.5 0 C163.5 0, 169 5.5, 169 16.5 C169 27.36, 169 38.22, 169 49.5 C169 60.5, 163.5 66, 152.5 66 C113.93 66, 75.36 66, 16.5 66 C5.5 66, 0 60.5, 0 49.5 C0 36.33, 0 23.17, 0 16.5 C0 5.5, 5.5 0, 16.5 0" stroke="none" stroke-width="0" fill="#ffec99"></path><path d="M16.5 0 C50.14 0, 83.79 0, 152.5 0 M16.5 0 C46.76 0, 77.02 0, 152.5 0 M152.5 0 C163.5 0, 169 5.5, 169 16.5 M152.5 0 C163.5 0, 169 5.5, 169 16.5 M169 16.5 C169 26.66, 169 36.82, 169 49.5 M169 16.5 C169 27.39, 169 38.27, 169 49.5 M169 49.5 C169 60.5, 163.5 66, 152.5 66 M169 49.5 C169 60.5, 163.5 66, 152.5 66 M152.5 66 C108.05 66, 63.59 66, 16.5 66 M152.5 66 C120.32 66, 88.14 66, 16.5 66 M16.5 66 C5.5 66, 0 60.5, 0 49.5 M16.5 66 C5.5 66, 0 60.5, 0 49.5 M0 49.5 C0 37.56, 0 25.63, 0 16.5 M0 49.5 C0 36.46, 0 23.41, 0 16.5 M0 16.5 C0 5.5, 5.5 0, 16.5 0 M0 16.5 C0 5.5, 5.5 0, 16.5 0" stroke="#1e1e1e" stroke-width="1" fill="none"></path></g><g transform="translate(846.4600212097168 111.73334350585938) rotate(0 72.04296875 27.60000000000001)"><text x="72.04296875" y="0" font-family="Helvetica, Segoe UI Emoji" font-size="16px" fill="#1e1e1e" text-anchor="middle" style="white-space: pre;" direction="ltr" dominant-baseline="text-before-edge">Colocar novos </text><text x="72.04296875" y="18.4" font-family="Helvetica, Segoe UI Emoji" font-size="16px" fill="#1e1e1e" text-anchor="middle" style="white-space: pre;" direction="ltr" dominant-baseline="text-before-edge">quadros na colmeia </text><text x="72.04296875" y="36.8" font-family="Helvetica, Segoe UI Emoji" font-size="16px" fill="#1e1e1e" text-anchor="middle" style="white-space: pre;" direction="ltr" dominant-baseline="text-before-edge">antiga</text></g><g stroke-linecap="round" transform="translate(1010.3363639831543 111) rotate(0 84.5 26)"><path d="M13 0 C62.13 0, 111.26 0, 156 0 C164.67 0, 169 4.33, 169 13 C169 18.63, 169 24.26, 169 39 C169 47.67, 164.67 52, 156 52 C101.81 52, 47.62 52, 13 52 C4.33 52, 0 47.67, 0 39 C0 28.93, 0 18.87, 0 13 C0 4.33, 4.33 0, 13 0" stroke="none" stroke-width="0" fill="#ffec99"></path><path d="M13 0 C66.36 0, 119.71 0, 156 0 M13 0 C69.37 0, 125.74 0, 156 0 M156 0 C164.67 0, 169 4.33, 169 13 M156 0 C164.67 0, 169 4.33, 169 13 M169 13 C169 23.05, 169 33.1, 169 39 M169 13 C169 20.53, 169 28.06, 169 39 M169 39 C169 47.67, 164.67 52, 156 52 M169 39 C169 47.67, 164.67 52, 156 52 M156 52 C123.73 52, 91.46 52, 13 52 M156 52 C126.92 52, 97.84 52, 13 52 M13 52 C4.33 52, 0 47.67, 0 39 M13 52 C4.33 52, 0 47.67, 0 39 M0 39 C0 30.28, 0 21.56, 0 13 M0 39 C0 29.97, 0 20.94, 0 13 M0 13 C0 4.33, 4.33 0, 13 0 M0 13 C0 4.33, 4.33 0, 13 0" stroke="#1e1e1e" stroke-width="1" fill="none"></path></g><g transform="translate(1016.1254264831543 118.6) rotate(0 78.7109375 18.39999999999999)"><text x="78.7109375" y="0" font-family="Helvetica, Segoe UI Emoji" font-size="16px" fill="#1e1e1e" text-anchor="middle" style="white-space: pre;" direction="ltr" dominant-baseline="text-before-edge">Leva-se a nova </text><text x="78.7109375" y="18.4" font-family="Helvetica, Segoe UI Emoji" font-size="16px" fill="#1e1e1e" text-anchor="middle" style="white-space: pre;" direction="ltr" dominant-baseline="text-before-edge">colmeia para o apiário</text></g><g stroke-linecap="round"><g transform="translate(116.3363639831544 569) rotate(0 749.4197378158569 0)"><path d="M0 0 C249.81 0, 1249.03 0, 1498.84 0 M0 0 C249.81 0, 1249.03 0, 1498.84 0" stroke="#1e1e1e" stroke-width="1" fill="none"></path></g><g transform="translate(116.3363639831544 569) rotate(0 749.4197378158569 0)"><path d="M1475.35 8.55 C1483.96 5.42, 1492.56 2.28, 1498.84 0 M1475.35 8.55 C1481.48 6.32, 1487.61 4.09, 1498.84 0" stroke="#1e1e1e" stroke-width="1" fill="none"></path></g><g transform="translate(116.3363639831544 569) rotate(0 749.4197378158569 0)"><path d="M1475.35 -8.55 C1483.96 -5.42, 1492.56 -2.28, 1498.84 0 M1475.35 -8.55 C1481.48 -6.32, 1487.61 -4.09, 1498.84 0" stroke="#1e1e1e" stroke-width="1" fill="none"></path></g></g><mask></mask><g transform="translate(111.8363639831544 195) rotate(0 17.3359375 9.199999999999989)"><text x="0" y="0" font-family="Helvetica, Segoe UI Emoji" font-size="16px" fill="#1e1e1e" text-anchor="start" style="white-space: pre;" direction="ltr" dominant-baseline="text-before-edge">MVP</text></g><g transform="translate(116.8363639831544 586) rotate(0 18.671875 9.199999999999989)"><text x="0" y="0" font-family="Helvetica, Segoe UI Emoji" font-size="16px" fill="#1e1e1e" text-anchor="start" style="white-space: pre;" direction="ltr" dominant-baseline="text-before-edge">MVI1</text></g><g stroke-linecap="round"><g transform="translate(111.3363639831544 844) rotate(0 750.6147041320801 0)"><path d="M0 0 C250.2 0, 1251.02 0, 1501.23 0 M0 0 C250.2 0, 1251.02 0, 1501.23 0" stroke="#1e1e1e" stroke-width="1" fill="none"></path></g><g transform="translate(111.3363639831544 844) rotate(0 750.6147041320801 0)"><path d="M1477.74 8.55 C1483.85 6.32, 1489.97 4.1, 1501.23 0 M1477.74 8.55 C1484.03 6.26, 1490.33 3.97, 1501.23 0" stroke="#1e1e1e" stroke-width="1" fill="none"></path></g><g transform="translate(111.3363639831544 844) rotate(0 750.6147041320801 0)"><path d="M1477.74 -8.55 C1483.85 -6.32, 1489.97 -4.1, 1501.23 0 M1477.74 -8.55 C1484.03 -6.26, 1490.33 -3.97, 1501.23 0" stroke="#1e1e1e" stroke-width="1" fill="none"></path></g></g><mask></mask><g transform="translate(117.8363639831544 861) rotate(0 28.4609375 9.199999999999989)"><text x="0" y="0" font-family="Helvetica, Segoe UI Emoji" font-size="16px" fill="#1e1e1e" text-anchor="start" style="white-space: pre;" direction="ltr" dominant-baseline="text-before-edge">Backlog</text></g><g stroke-linecap="round" transform="translate(117.8363639831544 112) rotate(0 78.5 25)"><path d="M12.5 0 C52.18 0, 91.85 0, 144.5 0 C152.83 0, 157 4.17, 157 12.5 C157 18.71, 157 24.93, 157 37.5 C157 45.83, 152.83 50, 144.5 50 C116.05 50, 87.6 50, 12.5 50 C4.17 50, 0 45.83, 0 37.5 C0 30.77, 0 24.04, 0 12.5 C0 4.17, 4.17 0, 12.5 0" stroke="none" stroke-width="0" fill="#ffec99"></path><path d="M12.5 0 C52.54 0, 92.58 0, 144.5 0 M12.5 0 C43.4 0, 74.3 0, 144.5 0 M144.5 0 C152.83 0, 157 4.17, 157 12.5 M144.5 0 C152.83 0, 157 4.17, 157 12.5 M157 12.5 C157 18.95, 157 25.41, 157 37.5 M157 12.5 C157 22.49, 157 32.48, 157 37.5 M157 37.5 C157 45.83, 152.83 50, 144.5 50 M157 37.5 C157 45.83, 152.83 50, 144.5 50 M144.5 50 C102.59 50, 60.68 50, 12.5 50 M144.5 50 C104.66 50, 64.82 50, 12.5 50 M12.5 50 C4.17 50, 0 45.83, 0 37.5 M12.5 50 C4.17 50, 0 45.83, 0 37.5 M0 37.5 C0 28.41, 0 19.33, 0 12.5 M0 37.5 C0 30.41, 0 23.32, 0 12.5 M0 12.5 C0 4.17, 4.17 0, 12.5 0 M0 12.5 C0 4.17, 4.17 0, 12.5 0" stroke="#1e1e1e" stroke-width="1" fill="none"></path></g><g transform="translate(129.80000228881846 127.80000000000001) rotate(0 66.53636169433594 9.200000000000003)"><text x="66.53636169433594" y="0" font-family="Helvetica, Segoe UI Emoji" font-size="16px" fill="#1e1e1e" text-anchor="middle" style="white-space: pre;" direction="ltr" dominant-baseline="text-before-edge">Escolha de Apiário</text></g><g stroke-linecap="round" transform="translate(126.8363639831544 228) rotate(0 61.5 23.5)"><path d="M11.75 0 C32.81 0, 53.87 0, 111.25 0 M11.75 0 C49.45 0, 87.16 0, 111.25 0 M111.25 0 C119.08 0, 123 3.92, 123 11.75 M111.25 0 C119.08 0, 123 3.92, 123 11.75 M123 11.75 C123 18.13, 123 24.52, 123 35.25 M123 11.75 C123 17.37, 123 22.99, 123 35.25 M123 35.25 C123 43.08, 119.08 47, 111.25 47 M123 35.25 C123 43.08, 119.08 47, 111.25 47 M111.25 47 C78.82 47, 46.4 47, 11.75 47 M111.25 47 C77.16 47, 43.08 47, 11.75 47 M11.75 47 C3.92 47, 0 43.08, 0 35.25 M11.75 47 C3.92 47, 0 43.08, 0 35.25 M0 35.25 C0 30.11, 0 24.96, 0 11.75 M0 35.25 C0 27.19, 0 19.12, 0 11.75 M0 11.75 C0 3.92, 3.92 0, 11.75 0 M0 11.75 C0 3.92, 3.92 0, 11.75 0" stroke="#1e1e1e" stroke-width="1" fill="none"></path></g><g transform="translate(132.89091033935557 233.10000000000002) rotate(0 55.44545364379883 18.400000000000006)"><text x="55.44545364379883" y="0" font-family="Helvetica, Segoe UI Emoji" font-size="16px" fill="#1e1e1e" text-anchor="middle" style="white-space: pre;" direction="ltr" dominant-baseline="text-before-edge">Apresenta Lista</text><text x="55.44545364379883" y="18.4" font-family="Helvetica, Segoe UI Emoji" font-size="16px" fill="#1e1e1e" text-anchor="middle" style="white-space: pre;" direction="ltr" dominant-baseline="text-before-edge">de Apiários</text></g><g stroke-linecap="round" transform="translate(128.8363639831544 296) rotate(0 58 23.5)"><path d="M11.75 0 C36.61 0, 61.47 0, 104.25 0 M11.75 0 C42.74 0, 73.73 0, 104.25 0 M104.25 0 C112.08 0, 116 3.92, 116 11.75 M104.25 0 C112.08 0, 116 3.92, 116 11.75 M116 11.75 C116 20.1, 116 28.44, 116 35.25 M116 11.75 C116 18.34, 116 24.93, 116 35.25 M116 35.25 C116 43.08, 112.08 47, 104.25 47 M116 35.25 C116 43.08, 112.08 47, 104.25 47 M104.25 47 C79.89 47, 55.54 47, 11.75 47 M104.25 47 C79.18 47, 54.1 47, 11.75 47 M11.75 47 C3.92 47, 0 43.08, 0 35.25 M11.75 47 C3.92 47, 0 43.08, 0 35.25 M0 35.25 C0 28.44, 0 21.62, 0 11.75 M0 35.25 C0 27.62, 0 19.99, 0 11.75 M0 11.75 C0 3.92, 3.92 0, 11.75 0 M0 11.75 C0 3.92, 3.92 0, 11.75 0" stroke="#1e1e1e" stroke-width="1" fill="none"></path></g><g transform="translate(156.2272731781007 301.1) rotate(0 30.60909080505371 18.400000000000006)"><text x="30.60909080505371" y="0" font-family="Helvetica, Segoe UI Emoji" font-size="16px" fill="#1e1e1e" text-anchor="middle" style="white-space: pre;" direction="ltr" dominant-baseline="text-before-edge">Escolhe </text><text x="30.60909080505371" y="18.4" font-family="Helvetica, Segoe UI Emoji" font-size="16px" fill="#1e1e1e" text-anchor="middle" style="white-space: pre;" direction="ltr" dominant-baseline="text-before-edge">Apiário</text></g><g stroke-linecap="round" transform="translate(480.00909156799327 580.6690899151192) rotate(0 78.83334350585938 23.5)"><path d="M11.75 0 C38.82 0, 65.89 0, 145.92 0 M11.75 0 C50.77 0, 89.79 0, 145.92 0 M145.92 0 C153.75 0, 157.67 3.92, 157.67 11.75 M145.92 0 C153.75 0, 157.67 3.92, 157.67 11.75 M157.67 11.75 C157.67 19.88, 157.67 28.01, 157.67 35.25 M157.67 11.75 C157.67 18.1, 157.67 24.45, 157.67 35.25 M157.67 35.25 C157.67 43.08, 153.75 47, 145.92 47 M157.67 35.25 C157.67 43.08, 153.75 47, 145.92 47 M145.92 47 C109.7 47, 73.49 47, 11.75 47 M145.92 47 C106.98 47, 68.05 47, 11.75 47 M11.75 47 C3.92 47, 0 43.08, 0 35.25 M11.75 47 C3.92 47, 0 43.08, 0 35.25 M0 35.25 C0 26.79, 0 18.33, 0 11.75 M0 35.25 C0 26.17, 0 17.09, 0 11.75 M0 11.75 C0 3.92, 3.92 0, 11.75 0 M0 11.75 C0 3.92, 3.92 0, 11.75 0" stroke="#1e1e1e" stroke-width="1" fill="none"></path></g><g transform="translate(495.69009132385264 594.9690899151192) rotate(0 63.15234375 9.199999999999989)"><text x="63.15234375" y="0" font-family="Helvetica, Segoe UI Emoji" font-size="16px" fill="#1e1e1e" text-anchor="middle" style="white-space: pre;" direction="ltr" dominant-baseline="text-before-edge">Identifica quadros</text></g><g stroke-linecap="round" transform="translate(664.0091220855713 580.335776926838) rotate(0 78.83334350585938 23.5)"><path d="M11.75 0 C56.47 0, 101.2 0, 145.92 0 M11.75 0 C48.63 0, 85.52 0, 145.92 0 M145.92 0 C153.75 0, 157.67 3.92, 157.67 11.75 M145.92 0 C153.75 0, 157.67 3.92, 157.67 11.75 M157.67 11.75 C157.67 17.31, 157.67 22.87, 157.67 35.25 M157.67 11.75 C157.67 20.95, 157.67 30.14, 157.67 35.25 M157.67 35.25 C157.67 43.08, 153.75 47, 145.92 47 M157.67 35.25 C157.67 43.08, 153.75 47, 145.92 47 M145.92 47 C100.4 47, 54.88 47, 11.75 47 M145.92 47 C118.37 47, 90.82 47, 11.75 47 M11.75 47 C3.92 47, 0 43.08, 0 35.25 M11.75 47 C3.92 47, 0 43.08, 0 35.25 M0 35.25 C0 26.1, 0 16.96, 0 11.75 M0 35.25 C0 28.75, 0 22.25, 0 11.75 M0 11.75 C0 3.92, 3.92 0, 11.75 0 M0 11.75 C0 3.92, 3.92 0, 11.75 0" stroke="#1e1e1e" stroke-width="1" fill="none"></path></g><g transform="translate(671.2487155914307 594.6357769268379) rotate(0 71.59375 9.199999999999989)"><text x="71.59375" y="0" font-family="Helvetica, Segoe UI Emoji" font-size="16px" fill="#1e1e1e" text-anchor="middle" style="white-space: pre;" direction="ltr" dominant-baseline="text-before-edge">Registar os quadros</text></g><g stroke-linecap="round" transform="translate(840.6758090972901 581.335776926838) rotate(0 78.83334350585938 23.5)"><path d="M11.75 0 C40.75 0, 69.75 0, 145.92 0 M11.75 0 C42.79 0, 73.84 0, 145.92 0 M145.92 0 C153.75 0, 157.67 3.92, 157.67 11.75 M145.92 0 C153.75 0, 157.67 3.92, 157.67 11.75 M157.67 11.75 C157.67 19.93, 157.67 28.11, 157.67 35.25 M157.67 11.75 C157.67 18.47, 157.67 25.2, 157.67 35.25 M157.67 35.25 C157.67 43.08, 153.75 47, 145.92 47 M157.67 35.25 C157.67 43.08, 153.75 47, 145.92 47 M145.92 47 C101.49 47, 57.06 47, 11.75 47 M145.92 47 C103.01 47, 60.11 47, 11.75 47 M11.75 47 C3.92 47, 0 43.08, 0 35.25 M11.75 47 C3.92 47, 0 43.08, 0 35.25 M0 35.25 C0 29.13, 0 23.01, 0 11.75 M0 35.25 C0 29.95, 0 24.64, 0 11.75 M0 11.75 C0 3.92, 3.92 0, 11.75 0 M0 11.75 C0 3.92, 3.92 0, 11.75 0" stroke="#1e1e1e" stroke-width="1" fill="none"></path></g><g transform="translate(853.2552463531495 586.435776926838) rotate(0 66.25390625 18.399999999999977)"><text x="66.25390625" y="0" font-family="Helvetica, Segoe UI Emoji" font-size="16px" fill="#1e1e1e" text-anchor="middle" style="white-space: pre;" direction="ltr" dominant-baseline="text-before-edge">Registar os novos </text><text x="66.25390625" y="18.4" font-family="Helvetica, Segoe UI Emoji" font-size="16px" fill="#1e1e1e" text-anchor="middle" style="white-space: pre;" direction="ltr" dominant-baseline="text-before-edge">quadros</text></g><g stroke-linecap="round" transform="translate(1186.3424655914307 112.16912043269735) rotate(0 84.5 23.5)"><path d="M11.75 0 C52.05 0, 92.35 0, 157.25 0 C165.08 0, 169 3.92, 169 11.75 C169 19.06, 169 26.37, 169 35.25 C169 43.08, 165.08 47, 157.25 47 C119.16 47, 81.06 47, 11.75 47 C3.92 47, 0 43.08, 0 35.25 C0 29.46, 0 23.67, 0 11.75 C0 3.92, 3.92 0, 11.75 0" stroke="none" stroke-width="0" fill="#ffec99"></path><path d="M11.75 0 C67.56 0, 123.38 0, 157.25 0 M11.75 0 C52.24 0, 92.74 0, 157.25 0 M157.25 0 C165.08 0, 169 3.92, 169 11.75 M157.25 0 C165.08 0, 169 3.92, 169 11.75 M169 11.75 C169 20.27, 169 28.78, 169 35.25 M169 11.75 C169 18.97, 169 26.19, 169 35.25 M169 35.25 C169 43.08, 165.08 47, 157.25 47 M169 35.25 C169 43.08, 165.08 47, 157.25 47 M157.25 47 C111.07 47, 64.89 47, 11.75 47 M157.25 47 C113.63 47, 70.02 47, 11.75 47 M11.75 47 C3.92 47, 0 43.08, 0 35.25 M11.75 47 C3.92 47, 0 43.08, 0 35.25 M0 35.25 C0 29.62, 0 23.98, 0 11.75 M0 35.25 C0 30.27, 0 25.29, 0 11.75 M0 11.75 C0 3.92, 3.92 0, 11.75 0 M0 11.75 C0 3.92, 3.92 0, 11.75 0" stroke="#1e1e1e" stroke-width="1" fill="none"></path></g><g transform="translate(1197.9010593414307 117.26912043269735) rotate(0 72.94140625 18.39999999999999)"><text x="72.94140625" y="0" font-family="Helvetica, Segoe UI Emoji" font-size="16px" fill="#1e1e1e" text-anchor="middle" style="white-space: pre;" direction="ltr" dominant-baseline="text-before-edge">Leva-se a colmeia </text><text x="72.94140625" y="18.4" font-family="Helvetica, Segoe UI Emoji" font-size="16px" fill="#1e1e1e" text-anchor="middle" style="white-space: pre;" direction="ltr" dominant-baseline="text-before-edge">antiga para o apiário</text></g><g stroke-linecap="round" transform="translate(292.34246559143077 110.50246393855673) rotate(0 84.5 26)"><path d="M13 0 C46.65 0, 80.3 0, 156 0 C164.67 0, 169 4.33, 169 13 C169 19.9, 169 26.81, 169 39 C169 47.67, 164.67 52, 156 52 C115.49 52, 74.97 52, 13 52 C4.33 52, 0 47.67, 0 39 C0 29.09, 0 19.18, 0 13 C0 4.33, 4.33 0, 13 0" stroke="none" stroke-width="0" fill="#ffec99"></path><path d="M13 0 C68.34 0, 123.68 0, 156 0 M13 0 C51.74 0, 90.47 0, 156 0 M156 0 C164.67 0, 169 4.33, 169 13 M156 0 C164.67 0, 169 4.33, 169 13 M169 13 C169 20.06, 169 27.11, 169 39 M169 13 C169 19.49, 169 25.98, 169 39 M169 39 C169 47.67, 164.67 52, 156 52 M169 39 C169 47.67, 164.67 52, 156 52 M156 52 C115.56 52, 75.12 52, 13 52 M156 52 C116.84 52, 77.68 52, 13 52 M13 52 C4.33 52, 0 47.67, 0 39 M13 52 C4.33 52, 0 47.67, 0 39 M0 39 C0 31.51, 0 24.03, 0 13 M0 39 C0 33.51, 0 28.02, 0 13 M0 13 C0 4.33, 4.33 0, 13 0 M0 13 C0 4.33, 4.33 0, 13 0" stroke="#1e1e1e" stroke-width="1" fill="none"></path></g><g transform="translate(307.47137184143077 127.30246393855674) rotate(0 69.37109375 9.200000000000003)"><text x="69.37109375" y="0" font-family="Helvetica, Segoe UI Emoji" font-size="16px" fill="#1e1e1e" text-anchor="middle" style="white-space: pre;" direction="ltr" dominant-baseline="text-before-edge">Escolha de colmeia</text></g><g stroke-linecap="round" transform="translate(297.34246559143077 227.66915095027548) rotate(0 61.5 23.5)"><path d="M11.75 0 C35.68 0, 59.62 0, 111.25 0 M11.75 0 C35.19 0, 58.63 0, 111.25 0 M111.25 0 C119.08 0, 123 3.92, 123 11.75 M111.25 0 C119.08 0, 123 3.92, 123 11.75 M123 11.75 C123 17.6, 123 23.46, 123 35.25 M123 11.75 C123 17.13, 123 22.52, 123 35.25 M123 35.25 C123 43.08, 119.08 47, 111.25 47 M123 35.25 C123 43.08, 119.08 47, 111.25 47 M111.25 47 C72.22 47, 33.18 47, 11.75 47 M111.25 47 C84.78 47, 58.3 47, 11.75 47 M11.75 47 C3.92 47, 0 43.08, 0 35.25 M11.75 47 C3.92 47, 0 43.08, 0 35.25 M0 35.25 C0 26.31, 0 17.38, 0 11.75 M0 35.25 C0 26.39, 0 17.53, 0 11.75 M0 11.75 C0 3.92, 3.92 0, 11.75 0 M0 11.75 C0 3.92, 3.92 0, 11.75 0" stroke="#1e1e1e" stroke-width="1" fill="none"></path></g><g transform="translate(303.25262184143077 232.7691509502755) rotate(0 55.58984375 18.400000000000006)"><text x="55.58984375" y="0" font-family="Helvetica, Segoe UI Emoji" font-size="16px" fill="#1e1e1e" text-anchor="middle" style="white-space: pre;" direction="ltr" dominant-baseline="text-before-edge">Apresenta Lista</text><text x="55.58984375" y="18.4" font-family="Helvetica, Segoe UI Emoji" font-size="16px" fill="#1e1e1e" text-anchor="middle" style="white-space: pre;" direction="ltr" dominant-baseline="text-before-edge">de Colmeias</text></g><g stroke-linecap="round" transform="translate(295.84246559143077 297.3358074444161) rotate(0 58 23.5)"><path d="M11.75 0 C31.9 0, 52.04 0, 104.25 0 M11.75 0 C48 0, 84.25 0, 104.25 0 M104.25 0 C112.08 0, 116 3.92, 116 11.75 M104.25 0 C112.08 0, 116 3.92, 116 11.75 M116 11.75 C116 17.23, 116 22.71, 116 35.25 M116 11.75 C116 20.49, 116 29.22, 116 35.25 M116 35.25 C116 43.08, 112.08 47, 104.25 47 M116 35.25 C116 43.08, 112.08 47, 104.25 47 M104.25 47 C77.24 47, 50.23 47, 11.75 47 M104.25 47 C80.28 47, 56.3 47, 11.75 47 M11.75 47 C3.92 47, 0 43.08, 0 35.25 M11.75 47 C3.92 47, 0 43.08, 0 35.25 M0 35.25 C0 26.32, 0 17.38, 0 11.75 M0 35.25 C0 28.19, 0 21.14, 0 11.75 M0 11.75 C0 3.92, 3.92 0, 11.75 0 M0 11.75 C0 3.92, 3.92 0, 11.75 0" stroke="#1e1e1e" stroke-width="1" fill="none"></path></g><g transform="translate(323.15887184143077 302.4358074444161) rotate(0 30.68359375 18.400000000000006)"><text x="30.68359375" y="0" font-family="Helvetica, Segoe UI Emoji" font-size="16px" fill="#1e1e1e" text-anchor="middle" style="white-space: pre;" direction="ltr" dominant-baseline="text-before-edge">Escolhe </text><text x="30.68359375" y="18.4" font-family="Helvetica, Segoe UI Emoji" font-size="16px" fill="#1e1e1e" text-anchor="middle" style="white-space: pre;" direction="ltr" dominant-baseline="text-before-edge">Colmeia</text></g><g stroke-linecap="round" transform="translate(1363.3424655914307 112.3358074444161) rotate(0 84.5 23.5)"><path d="M11.75 0 C43.95 0, 76.16 0, 157.25 0 C165.08 0, 169 3.92, 169 11.75 C169 18.72, 169 25.69, 169 35.25 C169 43.08, 165.08 47, 157.25 47 C118.93 47, 80.61 47, 11.75 47 C3.92 47, 0 43.08, 0 35.25 C0 29.26, 0 23.28, 0 11.75 C0 3.92, 3.92 0, 11.75 0" stroke="none" stroke-width="0" fill="#ffec99"></path><path d="M11.75 0 C61.44 0, 111.14 0, 157.25 0 M11.75 0 C54.74 0, 97.72 0, 157.25 0 M157.25 0 C165.08 0, 169 3.92, 169 11.75 M157.25 0 C165.08 0, 169 3.92, 169 11.75 M169 11.75 C169 20.9, 169 30.05, 169 35.25 M169 11.75 C169 17.3, 169 22.85, 169 35.25 M169 35.25 C169 43.08, 165.08 47, 157.25 47 M169 35.25 C169 43.08, 165.08 47, 157.25 47 M157.25 47 C107.52 47, 57.79 47, 11.75 47 M157.25 47 C107.33 47, 57.41 47, 11.75 47 M11.75 47 C3.92 47, 0 43.08, 0 35.25 M11.75 47 C3.92 47, 0 43.08, 0 35.25 M0 35.25 C0 30.35, 0 25.46, 0 11.75 M0 35.25 C0 27.57, 0 19.89, 0 11.75 M0 11.75 C0 3.92, 3.92 0, 11.75 0 M0 11.75 C0 3.92, 3.92 0, 11.75 0" stroke="#1e1e1e" stroke-width="1" fill="none"></path></g><g transform="translate(1374.9010593414307 117.4358074444161) rotate(0 72.94140625 18.39999999999999)"><text x="72.94140625" y="0" font-family="Helvetica, Segoe UI Emoji" font-size="16px" fill="#1e1e1e" text-anchor="middle" style="white-space: pre;" direction="ltr" dominant-baseline="text-before-edge">Leva-se a colmeia </text><text x="72.94140625" y="18.4" font-family="Helvetica, Segoe UI Emoji" font-size="16px" fill="#1e1e1e" text-anchor="middle" style="white-space: pre;" direction="ltr" dominant-baseline="text-before-edge">antiga para o apiário</text></g><g stroke-linecap="round" transform="translate(119.17576332092295 45.00246393855673) rotate(0 73 28.5)"><path d="M14.25 0 C47.78 0, 81.31 0, 131.75 0 C141.25 0, 146 4.75, 146 14.25 C146 19.98, 146 25.72, 146 42.75 C146 52.25, 141.25 57, 131.75 57 C99.33 57, 66.92 57, 14.25 57 C4.75 57, 0 52.25, 0 42.75 C0 32.99, 0 23.22, 0 14.25 C0 4.75, 4.75 0, 14.25 0" stroke="none" stroke-width="0" fill="#a5d8ff"></path><path d="M14.25 0 C52.11 0, 89.98 0, 131.75 0 M14.25 0 C45.47 0, 76.68 0, 131.75 0 M131.75 0 C141.25 0, 146 4.75, 146 14.25 M131.75 0 C141.25 0, 146 4.75, 146 14.25 M146 14.25 C146 20.83, 146 27.4, 146 42.75 M146 14.25 C146 25.63, 146 37.02, 146 42.75 M146 42.75 C146 52.25, 141.25 57, 131.75 57 M146 42.75 C146 52.25, 141.25 57, 131.75 57 M131.75 57 C101.25 57, 70.74 57, 14.25 57 M131.75 57 C93.27 57, 54.78 57, 14.25 57 M14.25 57 C4.75 57, 0 52.25, 0 42.75 M14.25 57 C4.75 57, 0 52.25, 0 42.75 M0 42.75 C0 31.81, 0 20.88, 0 14.25 M0 42.75 C0 35.29, 0 27.83, 0 14.25 M0 14.25 C0 4.75, 4.75 0, 14.25 0 M0 14.25 C0 4.75, 4.75 0, 14.25 0" stroke="#1e1e1e" stroke-width="1" fill="none"></path></g><g transform="translate(135.25388832092295 55.102463938556724) rotate(0 56.921875 18.39999999999999)"><text x="56.921875" y="0" font-family="Helvetica, Segoe UI Emoji" font-size="16px" fill="#1e1e1e" text-anchor="middle" style="white-space: pre;" direction="ltr" dominant-baseline="text-before-edge">Registar </text><text x="56.921875" y="18.4" font-family="Helvetica, Segoe UI Emoji" font-size="16px" fill="#1e1e1e" text-anchor="middle" style="white-space: pre;" direction="ltr" dominant-baseline="text-before-edge">Desdobramento</text></g><g stroke-linecap="round" transform="translate(1010.6756259918213 229.66912043269735) rotate(0 78.83334350585938 23.5)"><path d="M11.75 0 C48.38 0, 85 0, 145.92 0 M11.75 0 C46.13 0, 80.5 0, 145.92 0 M145.92 0 C153.75 0, 157.67 3.92, 157.67 11.75 M145.92 0 C153.75 0, 157.67 3.92, 157.67 11.75 M157.67 11.75 C157.67 18.9, 157.67 26.06, 157.67 35.25 M157.67 11.75 C157.67 16.94, 157.67 22.13, 157.67 35.25 M157.67 35.25 C157.67 43.08, 153.75 47, 145.92 47 M157.67 35.25 C157.67 43.08, 153.75 47, 145.92 47 M145.92 47 C100.43 47, 54.93 47, 11.75 47 M145.92 47 C111.82 47, 77.72 47, 11.75 47 M11.75 47 C3.92 47, 0 43.08, 0 35.25 M11.75 47 C3.92 47, 0 43.08, 0 35.25 M0 35.25 C0 27.11, 0 18.97, 0 11.75 M0 35.25 C0 27.6, 0 19.95, 0 11.75 M0 11.75 C0 3.92, 3.92 0, 11.75 0 M0 11.75 C0 3.92, 3.92 0, 11.75 0" stroke="#1e1e1e" stroke-width="1" fill="none"></path></g><g transform="translate(1021.4620944976807 234.76912043269738) rotate(0 68.046875 18.400000000000006)"><text x="68.046875" y="0" font-family="Helvetica, Segoe UI Emoji" font-size="16px" fill="#1e1e1e" text-anchor="middle" style="white-space: pre;" direction="ltr" dominant-baseline="text-before-edge">Introduz código da </text><text x="68.046875" y="18.4" font-family="Helvetica, Segoe UI Emoji" font-size="16px" fill="#1e1e1e" text-anchor="middle" style="white-space: pre;" direction="ltr" dominant-baseline="text-before-edge">nova colmeia</text></g><g stroke-linecap="round" transform="translate(1011.3424350738526 294.66908991511923) rotate(0 78.83334350585938 23.5)"><path d="M11.75 0 C52.94 0, 94.13 0, 145.92 0 M11.75 0 C43.21 0, 74.68 0, 145.92 0 M145.92 0 C153.75 0, 157.67 3.92, 157.67 11.75 M145.92 0 C153.75 0, 157.67 3.92, 157.67 11.75 M157.67 11.75 C157.67 16.49, 157.67 21.23, 157.67 35.25 M157.67 11.75 C157.67 19.9, 157.67 28.04, 157.67 35.25 M157.67 35.25 C157.67 43.08, 153.75 47, 145.92 47 M157.67 35.25 C157.67 43.08, 153.75 47, 145.92 47 M145.92 47 C93.13 47, 40.35 47, 11.75 47 M145.92 47 C112.39 47, 78.86 47, 11.75 47 M11.75 47 C3.92 47, 0 43.08, 0 35.25 M11.75 47 C3.92 47, 0 43.08, 0 35.25 M0 35.25 C0 27.34, 0 19.42, 0 11.75 M0 35.25 C0 27.18, 0 19.12, 0 11.75 M0 11.75 C0 3.92, 3.92 0, 11.75 0 M0 11.75 C0 3.92, 3.92 0, 11.75 0" stroke="#1e1e1e" stroke-width="1" fill="none"></path></g><g transform="translate(1043.476559829712 308.96908991511924) rotate(0 46.69921875 9.199999999999989)"><text x="46.69921875" y="0" font-family="Helvetica, Segoe UI Emoji" font-size="16px" fill="#1e1e1e" text-anchor="middle" style="white-space: pre;" direction="ltr" dominant-baseline="text-before-edge">Introduz data</text></g><g stroke-linecap="round" transform="translate(1011.3424350738526 361.335776926838) rotate(0 78.83334350585938 23.5)"><path d="M11.75 0 C47.99 0, 84.23 0, 145.92 0 M11.75 0 C53.85 0, 95.94 0, 145.92 0 M145.92 0 C153.75 0, 157.67 3.92, 157.67 11.75 M145.92 0 C153.75 0, 157.67 3.92, 157.67 11.75 M157.67 11.75 C157.67 19.15, 157.67 26.56, 157.67 35.25 M157.67 11.75 C157.67 19.81, 157.67 27.86, 157.67 35.25 M157.67 35.25 C157.67 43.08, 153.75 47, 145.92 47 M157.67 35.25 C157.67 43.08, 153.75 47, 145.92 47 M145.92 47 C101.32 47, 56.72 47, 11.75 47 M145.92 47 C111.19 47, 76.46 47, 11.75 47 M11.75 47 C3.92 47, 0 43.08, 0 35.25 M11.75 47 C3.92 47, 0 43.08, 0 35.25 M0 35.25 C0 26.7, 0 18.14, 0 11.75 M0 35.25 C0 26.32, 0 17.39, 0 11.75 M0 11.75 C0 3.92, 3.92 0, 11.75 0 M0 11.75 C0 3.92, 3.92 0, 11.75 0" stroke="#1e1e1e" stroke-width="1" fill="none"></path></g><g transform="translate(1044.816403579712 366.435776926838) rotate(0 45.359375 18.400000000000006)"><text x="45.359375" y="0" font-family="Helvetica, Segoe UI Emoji" font-size="16px" fill="#1e1e1e" text-anchor="middle" style="white-space: pre;" direction="ltr" dominant-baseline="text-before-edge">Introduz </text><text x="45.359375" y="18.4" font-family="Helvetica, Segoe UI Emoji" font-size="16px" fill="#1e1e1e" text-anchor="middle" style="white-space: pre;" direction="ltr" dominant-baseline="text-before-edge">observações</text></g><g stroke-linecap="round"><g transform="translate(113.23245925903319 705.8357616680489) rotate(0 752.0431971549988 0)"><path d="M0 0 C250.68 0, 1253.41 0, 1504.09 0 M0 0 C250.68 0, 1253.41 0, 1504.09 0" stroke="#1e1e1e" stroke-width="1" fill="none"></path></g><g transform="translate(113.23245925903319 705.8357616680489) rotate(0 752.0431971549988 0)"><path d="M1480.59 8.55 C1486.61 6.36, 1492.62 4.17, 1504.09 0 M1480.59 8.55 C1488.56 5.65, 1496.53 2.75, 1504.09 0" stroke="#1e1e1e" stroke-width="1" fill="none"></path></g><g transform="translate(113.23245925903319 705.8357616680489) rotate(0 752.0431971549988 0)"><path d="M1480.59 -8.55 C1486.61 -6.36, 1492.62 -4.17, 1504.09 0 M1480.59 -8.55 C1488.56 -5.65, 1496.53 -2.75, 1504.09 0" stroke="#1e1e1e" stroke-width="1" fill="none"></path></g></g><mask></mask><g transform="translate(119.56055374145518 718.3025097149239) rotate(0 18.671875 9.199999999999989)"><text x="0" y="0" font-family="Helvetica, Segoe UI Emoji" font-size="16px" fill="#1e1e1e" text-anchor="start" style="white-space: pre;" direction="ltr" dominant-baseline="text-before-edge">MVI2</text></g></svg>