<?xml version="1.0" encoding="UTF-8" standalone="no"?><svg xmlns="http://www.w3.org/2000/svg" xmlns:xlink="http://www.w3.org/1999/xlink" contentStyleType="text/css" height="258px" preserveAspectRatio="none" style="width:497px;height:258px;background:#FFFFFF;" version="1.1" viewBox="0 0 497 258" width="497px" zoomAndPan="magnify"><defs/><g><!--MD5=[ef2f3d6815c792d082a7c132eb1ade2f]
entity sys--><g id="elem_sys"><ellipse cx="29" cy="184" fill="#F1F1F1" rx="8" ry="8" style="stroke:#181818;stroke-width:0.5;"/><path d="M29,192 L29,219 M16,200 L42,200 M29,219 L16,234 M29,219 L42,234 " fill="none" style="stroke:#181818;stroke-width:0.5;"/><text fill="#000000" font-family="sans-serif" font-size="14" lengthAdjust="spacing" textLength="46" x="6" y="250.0332">System</text></g><g id="elem_uc1"><ellipse cx="301.6862" cy="46.4992" fill="#F1F1F1" rx="189.6862" ry="40.4992" style="stroke:#181818;stroke-width:0.5;"/><text fill="#000000" font-family="sans-serif" font-size="14" lengthAdjust="spacing" textLength="247" x="173.1862" y="33.4064">Envio de notificações automáticas para</text><text fill="#000000" font-family="sans-serif" font-size="14" lengthAdjust="spacing" textLength="251" x="173.1862" y="51.0158">todos os intervenientes de uma sessão,</text><text fill="#000000" font-family="sans-serif" font-size="14" lengthAdjust="spacing" textLength="159" x="219.1862" y="68.6252">quando esta se aproxima</text></g><g id="elem_uc2"><ellipse cx="301.4296" cy="156.2859" fill="#F1F1F1" rx="156.9296" ry="33.7859" style="stroke:#181818;stroke-width:0.5;"/><text fill="#000000" font-family="sans-serif" font-size="14" lengthAdjust="spacing" textLength="283" x="159.9296" y="160.0144">Emissão da Declaração Anual de Existências</text></g><!--MD5=[db956f40f2dc50163091c98812b3e6f0]
entity cc--><g id="elem_cc"><ellipse cx="29" cy="71" fill="#F1F1F1" rx="8" ry="8" style="stroke:#181818;stroke-width:0.5;"/><path d="M29,79 L29,106 M16,87 L42,87 M29,106 L16,121 M29,106 L42,121 " fill="none" style="stroke:#181818;stroke-width:0.5;"/><text fill="#000000" font-family="sans-serif" font-size="14" lengthAdjust="spacing" textLength="14" x="22" y="137.0332">cc</text></g><!--MD5=[2d6dad20133285d07bd6156c4d5fa94e]
link cc to uc1--><g id="link_cc_uc1"><path d="M42.68,98.92 C64.4,94.51 110.97,85.04 158.64,75.34 " fill="none" id="cc-to-uc1" style="stroke:#181818;stroke-width:1.0;"/><polygon fill="#181818" points="163.56,74.34,153.9419,72.2204,158.661,75.3398,155.5416,80.0589,163.56,74.34" style="stroke:#181818;stroke-width:1.0;"/></g><!--MD5=[977d5e71781ad55de61211a3306106a1]
link cc to uc2--><g id="link_cc_uc2"><path d="M42.68,104.08 C67.88,109.2 126.56,121.13 181.58,132.32 " fill="none" id="cc-to-uc2" style="stroke:#181818;stroke-width:1.0;"/><polygon fill="#181818" points="186.55,133.33,178.5316,127.6111,181.651,132.3302,176.9319,135.4496,186.55,133.33" style="stroke:#181818;stroke-width:1.0;"/></g><!--MD5=[8382244986613c6f912aa1525555c512]
@startuml UseCaseDiagram

left to right direction

:System: as sys

(Envio de notificações automáticas para \ntodos os intervenientes de uma sessão,\nquando esta se aproxima) as uc1
(Emissão da Declaração Anual de Existências) as uc2

cc - -> uc1
cc - -> uc2


@enduml

PlantUML version 1.2022.7(Mon Aug 22 18:01:30 WEST 2022)
(GPL source distribution)
Java Runtime: Java(TM) SE Runtime Environment
JVM: Java HotSpot(TM) 64-Bit Server VM
Default Encoding: Cp1252
Language: en
Country: GB
--></g></svg>