<svg version="1.1" xmlns="http://www.w3.org/2000/svg" viewBox="0 0 1897.8363639831553 1111" width="3795.6727279663105" height="2222">
  <!-- svg-source:excalidraw -->
  
  <defs>
    <style class="style-fonts">
      @font-face {
        font-family: "Virgil";
        src: url("https://excalidraw.com/Virgil.woff2");
      }
      @font-face {
        font-family: "Cascadia";
        src: url("https://excalidraw.com/Cascadia.woff2");
      }
      @font-face {
        font-family: "Assistant";
        src: url("https://excalidraw.com/Assistant-Regular.woff2");
      }
    </style>
    
  </defs>
  <rect x="0" y="0" width="1897.8363639831553" height="1111" fill="#ffffff"></rect><g stroke-linecap="round" transform="translate(119.8363639831544 21) rotate(0 73 42)"><path d="M21 0 C44.37 0, 67.73 0, 125 0 C139 0, 146 7, 146 21 C146 30.42, 146 39.85, 146 63 C146 77, 139 84, 125 84 C96.8 84, 68.59 84, 21 84 C7 84, 0 77, 0 63 C0 49.1, 0 35.2, 0 21 C0 7, 7 0, 21 0" stroke="none" stroke-width="0" fill="#a5d8ff"></path><path d="M21 0 C43.17 0, 65.34 0, 125 0 M21 0 C54.33 0, 87.66 0, 125 0 M125 0 C139 0, 146 7, 146 21 M125 0 C139 0, 146 7, 146 21 M146 21 C146 37.41, 146 53.81, 146 63 M146 21 C146 35.92, 146 50.84, 146 63 M146 63 C146 77, 139 84, 125 84 M146 63 C146 77, 139 84, 125 84 M125 84 C96.53 84, 68.05 84, 21 84 M125 84 C84.43 84, 43.85 84, 21 84 M21 84 C7 84, 0 77, 0 63 M21 84 C7 84, 0 77, 0 63 M0 63 C0 48.59, 0 34.18, 0 21 M0 63 C0 52.28, 0 41.57, 0 21 M0 21 C0 7, 7 0, 21 0 M0 21 C0 7, 7 0, 21 0" stroke="#1e1e1e" stroke-width="1" fill="none"></path></g><g transform="translate(140.3676139831544 26.200000000000003) rotate(0 52.46875 36.800000000000004)"><text x="52.46875" y="0" font-family="Helvetica, Segoe UI Emoji" font-size="16px" fill="#1e1e1e" text-anchor="middle" style="white-space: pre;" direction="ltr" dominant-baseline="text-before-edge">Iniciação do </text><text x="52.46875" y="18.4" font-family="Helvetica, Segoe UI Emoji" font-size="16px" fill="#1e1e1e" text-anchor="middle" style="white-space: pre;" direction="ltr" dominant-baseline="text-before-edge">processo de </text><text x="52.46875" y="36.8" font-family="Helvetica, Segoe UI Emoji" font-size="16px" fill="#1e1e1e" text-anchor="middle" style="white-space: pre;" direction="ltr" dominant-baseline="text-before-edge">criação de um </text><text x="52.46875" y="55.199999999999996" font-family="Helvetica, Segoe UI Emoji" font-size="16px" fill="#1e1e1e" text-anchor="middle" style="white-space: pre;" direction="ltr" dominant-baseline="text-before-edge">apiário</text></g><g stroke-linecap="round"><g transform="translate(92.8363639831544 10) rotate(0 -2 545.5)"><path d="M0 0 C-0.67 181.83, -3.33 909.17, -4 1091 M0 0 C-0.67 181.83, -3.33 909.17, -4 1091" stroke="#1e1e1e" stroke-width="1" fill="none"></path></g><g transform="translate(92.8363639831544 10) rotate(0 -2 545.5)"><path d="M-12.46 1067.48 C-9.24 1076.44, -6.02 1085.4, -4 1091 M-12.46 1067.48 C-10.52 1072.88, -8.58 1078.28, -4 1091" stroke="#1e1e1e" stroke-width="1" fill="none"></path></g><g transform="translate(92.8363639831544 10) rotate(0 -2 545.5)"><path d="M4.64 1067.54 C1.35 1076.48, -1.94 1085.41, -4 1091 M4.64 1067.54 C2.65 1072.93, 0.67 1078.32, -4 1091" stroke="#1e1e1e" stroke-width="1" fill="none"></path></g></g><mask></mask><g transform="translate(-89.29999999999981 439.86363601684695) rotate(270 133 33.7000000000001)"><text x="0" y="0" font-family="Helvetica, Segoe UI Emoji" font-size="58.60869565217415px" fill="#1e1e1e" text-anchor="start" style="white-space: pre;" direction="ltr" dominant-baseline="text-before-edge">Prioridade</text></g><g transform="translate(36.8363639831544 47) rotate(0 20.672727584838867 13.83582270320521)"><text x="0" y="0" font-family="Helvetica, Segoe UI Emoji" font-size="24.062300353400357px" fill="#1e1e1e" text-anchor="start" style="white-space: pre;" direction="ltr" dominant-baseline="text-before-edge">Alta</text></g><g transform="translate(12.8363639831544 925.1657559334633) rotate(0 28.654544830322266 13.117122033268402)"><text x="0" y="0" font-family="Helvetica, Segoe UI Emoji" font-size="22.812386144814568px" fill="#1e1e1e" text-anchor="start" style="white-space: pre;" direction="ltr" dominant-baseline="text-before-edge">Baixa</text></g><g stroke-linecap="round"><g transform="translate(104.8363639831544 185) rotate(0 887.5 0)"><path d="M0 0 C295.83 0, 1479.17 0, 1775 0 M0 0 C295.83 0, 1479.17 0, 1775 0" stroke="#1e1e1e" stroke-width="1" fill="none"></path></g><g transform="translate(104.8363639831544 185) rotate(0 887.5 0)"><path d="M1751.51 8.55 C1758.72 5.93, 1765.93 3.3, 1775 0 M1751.51 8.55 C1760.68 5.21, 1769.86 1.87, 1775 0" stroke="#1e1e1e" stroke-width="1" fill="none"></path></g><g transform="translate(104.8363639831544 185) rotate(0 887.5 0)"><path d="M1751.51 -8.55 C1758.72 -5.93, 1765.93 -3.3, 1775 0 M1751.51 -8.55 C1760.68 -5.21, 1769.86 -1.87, 1775 0" stroke="#1e1e1e" stroke-width="1" fill="none"></path></g></g><mask></mask><g stroke-linecap="round"><g transform="translate(103.02008409576462 532.5272756950367) rotate(0 892.4081399436953 2.486362152481661)"><path d="M0 0 C297.47 0.83, 1487.35 4.14, 1784.82 4.97 M0 0 C297.47 0.83, 1487.35 4.14, 1784.82 4.97" stroke="#1e1e1e" stroke-width="1" fill="none"></path></g><g transform="translate(103.02008409576462 532.5272756950367) rotate(0 892.4081399436953 2.486362152481661)"><path d="M1761.3 13.46 C1769.92 10.35, 1778.53 7.24, 1784.82 4.97 M1761.3 13.46 C1767.44 11.24, 1773.58 9.03, 1784.82 4.97" stroke="#1e1e1e" stroke-width="1" fill="none"></path></g><g transform="translate(103.02008409576462 532.5272756950367) rotate(0 892.4081399436953 2.486362152481661)"><path d="M1761.35 -3.64 C1769.95 -0.49, 1778.55 2.67, 1784.82 4.97 M1761.35 -3.64 C1767.47 -1.39, 1773.6 0.86, 1784.82 4.97" stroke="#1e1e1e" stroke-width="1" fill="none"></path></g></g><mask></mask><g transform="translate(111.8363639831544 195) rotate(0 17.3359375 9.199999999999989)"><text x="0" y="0" font-family="Helvetica, Segoe UI Emoji" font-size="16px" fill="#1e1e1e" text-anchor="start" style="white-space: pre;" direction="ltr" dominant-baseline="text-before-edge">MVP</text></g><g transform="translate(110.5863639831544 549.5) rotate(0 18.671875 9.199999999999989)"><text x="0" y="0" font-family="Helvetica, Segoe UI Emoji" font-size="16px" fill="#1e1e1e" text-anchor="start" style="white-space: pre;" direction="ltr" dominant-baseline="text-before-edge">MVI1</text></g><g stroke-linecap="round"><g transform="translate(101.3363639831544 969.75) rotate(0 887.5 0)"><path d="M0 0 C295.83 0, 1479.17 0, 1775 0 M0 0 C295.83 0, 1479.17 0, 1775 0" stroke="#1e1e1e" stroke-width="1" fill="none"></path></g><g transform="translate(101.3363639831544 969.75) rotate(0 887.5 0)"><path d="M1751.51 8.55 C1757.62 6.32, 1763.74 4.1, 1775 0 M1751.51 8.55 C1757.81 6.26, 1764.1 3.97, 1775 0" stroke="#1e1e1e" stroke-width="1" fill="none"></path></g><g transform="translate(101.3363639831544 969.75) rotate(0 887.5 0)"><path d="M1751.51 -8.55 C1757.62 -6.32, 1763.74 -4.1, 1775 0 M1751.51 -8.55 C1757.81 -6.26, 1764.1 -3.97, 1775 0" stroke="#1e1e1e" stroke-width="1" fill="none"></path></g></g><mask></mask><g transform="translate(111.8363639831544 997) rotate(0 28.39090919494629 9.200000000000045)"><text x="0" y="0" font-family="Helvetica, Segoe UI Emoji" font-size="16px" fill="#1e1e1e" text-anchor="start" style="white-space: pre;" direction="ltr" dominant-baseline="text-before-edge">Backlog</text></g><g stroke-linecap="round" transform="translate(116.8363639831544 112) rotate(0 78.5 25)"><path d="M12.5 0 C52.18 0, 91.85 0, 144.5 0 C152.83 0, 157 4.17, 157 12.5 C157 18.71, 157 24.93, 157 37.5 C157 45.83, 152.83 50, 144.5 50 C116.05 50, 87.6 50, 12.5 50 C4.17 50, 0 45.83, 0 37.5 C0 30.77, 0 24.04, 0 12.5 C0 4.17, 4.17 0, 12.5 0" stroke="none" stroke-width="0" fill="#ffec99"></path><path d="M12.5 0 C52.54 0, 92.58 0, 144.5 0 M12.5 0 C43.4 0, 74.3 0, 144.5 0 M144.5 0 C152.83 0, 157 4.17, 157 12.5 M144.5 0 C152.83 0, 157 4.17, 157 12.5 M157 12.5 C157 18.95, 157 25.41, 157 37.5 M157 12.5 C157 22.49, 157 32.48, 157 37.5 M157 37.5 C157 45.83, 152.83 50, 144.5 50 M157 37.5 C157 45.83, 152.83 50, 144.5 50 M144.5 50 C102.59 50, 60.68 50, 12.5 50 M144.5 50 C104.66 50, 64.82 50, 12.5 50 M12.5 50 C4.17 50, 0 45.83, 0 37.5 M12.5 50 C4.17 50, 0 45.83, 0 37.5 M0 37.5 C0 28.41, 0 19.33, 0 12.5 M0 37.5 C0 30.41, 0 23.32, 0 12.5 M0 12.5 C0 4.17, 4.17 0, 12.5 0 M0 12.5 C0 4.17, 4.17 0, 12.5 0" stroke="#1e1e1e" stroke-width="1" fill="none"></path></g><g transform="translate(122.5433952331544 118.6) rotate(0 72.79296875 18.39999999999999)"><text x="72.79296875" y="0" font-family="Helvetica, Segoe UI Emoji" font-size="16px" fill="#1e1e1e" text-anchor="middle" style="white-space: pre;" direction="ltr" dominant-baseline="text-before-edge">Avaliação do Apiário</text><text x="72.79296875" y="18.4" font-family="Helvetica, Segoe UI Emoji" font-size="16px" fill="#1e1e1e" text-anchor="middle" style="white-space: pre;" direction="ltr" dominant-baseline="text-before-edge">a ser criado</text></g><g stroke-linecap="round" transform="translate(487.50909156799327 71.18335688289267) rotate(0 76.5 51)"><path d="M25.5 0 C60.68 0, 95.86 0, 127.5 0 C144.5 0, 153 8.5, 153 25.5 C153 38.79, 153 52.09, 153 76.5 C153 93.5, 144.5 102, 127.5 102 C96.74 102, 65.99 102, 25.5 102 C8.5 102, 0 93.5, 0 76.5 C0 59.7, 0 42.9, 0 25.5 C0 8.5, 8.5 0, 25.5 0" stroke="none" stroke-width="0" fill="#ffec99"></path><path d="M25.5 0 C58.38 0, 91.26 0, 127.5 0 M25.5 0 C47.08 0, 68.66 0, 127.5 0 M127.5 0 C144.5 0, 153 8.5, 153 25.5 M127.5 0 C144.5 0, 153 8.5, 153 25.5 M153 25.5 C153 41.27, 153 57.04, 153 76.5 M153 25.5 C153 37.45, 153 49.39, 153 76.5 M153 76.5 C153 93.5, 144.5 102, 127.5 102 M153 76.5 C153 93.5, 144.5 102, 127.5 102 M127.5 102 C94.51 102, 61.51 102, 25.5 102 M127.5 102 C102.95 102, 78.41 102, 25.5 102 M25.5 102 C8.5 102, 0 93.5, 0 76.5 M25.5 102 C8.5 102, 0 93.5, 0 76.5 M0 76.5 C0 58.92, 0 41.35, 0 25.5 M0 76.5 C0 63.14, 0 49.78, 0 25.5 M0 25.5 C0 8.5, 8.5 0, 25.5 0 M0 25.5 C0 8.5, 8.5 0, 25.5 0" stroke="#1e1e1e" stroke-width="1" fill="none"></path></g><g transform="translate(501.30206031799327 76.18335688289267) rotate(0 62.70703125 46)"><text x="62.70703125" y="0" font-family="Helvetica, Segoe UI Emoji" font-size="16px" fill="#1e1e1e" text-anchor="middle" style="white-space: pre;" direction="ltr" dominant-baseline="text-before-edge">Entidades </text><text x="62.70703125" y="18.4" font-family="Helvetica, Segoe UI Emoji" font-size="16px" fill="#1e1e1e" text-anchor="middle" style="white-space: pre;" direction="ltr" dominant-baseline="text-before-edge">certificadoras </text><text x="62.70703125" y="36.8" font-family="Helvetica, Segoe UI Emoji" font-size="16px" fill="#1e1e1e" text-anchor="middle" style="white-space: pre;" direction="ltr" dominant-baseline="text-before-edge">avaliam o pedido </text><text x="62.70703125" y="55.199999999999996" font-family="Helvetica, Segoe UI Emoji" font-size="16px" fill="#1e1e1e" text-anchor="middle" style="white-space: pre;" direction="ltr" dominant-baseline="text-before-edge">de criação do </text><text x="62.70703125" y="73.6" font-family="Helvetica, Segoe UI Emoji" font-size="16px" fill="#1e1e1e" text-anchor="middle" style="white-space: pre;" direction="ltr" dominant-baseline="text-before-edge">aviário</text></g><g stroke-linecap="round" transform="translate(139.75909156799327 577.8901439922677) rotate(0 67.5 42)"><path d="M21 0 C39.88 0, 58.77 0, 114 0 M21 0 C53.19 0, 85.39 0, 114 0 M114 0 C128 0, 135 7, 135 21 M114 0 C128 0, 135 7, 135 21 M135 21 C135 32.33, 135 43.66, 135 63 M135 21 C135 34.13, 135 47.27, 135 63 M135 63 C135 77, 128 84, 114 84 M135 63 C135 77, 128 84, 114 84 M114 84 C91.16 84, 68.33 84, 21 84 M114 84 C95.07 84, 76.15 84, 21 84 M21 84 C7 84, 0 77, 0 63 M21 84 C7 84, 0 77, 0 63 M0 63 C0 50.93, 0 38.85, 0 21 M0 63 C0 53.14, 0 43.28, 0 21 M0 21 C0 7, 7 0, 21 0 M0 21 C0 7, 7 0, 21 0" stroke="#1e1e1e" stroke-width="1" fill="none"></path></g><g transform="translate(164.57549781799327 601.4901439922677) rotate(0 42.68359375 18.399999999999977)"><text x="42.68359375" y="0" font-family="Helvetica, Segoe UI Emoji" font-size="16px" fill="#1e1e1e" text-anchor="middle" style="white-space: pre;" direction="ltr" dominant-baseline="text-before-edge">Registar os </text><text x="42.68359375" y="18.4" font-family="Helvetica, Segoe UI Emoji" font-size="16px" fill="#1e1e1e" text-anchor="middle" style="white-space: pre;" direction="ltr" dominant-baseline="text-before-edge">quadros</text></g><g stroke-linecap="round" transform="translate(118.75909156799327 215.14685785945517) rotate(0 74 97)"><path d="M32 0 C65.19 0, 98.39 0, 116 0 M32 0 C51.56 0, 71.13 0, 116 0 M116 0 C137.33 0, 148 10.67, 148 32 M116 0 C137.33 0, 148 10.67, 148 32 M148 32 C148 80.03, 148 128.05, 148 162 M148 32 C148 77.88, 148 123.76, 148 162 M148 162 C148 183.33, 137.33 194, 116 194 M148 162 C148 183.33, 137.33 194, 116 194 M116 194 C89.88 194, 63.75 194, 32 194 M116 194 C87.85 194, 59.71 194, 32 194 M32 194 C10.67 194, 0 183.33, 0 162 M32 194 C10.67 194, 0 183.33, 0 162 M0 162 C0 124.95, 0 87.9, 0 32 M0 162 C0 118.08, 0 74.17, 0 32 M0 32 C0 10.67, 10.67 0, 32 0 M0 32 C0 10.67, 10.67 0, 32 0" stroke="#1e1e1e" stroke-width="1" fill="none"></path></g><g transform="translate(123.82940406799327 220.14685785945517) rotate(0 68.9296875 92)"><text x="68.9296875" y="0" font-family="Helvetica, Segoe UI Emoji" font-size="16px" fill="#1e1e1e" text-anchor="middle" style="white-space: pre;" direction="ltr" dominant-baseline="text-before-edge">Regista todos os </text><text x="68.9296875" y="18.4" font-family="Helvetica, Segoe UI Emoji" font-size="16px" fill="#1e1e1e" text-anchor="middle" style="white-space: pre;" direction="ltr" dominant-baseline="text-before-edge">dados necessários </text><text x="68.9296875" y="36.8" font-family="Helvetica, Segoe UI Emoji" font-size="16px" fill="#1e1e1e" text-anchor="middle" style="white-space: pre;" direction="ltr" dominant-baseline="text-before-edge">relativos a um </text><text x="68.9296875" y="55.199999999999996" font-family="Helvetica, Segoe UI Emoji" font-size="16px" fill="#1e1e1e" text-anchor="middle" style="white-space: pre;" direction="ltr" dominant-baseline="text-before-edge">Apiário:</text><text x="68.9296875" y="73.6" font-family="Helvetica, Segoe UI Emoji" font-size="16px" fill="#1e1e1e" text-anchor="middle" style="white-space: pre;" direction="ltr" dominant-baseline="text-before-edge">Nome, número, se </text><text x="68.9296875" y="92" font-family="Helvetica, Segoe UI Emoji" font-size="16px" fill="#1e1e1e" text-anchor="middle" style="white-space: pre;" direction="ltr" dominant-baseline="text-before-edge">é Apiário intensivo,</text><text x="68.9296875" y="110.39999999999999" font-family="Helvetica, Segoe UI Emoji" font-size="16px" fill="#1e1e1e" text-anchor="middle" style="white-space: pre;" direction="ltr" dominant-baseline="text-before-edge">se é transumante e</text><text x="68.9296875" y="128.79999999999998" font-family="Helvetica, Segoe UI Emoji" font-size="16px" fill="#1e1e1e" text-anchor="middle" style="white-space: pre;" direction="ltr" dominant-baseline="text-before-edge">a zona onde o </text><text x="68.9296875" y="147.2" font-family="Helvetica, Segoe UI Emoji" font-size="16px" fill="#1e1e1e" text-anchor="middle" style="white-space: pre;" direction="ltr" dominant-baseline="text-before-edge">mesmo vai se </text><text x="68.9296875" y="165.6" font-family="Helvetica, Segoe UI Emoji" font-size="16px" fill="#1e1e1e" text-anchor="middle" style="white-space: pre;" direction="ltr" dominant-baseline="text-before-edge">localizar</text></g><g stroke-linecap="round" transform="translate(122.75909156799327 422.64685785945517) rotate(0 74 42)"><path d="M21 0 C59.77 0, 98.54 0, 127 0 M21 0 C52.35 0, 83.7 0, 127 0 M127 0 C141 0, 148 7, 148 21 M127 0 C141 0, 148 7, 148 21 M148 21 C148 31.44, 148 41.88, 148 63 M148 21 C148 34.25, 148 47.49, 148 63 M148 63 C148 77, 141 84, 127 84 M148 63 C148 77, 141 84, 127 84 M127 84 C104.4 84, 81.8 84, 21 84 M127 84 C88.01 84, 49.02 84, 21 84 M21 84 C7 84, 0 77, 0 63 M21 84 C7 84, 0 77, 0 63 M0 63 C0 53.53, 0 44.06, 0 21 M0 63 C0 54.45, 0 45.91, 0 21 M0 21 C0 7, 7 0, 21 0 M0 21 C0 7, 7 0, 21 0" stroke="#1e1e1e" stroke-width="1" fill="none"></path></g><g transform="translate(128.72002906799327 427.8468578594552) rotate(0 68.0390625 36.80000000000001)"><text x="68.0390625" y="0" font-family="Helvetica, Segoe UI Emoji" font-size="16px" fill="#1e1e1e" text-anchor="middle" style="white-space: pre;" direction="ltr" dominant-baseline="text-before-edge">Regista as </text><text x="68.0390625" y="18.4" font-family="Helvetica, Segoe UI Emoji" font-size="16px" fill="#1e1e1e" text-anchor="middle" style="white-space: pre;" direction="ltr" dominant-baseline="text-before-edge">colmeias </text><text x="68.0390625" y="36.8" font-family="Helvetica, Segoe UI Emoji" font-size="16px" fill="#1e1e1e" text-anchor="middle" style="white-space: pre;" direction="ltr" dominant-baseline="text-before-edge">associadas a esse </text><text x="68.0390625" y="55.199999999999996" font-family="Helvetica, Segoe UI Emoji" font-size="16px" fill="#1e1e1e" text-anchor="middle" style="white-space: pre;" direction="ltr" dominant-baseline="text-before-edge">Apiário.</text></g><g stroke-linecap="round" transform="translate(310.25909156799327 71.14685785945517) rotate(0 76.5 51)"><path d="M25.5 0 C57.79 0, 90.08 0, 127.5 0 C144.5 0, 153 8.5, 153 25.5 C153 45.63, 153 65.77, 153 76.5 C153 93.5, 144.5 102, 127.5 102 C98.89 102, 70.27 102, 25.5 102 C8.5 102, 0 93.5, 0 76.5 C0 65.9, 0 55.29, 0 25.5 C0 8.5, 8.5 0, 25.5 0" stroke="none" stroke-width="0" fill="#ffec99"></path><path d="M25.5 0 C55.97 0, 86.44 0, 127.5 0 M25.5 0 C53.61 0, 81.71 0, 127.5 0 M127.5 0 C144.5 0, 153 8.5, 153 25.5 M127.5 0 C144.5 0, 153 8.5, 153 25.5 M153 25.5 C153 37.37, 153 49.23, 153 76.5 M153 25.5 C153 37.7, 153 49.9, 153 76.5 M153 76.5 C153 93.5, 144.5 102, 127.5 102 M153 76.5 C153 93.5, 144.5 102, 127.5 102 M127.5 102 C103.35 102, 79.21 102, 25.5 102 M127.5 102 C101.98 102, 76.46 102, 25.5 102 M25.5 102 C8.5 102, 0 93.5, 0 76.5 M25.5 102 C8.5 102, 0 93.5, 0 76.5 M0 76.5 C0 65.08, 0 53.66, 0 25.5 M0 76.5 C0 57.02, 0 37.54, 0 25.5 M0 25.5 C0 8.5, 8.5 0, 25.5 0 M0 25.5 C0 8.5, 8.5 0, 25.5 0" stroke="#1e1e1e" stroke-width="1" fill="none"></path></g><g transform="translate(322.72393531799327 103.74685785945516) rotate(0 64.03515625 18.39999999999999)"><text x="64.03515625" y="0" font-family="Helvetica, Segoe UI Emoji" font-size="16px" fill="#1e1e1e" text-anchor="middle" style="white-space: pre;" direction="ltr" dominant-baseline="text-before-edge">Faz o pedido de </text><text x="64.03515625" y="18.4" font-family="Helvetica, Segoe UI Emoji" font-size="16px" fill="#1e1e1e" text-anchor="middle" style="white-space: pre;" direction="ltr" dominant-baseline="text-before-edge">criação do Apiário</text></g><g stroke-linecap="round" transform="translate(314.00909156799327 217.64685785945517) rotate(0 74 42)"><path d="M21 0 C57.97 0, 94.94 0, 127 0 M21 0 C61.62 0, 102.24 0, 127 0 M127 0 C141 0, 148 7, 148 21 M127 0 C141 0, 148 7, 148 21 M148 21 C148 32.4, 148 43.8, 148 63 M148 21 C148 31.34, 148 41.68, 148 63 M148 63 C148 77, 141 84, 127 84 M148 63 C148 77, 141 84, 127 84 M127 84 C84.67 84, 42.35 84, 21 84 M127 84 C105.73 84, 84.47 84, 21 84 M21 84 C7 84, 0 77, 0 63 M21 84 C7 84, 0 77, 0 63 M0 63 C0 53.47, 0 43.93, 0 21 M0 63 C0 52.13, 0 41.26, 0 21 M0 21 C0 7, 7 0, 21 0 M0 21 C0 7, 7 0, 21 0" stroke="#1e1e1e" stroke-width="1" fill="none"></path></g><g transform="translate(325.75127906799327 232.04685785945514) rotate(0 62.2578125 27.599999999999994)"><text x="62.2578125" y="0" font-family="Helvetica, Segoe UI Emoji" font-size="16px" fill="#1e1e1e" text-anchor="middle" style="white-space: pre;" direction="ltr" dominant-baseline="text-before-edge">Regista o apiário </text><text x="62.2578125" y="18.4" font-family="Helvetica, Segoe UI Emoji" font-size="16px" fill="#1e1e1e" text-anchor="middle" style="white-space: pre;" direction="ltr" dominant-baseline="text-before-edge">(em estado </text><text x="62.2578125" y="36.8" font-family="Helvetica, Segoe UI Emoji" font-size="16px" fill="#1e1e1e" text-anchor="middle" style="white-space: pre;" direction="ltr" dominant-baseline="text-before-edge">"Pendente")</text></g><g stroke-linecap="round" transform="translate(494.00909156799327 215.14685785945517) rotate(0 74 51)"><path d="M25.5 0 C46.2 0, 66.9 0, 122.5 0 M25.5 0 C55.08 0, 84.67 0, 122.5 0 M122.5 0 C139.5 0, 148 8.5, 148 25.5 M122.5 0 C139.5 0, 148 8.5, 148 25.5 M148 25.5 C148 40.72, 148 55.94, 148 76.5 M148 25.5 C148 45.68, 148 65.86, 148 76.5 M148 76.5 C148 93.5, 139.5 102, 122.5 102 M148 76.5 C148 93.5, 139.5 102, 122.5 102 M122.5 102 C88.14 102, 53.77 102, 25.5 102 M122.5 102 C97.3 102, 72.09 102, 25.5 102 M25.5 102 C8.5 102, 0 93.5, 0 76.5 M25.5 102 C8.5 102, 0 93.5, 0 76.5 M0 76.5 C0 56.67, 0 36.83, 0 25.5 M0 76.5 C0 59.74, 0 42.98, 0 25.5 M0 25.5 C0 8.5, 8.5 0, 25.5 0 M0 25.5 C0 8.5, 8.5 0, 25.5 0" stroke="#1e1e1e" stroke-width="1" fill="none"></path></g><g transform="translate(499.07940406799327 220.14685785945517) rotate(0 68.9296875 46)"><text x="68.9296875" y="0" font-family="Helvetica, Segoe UI Emoji" font-size="16px" fill="#1e1e1e" text-anchor="middle" style="white-space: pre;" direction="ltr" dominant-baseline="text-before-edge">Regista a mudança</text><text x="68.9296875" y="18.4" font-family="Helvetica, Segoe UI Emoji" font-size="16px" fill="#1e1e1e" text-anchor="middle" style="white-space: pre;" direction="ltr" dominant-baseline="text-before-edge">do estado do </text><text x="68.9296875" y="36.8" font-family="Helvetica, Segoe UI Emoji" font-size="16px" fill="#1e1e1e" text-anchor="middle" style="white-space: pre;" direction="ltr" dominant-baseline="text-before-edge">Apiário para </text><text x="68.9296875" y="55.199999999999996" font-family="Helvetica, Segoe UI Emoji" font-size="16px" fill="#1e1e1e" text-anchor="middle" style="white-space: pre;" direction="ltr" dominant-baseline="text-before-edge">"Recusado" ou </text><text x="68.9296875" y="73.6" font-family="Helvetica, Segoe UI Emoji" font-size="16px" fill="#1e1e1e" text-anchor="middle" style="white-space: pre;" direction="ltr" dominant-baseline="text-before-edge">"Aprovado"</text></g><g stroke-linecap="round" transform="translate(659.0090915679932 57.39685785945517) rotate(0 76.5 60.5)"><path d="M30.25 0 C59.54 0, 88.83 0, 122.75 0 C142.92 0, 153 10.08, 153 30.25 C153 45.99, 153 61.73, 153 90.75 C153 110.92, 142.92 121, 122.75 121 C96.87 121, 70.98 121, 30.25 121 C10.08 121, 0 110.92, 0 90.75 C0 73.4, 0 56.04, 0 30.25 C0 10.08, 10.08 0, 30.25 0" stroke="none" stroke-width="0" fill="#ffec99"></path><path d="M30.25 0 C52.82 0, 75.38 0, 122.75 0 M30.25 0 C63.53 0, 96.81 0, 122.75 0 M122.75 0 C142.92 0, 153 10.08, 153 30.25 M122.75 0 C142.92 0, 153 10.08, 153 30.25 M153 30.25 C153 48.78, 153 67.3, 153 90.75 M153 30.25 C153 43.28, 153 56.31, 153 90.75 M153 90.75 C153 110.92, 142.92 121, 122.75 121 M153 90.75 C153 110.92, 142.92 121, 122.75 121 M122.75 121 C94.27 121, 65.8 121, 30.25 121 M122.75 121 C87.94 121, 53.13 121, 30.25 121 M30.25 121 C10.08 121, 0 110.92, 0 90.75 M30.25 121 C10.08 121, 0 110.92, 0 90.75 M0 90.75 C0 74.84, 0 58.94, 0 30.25 M0 90.75 C0 77.26, 0 63.77, 0 30.25 M0 30.25 C0 10.08, 10.08 0, 30.25 0 M0 30.25 C0 10.08, 10.08 0, 30.25 0" stroke="#1e1e1e" stroke-width="1" fill="none"></path></g><g transform="translate(664.8059665679932 62.69685785945518) rotate(0 70.703125 55.19999999999999)"><text x="70.703125" y="0" font-family="Helvetica, Segoe UI Emoji" font-size="16px" fill="#1e1e1e" text-anchor="middle" style="white-space: pre;" direction="ltr" dominant-baseline="text-before-edge">Apicultor observa a </text><text x="70.703125" y="18.4" font-family="Helvetica, Segoe UI Emoji" font-size="16px" fill="#1e1e1e" text-anchor="middle" style="white-space: pre;" direction="ltr" dominant-baseline="text-before-edge">listagem de </text><text x="70.703125" y="36.8" font-family="Helvetica, Segoe UI Emoji" font-size="16px" fill="#1e1e1e" text-anchor="middle" style="white-space: pre;" direction="ltr" dominant-baseline="text-before-edge">Apiários para ver o </text><text x="70.703125" y="55.199999999999996" font-family="Helvetica, Segoe UI Emoji" font-size="16px" fill="#1e1e1e" text-anchor="middle" style="white-space: pre;" direction="ltr" dominant-baseline="text-before-edge">estado do Apiário </text><text x="70.703125" y="73.6" font-family="Helvetica, Segoe UI Emoji" font-size="16px" fill="#1e1e1e" text-anchor="middle" style="white-space: pre;" direction="ltr" dominant-baseline="text-before-edge">recentemente </text><text x="70.703125" y="92" font-family="Helvetica, Segoe UI Emoji" font-size="16px" fill="#1e1e1e" text-anchor="middle" style="white-space: pre;" direction="ltr" dominant-baseline="text-before-edge">criado</text></g><g stroke-linecap="round" transform="translate(667.7590915679932 212.39685785945517) rotate(0 74 51)"><path d="M25.5 0 C62.57 0, 99.64 0, 122.5 0 M25.5 0 C50.1 0, 74.7 0, 122.5 0 M122.5 0 C139.5 0, 148 8.5, 148 25.5 M122.5 0 C139.5 0, 148 8.5, 148 25.5 M148 25.5 C148 45.11, 148 64.72, 148 76.5 M148 25.5 C148 39.22, 148 52.94, 148 76.5 M148 76.5 C148 93.5, 139.5 102, 122.5 102 M148 76.5 C148 93.5, 139.5 102, 122.5 102 M122.5 102 C89.09 102, 55.67 102, 25.5 102 M122.5 102 C84.22 102, 45.95 102, 25.5 102 M25.5 102 C8.5 102, 0 93.5, 0 76.5 M25.5 102 C8.5 102, 0 93.5, 0 76.5 M0 76.5 C0 65.98, 0 55.47, 0 25.5 M0 76.5 C0 62.01, 0 47.52, 0 25.5 M0 25.5 C0 8.5, 8.5 0, 25.5 0 M0 25.5 C0 8.5, 8.5 0, 25.5 0" stroke="#1e1e1e" stroke-width="1" fill="none"></path></g><g transform="translate(676.8372165679932 226.59685785945516) rotate(0 64.921875 36.79999999999998)"><text x="64.921875" y="0" font-family="Helvetica, Segoe UI Emoji" font-size="16px" fill="#1e1e1e" text-anchor="middle" style="white-space: pre;" direction="ltr" dominant-baseline="text-before-edge">Listar todos os </text><text x="64.921875" y="18.4" font-family="Helvetica, Segoe UI Emoji" font-size="16px" fill="#1e1e1e" text-anchor="middle" style="white-space: pre;" direction="ltr" dominant-baseline="text-before-edge">Apiários </text><text x="64.921875" y="36.8" font-family="Helvetica, Segoe UI Emoji" font-size="16px" fill="#1e1e1e" text-anchor="middle" style="white-space: pre;" direction="ltr" dominant-baseline="text-before-edge">relacionados com </text><text x="64.921875" y="55.199999999999996" font-family="Helvetica, Segoe UI Emoji" font-size="16px" fill="#1e1e1e" text-anchor="middle" style="white-space: pre;" direction="ltr" dominant-baseline="text-before-edge">o Apicultor</text></g><g stroke-linecap="round" transform="translate(836.5090915679932 92.89685785945517) rotate(0 62.125 42)"><path d="M21 0 C38.07 0, 55.14 0, 103.25 0 C117.25 0, 124.25 7, 124.25 21 C124.25 33.71, 124.25 46.42, 124.25 63 C124.25 77, 117.25 84, 103.25 84 C78.38 84, 53.51 84, 21 84 C7 84, 0 77, 0 63 C0 49.77, 0 36.55, 0 21 C0 7, 7 0, 21 0" stroke="none" stroke-width="0" fill="#ffec99"></path><path d="M21 0 C49.79 0, 78.59 0, 103.25 0 M21 0 C52.35 0, 83.71 0, 103.25 0 M103.25 0 C117.25 0, 124.25 7, 124.25 21 M103.25 0 C117.25 0, 124.25 7, 124.25 21 M124.25 21 C124.25 31.74, 124.25 42.47, 124.25 63 M124.25 21 C124.25 34.24, 124.25 47.48, 124.25 63 M124.25 63 C124.25 77, 117.25 84, 103.25 84 M124.25 63 C124.25 77, 117.25 84, 103.25 84 M103.25 84 C78.78 84, 54.3 84, 21 84 M103.25 84 C79.75 84, 56.25 84, 21 84 M21 84 C7 84, 0 77, 0 63 M21 84 C7 84, 0 77, 0 63 M0 63 C0 51.47, 0 39.94, 0 21 M0 63 C0 52, 0 41, 0 21 M0 21 C0 7, 7 0, 21 0 M0 21 C0 7, 7 0, 21 0" stroke="#1e1e1e" stroke-width="1" fill="none"></path></g><g transform="translate(847.9387790679932 98.09685785945516) rotate(0 50.6953125 36.79999999999998)"><text x="50.6953125" y="0" font-family="Helvetica, Segoe UI Emoji" font-size="16px" fill="#1e1e1e" text-anchor="middle" style="white-space: pre;" direction="ltr" dominant-baseline="text-before-edge">Seleciona um </text><text x="50.6953125" y="18.4" font-family="Helvetica, Segoe UI Emoji" font-size="16px" fill="#1e1e1e" text-anchor="middle" style="white-space: pre;" direction="ltr" dominant-baseline="text-before-edge">Apiário com </text><text x="50.6953125" y="36.8" font-family="Helvetica, Segoe UI Emoji" font-size="16px" fill="#1e1e1e" text-anchor="middle" style="white-space: pre;" direction="ltr" dominant-baseline="text-before-edge">estado </text><text x="50.6953125" y="55.199999999999996" font-family="Helvetica, Segoe UI Emoji" font-size="16px" fill="#1e1e1e" text-anchor="middle" style="white-space: pre;" direction="ltr" dominant-baseline="text-before-edge">"Recusado"</text></g><g stroke-linecap="round" transform="translate(835.2590915679932 214.89685785945517) rotate(0 74 51)"><path d="M25.5 0 C58.62 0, 91.74 0, 122.5 0 M25.5 0 C64.15 0, 102.79 0, 122.5 0 M122.5 0 C139.5 0, 148 8.5, 148 25.5 M122.5 0 C139.5 0, 148 8.5, 148 25.5 M148 25.5 C148 45.08, 148 64.65, 148 76.5 M148 25.5 C148 44.59, 148 63.69, 148 76.5 M148 76.5 C148 93.5, 139.5 102, 122.5 102 M148 76.5 C148 93.5, 139.5 102, 122.5 102 M122.5 102 C92.18 102, 61.86 102, 25.5 102 M122.5 102 C87.27 102, 52.04 102, 25.5 102 M25.5 102 C8.5 102, 0 93.5, 0 76.5 M25.5 102 C8.5 102, 0 93.5, 0 76.5 M0 76.5 C0 63.38, 0 50.26, 0 25.5 M0 76.5 C0 57.92, 0 39.33, 0 25.5 M0 25.5 C0 8.5, 8.5 0, 25.5 0 M0 25.5 C0 8.5, 8.5 0, 25.5 0" stroke="#1e1e1e" stroke-width="1" fill="none"></path></g><g transform="translate(844.3333103179932 238.29685785945514) rotate(0 64.92578125 27.599999999999994)"><text x="64.92578125" y="0" font-family="Helvetica, Segoe UI Emoji" font-size="16px" fill="#1e1e1e" text-anchor="middle" style="white-space: pre;" direction="ltr" dominant-baseline="text-before-edge">Listar os detalhes </text><text x="64.92578125" y="18.4" font-family="Helvetica, Segoe UI Emoji" font-size="16px" fill="#1e1e1e" text-anchor="middle" style="white-space: pre;" direction="ltr" dominant-baseline="text-before-edge">do Apiário </text><text x="64.92578125" y="36.8" font-family="Helvetica, Segoe UI Emoji" font-size="16px" fill="#1e1e1e" text-anchor="middle" style="white-space: pre;" direction="ltr" dominant-baseline="text-before-edge">selecionado</text></g><g stroke-linecap="round" transform="translate(1013.3840915679932 92.89685785945517) rotate(0 62.125 40.5)"><path d="M20.25 0 C49.26 0, 78.27 0, 104 0 C117.5 0, 124.25 6.75, 124.25 20.25 C124.25 34.73, 124.25 49.21, 124.25 60.75 C124.25 74.25, 117.5 81, 104 81 C77.81 81, 51.62 81, 20.25 81 C6.75 81, 0 74.25, 0 60.75 C0 50.2, 0 39.65, 0 20.25 C0 6.75, 6.75 0, 20.25 0" stroke="none" stroke-width="0" fill="#ffec99"></path><path d="M20.25 0 C50.72 0, 81.18 0, 104 0 M20.25 0 C45.65 0, 71.05 0, 104 0 M104 0 C117.5 0, 124.25 6.75, 124.25 20.25 M104 0 C117.5 0, 124.25 6.75, 124.25 20.25 M124.25 20.25 C124.25 33.09, 124.25 45.93, 124.25 60.75 M124.25 20.25 C124.25 30.53, 124.25 40.81, 124.25 60.75 M124.25 60.75 C124.25 74.25, 117.5 81, 104 81 M124.25 60.75 C124.25 74.25, 117.5 81, 104 81 M104 81 C80.3 81, 56.6 81, 20.25 81 M104 81 C84.12 81, 64.23 81, 20.25 81 M20.25 81 C6.75 81, 0 74.25, 0 60.75 M20.25 81 C6.75 81, 0 74.25, 0 60.75 M0 60.75 C0 47.53, 0 34.3, 0 20.25 M0 60.75 C0 46.34, 0 31.93, 0 20.25 M0 20.25 C0 6.75, 6.75 0, 20.25 0 M0 20.25 C0 6.75, 6.75 0, 20.25 0" stroke="#1e1e1e" stroke-width="1" fill="none"></path></g><g transform="translate(1021.2551853179932 105.79685785945517) rotate(0 54.25390625 27.60000000000001)"><text x="54.25390625" y="0" font-family="Helvetica, Segoe UI Emoji" font-size="16px" fill="#1e1e1e" text-anchor="middle" style="white-space: pre;" direction="ltr" dominant-baseline="text-before-edge">Edita o Apiário </text><text x="54.25390625" y="18.4" font-family="Helvetica, Segoe UI Emoji" font-size="16px" fill="#1e1e1e" text-anchor="middle" style="white-space: pre;" direction="ltr" dominant-baseline="text-before-edge">que tem o </text><text x="54.25390625" y="36.8" font-family="Helvetica, Segoe UI Emoji" font-size="16px" fill="#1e1e1e" text-anchor="middle" style="white-space: pre;" direction="ltr" dominant-baseline="text-before-edge">estado </text></g><g stroke-linecap="round" transform="translate(1007.7590915679932 213.64685785945517) rotate(0 74 51)"><path d="M25.5 0 C54.29 0, 83.09 0, 122.5 0 M25.5 0 C51.68 0, 77.86 0, 122.5 0 M122.5 0 C139.5 0, 148 8.5, 148 25.5 M122.5 0 C139.5 0, 148 8.5, 148 25.5 M148 25.5 C148 39.09, 148 52.67, 148 76.5 M148 25.5 C148 36.81, 148 48.11, 148 76.5 M148 76.5 C148 93.5, 139.5 102, 122.5 102 M148 76.5 C148 93.5, 139.5 102, 122.5 102 M122.5 102 C90.21 102, 57.91 102, 25.5 102 M122.5 102 C89.56 102, 56.62 102, 25.5 102 M25.5 102 C8.5 102, 0 93.5, 0 76.5 M25.5 102 C8.5 102, 0 93.5, 0 76.5 M0 76.5 C0 61.84, 0 47.18, 0 25.5 M0 76.5 C0 62.2, 0 47.89, 0 25.5 M0 25.5 C0 8.5, 8.5 0, 25.5 0 M0 25.5 C0 8.5, 8.5 0, 25.5 0" stroke="#1e1e1e" stroke-width="1" fill="none"></path></g><g transform="translate(1019.9426853179932 237.04685785945514) rotate(0 61.81640625 27.599999999999994)"><text x="61.81640625" y="0" font-family="Helvetica, Segoe UI Emoji" font-size="16px" fill="#1e1e1e" text-anchor="middle" style="white-space: pre;" direction="ltr" dominant-baseline="text-before-edge">Regista a edição </text><text x="61.81640625" y="18.4" font-family="Helvetica, Segoe UI Emoji" font-size="16px" fill="#1e1e1e" text-anchor="middle" style="white-space: pre;" direction="ltr" dominant-baseline="text-before-edge">dos dados do </text><text x="61.81640625" y="36.8" font-family="Helvetica, Segoe UI Emoji" font-size="16px" fill="#1e1e1e" text-anchor="middle" style="white-space: pre;" direction="ltr" dominant-baseline="text-before-edge">Apiário</text></g><g stroke-linecap="round" transform="translate(1019.2590915679932 550.8968578594552) rotate(0 74 51)"><path d="M25.5 0 C62.18 0, 98.87 0, 122.5 0 M25.5 0 C46.07 0, 66.65 0, 122.5 0 M122.5 0 C139.5 0, 148 8.5, 148 25.5 M122.5 0 C139.5 0, 148 8.5, 148 25.5 M148 25.5 C148 42.46, 148 59.42, 148 76.5 M148 25.5 C148 42.45, 148 59.41, 148 76.5 M148 76.5 C148 93.5, 139.5 102, 122.5 102 M148 76.5 C148 93.5, 139.5 102, 122.5 102 M122.5 102 C91.03 102, 59.55 102, 25.5 102 M122.5 102 C84.48 102, 46.46 102, 25.5 102 M25.5 102 C8.5 102, 0 93.5, 0 76.5 M25.5 102 C8.5 102, 0 93.5, 0 76.5 M0 76.5 C0 65.51, 0 54.52, 0 25.5 M0 76.5 C0 56.58, 0 36.67, 0 25.5 M0 25.5 C0 8.5, 8.5 0, 25.5 0 M0 25.5 C0 8.5, 8.5 0, 25.5 0" stroke="#1e1e1e" stroke-width="1" fill="none"></path></g><g transform="translate(1031.4426853179932 583.4968578594552) rotate(0 61.81640625 18.399999999999977)"><text x="61.81640625" y="0" font-family="Helvetica, Segoe UI Emoji" font-size="16px" fill="#1e1e1e" text-anchor="middle" style="white-space: pre;" direction="ltr" dominant-baseline="text-before-edge">Regista a edição </text><text x="61.81640625" y="18.4" font-family="Helvetica, Segoe UI Emoji" font-size="16px" fill="#1e1e1e" text-anchor="middle" style="white-space: pre;" direction="ltr" dominant-baseline="text-before-edge">de colmeias</text></g><g stroke-linecap="round" transform="translate(1019.2590915679932 661.8968578594552) rotate(0 74 51)"><path d="M25.5 0 C53.54 0, 81.57 0, 122.5 0 M25.5 0 C53.39 0, 81.29 0, 122.5 0 M122.5 0 C139.5 0, 148 8.5, 148 25.5 M122.5 0 C139.5 0, 148 8.5, 148 25.5 M148 25.5 C148 38.93, 148 52.35, 148 76.5 M148 25.5 C148 38.61, 148 51.71, 148 76.5 M148 76.5 C148 93.5, 139.5 102, 122.5 102 M148 76.5 C148 93.5, 139.5 102, 122.5 102 M122.5 102 C99.91 102, 77.33 102, 25.5 102 M122.5 102 C87.56 102, 52.62 102, 25.5 102 M25.5 102 C8.5 102, 0 93.5, 0 76.5 M25.5 102 C8.5 102, 0 93.5, 0 76.5 M0 76.5 C0 64.57, 0 52.63, 0 25.5 M0 76.5 C0 59.73, 0 42.96, 0 25.5 M0 25.5 C0 8.5, 8.5 0, 25.5 0 M0 25.5 C0 8.5, 8.5 0, 25.5 0" stroke="#1e1e1e" stroke-width="1" fill="none"></path></g><g transform="translate(1031.4426853179932 694.4968578594552) rotate(0 61.81640625 18.399999999999977)"><text x="61.81640625" y="0" font-family="Helvetica, Segoe UI Emoji" font-size="16px" fill="#1e1e1e" text-anchor="middle" style="white-space: pre;" direction="ltr" dominant-baseline="text-before-edge">Regista a edição </text><text x="61.81640625" y="18.4" font-family="Helvetica, Segoe UI Emoji" font-size="16px" fill="#1e1e1e" text-anchor="middle" style="white-space: pre;" direction="ltr" dominant-baseline="text-before-edge">de quadros</text></g><g stroke-linecap="round"><g transform="translate(97.52952305286908 773.5637462650091) rotate(0 892.4081399436953 2.486362152481661)"><path d="M0 0 C297.47 0.83, 1487.35 4.14, 1784.82 4.97 M0 0 C297.47 0.83, 1487.35 4.14, 1784.82 4.97" stroke="#1e1e1e" stroke-width="1" fill="none"></path></g><g transform="translate(97.52952305286908 773.5637462650091) rotate(0 892.4081399436953 2.486362152481661)"><path d="M1761.3 13.46 C1768.57 10.84, 1775.83 8.21, 1784.82 4.97 M1761.3 13.46 C1769.06 10.66, 1776.83 7.86, 1784.82 4.97" stroke="#1e1e1e" stroke-width="1" fill="none"></path></g><g transform="translate(97.52952305286908 773.5637462650091) rotate(0 892.4081399436953 2.486362152481661)"><path d="M1761.35 -3.64 C1768.6 -0.98, 1775.85 1.68, 1784.82 4.97 M1761.35 -3.64 C1769.1 -0.8, 1776.84 2.05, 1784.82 4.97" stroke="#1e1e1e" stroke-width="1" fill="none"></path></g></g><mask></mask><g transform="translate(113.93766299656465 790.0501084174907) rotate(0 19.428498641304373 9.572803347280342)"><text x="0" y="0" font-family="Helvetica, Segoe UI Emoji" font-size="16.64835364744408px" fill="#1e1e1e" text-anchor="start" style="white-space: pre;" direction="ltr" dominant-baseline="text-before-edge">MVI2</text></g></svg>