<svg version="1.1" xmlns="http://www.w3.org/2000/svg" viewBox="0 0 1901.3363639831543 995" width="1901.3363639831543" height="995">
  <!-- svg-source:excalidraw -->
  
  <defs>
    <style class="style-fonts">
      @font-face {
        font-family: "Virgil";
        src: url("https://excalidraw.com/Virgil.woff2");
      }
      @font-face {
        font-family: "Cascadia";
        src: url("https://excalidraw.com/Cascadia.woff2");
      }
      @font-face {
        font-family: "Assistant";
        src: url("https://excalidraw.com/Assistant-Regular.woff2");
      }
    </style>
    
  </defs>
  <rect x="0" y="0" width="1901.3363639831543" height="995" fill="#ffffff"></rect><g stroke-linecap="round" transform="translate(122.8363639831544 33) rotate(0 73 28.5)"><path d="M14.25 0 C40.65 0, 67.05 0, 131.75 0 C141.25 0, 146 4.75, 146 14.25 C146 20.64, 146 27.04, 146 42.75 C146 52.25, 141.25 57, 131.75 57 C99.89 57, 68.02 57, 14.25 57 C4.75 57, 0 52.25, 0 42.75 C0 33.32, 0 23.89, 0 14.25 C0 4.75, 4.75 0, 14.25 0" stroke="none" stroke-width="0" fill="#a5d8ff"></path><path d="M14.25 0 C39.3 0, 64.35 0, 131.75 0 M14.25 0 C51.91 0, 89.57 0, 131.75 0 M131.75 0 C141.25 0, 146 4.75, 146 14.25 M131.75 0 C141.25 0, 146 4.75, 146 14.25 M146 14.25 C146 25.38, 146 36.52, 146 42.75 M146 14.25 C146 24.37, 146 34.5, 146 42.75 M146 42.75 C146 52.25, 141.25 57, 131.75 57 M146 42.75 C146 52.25, 141.25 57, 131.75 57 M131.75 57 C99.58 57, 67.41 57, 14.25 57 M131.75 57 C85.91 57, 40.07 57, 14.25 57 M14.25 57 C4.75 57, 0 52.25, 0 42.75 M14.25 57 C4.75 57, 0 52.25, 0 42.75 M0 42.75 C0 32.97, 0 23.19, 0 14.25 M0 42.75 C0 35.48, 0 28.21, 0 14.25 M0 14.25 C0 4.75, 4.75 0, 14.25 0 M0 14.25 C0 4.75, 4.75 0, 14.25 0" stroke="#1e1e1e" stroke-width="1" fill="none"></path></g><g transform="translate(134.0199577331544 52.30000000000001) rotate(0 61.81640625 9.200000000000003)"><text x="61.81640625" y="0" font-family="Helvetica, Segoe UI Emoji" font-size="16px" fill="#1e1e1e" text-anchor="middle" style="white-space: pre;" direction="ltr" dominant-baseline="text-before-edge">Regista Inspeção</text></g><g stroke-linecap="round"><g transform="translate(92.8363639831544 10) rotate(0 0 487.5)"><path d="M0 0 C0 162.5, 0 812.5, 0 975 M0 0 C0 162.5, 0 812.5, 0 975" stroke="#1e1e1e" stroke-width="1" fill="none"></path></g><g transform="translate(92.8363639831544 10) rotate(0 0 487.5)"><path d="M-8.55 951.51 C-5.29 960.46, -2.04 969.41, 0 975 M-8.55 951.51 C-6.59 956.9, -4.62 962.3, 0 975" stroke="#1e1e1e" stroke-width="1" fill="none"></path></g><g transform="translate(92.8363639831544 10) rotate(0 0 487.5)"><path d="M8.55 951.51 C5.29 960.46, 2.04 969.41, 0 975 M8.55 951.51 C6.59 956.9, 4.62 962.3, 0 975" stroke="#1e1e1e" stroke-width="1" fill="none"></path></g></g><mask></mask><g transform="translate(-89.85245971679669 439.3111763000501) rotate(270 133.55245971679688 33.7000000000001)"><text x="0" y="0" font-family="Helvetica, Segoe UI Emoji" font-size="58.60869565217415px" fill="#1e1e1e" text-anchor="start" style="white-space: pre;" direction="ltr" dominant-baseline="text-before-edge">Prioridade</text></g><g transform="translate(36.8363639831544 47) rotate(0 20.729408264160156 13.83582270320521)"><text x="0" y="0" font-family="Helvetica, Segoe UI Emoji" font-size="24.062300353400357px" fill="#1e1e1e" text-anchor="start" style="white-space: pre;" direction="ltr" dominant-baseline="text-before-edge">Alta</text></g><g transform="translate(12.8363639831544 925.1657559334633) rotate(0 28.52918243408203 13.117122033268402)"><text x="0" y="0" font-family="Helvetica, Segoe UI Emoji" font-size="22.812386144814568px" fill="#1e1e1e" text-anchor="start" style="white-space: pre;" direction="ltr" dominant-baseline="text-before-edge">Baixa</text></g><g stroke-linecap="round"><g transform="translate(104.8363639831544 185) rotate(0 887.5 0)"><path d="M0 0 C295.83 0, 1479.17 0, 1775 0 M0 0 C295.83 0, 1479.17 0, 1775 0" stroke="#1e1e1e" stroke-width="1" fill="none"></path></g><g transform="translate(104.8363639831544 185) rotate(0 887.5 0)"><path d="M1751.51 8.55 C1758.72 5.93, 1765.93 3.3, 1775 0 M1751.51 8.55 C1760.68 5.21, 1769.86 1.87, 1775 0" stroke="#1e1e1e" stroke-width="1" fill="none"></path></g><g transform="translate(104.8363639831544 185) rotate(0 887.5 0)"><path d="M1751.51 -8.55 C1758.72 -5.93, 1765.93 -3.3, 1775 0 M1751.51 -8.55 C1760.68 -5.21, 1769.86 -1.87, 1775 0" stroke="#1e1e1e" stroke-width="1" fill="none"></path></g></g><mask></mask><g stroke-linecap="round" transform="translate(632.3363639831543 108) rotate(0 84.5 33)"><path d="M16.5 0 C55.47 0, 94.44 0, 152.5 0 C163.5 0, 169 5.5, 169 16.5 C169 25.04, 169 33.58, 169 49.5 C169 60.5, 163.5 66, 152.5 66 C114.58 66, 76.65 66, 16.5 66 C5.5 66, 0 60.5, 0 49.5 C0 36.68, 0 23.86, 0 16.5 C0 5.5, 5.5 0, 16.5 0" stroke="none" stroke-width="0" fill="#ffec99"></path><path d="M16.5 0 C48.34 0, 80.18 0, 152.5 0 M16.5 0 C65.77 0, 115.05 0, 152.5 0 M152.5 0 C163.5 0, 169 5.5, 169 16.5 M152.5 0 C163.5 0, 169 5.5, 169 16.5 M169 16.5 C169 28.5, 169 40.49, 169 49.5 M169 16.5 C169 23.78, 169 31.06, 169 49.5 M169 49.5 C169 60.5, 163.5 66, 152.5 66 M169 49.5 C169 60.5, 163.5 66, 152.5 66 M152.5 66 C99.52 66, 46.54 66, 16.5 66 M152.5 66 C117.67 66, 82.84 66, 16.5 66 M16.5 66 C5.5 66, 0 60.5, 0 49.5 M16.5 66 C5.5 66, 0 60.5, 0 49.5 M0 49.5 C0 37.67, 0 25.84, 0 16.5 M0 49.5 C0 37.59, 0 25.69, 0 16.5 M0 16.5 C0 5.5, 5.5 0, 16.5 0 M0 16.5 C0 5.5, 5.5 0, 16.5 0" stroke="#1e1e1e" stroke-width="1" fill="none"></path></g><g transform="translate(648.7973014831543 113.4) rotate(0 68.0390625 27.60000000000001)"><text x="68.0390625" y="0" font-family="Helvetica, Segoe UI Emoji" font-size="16px" fill="#1e1e1e" text-anchor="middle" style="white-space: pre;" direction="ltr" dominant-baseline="text-before-edge">Identifica sinais de </text><text x="68.0390625" y="18.4" font-family="Helvetica, Segoe UI Emoji" font-size="16px" fill="#1e1e1e" text-anchor="middle" style="white-space: pre;" direction="ltr" dominant-baseline="text-before-edge">doenças e pragas</text><text x="68.0390625" y="36.8" font-family="Helvetica, Segoe UI Emoji" font-size="16px" fill="#1e1e1e" text-anchor="middle" style="white-space: pre;" direction="ltr" dominant-baseline="text-before-edge">(estado sanitário)</text></g><g stroke-linecap="round"><g transform="translate(116.3363639831544 569) rotate(0 887.5 0)"><path d="M0 0 C295.83 0, 1479.17 0, 1775 0 M0 0 C295.83 0, 1479.17 0, 1775 0" stroke="#1e1e1e" stroke-width="1" fill="none"></path></g><g transform="translate(116.3363639831544 569) rotate(0 887.5 0)"><path d="M1751.51 8.55 C1760.12 5.42, 1768.72 2.28, 1775 0 M1751.51 8.55 C1757.64 6.32, 1763.77 4.09, 1775 0" stroke="#1e1e1e" stroke-width="1" fill="none"></path></g><g transform="translate(116.3363639831544 569) rotate(0 887.5 0)"><path d="M1751.51 -8.55 C1760.12 -5.42, 1768.72 -2.28, 1775 0 M1751.51 -8.55 C1757.64 -6.32, 1763.77 -4.09, 1775 0" stroke="#1e1e1e" stroke-width="1" fill="none"></path></g></g><mask></mask><g transform="translate(111.8363639831544 195) rotate(0 17.3359375 9.199999999999989)"><text x="0" y="0" font-family="Helvetica, Segoe UI Emoji" font-size="16px" fill="#1e1e1e" text-anchor="start" style="white-space: pre;" direction="ltr" dominant-baseline="text-before-edge">MVP</text></g><g transform="translate(116.8363639831544 586) rotate(0 18.671875 9.199999999999989)"><text x="0" y="0" font-family="Helvetica, Segoe UI Emoji" font-size="16px" fill="#1e1e1e" text-anchor="start" style="white-space: pre;" direction="ltr" dominant-baseline="text-before-edge">MVI1</text></g><g stroke-linecap="round"><g transform="translate(111.3363639831544 844) rotate(0 887.5 0)"><path d="M0 0 C295.83 0, 1479.17 0, 1775 0 M0 0 C295.83 0, 1479.17 0, 1775 0" stroke="#1e1e1e" stroke-width="1" fill="none"></path></g><g transform="translate(111.3363639831544 844) rotate(0 887.5 0)"><path d="M1751.51 8.55 C1757.62 6.32, 1763.74 4.1, 1775 0 M1751.51 8.55 C1757.81 6.26, 1764.1 3.97, 1775 0" stroke="#1e1e1e" stroke-width="1" fill="none"></path></g><g transform="translate(111.3363639831544 844) rotate(0 887.5 0)"><path d="M1751.51 -8.55 C1757.62 -6.32, 1763.74 -4.1, 1775 0 M1751.51 -8.55 C1757.81 -6.26, 1764.1 -3.97, 1775 0" stroke="#1e1e1e" stroke-width="1" fill="none"></path></g></g><mask></mask><g transform="translate(117.8363639831544 861) rotate(0 28.4609375 9.199999999999989)"><text x="0" y="0" font-family="Helvetica, Segoe UI Emoji" font-size="16px" fill="#1e1e1e" text-anchor="start" style="white-space: pre;" direction="ltr" dominant-baseline="text-before-edge">Backlog</text></g><g stroke-linecap="round" transform="translate(117.8363639831544 112) rotate(0 78.5 25)"><path d="M12.5 0 C52.18 0, 91.85 0, 144.5 0 C152.83 0, 157 4.17, 157 12.5 C157 18.71, 157 24.93, 157 37.5 C157 45.83, 152.83 50, 144.5 50 C116.05 50, 87.6 50, 12.5 50 C4.17 50, 0 45.83, 0 37.5 C0 30.77, 0 24.04, 0 12.5 C0 4.17, 4.17 0, 12.5 0" stroke="none" stroke-width="0" fill="#ffec99"></path><path d="M12.5 0 C52.54 0, 92.58 0, 144.5 0 M12.5 0 C43.4 0, 74.3 0, 144.5 0 M144.5 0 C152.83 0, 157 4.17, 157 12.5 M144.5 0 C152.83 0, 157 4.17, 157 12.5 M157 12.5 C157 18.95, 157 25.41, 157 37.5 M157 12.5 C157 22.49, 157 32.48, 157 37.5 M157 37.5 C157 45.83, 152.83 50, 144.5 50 M157 37.5 C157 45.83, 152.83 50, 144.5 50 M144.5 50 C102.59 50, 60.68 50, 12.5 50 M144.5 50 C104.66 50, 64.82 50, 12.5 50 M12.5 50 C4.17 50, 0 45.83, 0 37.5 M12.5 50 C4.17 50, 0 45.83, 0 37.5 M0 37.5 C0 28.41, 0 19.33, 0 12.5 M0 37.5 C0 30.41, 0 23.32, 0 12.5 M0 12.5 C0 4.17, 4.17 0, 12.5 0 M0 12.5 C0 4.17, 4.17 0, 12.5 0" stroke="#1e1e1e" stroke-width="1" fill="none"></path></g><g transform="translate(129.6293327331544 127.80000000000001) rotate(0 66.70703125 9.200000000000003)"><text x="66.70703125" y="0" font-family="Helvetica, Segoe UI Emoji" font-size="16px" fill="#1e1e1e" text-anchor="middle" style="white-space: pre;" direction="ltr" dominant-baseline="text-before-edge">Escolha de Apiário</text></g><g stroke-linecap="round" transform="translate(126.8363639831544 228) rotate(0 61.5 23.5)"><path d="M11.75 0 C32.81 0, 53.87 0, 111.25 0 M11.75 0 C49.45 0, 87.16 0, 111.25 0 M111.25 0 C119.08 0, 123 3.92, 123 11.75 M111.25 0 C119.08 0, 123 3.92, 123 11.75 M123 11.75 C123 18.13, 123 24.52, 123 35.25 M123 11.75 C123 17.37, 123 22.99, 123 35.25 M123 35.25 C123 43.08, 119.08 47, 111.25 47 M123 35.25 C123 43.08, 119.08 47, 111.25 47 M111.25 47 C78.82 47, 46.4 47, 11.75 47 M111.25 47 C77.16 47, 43.08 47, 11.75 47 M11.75 47 C3.92 47, 0 43.08, 0 35.25 M11.75 47 C3.92 47, 0 43.08, 0 35.25 M0 35.25 C0 30.11, 0 24.96, 0 11.75 M0 35.25 C0 27.19, 0 19.12, 0 11.75 M0 11.75 C0 3.92, 3.92 0, 11.75 0 M0 11.75 C0 3.92, 3.92 0, 11.75 0" stroke="#1e1e1e" stroke-width="1" fill="none"></path></g><g transform="translate(132.89091033935557 233.10000000000002) rotate(0 55.44545364379883 18.400000000000006)"><text x="55.44545364379883" y="0" font-family="Helvetica, Segoe UI Emoji" font-size="16px" fill="#1e1e1e" text-anchor="middle" style="white-space: pre;" direction="ltr" dominant-baseline="text-before-edge">Apresenta Lista</text><text x="55.44545364379883" y="18.4" font-family="Helvetica, Segoe UI Emoji" font-size="16px" fill="#1e1e1e" text-anchor="middle" style="white-space: pre;" direction="ltr" dominant-baseline="text-before-edge">de Apiários</text></g><g stroke-linecap="round" transform="translate(128.8363639831544 296) rotate(0 58 23.5)"><path d="M11.75 0 C36.61 0, 61.47 0, 104.25 0 M11.75 0 C42.74 0, 73.73 0, 104.25 0 M104.25 0 C112.08 0, 116 3.92, 116 11.75 M104.25 0 C112.08 0, 116 3.92, 116 11.75 M116 11.75 C116 20.1, 116 28.44, 116 35.25 M116 11.75 C116 18.34, 116 24.93, 116 35.25 M116 35.25 C116 43.08, 112.08 47, 104.25 47 M116 35.25 C116 43.08, 112.08 47, 104.25 47 M104.25 47 C79.89 47, 55.54 47, 11.75 47 M104.25 47 C79.18 47, 54.1 47, 11.75 47 M11.75 47 C3.92 47, 0 43.08, 0 35.25 M11.75 47 C3.92 47, 0 43.08, 0 35.25 M0 35.25 C0 28.44, 0 21.62, 0 11.75 M0 35.25 C0 27.62, 0 19.99, 0 11.75 M0 11.75 C0 3.92, 3.92 0, 11.75 0 M0 11.75 C0 3.92, 3.92 0, 11.75 0" stroke="#1e1e1e" stroke-width="1" fill="none"></path></g><g transform="translate(156.2272731781007 301.1) rotate(0 30.60909080505371 18.400000000000006)"><text x="30.60909080505371" y="0" font-family="Helvetica, Segoe UI Emoji" font-size="16px" fill="#1e1e1e" text-anchor="middle" style="white-space: pre;" direction="ltr" dominant-baseline="text-before-edge">Escolhe </text><text x="30.60909080505371" y="18.4" font-family="Helvetica, Segoe UI Emoji" font-size="16px" fill="#1e1e1e" text-anchor="middle" style="white-space: pre;" direction="ltr" dominant-baseline="text-before-edge">Apiário</text></g><g stroke-linecap="round" transform="translate(462.00909156799327 109.88745844539267) rotate(0 76.5 29.5)"><path d="M14.75 0 C60.06 0, 105.37 0, 138.25 0 C148.08 0, 153 4.92, 153 14.75 C153 25.02, 153 35.29, 153 44.25 C153 54.08, 148.08 59, 138.25 59 C100.68 59, 63.11 59, 14.75 59 C4.92 59, 0 54.08, 0 44.25 C0 35.82, 0 27.38, 0 14.75 C0 4.92, 4.92 0, 14.75 0" stroke="none" stroke-width="0" fill="#ffec99"></path><path d="M14.75 0 C62.93 0, 111.11 0, 138.25 0 M14.75 0 C58.19 0, 101.63 0, 138.25 0 M138.25 0 C148.08 0, 153 4.92, 153 14.75 M138.25 0 C148.08 0, 153 4.92, 153 14.75 M153 14.75 C153 24.11, 153 33.48, 153 44.25 M153 14.75 C153 26.01, 153 37.26, 153 44.25 M153 44.25 C153 54.08, 148.08 59, 138.25 59 M153 44.25 C153 54.08, 148.08 59, 138.25 59 M138.25 59 C95.2 59, 52.15 59, 14.75 59 M138.25 59 C93.56 59, 48.87 59, 14.75 59 M14.75 59 C4.92 59, 0 54.08, 0 44.25 M14.75 59 C4.92 59, 0 54.08, 0 44.25 M0 44.25 C0 38.33, 0 32.41, 0 14.75 M0 44.25 C0 36.35, 0 28.45, 0 14.75 M0 14.75 C0 4.92, 4.92 0, 14.75 0 M0 14.75 C0 4.92, 4.92 0, 14.75 0" stroke="#1e1e1e" stroke-width="1" fill="none"></path></g><g transform="translate(467.35674781799327 120.98745844539266) rotate(0 71.15234375 18.39999999999999)"><text x="71.15234375" y="0" font-family="Helvetica, Segoe UI Emoji" font-size="16px" fill="#1e1e1e" text-anchor="middle" style="white-space: pre;" direction="ltr" dominant-baseline="text-before-edge">Inicia o processo de</text><text x="71.15234375" y="18.4" font-family="Helvetica, Segoe UI Emoji" font-size="16px" fill="#1e1e1e" text-anchor="middle" style="white-space: pre;" direction="ltr" dominant-baseline="text-before-edge">inspeção</text></g><g stroke-linecap="round" transform="translate(651.5090915679932 862.5742260235177) rotate(0 75 42)"><path d="M21 0 C48.22 0, 75.44 0, 129 0 M21 0 C63.66 0, 106.32 0, 129 0 M129 0 C143 0, 150 7, 150 21 M129 0 C143 0, 150 7, 150 21 M150 21 C150 32.71, 150 44.42, 150 63 M150 21 C150 30.22, 150 39.44, 150 63 M150 63 C150 77, 143 84, 129 84 M150 63 C150 77, 143 84, 129 84 M129 84 C90.26 84, 51.53 84, 21 84 M129 84 C86.03 84, 43.06 84, 21 84 M21 84 C7 84, 0 77, 0 63 M21 84 C7 84, 0 77, 0 63 M0 63 C0 49.81, 0 36.62, 0 21 M0 63 C0 53.31, 0 43.62, 0 21 M0 21 C0 7, 7 0, 21 0 M0 21 C0 7, 7 0, 21 0" stroke="#1e1e1e" stroke-width="1" fill="none"></path></g><g transform="translate(663.7981540679932 876.9742260235176) rotate(0 62.7109375 27.599999999999966)"><text x="62.7109375" y="0" font-family="Helvetica, Segoe UI Emoji" font-size="16px" fill="#1e1e1e" text-anchor="middle" style="white-space: pre;" direction="ltr" dominant-baseline="text-before-edge">Registar outras </text><text x="62.7109375" y="18.4" font-family="Helvetica, Segoe UI Emoji" font-size="16px" fill="#1e1e1e" text-anchor="middle" style="white-space: pre;" direction="ltr" dominant-baseline="text-before-edge">doenças ao nível </text><text x="62.7109375" y="36.8" font-family="Helvetica, Segoe UI Emoji" font-size="16px" fill="#1e1e1e" text-anchor="middle" style="white-space: pre;" direction="ltr" dominant-baseline="text-before-edge">da inspeção</text></g><g stroke-linecap="round" transform="translate(638.5090915679932 208.57422602351767) rotate(0 75 42)"><path d="M21 0 C63.13 0, 105.25 0, 129 0 M21 0 C62.63 0, 104.27 0, 129 0 M129 0 C143 0, 150 7, 150 21 M129 0 C143 0, 150 7, 150 21 M150 21 C150 36.99, 150 52.98, 150 63 M150 21 C150 31.43, 150 41.85, 150 63 M150 63 C150 77, 143 84, 129 84 M150 63 C150 77, 143 84, 129 84 M129 84 C88.4 84, 47.79 84, 21 84 M129 84 C87.45 84, 45.89 84, 21 84 M21 84 C7 84, 0 77, 0 63 M21 84 C7 84, 0 77, 0 63 M0 63 C0 52.47, 0 41.93, 0 21 M0 63 C0 50.92, 0 38.85, 0 21 M0 21 C0 7, 7 0, 21 0 M0 21 C0 7, 7 0, 21 0" stroke="#1e1e1e" stroke-width="1" fill="none"></path></g><g transform="translate(651.6926853179932 222.97422602351764) rotate(0 61.81640625 27.599999999999994)"><text x="61.81640625" y="0" font-family="Helvetica, Segoe UI Emoji" font-size="16px" fill="#1e1e1e" text-anchor="middle" style="white-space: pre;" direction="ltr" dominant-baseline="text-before-edge">Regista doenças </text><text x="61.81640625" y="18.4" font-family="Helvetica, Segoe UI Emoji" font-size="16px" fill="#1e1e1e" text-anchor="middle" style="white-space: pre;" direction="ltr" dominant-baseline="text-before-edge">e/ou pragas </text><text x="61.81640625" y="36.8" font-family="Helvetica, Segoe UI Emoji" font-size="16px" fill="#1e1e1e" text-anchor="middle" style="white-space: pre;" direction="ltr" dominant-baseline="text-before-edge">encontradas</text></g><g stroke-linecap="round" transform="translate(461.00909156799327 210.44348871883017) rotate(0 77.5 42)"><path d="M21 0 C62.26 0, 103.51 0, 134 0 M21 0 C58.75 0, 96.5 0, 134 0 M134 0 C148 0, 155 7, 155 21 M134 0 C148 0, 155 7, 155 21 M155 21 C155 33.77, 155 46.55, 155 63 M155 21 C155 33.06, 155 45.11, 155 63 M155 63 C155 77, 148 84, 134 84 M155 63 C155 77, 148 84, 134 84 M134 84 C100.59 84, 67.18 84, 21 84 M134 84 C101.1 84, 68.2 84, 21 84 M21 84 C7 84, 0 77, 0 63 M21 84 C7 84, 0 77, 0 63 M0 63 C0 51.97, 0 40.94, 0 21 M0 63 C0 49.47, 0 35.94, 0 21 M0 21 C0 7, 7 0, 21 0 M0 21 C0 7, 7 0, 21 0" stroke="#1e1e1e" stroke-width="1" fill="none"></path></g><g transform="translate(481.13409156799327 224.84348871883014) rotate(0 57.375 27.599999999999994)"><text x="57.375" y="0" font-family="Helvetica, Segoe UI Emoji" font-size="16px" fill="#1e1e1e" text-anchor="middle" style="white-space: pre;" direction="ltr" dominant-baseline="text-before-edge">Regista notas </text><text x="57.375" y="18.4" font-family="Helvetica, Segoe UI Emoji" font-size="16px" fill="#1e1e1e" text-anchor="middle" style="white-space: pre;" direction="ltr" dominant-baseline="text-before-edge">encontradas na </text><text x="57.375" y="36.8" font-family="Helvetica, Segoe UI Emoji" font-size="16px" fill="#1e1e1e" text-anchor="middle" style="white-space: pre;" direction="ltr" dominant-baseline="text-before-edge">inspeção</text></g><g stroke-linecap="round" transform="translate(290.63409156799327 110.33582270320522) rotate(0 76.5 29.5)"><path d="M14.75 0 C55.18 0, 95.61 0, 138.25 0 C148.08 0, 153 4.92, 153 14.75 C153 24.89, 153 35.03, 153 44.25 C153 54.08, 148.08 59, 138.25 59 C102.14 59, 66.04 59, 14.75 59 C4.92 59, 0 54.08, 0 44.25 C0 35.9, 0 27.56, 0 14.75 C0 4.92, 4.92 0, 14.75 0" stroke="none" stroke-width="0" fill="#ffec99"></path><path d="M14.75 0 C50.41 0, 86.08 0, 138.25 0 M14.75 0 C51.22 0, 87.69 0, 138.25 0 M138.25 0 C148.08 0, 153 4.92, 153 14.75 M138.25 0 C148.08 0, 153 4.92, 153 14.75 M153 14.75 C153 23.06, 153 31.38, 153 44.25 M153 14.75 C153 22.03, 153 29.3, 153 44.25 M153 44.25 C153 54.08, 148.08 59, 138.25 59 M153 44.25 C153 54.08, 148.08 59, 138.25 59 M138.25 59 C97.31 59, 56.36 59, 14.75 59 M138.25 59 C104.8 59, 71.34 59, 14.75 59 M14.75 59 C4.92 59, 0 54.08, 0 44.25 M14.75 59 C4.92 59, 0 54.08, 0 44.25 M0 44.25 C0 36.28, 0 28.31, 0 14.75 M0 44.25 C0 33.45, 0 22.65, 0 14.75 M0 14.75 C0 4.92, 4.92 0, 14.75 0 M0 14.75 C0 4.92, 4.92 0, 14.75 0" stroke="#1e1e1e" stroke-width="1" fill="none"></path></g><g transform="translate(295.98565406799327 130.63582270320524) rotate(0 71.1484375 9.200000000000003)"><text x="71.1484375" y="0" font-family="Helvetica, Segoe UI Emoji" font-size="16px" fill="#1e1e1e" text-anchor="middle" style="white-space: pre;" direction="ltr" dominant-baseline="text-before-edge">Escolha da Colmeia</text></g><g stroke-linecap="round" transform="translate(300.63409156799327 203.33582270320517) rotate(0 65.5 42)"><path d="M21 0 C46.47 0, 71.93 0, 110 0 M21 0 C55.02 0, 89.03 0, 110 0 M110 0 C124 0, 131 7, 131 21 M110 0 C124 0, 131 7, 131 21 M131 21 C131 34.89, 131 48.77, 131 63 M131 21 C131 37.76, 131 54.53, 131 63 M131 63 C131 77, 124 84, 110 84 M131 63 C131 77, 124 84, 110 84 M110 84 C83.07 84, 56.14 84, 21 84 M110 84 C75.95 84, 41.9 84, 21 84 M21 84 C7 84, 0 77, 0 63 M21 84 C7 84, 0 77, 0 63 M0 63 C0 51.05, 0 39.11, 0 21 M0 63 C0 53.11, 0 43.23, 0 21 M0 21 C0 7, 7 0, 21 0 M0 21 C0 7, 7 0, 21 0" stroke="#1e1e1e" stroke-width="1" fill="none"></path></g><g transform="translate(308.32159156799327 208.53582270320516) rotate(0 57.8125 36.79999999999998)"><text x="57.8125" y="0" font-family="Helvetica, Segoe UI Emoji" font-size="16px" fill="#1e1e1e" text-anchor="middle" style="white-space: pre;" direction="ltr" dominant-baseline="text-before-edge">Apresenta Lista </text><text x="57.8125" y="18.4" font-family="Helvetica, Segoe UI Emoji" font-size="16px" fill="#1e1e1e" text-anchor="middle" style="white-space: pre;" direction="ltr" dominant-baseline="text-before-edge">de Colmeias do </text><text x="57.8125" y="36.8" font-family="Helvetica, Segoe UI Emoji" font-size="16px" fill="#1e1e1e" text-anchor="middle" style="white-space: pre;" direction="ltr" dominant-baseline="text-before-edge">Apiário </text><text x="57.8125" y="55.199999999999996" font-family="Helvetica, Segoe UI Emoji" font-size="16px" fill="#1e1e1e" text-anchor="middle" style="white-space: pre;" direction="ltr" dominant-baseline="text-before-edge">selecionado</text></g><g stroke-linecap="round" transform="translate(303.13409156799327 300.33582270320517) rotate(0 64 23.5)"><path d="M11.75 0 C49.67 0, 87.59 0, 116.25 0 M11.75 0 C53.33 0, 94.9 0, 116.25 0 M116.25 0 C124.08 0, 128 3.92, 128 11.75 M116.25 0 C124.08 0, 128 3.92, 128 11.75 M128 11.75 C128 17, 128 22.25, 128 35.25 M128 11.75 C128 19.74, 128 27.74, 128 35.25 M128 35.25 C128 43.08, 124.08 47, 116.25 47 M128 35.25 C128 43.08, 124.08 47, 116.25 47 M116.25 47 C82.23 47, 48.22 47, 11.75 47 M116.25 47 C86 47, 55.75 47, 11.75 47 M11.75 47 C3.92 47, 0 43.08, 0 35.25 M11.75 47 C3.92 47, 0 43.08, 0 35.25 M0 35.25 C0 27.96, 0 20.66, 0 11.75 M0 35.25 C0 28.26, 0 21.27, 0 11.75 M0 11.75 C0 3.92, 3.92 0, 11.75 0 M0 11.75 C0 3.92, 3.92 0, 11.75 0" stroke="#1e1e1e" stroke-width="1" fill="none"></path></g><g transform="translate(336.45049781799327 305.4358227032052) rotate(0 30.68359375 18.400000000000006)"><text x="30.68359375" y="0" font-family="Helvetica, Segoe UI Emoji" font-size="16px" fill="#1e1e1e" text-anchor="middle" style="white-space: pre;" direction="ltr" dominant-baseline="text-before-edge">Escolhe </text><text x="30.68359375" y="18.4" font-family="Helvetica, Segoe UI Emoji" font-size="16px" fill="#1e1e1e" text-anchor="middle" style="white-space: pre;" direction="ltr" dominant-baseline="text-before-edge">Colmeia</text></g><g stroke-linecap="round" transform="translate(303.50909156799327 356.6691051739083) rotate(0 64 23.5)"><path d="M11.75 0 C45.14 0, 78.53 0, 116.25 0 M11.75 0 C51.57 0, 91.39 0, 116.25 0 M116.25 0 C124.08 0, 128 3.92, 128 11.75 M116.25 0 C124.08 0, 128 3.92, 128 11.75 M128 11.75 C128 19.47, 128 27.19, 128 35.25 M128 11.75 C128 19.32, 128 26.88, 128 35.25 M128 35.25 C128 43.08, 124.08 47, 116.25 47 M128 35.25 C128 43.08, 124.08 47, 116.25 47 M116.25 47 C94.09 47, 71.93 47, 11.75 47 M116.25 47 C77.87 47, 39.48 47, 11.75 47 M11.75 47 C3.92 47, 0 43.08, 0 35.25 M11.75 47 C3.92 47, 0 43.08, 0 35.25 M0 35.25 C0 30.26, 0 25.26, 0 11.75 M0 35.25 C0 27.37, 0 19.49, 0 11.75 M0 11.75 C0 3.92, 3.92 0, 11.75 0 M0 11.75 C0 3.92, 3.92 0, 11.75 0" stroke="#1e1e1e" stroke-width="1" fill="none"></path></g><g transform="translate(315.03252906799327 361.7691051739083) rotate(0 52.4765625 18.400000000000006)"><text x="52.4765625" y="0" font-family="Helvetica, Segoe UI Emoji" font-size="16px" fill="#1e1e1e" text-anchor="middle" style="white-space: pre;" direction="ltr" dominant-baseline="text-before-edge">Escolhe o tipo </text><text x="52.4765625" y="18.4" font-family="Helvetica, Segoe UI Emoji" font-size="16px" fill="#1e1e1e" text-anchor="middle" style="white-space: pre;" direction="ltr" dominant-baseline="text-before-edge">de inspeção</text></g><g transform="translate(329.175778579712 84.4677921856271) rotate(0 35.875 9.183999999999997)"><text x="0" y="0" font-family="Cascadia, Segoe UI Emoji" font-size="15.306666666666663px" fill="#e03131" text-anchor="start" style="white-space: pre;" direction="ltr" dominant-baseline="text-before-edge">Opcional</text></g><g transform="translate(118.50387306213389 706.9691356914864) rotate(0 18.671875 18.399999999999977)"><text x="0" y="0" font-family="Helvetica, Segoe UI Emoji" font-size="16px" fill="#1e1e1e" text-anchor="start" style="white-space: pre;" direction="ltr" dominant-baseline="text-before-edge">MVI2</text><text x="0" y="18.4" font-family="Helvetica, Segoe UI Emoji" font-size="16px" fill="#1e1e1e" text-anchor="start" style="white-space: pre;" direction="ltr" dominant-baseline="text-before-edge"></text></g><g stroke-linecap="round"><g transform="translate(117.7667501532514 690.035792185627) rotate(0 884.7045142132304 0)"><path d="M0 0 C294.9 0, 1474.51 0, 1769.41 0 M0 0 C294.9 0, 1474.51 0, 1769.41 0" stroke="#1e1e1e" stroke-width="1" fill="none"></path></g><g transform="translate(117.7667501532514 690.035792185627) rotate(0 884.7045142132304 0)"><path d="M1745.92 8.55 C1755.18 5.18, 1764.44 1.81, 1769.41 0 M1745.92 8.55 C1750.73 6.8, 1755.55 5.04, 1769.41 0" stroke="#1e1e1e" stroke-width="1" fill="none"></path></g><g transform="translate(117.7667501532514 690.035792185627) rotate(0 884.7045142132304 0)"><path d="M1745.92 -8.55 C1755.18 -5.18, 1764.44 -1.81, 1769.41 0 M1745.92 -8.55 C1750.73 -6.8, 1755.55 -5.04, 1769.41 0" stroke="#1e1e1e" stroke-width="1" fill="none"></path></g></g><mask></mask></svg>