<?xml version="1.0" encoding="UTF-8" standalone="no"?><svg xmlns="http://www.w3.org/2000/svg" xmlns:xlink="http://www.w3.org/1999/xlink" contentStyleType="text/css" height="358px" preserveAspectRatio="none" style="width:1253px;height:358px;background:#FFFFFF;" version="1.1" viewBox="0 0 1253 358" width="1253px" zoomAndPan="magnify"><defs/><g><!--MD5=[a5a251e750cd14805859e0ffe256b9ee]
class Crest--><g id="elem_Crest"><rect codeLine="2" fill="#F1F1F1" height="48" id="Crest" rx="2.5" ry="2.5" style="stroke:#181818;stroke-width:0.5;" width="68" x="283.5" y="7"/><ellipse cx="298.5" cy="23" fill="#ADD1B2" rx="11" ry="11" style="stroke:#181818;stroke-width:1.0;"/><path d="M302.1143,29.5 L294.3945,29.5 L294.3945,17.1069 L302.1143,17.1069 L302.1143,19.2651 L296.8433,19.2651 L296.8433,21.938 L301.6162,21.938 L301.6162,24.0962 L296.8433,24.0962 L296.8433,27.3418 L302.1143,27.3418 Z " fill="#000000"/><text fill="#000000" font-family="sans-serif" font-size="14" lengthAdjust="spacing" textLength="36" x="312.5" y="28.291">Crest</text><line style="stroke:#181818;stroke-width:0.5;" x1="284.5" x2="350.5" y1="39" y2="39"/><line style="stroke:#181818;stroke-width:0.5;" x1="284.5" x2="350.5" y1="47" y2="47"/></g><!--MD5=[e9a0758e5b213084093c0f87be098a44]
class Unfolding--><g id="elem_Unfolding"><rect codeLine="3" fill="#F1F1F1" height="48" id="Unfolding" rx="2.5" ry="2.5" style="stroke:#181818;stroke-width:0.5;" width="100" x="434.5" y="7"/><ellipse cx="449.5" cy="23" fill="#ADD1B2" rx="11" ry="11" style="stroke:#181818;stroke-width:1.0;"/><path d="M453.1143,29.5 L445.3945,29.5 L445.3945,17.1069 L453.1143,17.1069 L453.1143,19.2651 L447.8433,19.2651 L447.8433,21.938 L452.6162,21.938 L452.6162,24.0962 L447.8433,24.0962 L447.8433,27.3418 L453.1143,27.3418 Z " fill="#000000"/><text fill="#000000" font-family="sans-serif" font-size="14" lengthAdjust="spacing" textLength="68" x="463.5" y="28.291">Unfolding</text><line style="stroke:#181818;stroke-width:0.5;" x1="435.5" x2="533.5" y1="39" y2="39"/><line style="stroke:#181818;stroke-width:0.5;" x1="435.5" x2="533.5" y1="47" y2="47"/></g><!--MD5=[7f2cc02ed63da77de9f425da369d86e2]
class TR--><g id="elem_TR"><rect codeLine="4" fill="#F1F1F1" height="48" id="TR" rx="2.5" ry="2.5" style="stroke:#181818;stroke-width:0.5;" width="193" x="7" y="7"/><ellipse cx="22" cy="23" fill="#ADD1B2" rx="11" ry="11" style="stroke:#181818;stroke-width:1.0;"/><path d="M25.6143,29.5 L17.8945,29.5 L17.8945,17.1069 L25.6143,17.1069 L25.6143,19.2651 L20.3433,19.2651 L20.3433,21.938 L25.1162,21.938 L25.1162,24.0962 L20.3433,24.0962 L20.3433,27.3418 L25.6143,27.3418 Z " fill="#000000"/><text fill="#000000" font-family="sans-serif" font-size="14" lengthAdjust="spacing" textLength="161" x="36" y="28.291">Transhumance Request</text><line style="stroke:#181818;stroke-width:0.5;" x1="8" x2="199" y1="39" y2="39"/><line style="stroke:#181818;stroke-width:0.5;" x1="8" x2="199" y1="47" y2="47"/></g><!--MD5=[1f1a18b8128c46004167f2eb357dc2be]
class Inspection--><g id="elem_Inspection"><rect codeLine="5" fill="#F1F1F1" height="48" id="Inspection" rx="2.5" ry="2.5" style="stroke:#181818;stroke-width:0.5;" width="103" x="618" y="7"/><ellipse cx="633" cy="23" fill="#ADD1B2" rx="11" ry="11" style="stroke:#181818;stroke-width:1.0;"/><path d="M636.6143,29.5 L628.8945,29.5 L628.8945,17.1069 L636.6143,17.1069 L636.6143,19.2651 L631.3433,19.2651 L631.3433,21.938 L636.1162,21.938 L636.1162,24.0962 L631.3433,24.0962 L631.3433,27.3418 L636.6143,27.3418 Z " fill="#000000"/><text fill="#000000" font-family="sans-serif" font-size="14" lengthAdjust="spacing" textLength="71" x="647" y="28.291">Inspection</text><line style="stroke:#181818;stroke-width:0.5;" x1="619" x2="720" y1="39" y2="39"/><line style="stroke:#181818;stroke-width:0.5;" x1="619" x2="720" y1="47" y2="47"/></g><!--MD5=[36305d04957ea2e8b3c3623793cb79eb]
class Hive--><g id="elem_Hive"><rect codeLine="6" fill="#F1F1F1" height="48" id="Hive" rx="2.5" ry="2.5" style="stroke:#181818;stroke-width:0.5;" width="61" x="388" y="155"/><ellipse cx="403" cy="171" fill="#ADD1B2" rx="11" ry="11" style="stroke:#181818;stroke-width:1.0;"/><path d="M406.6143,177.5 L398.8945,177.5 L398.8945,165.1069 L406.6143,165.1069 L406.6143,167.2651 L401.3433,167.2651 L401.3433,169.938 L406.1162,169.938 L406.1162,172.0962 L401.3433,172.0962 L401.3433,175.3418 L406.6143,175.3418 Z " fill="#000000"/><text fill="#000000" font-family="sans-serif" font-size="14" lengthAdjust="spacing" textLength="29" x="417" y="176.291">Hive</text><line style="stroke:#181818;stroke-width:0.5;" x1="389" x2="448" y1="187" y2="187"/><line style="stroke:#181818;stroke-width:0.5;" x1="389" x2="448" y1="195" y2="195"/></g><!--MD5=[2c1d549dac75235c8d9125967b6956d9]
class Apiary--><g id="elem_Apiary"><rect codeLine="7" fill="#F1F1F1" height="48" id="Apiary" rx="2.5" ry="2.5" style="stroke:#181818;stroke-width:0.5;" width="76" x="537.5" y="303"/><ellipse cx="552.5" cy="319" fill="#ADD1B2" rx="11" ry="11" style="stroke:#181818;stroke-width:1.0;"/><path d="M556.1143,325.5 L548.3945,325.5 L548.3945,313.1069 L556.1143,313.1069 L556.1143,315.2651 L550.8433,315.2651 L550.8433,317.938 L555.6162,317.938 L555.6162,320.0962 L550.8433,320.0962 L550.8433,323.3418 L556.1143,323.3418 Z " fill="#000000"/><text fill="#000000" font-family="sans-serif" font-size="14" lengthAdjust="spacing" textLength="44" x="566.5" y="324.291">Apiary</text><line style="stroke:#181818;stroke-width:0.5;" x1="538.5" x2="612.5" y1="335" y2="335"/><line style="stroke:#181818;stroke-width:0.5;" x1="538.5" x2="612.5" y1="343" y2="343"/></g><!--MD5=[e9ca48bc411991307afe7947fa18f6a7]
class Beekeeper--><g id="elem_Beekeeper"><rect codeLine="8" fill="#F1F1F1" height="48" id="Beekeeper" rx="2.5" ry="2.5" style="stroke:#181818;stroke-width:0.5;" width="103" x="849" y="155"/><ellipse cx="864" cy="171" fill="#ADD1B2" rx="11" ry="11" style="stroke:#181818;stroke-width:1.0;"/><path d="M867.6143,177.5 L859.8945,177.5 L859.8945,165.1069 L867.6143,165.1069 L867.6143,167.2651 L862.3433,167.2651 L862.3433,169.938 L867.1162,169.938 L867.1162,172.0962 L862.3433,172.0962 L862.3433,175.3418 L867.6143,175.3418 Z " fill="#000000"/><text fill="#000000" font-family="sans-serif" font-size="14" lengthAdjust="spacing" textLength="71" x="878" y="176.291">Beekeeper</text><line style="stroke:#181818;stroke-width:0.5;" x1="850" x2="951" y1="187" y2="187"/><line style="stroke:#181818;stroke-width:0.5;" x1="850" x2="951" y1="195" y2="195"/></g><!--MD5=[ad801415d4a054e52db0882645a380ef]
class Zone--><g id="elem_Zone"><rect codeLine="9" fill="#F1F1F1" height="48" id="Zone" rx="2.5" ry="2.5" style="stroke:#181818;stroke-width:0.5;" width="66" x="699.5" y="155"/><ellipse cx="714.5" cy="171" fill="#ADD1B2" rx="11" ry="11" style="stroke:#181818;stroke-width:1.0;"/><path d="M718.1143,177.5 L710.3945,177.5 L710.3945,165.1069 L718.1143,165.1069 L718.1143,167.2651 L712.8433,167.2651 L712.8433,169.938 L717.6162,169.938 L717.6162,172.0962 L712.8433,172.0962 L712.8433,175.3418 L718.1143,175.3418 Z " fill="#000000"/><text fill="#000000" font-family="sans-serif" font-size="14" lengthAdjust="spacing" textLength="34" x="728.5" y="176.291">Zone</text><line style="stroke:#181818;stroke-width:0.5;" x1="700.5" x2="764.5" y1="187" y2="187"/><line style="stroke:#181818;stroke-width:0.5;" x1="700.5" x2="764.5" y1="195" y2="195"/></g><!--MD5=[3fd616f346a44cd59a91eb10b19e157c]
class User--><g id="elem_User"><rect codeLine="10" fill="#F1F1F1" height="48" id="User" rx="2.5" ry="2.5" style="stroke:#181818;stroke-width:0.5;" width="63" x="869" y="7"/><ellipse cx="884" cy="23" fill="#ADD1B2" rx="11" ry="11" style="stroke:#181818;stroke-width:1.0;"/><path d="M887.6143,29.5 L879.8945,29.5 L879.8945,17.1069 L887.6143,17.1069 L887.6143,19.2651 L882.3433,19.2651 L882.3433,21.938 L887.1162,21.938 L887.1162,24.0962 L882.3433,24.0962 L882.3433,27.3418 L887.6143,27.3418 Z " fill="#000000"/><text fill="#000000" font-family="sans-serif" font-size="14" lengthAdjust="spacing" textLength="31" x="898" y="28.291">User</text><line style="stroke:#181818;stroke-width:0.5;" x1="870" x2="931" y1="39" y2="39"/><line style="stroke:#181818;stroke-width:0.5;" x1="870" x2="931" y1="47" y2="47"/></g><!--MD5=[41a810bb8b0fdc0d19f320c9a7e75908]
class Disease--><g id="elem_Disease"><rect codeLine="11" fill="#F1F1F1" height="48" id="Disease" rx="2.5" ry="2.5" style="stroke:#181818;stroke-width:0.5;" width="84" x="532.5" y="155"/><ellipse cx="547.5" cy="171" fill="#ADD1B2" rx="11" ry="11" style="stroke:#181818;stroke-width:1.0;"/><path d="M551.1143,177.5 L543.3945,177.5 L543.3945,165.1069 L551.1143,165.1069 L551.1143,167.2651 L545.8433,167.2651 L545.8433,169.938 L550.6162,169.938 L550.6162,172.0962 L545.8433,172.0962 L545.8433,175.3418 L551.1143,175.3418 Z " fill="#000000"/><text fill="#000000" font-family="sans-serif" font-size="14" lengthAdjust="spacing" textLength="52" x="561.5" y="176.291">Disease</text><line style="stroke:#181818;stroke-width:0.5;" x1="533.5" x2="615.5" y1="187" y2="187"/><line style="stroke:#181818;stroke-width:0.5;" x1="533.5" x2="615.5" y1="195" y2="195"/></g><!--MD5=[42f02ca6c4bcb9ea5295e96d0fc2ba59]
class AnnualInventoryDeclaration--><g id="elem_AnnualInventoryDeclaration"><rect codeLine="12" fill="#F1F1F1" height="48" id="AnnualInventoryDeclaration" rx="2.5" ry="2.5" style="stroke:#181818;stroke-width:0.5;" width="231" x="1015" y="7"/><ellipse cx="1030" cy="23" fill="#ADD1B2" rx="11" ry="11" style="stroke:#181818;stroke-width:1.0;"/><path d="M1033.6143,29.5 L1025.8945,29.5 L1025.8945,17.1069 L1033.6143,17.1069 L1033.6143,19.2651 L1028.3433,19.2651 L1028.3433,21.938 L1033.1162,21.938 L1033.1162,24.0962 L1028.3433,24.0962 L1028.3433,27.3418 L1033.6143,27.3418 Z " fill="#000000"/><text fill="#000000" font-family="sans-serif" font-size="14" lengthAdjust="spacing" textLength="199" x="1044" y="28.291">Annual Inventory Declaration</text><line style="stroke:#181818;stroke-width:0.5;" x1="1016" x2="1245" y1="39" y2="39"/><line style="stroke:#181818;stroke-width:0.5;" x1="1016" x2="1245" y1="47" y2="47"/></g><!--MD5=[d426b684d0bfb5e315327e16bff4ce54]
class ApiaryInformation--><g id="elem_ApiaryInformation"><rect codeLine="13" fill="#F1F1F1" height="48" id="ApiaryInformation" rx="2.5" ry="2.5" style="stroke:#181818;stroke-width:0.5;" width="161" x="1050" y="155"/><ellipse cx="1065" cy="171" fill="#ADD1B2" rx="11" ry="11" style="stroke:#181818;stroke-width:1.0;"/><path d="M1068.6143,177.5 L1060.8945,177.5 L1060.8945,165.1069 L1068.6143,165.1069 L1068.6143,167.2651 L1063.3433,167.2651 L1063.3433,169.938 L1068.1162,169.938 L1068.1162,172.0962 L1063.3433,172.0962 L1063.3433,175.3418 L1068.6143,175.3418 Z " fill="#000000"/><text fill="#000000" font-family="sans-serif" font-size="14" lengthAdjust="spacing" textLength="129" x="1079" y="176.291">Apiary Information</text><line style="stroke:#181818;stroke-width:0.5;" x1="1051" x2="1210" y1="187" y2="187"/><line style="stroke:#181818;stroke-width:0.5;" x1="1051" x2="1210" y1="195" y2="195"/></g><!--MD5=[b9f5fbcba1135cd65462809b99df6e0b]
reverse link Zone to Apiary--><g id="link_Zone_Apiary"><path codeLine="15" d="M703.34,207.11 C673.63,234.74 628.07,277.11 600.12,303.11 " fill="none" id="Zone-backto-Apiary" style="stroke:#181818;stroke-width:1.0;"/><polygon fill="#181818" points="706.86,203.84,697.545,207.0385,703.1981,207.2444,702.9921,212.8976,706.86,203.84" style="stroke:#181818;stroke-width:1.0;"/><text fill="#000000" font-family="sans-serif" font-size="13" lengthAdjust="spacing" textLength="8" x="683.2086" y="210.0517">1</text><text fill="#000000" font-family="sans-serif" font-size="13" lengthAdjust="spacing" textLength="8" x="597.6616" y="292.284">1</text></g><!--MD5=[9d83cf5e32fa1a848fbf62b124e9a385]
reverse link User to Beekeeper--><g id="link_User_Beekeeper"><path codeLine="16" d="M900.5,61.21 C900.5,88.93 900.5,130.02 900.5,155.35 " fill="none" id="User-backto-Beekeeper" style="stroke:#181818;stroke-width:1.0;"/><polygon fill="#181818" points="900.5,56.33,896.5,65.33,900.5,61.33,904.5,65.33,900.5,56.33" style="stroke:#181818;stroke-width:1.0;"/><text fill="#000000" font-family="sans-serif" font-size="13" lengthAdjust="spacing" textLength="8" x="886.8" y="75.8414">1</text><text fill="#000000" font-family="sans-serif" font-size="13" lengthAdjust="spacing" textLength="8" x="891.375" y="144.2011">1</text></g><!--MD5=[2e7ad95c13b1e0f1b59f99bf35860163]
reverse link Beekeeper to Apiary--><g id="link_Beekeeper_Apiary"><path codeLine="17" d="M845.64,205.53 C833.12,211.31 819.86,217.4 807.5,223 C739.26,253.92 659.35,289.2 613.35,309.41 " fill="none" id="Beekeeper-backto-Apiary" style="stroke:#181818;stroke-width:1.0;"/><polygon fill="#181818" points="849.96,203.54,840.1124,203.6974,845.424,205.6435,843.4779,210.955,849.96,203.54" style="stroke:#181818;stroke-width:1.0;"/><text fill="#000000" font-family="sans-serif" font-size="13" lengthAdjust="spacing" textLength="8" x="832.8622" y="203.7277">1</text><text fill="#000000" font-family="sans-serif" font-size="13" lengthAdjust="spacing" textLength="6" x="621.7256" y="296.6928">*</text></g><!--MD5=[6b6caa5a7d83ae3d5a4338a3d85f7de5]
link Hive to Apiary--><g id="link_Hive_Apiary"><path codeLine="18" d="M443.03,202.81 C470.95,228.77 516.51,271.14 546.25,298.8 " fill="none" id="Hive-to-Apiary" style="stroke:#181818;stroke-width:1.0;"/><polygon fill="#181818" points="549.77,302.08,545.9021,293.0224,546.1081,298.6756,540.455,298.8815,549.77,302.08" style="stroke:#181818;stroke-width:1.0;"/><text fill="#000000" font-family="sans-serif" font-size="13" lengthAdjust="spacing" textLength="6" x="456.9452" y="215.6087">*</text><text fill="#000000" font-family="sans-serif" font-size="13" lengthAdjust="spacing" textLength="8" x="535.1884" y="292.284">1</text></g><!--MD5=[63f05b470f254a56ddc9fa2735dbdad5]
link Unfolding to Hive--><g id="link_Unfolding_Hive"><path codeLine="19" d="M474.19,54.81 C462.61,80.42 443.82,122 431.31,149.67 " fill="none" id="Unfolding-to-Hive" style="stroke:#181818;stroke-width:1.0;"/><polygon fill="#181818" points="429.36,153.97,436.7087,147.4128,431.4172,149.4128,429.4171,144.1213,429.36,153.97" style="stroke:#181818;stroke-width:1.0;"/><text fill="#000000" font-family="sans-serif" font-size="13" lengthAdjust="spacing" textLength="6" x="449.2233" y="75.8414">*</text><text fill="#000000" font-family="sans-serif" font-size="13" lengthAdjust="spacing" textLength="8" x="422.495" y="144.2011">1</text></g><!--MD5=[374dea5319e2dab3d130fdbbbacbe20e]
link Crest to Hive--><g id="link_Crest_Hive"><path codeLine="20" d="M333.28,54.81 C351.07,80.53 380,122.34 399.14,150.01 " fill="none" id="Crest-to-Hive" style="stroke:#181818;stroke-width:1.0;"/><polygon fill="#181818" points="401.97,154.1,400.1446,144.4218,399.1277,149.9865,393.563,148.9695,401.97,154.1" style="stroke:#181818;stroke-width:1.0;"/><text fill="#000000" font-family="sans-serif" font-size="13" lengthAdjust="spacing" textLength="6" x="345.4915" y="75.8414">*</text><text fill="#000000" font-family="sans-serif" font-size="13" lengthAdjust="spacing" textLength="8" x="389.2978" y="144.2011">1</text></g><!--MD5=[ed0b73489f369e6042e0b8e65a0e9225]
link Inspection to Disease--><g id="link_Inspection_Disease"><path codeLine="21" d="M654.66,54.81 C637.92,80.53 610.71,122.34 592.71,150.01 " fill="none" id="Inspection-to-Disease" style="stroke:#181818;stroke-width:1.0;"/><polygon fill="#181818" points="590.06,154.08,598.3257,148.7249,592.7905,149.8914,591.6239,144.3561,590.06,154.08" style="stroke:#181818;stroke-width:1.0;"/><text fill="#000000" font-family="sans-serif" font-size="13" lengthAdjust="spacing" textLength="6" x="623.238" y="75.8414">*</text><text fill="#000000" font-family="sans-serif" font-size="13" lengthAdjust="spacing" textLength="6" x="586.5419" y="144.2011">*</text></g><!--MD5=[4178565581f10a5646abe1bec2cf244d]
link Inspection to Hive--><g id="link_Inspection_Hive"><path codeLine="22" d="M629.23,54.93 C592.88,75.68 537.98,107.17 490.5,135 C478.73,141.9 465.94,149.5 454.44,156.38 " fill="none" id="Inspection-to-Hive" style="stroke:#181818;stroke-width:1.0;"/><polygon fill="#181818" points="450.21,158.91,459.9854,157.7095,454.4975,156.3375,455.8695,150.8496,450.21,158.91" style="stroke:#181818;stroke-width:1.0;"/><text fill="#000000" font-family="sans-serif" font-size="13" lengthAdjust="spacing" textLength="6" x="604.2994" y="59.7544">*</text><text fill="#000000" font-family="sans-serif" font-size="13" lengthAdjust="spacing" textLength="8" x="453.7849" y="144.2642">1</text></g><!--MD5=[fdd7de1d6a6f300fb1308299c1606e70]
link TR to Apiary--><g id="link_TR_Apiary"><path codeLine="23" d="M128.24,54.82 C170.57,93.07 260.66,171.03 346.5,223 C407.65,260.02 484.43,291.88 531.71,310 " fill="none" id="TR-to-Apiary" style="stroke:#181818;stroke-width:1.0;"/><polygon fill="#181818" points="536.2,311.71,529.203,304.7788,531.5248,309.9372,526.3665,312.259,536.2,311.71" style="stroke:#181818;stroke-width:1.0;"/><text fill="#000000" font-family="sans-serif" font-size="13" lengthAdjust="spacing" textLength="6" x="153.2195" y="75.8656">*</text><text fill="#000000" font-family="sans-serif" font-size="13" lengthAdjust="spacing" textLength="8" x="521.3749" y="305.4565">1</text></g><!--MD5=[58862202ac3afe83f3fc909c1daa5a06]
link TR to Hive--><g id="link_TR_Hive"><path codeLine="24" d="M153.07,54.97 C216.88,84.55 326.26,135.25 382.61,161.37 " fill="none" id="TR-to-Hive" style="stroke:#181818;stroke-width:1.0;"/><polygon fill="#181818" points="386.85,163.33,380.359,155.9228,382.3115,161.232,377.0022,163.1844,386.85,163.33" style="stroke:#181818;stroke-width:1.0;"/><text fill="#000000" font-family="sans-serif" font-size="13" lengthAdjust="spacing" textLength="6" x="208.7753" y="74.5668">*</text><text fill="#000000" font-family="sans-serif" font-size="13" lengthAdjust="spacing" textLength="6" x="374.1204" y="156.0845">*</text></g><!--MD5=[331247186c899fef00ba52844b2cb2b8]
reverse link AnnualInventoryDeclaration to ApiaryInformation--><g id="link_AnnualInventoryDeclaration_ApiaryInformation"><path codeLine="26" d="M1130.5,61.21 C1130.5,88.93 1130.5,130.02 1130.5,155.35 " fill="none" id="AnnualInventoryDeclaration-backto-ApiaryInformation" style="stroke:#181818;stroke-width:1.0;"/><polygon fill="#181818" points="1130.5,56.33,1126.5,65.33,1130.5,61.33,1134.5,65.33,1130.5,56.33" style="stroke:#181818;stroke-width:1.0;"/><text fill="#000000" font-family="sans-serif" font-size="13" lengthAdjust="spacing" textLength="8" x="1116.8" y="75.8414">1</text><text fill="#000000" font-family="sans-serif" font-size="13" lengthAdjust="spacing" textLength="6" x="1123.6563" y="144.2011">*</text></g><!--MD5=[1a34e6895ab3fb3a20edf3463dfe03bd]
@startuml md

entity Crest as "Crest"
entity Unfolding as "Unfolding"
entity TR as "Transhumance Request"
entity Inspection as "Inspection"
entity Hive as "Hive"
entity Apiary as "Apiary"
entity Beekeeper as "Beekeeper"
entity Zone as "Zone"
entity User as "User"
entity Disease as "Disease"
entity AnnualInventoryDeclaration as "Annual Inventory Declaration"
entity ApiaryInformation as "Apiary Information"

Zone "1" <- - "1" Apiary
User "1" <- - "1" Beekeeper
Beekeeper "1" <- - "*" Apiary
Hive "*" - ->  "1" Apiary
Unfolding "*" - -> "1" Hive
Crest "*" - -> "1" Hive
Inspection "*" - -> "*" Disease
Inspection "*" - -> "1" Hive
TR "*" - -> "1" Apiary
TR "*" - -> "*" Hive

AnnualInventoryDeclaration "1" <- - "*" ApiaryInformation




@enduml

PlantUML version 1.2022.7(Mon Aug 22 18:01:30 WEST 2022)
(GPL source distribution)
Java Runtime: OpenJDK Runtime Environment
JVM: OpenJDK 64-Bit Server VM
Default Encoding: UTF-8
Language: pt
Country: PT
--></g></svg>